# generated by mjcf2godot
v 0.015898363 0.022582972 0.018531754
v 0.018318022 0.022569795 0.018524202
v 0.015909607 0.023794006 0.02002123
v 0.018329266 0.023780828 0.020013678
v 0.015863173 0.024342414 0.017049743
v 0.015874887 0.025604102 0.018601519
v 0.018374838 0.025590487 0.018593717
v 0.018363123 0.0243288 0.017041941
v -0.015481311 0.022753863 0.018629694
v -0.015470067 0.023964897 0.02011917
v -0.017900969 0.02276704 0.018637246
v -0.017889725 0.023978074 0.020126722
v -0.017936161 0.024526483 0.017155235
v -0.017924447 0.02578817 0.018707011
v 0.02262222 0.024305605 0.017028647
v 0.022635766 0.025452868 0.016062007
v 0.022760722 0.025455476 0.016065661
v 0.022747175 0.024308212 0.017032301
v 0.022884869 0.025464642 0.016077379
v 0.022871324 0.024317379 0.017044019
v 0.023007345 0.0254803 0.016097074
v 0.022993801 0.024333039 0.017063717
v 0.023127299 0.025502345 0.016124616
v 0.023113755 0.024355084 0.017091259
v 0.023243899 0.025530622 0.01615981
v 0.023230354 0.024383361 0.017126453
v 0.023356331 0.025564936 0.016202415
v 0.023342787 0.024417672 0.017169055
v 0.023463819 0.025605044 0.016252128
v 0.023450272 0.024457783 0.017218771
v 0.02356561 0.025650673 0.016308611
v 0.023552066 0.02450341 0.017275251
v 0.023661002 0.025701503 0.016371467
v 0.023647457 0.02455424 0.017338107
v -0.023215775 0.024809453 0.017484374
v -0.023222857 0.025956829 0.016517798
v -0.023128419 0.025904965 0.016454349
v -0.023121337 0.02475759 0.017420925
v -0.023027485 0.025858232 0.016397233
v -0.023020401 0.024710859 0.017363812
v -0.022920753 0.025816957 0.016346852
v -0.022913671 0.024669581 0.017313427
v -0.022808969 0.025781422 0.016303547
v -0.022801887 0.024634049 0.017270126
v -0.022692906 0.025751878 0.016267626
v -0.022685824 0.024604505 0.017234205
v -0.022573373 0.025728529 0.016239337
v -0.022566292 0.024581155 0.017205916
v -0.0224512 0.025711539 0.016218879
v -0.022444118 0.024564163 0.017185454
v -0.022327236 0.025701021 0.016206386
v -0.022320152 0.024553646 0.017172962
v -0.022202342 0.025697053 0.016201953
v -0.022195258 0.024549678 0.017168529
v 0.0037518411 0.02857215 0.022208525
v 0.0037291971 0.029752647 0.02128263
v 0.0035984398 0.029749758 0.02127861
v 0.0036210837 0.028569261 0.022204505
v 0.0034686137 0.029739692 0.021265765
v 0.003491258 0.028559197 0.022191663
v 0.0033407069 0.029722525 0.021244193
v 0.0033633509 0.028542028 0.022170089
v 0.0032156922 0.029698385 0.021214057
v 0.0032383362 0.02851789 0.022139956
v 0.0031772115 0.028503262 0.022121746
v 0.0031545676 0.029683759 0.02119585
v 0.0031171646 0.028486966 0.022101489
v 0.0030945206 0.029667461 0.02117559
v 0.0030583094 0.028469028 0.022079217
v 0.0030356654 0.029649525 0.021153321
v 0.0030007581 0.028449487 0.022054978
v 0.0029781139 0.029629984 0.021129082
v 0.00294462 0.02842838 0.022028818
v 0.0029219758 0.029608875 0.021102919
v 0.0028900022 0.028405744 0.022000783
v 0.002867358 0.029586239 0.021074884
v 0.0028370084 0.028381624 0.021970928
v 0.0028143641 0.029562119 0.021045029
v 0.0027857393 0.028356065 0.02193931
v 0.0027630953 0.02953656 0.021013411
v 0.002736293 0.028329117 0.02190599
v 0.0027136488 0.029509614 0.020980094
v 0.0026887629 0.02830083 0.02187103
v 0.0026661189 0.029481327 0.020945135
v 0.00264324 0.028271261 0.021834501
v 0.0026205961 0.029451756 0.020908602
v 0.0025998109 0.028240461 0.021796465
v 0.0025771666 0.029420956 0.020870566
v 0.0025585579 0.028208493 0.021757
v 0.0025359137 0.029388987 0.020831101
v 0.0025195594 0.028175414 0.021716178
v 0.0024969154 0.029355909 0.020790279
v 0.00248289 0.02814129 0.021674077
v 0.0024602461 0.029321787 0.020748181
v 0.0024486196 0.028106186 0.021630781
v 0.0024259754 0.02928668 0.020704882
v 0.002416813 0.028070166 0.021586366
v 0.0023941688 0.029250663 0.020660471
v 0.0023875308 0.028033303 0.021540924
v 0.0023648866 0.029213798 0.020615026
v 0.0023608288 0.027995662 0.021494534
v 0.0023381848 0.029176157 0.020568636
v 0.0023367577 0.027957318 0.02144729
v 0.0023141138 0.029137813 0.020521391
v 0.0022740427 0.029059306 0.020424694
v 0.0022966869 0.027878812 0.021350592
v 0.0022449789 0.028978874 0.020325667
v 0.0022676229 0.027798379 0.021251566
v 0.0022271429 0.028897128 0.020225065
v 0.0022497869 0.027716633 0.021150964
v 0.0022206706 0.028814693 0.020123655
v 0.0022433148 0.027634196 0.021049551
v 0.0022403836 0.027318486 0.020661254
v 0.0022177394 0.028498981 0.019735355
v 0.0022112671 0.028416546 0.019633946
v 0.0022339113 0.027236049 0.020559841
v 0.0021934314 0.0283348 0.019533343
v 0.0022160753 0.027154305 0.020459242
v 0.0021643673 0.028254367 0.019434317
v 0.0021870113 0.027073873 0.020360215
v 0.0021242965 0.028175861 0.01933762
v 0.0021469405 0.026995366 0.020263518
v 0.0021228696 0.026957023 0.020216273
v 0.0021002255 0.028137517 0.019290375
v 0.0020961675 0.026919382 0.020169884
v 0.0020735234 0.028099876 0.019243985
v 0.0020668853 0.026882516 0.020124438
v 0.0020442413 0.028063013 0.019198543
v 0.0020350787 0.026846499 0.020080027
v 0.0020124346 0.028026993 0.019154129
v 0.002000808 0.026811392 0.020036728
v 0.0019781641 0.02799189 0.019110832
v 0.0019641388 0.02677727 0.01999463
v 0.0019414947 0.027957765 0.019068731
v 0.0019251405 0.026744192 0.019953808
v 0.0019024964 0.027924687 0.019027909
v 0.0018838875 0.026712223 0.019914343
v 0.0018612434 0.027892718 0.018988444
v 0.0018404582 0.026681423 0.019876307
v 0.0018178141 0.027861918 0.018950408
v 0.0017949353 0.026651852 0.019839775
v 0.0017722912 0.027832349 0.018913879
v 0.0017474053 0.026623565 0.019804815
v 0.0017247613 0.027804062 0.01887892
v 0.0016979589 0.026596619 0.019771498
v 0.0016753148 0.027777114 0.018845599
v 0.00164669 0.026571061 0.01973988
v 0.0016240459 0.027751555 0.018813981
v 0.0015936961 0.02654694 0.019710025
v 0.001571052 0.027727435 0.018784126
v 0.0015390783 0.026524304 0.01968199
v 0.0015164342 0.027704799 0.018756092
v 0.0014829402 0.026503195 0.019655827
v 0.0014602961 0.027683692 0.018729932
v 0.0014253888 0.026483654 0.019631588
v 0.0014027447 0.027664151 0.018705693
v 0.0013665337 0.026465718 0.019609319
v 0.0013438896 0.027646213 0.01868342
v 0.0013064867 0.02644942 0.019589059
v 0.0012838426 0.027629917 0.018663163
v 0.0012453621 0.026434794 0.019570852
v 0.001222718 0.027615289 0.018644953
v 0.0010977032 0.027591149 0.018614817
v 0.0011203473 0.026410654 0.019540716
v 0.00096979633 0.027573982 0.018593246
v 0.00099244038 0.026393487 0.019519144
v 0.00083997035 0.027563915 0.018580401
v 0.00086261445 0.026383421 0.0195063
v 0.00070921303 0.027561029 0.018576384
v 0.00073185705 0.026380532 0.01950228
v -0.015424497 0.025774556 0.018699209
v -0.015436211 0.024512868 0.017147433
v -0.026131693 0.026550399 0.019615113
v -0.026146277 0.027702253 0.018654018
v 0.025155994 0.029032555 0.020473636
v 0.02515048 0.027885187 0.021440176
v 0.025063047 0.029025348 0.020464439
v 0.025055266 0.027877802 0.021430752
v 0.024971472 0.029013055 0.020448992
v 0.024961459 0.02786521 0.02141493
v 0.024881967 0.02899577 0.020427414
v 0.024869771 0.027847505 0.021392827
v 0.024795211 0.028973626 0.02039987
v 0.024780899 0.027824821 0.02136461
v 0.024711865 0.028946792 0.020366568
v 0.024695522 0.027797333 0.021330497
v 0.024632564 0.028915471 0.020327763
v 0.024614288 0.027765246 0.021290744
v 0.024557912 0.028879898 0.020283745
v 0.024537814 0.027728807 0.021245654
v 0.024488475 0.028840349 0.020234856
v 0.024466685 0.027688294 0.021195573
v 0.024424783 0.028797123 0.020181465
v 0.02440144 0.027644014 0.021140881
v 0.024367322 0.02875055 0.02012398
v 0.024342578 0.027596306 0.021081995
v 0.024316526 0.028700983 0.020062837
v 0.024290545 0.027545529 0.021019359
v 0.024272784 0.028648798 0.019998498
v 0.024245735 0.027492073 0.020953454
v 0.024236429 0.028594396 0.01993146
v 0.024208494 0.027436344 0.02088478
v 0.024207736 0.028538188 0.019862228
v 0.024179102 0.027378764 0.020813858
v 0.024186926 0.028480604 0.019791331
v 0.024157784 0.027319775 0.020741232
v 0.024174154 0.028422078 0.019719306
v 0.0241447 0.027259825 0.020667453
v 0.024169519 0.02836306 0.019646703
v 0.024139954 0.027199366 0.020593079
v 0.024173057 0.028303999 0.019574077
v 0.024143577 0.027138864 0.020518681
v 0.024184741 0.02824534 0.019501975
v 0.024155546 0.027078778 0.020444824
v 0.02420448 0.028187535 0.019430953
v 0.024175767 0.027019562 0.020372068
v 0.024232127 0.02813102 0.019361544
v 0.024204087 0.026961669 0.020300966
v 0.024267468 0.028076226 0.019294279
v 0.024240289 0.026905539 0.020232063
v 0.024310237 0.028023572 0.019229674
v 0.024284102 0.026851601 0.020165882
v 0.024360107 0.027973457 0.019168217
v 0.024335187 0.026800263 0.020102924
v 0.024416697 0.02792626 0.019110372
v 0.024393158 0.026751918 0.020043673
v 0.024479581 0.027882345 0.019056587
v 0.024457573 0.026706933 0.019988576
v 0.024548275 0.027842046 0.019007269
v 0.024527943 0.026665649 0.019938054
v 0.024622259 0.027805664 0.018962788
v 0.024603733 0.02662838 0.019892489
v 0.024700971 0.027773482 0.018923489
v 0.024684363 0.026595412 0.01985223
v 0.02478381 0.027745743 0.018889669
v 0.024769221 0.026566997 0.019817586
v 0.024870146 0.027722654 0.018861582
v 0.024857662 0.026543347 0.019788815
v 0.024959322 0.027704399 0.018839448
v 0.024949013 0.026524645 0.019766141
v 0.025050659 0.027691109 0.01882343
v 0.025042576 0.026511031 0.019749731
v 0.025143462 0.02768289 0.018813654
v 0.025137643 0.026502612 0.019739717
v 0.025237027 0.027679803 0.018810191
v 0.025233489 0.026499448 0.019736169
v 0.025330638 0.027681871 0.01881307
v 0.025329382 0.026501567 0.019739118
v 0.025423585 0.027689078 0.018822266
v 0.025424596 0.02650895 0.019748539
v 0.025515159 0.027701372 0.018837714
v 0.025518403 0.026521544 0.019764364
v 0.025604666 0.027718654 0.018859289
v 0.025610093 0.026539249 0.019786467
v 0.025691422 0.0277408 0.018886836
v 0.025698962 0.026561934 0.019814684
v 0.025774767 0.027767634 0.018920137
v 0.025784341 0.026589422 0.019848797
v 0.025854068 0.027798956 0.018958943
v 0.025865576 0.026621509 0.01988855
v 0.025928722 0.027834528 0.01900296
v 0.025942048 0.026657948 0.01993364
v 0.025998158 0.027874075 0.019051847
v 0.026013177 0.026698461 0.019983721
v 0.026061848 0.027917301 0.019105238
v 0.026078422 0.02674274 0.020038413
v 0.026119311 0.027963877 0.019162726
v 0.026137286 0.026790448 0.020097299
v 0.026170107 0.028013443 0.019223869
v 0.026189319 0.026841225 0.020159935
v 0.026213847 0.028065626 0.019288204
v 0.026234127 0.026894681 0.02022584
v 0.026250204 0.02812003 0.019355245
v 0.02627137 0.02695041 0.020294514
v 0.026278895 0.028176238 0.019424478
v 0.026300761 0.02700799 0.020365436
v 0.026299707 0.028233822 0.019495374
v 0.02632208 0.027066979 0.020438062
v 0.026312477 0.028292348 0.0195674
v 0.026335163 0.027126929 0.020511841
v 0.026317112 0.028351364 0.01964
v 0.02633991 0.027187386 0.020586212
v 0.026313574 0.028410427 0.019712628
v 0.026336286 0.02724789 0.020660613
v 0.026301892 0.028469086 0.01978473
v 0.026324318 0.027307977 0.02073447
v 0.026282151 0.028526891 0.019855753
v 0.026304096 0.027367192 0.020807226
v 0.026254506 0.028583406 0.019925162
v 0.026275777 0.027425086 0.020878327
v 0.026219163 0.028638198 0.019992424
v 0.026239573 0.027481215 0.020947231
v 0.026176397 0.028690855 0.020057032
v 0.026195762 0.027535153 0.021013412
v 0.026126526 0.028740969 0.020118489
v 0.026144677 0.027586492 0.02107637
v 0.026069934 0.028788164 0.02017633
v 0.026086704 0.027634836 0.021135621
v 0.026007053 0.028832079 0.020230116
v 0.026022289 0.027679822 0.021190718
v 0.025938358 0.02887238 0.020279437
v 0.025951919 0.027721106 0.02124124
v 0.025864372 0.028908762 0.020323918
v 0.025876131 0.027758374 0.021286805
v 0.02578566 0.028940944 0.020363217
v 0.025795501 0.027791342 0.021327064
v 0.025702823 0.028968684 0.020397037
v 0.025710641 0.027819757 0.021361708
v 0.025616487 0.02899177 0.020425121
v 0.025622201 0.027843407 0.021390479
v 0.02552731 0.029010028 0.020447257
v 0.025530849 0.027862109 0.021413153
v 0.025435973 0.029023317 0.020463275
v 0.025437286 0.027875721 0.02142956
v 0.025343169 0.029031536 0.020473052
v 0.025342219 0.027884143 0.021439577
v 0.025249606 0.029034624 0.020476514
v 0.025246375 0.027887304 0.021443122
v 0.026616536 0.027414911 0.018489338
v 0.026595407 0.026263252 0.019450545
v 0.026738604 0.027492012 0.0185846
v 0.026715897 0.026339355 0.019544574
v 0.026849773 0.027575419 0.018687579
v 0.026825631 0.026421684 0.019646222
v 0.026949236 0.02766452 0.01879752
v 0.026923807 0.026509637 0.019754745
v 0.027036266 0.027758672 0.018913628
v 0.027009712 0.02660257 0.01986935
v 0.027110228 0.027857187 0.019035054
v 0.027082718 0.026699811 0.019989207
v 0.027170586 0.027959343 0.019160911
v 0.027142296 0.026800649 0.020113439
v 0.027216897 0.028064401 0.019290285
v 0.02718801 0.026904349 0.020241142
v 0.027248825 0.028171593 0.019422234
v 0.027219526 0.027010154 0.020371384
v 0.027266139 0.028280136 0.019555792
v 0.027236615 0.027117296 0.020503217
v 0.027268709 0.028389242 0.019689989
v 0.027239151 0.027224992 0.02063568
v 0.027256519 0.028498115 0.019823848
v 0.027227119 0.027332459 0.020767809
v 0.027229658 0.028605959 0.019956387
v 0.027200605 0.027438909 0.020898637
v 0.02718832 0.028711993 0.020086649
v 0.0271598 0.027543572 0.021027214
v 0.027132807 0.02881544 0.020213679
v 0.027105005 0.027645683 0.021152604
v 0.027063524 0.028915548 0.020336553
v 0.027036617 0.027744496 0.021273888
v 0.026980975 0.029011587 0.020454375
v 0.026955136 0.027839295 0.021390189
v 0.026885763 0.029102856 0.020566285
v 0.026861153 0.027929385 0.021500653
v 0.026778581 0.029188691 0.020671468
v 0.026755358 0.028014112 0.021604479
v 0.02666021 0.029268466 0.02076916
v 0.026638515 0.028092857 0.021700909
v 0.026531513 0.029341602 0.020858649
v 0.026511482 0.028165046 0.021789239
v 0.026393428 0.029407563 0.020939279
v 0.026375182 0.028230153 0.021868826
v 0.026246961 0.029465867 0.021010464
v 0.026230608 0.028287707 0.021939094
v 0.026093181 0.029516094 0.021071687
v 0.026078813 0.028337284 0.021999525
v 0.025933205 0.029557875 0.021122501
v 0.025920905 0.028378525 0.022049682
v 0.025768203 0.029590906 0.021162534
v 0.025758035 0.028411128 0.022089197
v 0.025599374 0.029614944 0.021191495
v 0.025591389 0.028434856 0.022117784
v 0.025427952 0.029629819 0.021209176
v 0.025422181 0.028449538 0.022135236
v 0.025255184 0.029635418 0.021215444
v 0.025251646 0.028455063 0.022141422
v -0.024669632 0.026773858 0.019895172
v -0.024765527 0.026771739 0.019892222
v -0.024861371 0.026774902 0.01989577
v -0.0097381232 0.027219407 0.020496553
v -0.0097544397 0.027301336 0.020597258
v -0.023803254 0.027807444 0.021169465
v -0.023759441 0.027753506 0.021103284
v -0.025141353 0.026815638 0.019944869
v -0.025050001 0.026796936 0.019922194
v -0.024956438 0.026783321 0.019905785
v -0.025229793 0.026839288 0.019973639
v -0.025314653 0.026867703 0.020008283
v -0.025395283 0.026900671 0.020048542
v -0.0096485901 0.027021129 0.020253014
v -0.0096719467 0.027059731 0.020300406
v -0.009710556 0.027138666 0.020397349
v -0.008528739 0.026445339 0.019548861
v -0.0086563145 0.026463897 0.01957123
v -0.0087808686 0.026489396 0.019602145
v -0.023663852 0.02739922 0.020667894
v -0.023676936 0.02733927 0.020594115
v -0.023698254 0.027280281 0.020521489
v -0.024300051 0.026834224 0.019970737
v -0.024388923 0.02681154 0.01994252
v -0.010614376 0.028561747 0.022144347
v -0.010674115 0.028578695 0.022164978
v -0.025471071 0.02693794 0.020094107
v -0.025541441 0.026979223 0.02014463
v -0.026250757 0.026627807 0.01970989
v -0.025605856 0.027024209 0.020199726
v -0.026358952 0.026711323 0.019812218
v -0.025663829 0.027072553 0.020258977
v -0.026455485 0.026800336 0.019921349
v -0.025714914 0.027123892 0.020321935
v -0.026539655 0.026894196 0.020036485
v -0.025758725 0.02717783 0.020388116
v -0.026610849 0.026992222 0.020156792
v -0.025794929 0.027233959 0.02045702
v -0.023727646 0.027222701 0.020450567
v -0.023764887 0.027166972 0.020381893
v -0.023809697 0.027113516 0.020315989
v -0.02386173 0.027062739 0.020253353
v -0.023920592 0.027015031 0.020194467
v -0.023985837 0.026970752 0.020139774
v -0.024056966 0.026930239 0.020089693
v -0.024480611 0.026793835 0.019920417
v -0.024574418 0.026781241 0.019904592
v -0.008268423 0.026429547 0.019530371
v -0.008399113 0.026433859 0.019535207
v -0.0097593801 0.027383836 0.020698706
v -0.0097564489 0.027699545 0.021087004
v -0.0097613902 0.027782045 0.021188452
v -0.010734961 0.028593988 0.022183568
v -0.010859515 0.028619484 0.022214481
v -0.01098709 0.028638045 0.022236852
v -0.011116716 0.028649522 0.022250504
v -0.011247407 0.028653834 0.02225534
v -0.02474737 0.028727354 0.022297475
v -0.023976725 0.027952113 0.021346771
v -0.023723239 0.027697376 0.021034381
v -0.023694919 0.027639483 0.020963279
v -0.023674698 0.027580267 0.020890523
v -0.02413344 0.026893799 0.020044604
v -0.024214674 0.026861713 0.02000485
v -0.0092793556 0.026683616 0.019839231
v -0.0093263552 0.026712418 0.019874486
v -0.0093713248 0.026742482 0.0199113
v -0.0094141775 0.026773752 0.019949606
v -0.024752641 0.028159595 0.021599176
v -0.024656795 0.028156433 0.02159563
v -0.024376814 0.028115698 0.021546532
v -0.024288373 0.028092048 0.021517762
v -0.024203515 0.028063633 0.021483117
v -0.02391231 0.027907127 0.021291674
v -0.023854339 0.027858783 0.021232423
v -0.023662729 0.027520181 0.020816666
v -0.023659106 0.027459676 0.020742266
v -0.0091270848 0.026605325 0.019743486
v -0.0091796249 0.02663002 0.01977367
v -0.0092304149 0.026656134 0.019805607
v -0.0097777058 0.027863977 0.021289161
v -0.0098052739 0.027944718 0.021388364
v -0.0098438832 0.028023653 0.021485307
v -0.0098672398 0.028062255 0.0215327
v -0.0098932402 0.028100183 0.021579254
v -0.0099218349 0.028137361 0.021624877
v -0.024561728 0.028148012 0.021585613
v -0.024468165 0.0281344 0.021569207
v -0.024122885 0.028030665 0.021442859
v -0.024047095 0.027993396 0.021397294
v -0.0094548327 0.026806166 0.019989326
v -0.0094932128 0.026839666 0.02003039
v -0.0095292448 0.026874184 0.020072715
v -0.010442937 0.028501288 0.022070602
v -0.010498677 0.028523004 0.022097111
v -0.01055586 0.02854317 0.022121708
v -0.024848534 0.028157478 0.021596229
v -0.02491799 0.028723686 0.022292354
v -0.024943748 0.028150092 0.021586805
v -0.025087453 0.028710849 0.022275959
v -0.025037555 0.028137501 0.021570984
v -0.025254523 0.028688938 0.022248414
v -0.025129245 0.028119796 0.02154888
v -0.025417982 0.028658113 0.022209917
v -0.025218114 0.028097112 0.021520663
v -0.025576639 0.028618596 0.022160748
v -0.025303493 0.028069623 0.021486551
v -0.02572934 0.028570677 0.022101268
v -0.025384728 0.028037537 0.021446797
v -0.025874968 0.028514704 0.022031906
v -0.0254612 0.028001097 0.021401707
v -0.026012463 0.028451088 0.021953173
v -0.025532329 0.027960584 0.021351626
v -0.026140824 0.028380289 0.02186564
v -0.025597574 0.027916305 0.021296934
v -0.026259117 0.028302825 0.021769944
v -0.025656438 0.027868597 0.021238048
v -0.026366475 0.028219258 0.021666783
v -0.025708471 0.02781782 0.021175412
v -0.026462121 0.028130201 0.021556911
v -0.025753279 0.027764364 0.021109507
v -0.026545354 0.028036299 0.021441124
v -0.025790522 0.027708635 0.021040833
v -0.02661557 0.027938241 0.021320272
v -0.025819913 0.027651055 0.020969911
v -0.026672255 0.027836737 0.021195231
v -0.025841232 0.027592066 0.020897285
v -0.026715 0.02773253 0.021066914
v -0.025854315 0.027532116 0.020823506
v -0.026743488 0.027626378 0.020936258
v -0.025859062 0.027471657 0.020749132
v -0.026757514 0.027519053 0.02080421
v -0.025855438 0.027411155 0.020674734
v -0.026756977 0.027411341 0.020671738
v -0.02584347 0.027351068 0.020600877
v -0.02674188 0.027304024 0.020539804
v -0.025823248 0.027291853 0.020528121
v -0.026712332 0.027197886 0.020409372
v -0.026668548 0.027093698 0.02028139
v -0.0089599697 0.026540212 0.019664002
v -0.0090171519 0.026560378 0.019688599
v -0.0090728928 0.026582096 0.019715111
v -0.0088417153 0.026504686 0.019620733
v -0.0089014531 0.026521637 0.019641366
v -0.0095628604 0.02690966 0.020116226
v -0.009593995 0.02694602 0.020160834
v -0.0096225897 0.026983201 0.020206459
v -0.0099529695 0.028173724 0.021669487
v -0.0099865842 0.028209197 0.021712996
v -0.010022616 0.028243718 0.021755324
v -0.010285415 0.028427249 0.021980107
v -0.010336204 0.028453364 0.022012043
v -0.010388744 0.028478059 0.022042227
v -0.010060996 0.028277218 0.021796387
v -0.010101651 0.028309632 0.021836108
v -0.010144505 0.028340902 0.021874413
v -0.010189474 0.028370964 0.021911225
v -0.010236473 0.028399765 0.021946479
v -0.024743832 0.029907709 0.021371498
v -0.024916686 0.029903992 0.021366308
v -0.025088367 0.029890986 0.021349698
v -0.025257625 0.029868788 0.021321792
v -0.025423224 0.029837558 0.021282791
v -0.025583959 0.029797524 0.021232978
v -0.025738657 0.029748977 0.021172717
v -0.025886191 0.029692274 0.021102451
v -0.026025487 0.029627824 0.021022686
v -0.026155528 0.029556097 0.020934005
v -0.026275369 0.029477618 0.020837057
v -0.026384135 0.02939296 0.020732547
v -0.026481032 0.029302737 0.020621236
v -0.026565355 0.029207607 0.020503935
v -0.02663649 0.029108264 0.0203815
v -0.026693918 0.029005431 0.020254822
v -0.026737221 0.028899859 0.020124825
v -0.026766082 0.028792318 0.019992459
v -0.026780292 0.028683589 0.019858683
v -0.026779748 0.028574466 0.019724476
v -0.026764451 0.028465745 0.019590816
v -0.026734518 0.028358216 0.019458675
v -0.026690161 0.028252664 0.019329017
v -0.026631707 0.028149861 0.019202789
v -0.026559581 0.028050551 0.019080907
v -0.026474308 0.027955461 0.018964262
v -0.02637651 0.027865285 0.018853705
v -0.026266901 0.027780675 0.018750037
v -0.011217686 0.029834046 0.021329281
v -0.0097267291 0.028879757 0.020160945
v -0.0097296604 0.028564046 0.019772644
v -0.0097316695 0.028962255 0.02026239
v -0.0097479861 0.029044187 0.020363099
v -0.0097755532 0.029124928 0.020462302
v -0.0098141625 0.029203862 0.020559245
v -0.0098375191 0.029242464 0.020606638
v -0.0098635195 0.029280393 0.020653192
v -0.0098921142 0.029317573 0.020698818
v -0.0099232488 0.029353933 0.020743425
v -0.0099568644 0.029389409 0.020786937
v -0.0099928964 0.029423928 0.020829262
v -0.010031276 0.029457427 0.020870325
v -0.010071932 0.029489842 0.020910046
v -0.010114784 0.029521112 0.020948351
v -0.010159754 0.029551176 0.020985166
v -0.010206754 0.029579977 0.02102042
v -0.010255695 0.029607459 0.021054045
v -0.010306484 0.029633574 0.021085981
v -0.010359024 0.029658269 0.021116165
v -0.010413216 0.029681497 0.02114454
v -0.010468957 0.029703216 0.021171052
v -0.010526139 0.029723382 0.021195649
v -0.010584656 0.029741957 0.021218285
v -0.010644394 0.029758907 0.021238919
v -0.010705241 0.029774198 0.021257506
v -0.010829795 0.029799696 0.021288421
v -0.01095737 0.029818255 0.02131079
v -0.011086996 0.029829734 0.021324445
v -0.0082387022 0.027609759 0.018604311
v -0.02484302 0.029304846 0.020629689
v -0.024935967 0.029297639 0.020620493
v -0.025027542 0.029285345 0.020605046
v -0.025117049 0.029268061 0.020583467
v -0.025203805 0.029245917 0.020555923
v -0.025287149 0.029219083 0.020522622
v -0.02536645 0.029187761 0.020483816
v -0.025441104 0.029152189 0.020439799
v -0.02551054 0.029112639 0.020390909
v -0.025574231 0.029069414 0.020337518
v -0.025631694 0.02902284 0.020280033
v -0.02568249 0.028973274 0.02021889
v -0.02572623 0.028921089 0.020154552
v -0.025762586 0.028866687 0.020087514
v -0.025791278 0.028810479 0.020018281
v -0.02581209 0.028752895 0.019947385
v -0.02582486 0.028694369 0.019875359
v -0.025829495 0.02863535 0.019802756
v -0.025825956 0.02857629 0.019730131
v -0.025814274 0.028517631 0.019658029
v -0.025794534 0.028459826 0.019587006
v -0.025766889 0.028403311 0.019517597
v -0.025731546 0.028348516 0.019450333
v -0.025688779 0.028295862 0.019385727
v -0.025638909 0.028245748 0.01932427
v -0.025582317 0.028198551 0.019266426
v -0.025519435 0.028154636 0.01921264
v -0.02545074 0.028114337 0.019163322
v -0.025376754 0.028077955 0.019118841
v -0.025298043 0.028045773 0.019079542
v -0.025215205 0.028018033 0.019045722
v -0.025128869 0.027994945 0.019017635
v -0.025039692 0.027976689 0.018995502
v -0.024948355 0.0279634 0.018979484
v -0.024855552 0.027955181 0.018969708
v -0.024761989 0.027952093 0.018966245
v -0.024668376 0.027954162 0.018969123
v -0.024575429 0.027961369 0.01897832
v -0.024483855 0.027973662 0.018993767
v -0.02439435 0.027990945 0.019015342
v -0.024307594 0.028013091 0.01904289
v -0.024224247 0.028039925 0.019076191
v -0.024144946 0.028071246 0.019114996
v -0.024070294 0.028106819 0.019159014
v -0.024000858 0.028146366 0.0192079
v -0.023937166 0.028189592 0.019261291
v -0.023879705 0.028236167 0.01931878
v -0.023828909 0.028285734 0.019379922
v -0.023785167 0.028337916 0.019444258
v -0.023748812 0.028392321 0.019511299
v -0.023720119 0.028448529 0.019580531
v -0.023699308 0.028506113 0.019651428
v -0.023686536 0.028564638 0.019723453
v -0.023681902 0.028623655 0.019796053
v -0.02368544 0.028682718 0.019868682
v -0.023697124 0.028741377 0.019940783
v -0.023716863 0.028799181 0.020011806
v -0.02374451 0.028855697 0.020081215
v -0.023779851 0.028910489 0.020148477
v -0.023822619 0.028963145 0.020213085
v -0.02387249 0.02901326 0.020274542
v -0.02392908 0.029060454 0.020332384
v -0.023991963 0.029104369 0.020386169
v -0.024060658 0.029144671 0.02043549
v -0.024134642 0.029181053 0.020479971
v -0.024213354 0.029213235 0.02051927
v -0.024296193 0.029240974 0.02055309
v -0.024382529 0.02926406 0.020581175
v -0.024471704 0.029282318 0.020603311
v -0.024563041 0.029295608 0.020619329
v -0.024655845 0.029303827 0.020629105
v -0.02474941 0.029306914 0.020632568
v -0.0086265938 0.027644107 0.018645168
v -0.0087511479 0.027669606 0.018676083
v -0.0088119946 0.027684898 0.018694674
v -0.0097084034 0.028399616 0.01957049
v -0.0096808353 0.028318876 0.019471287
v -0.009642227 0.028239941 0.019374344
v -0.009724719 0.028481548 0.019671199
v -0.0093416042 0.027922691 0.018985238
v -0.0092966354 0.02789263 0.018948426
v -0.0084990192 0.027625548 0.018622799
v -0.0083693932 0.027614069 0.018609145
v -0.0094634931 0.028019875 0.019104328
v -0.009425113 0.027986376 0.019063264
v -0.0093844577 0.027953961 0.019023544
v -0.0092496358 0.027863828 0.018913172
v -0.0092006942 0.027836344 0.018879545
v -0.0091499052 0.027810229 0.018847608
v -0.009097365 0.027785534 0.018817424
v -0.009043173 0.027762306 0.018789049
v -0.0089874321 0.02774059 0.01876254
v -0.0089302499 0.027720424 0.018737943
v -0.0088717333 0.027701846 0.018715304
v -0.0095642753 0.028126232 0.019234774
v -0.0095331406 0.02808987 0.019190164
v -0.009499525 0.028054396 0.019146656
v -0.0096188704 0.028201339 0.019326952
v -0.00959287 0.028163411 0.019280397
f 1 2 3
f 2 4 3
f 1 3 5
f 3 6 5
f 4 2 7
f 2 8 7
f 3 4 6
f 4 7 6
f 9 10 11
f 10 12 11
f 11 12 13
f 12 14 13
f 15 16 17
f 15 17 18
f 17 19 18
f 18 19 20
f 19 21 20
f 20 21 22
f 21 23 22
f 22 23 24
f 23 25 24
f 24 25 26
f 25 27 26
f 26 27 28
f 27 29 28
f 28 29 30
f 29 31 30
f 30 31 32
f 31 33 32
f 32 33 34
f 35 36 37
f 35 37 38
f 37 39 38
f 38 39 40
f 39 41 40
f 40 41 42
f 41 43 42
f 42 43 44
f 43 45 44
f 44 45 46
f 45 47 46
f 46 47 48
f 47 49 48
f 48 49 50
f 49 51 50
f 50 51 52
f 51 53 52
f 52 53 54
f 55 56 57
f 55 57 58
f 57 59 58
f 58 59 60
f 59 61 60
f 60 61 62
f 61 63 62
f 62 63 64
f 64 63 65
f 63 66 65
f 65 66 67
f 66 68 67
f 67 68 69
f 68 70 69
f 69 70 71
f 70 72 71
f 71 72 73
f 72 74 73
f 73 74 75
f 74 76 75
f 75 76 77
f 76 78 77
f 77 78 79
f 78 80 79
f 79 80 81
f 80 82 81
f 81 82 83
f 82 84 83
f 83 84 85
f 84 86 85
f 85 86 87
f 86 88 87
f 87 88 89
f 88 90 89
f 89 90 91
f 90 92 91
f 91 92 93
f 92 94 93
f 93 94 95
f 94 96 95
f 95 96 97
f 96 98 97
f 97 98 99
f 98 100 99
f 99 100 101
f 100 102 101
f 101 102 103
f 102 104 103
f 104 105 103
f 103 105 106
f 105 107 106
f 106 107 108
f 107 109 108
f 108 109 110
f 109 111 110
f 110 111 112
f 113 114 115
f 113 115 116
f 115 117 116
f 116 117 118
f 117 119 118
f 118 119 120
f 119 121 120
f 120 121 122
f 122 121 123
f 121 124 123
f 123 124 125
f 124 126 125
f 125 126 127
f 126 128 127
f 127 128 129
f 128 130 129
f 129 130 131
f 130 132 131
f 131 132 133
f 132 134 133
f 133 134 135
f 134 136 135
f 135 136 137
f 136 138 137
f 137 138 139
f 138 140 139
f 139 140 141
f 140 142 141
f 141 142 143
f 142 144 143
f 143 144 145
f 144 146 145
f 145 146 147
f 146 148 147
f 147 148 149
f 148 150 149
f 149 150 151
f 150 152 151
f 151 152 153
f 152 154 153
f 153 154 155
f 154 156 155
f 155 156 157
f 156 158 157
f 157 158 159
f 158 160 159
f 159 160 161
f 160 162 161
f 162 163 161
f 161 163 164
f 163 165 164
f 164 165 166
f 165 167 166
f 166 167 168
f 167 169 168
f 168 169 170
f 10 9 171
f 9 172 171
f 35 173 36
f 173 174 36
f 175 176 177
f 176 178 177
f 177 178 179
f 178 180 179
f 179 180 181
f 180 182 181
f 181 182 183
f 182 184 183
f 183 184 185
f 184 186 185
f 185 186 187
f 186 188 187
f 187 188 189
f 188 190 189
f 189 190 191
f 190 192 191
f 191 192 193
f 192 194 193
f 193 194 195
f 194 196 195
f 195 196 197
f 196 198 197
f 197 198 199
f 198 200 199
f 199 200 201
f 200 202 201
f 201 202 203
f 202 204 203
f 203 204 205
f 204 206 205
f 205 206 207
f 206 208 207
f 207 208 209
f 208 210 209
f 209 210 211
f 210 212 211
f 211 212 213
f 212 214 213
f 213 214 215
f 214 216 215
f 215 216 217
f 216 218 217
f 217 218 219
f 218 220 219
f 219 220 221
f 220 222 221
f 221 222 223
f 222 224 223
f 223 224 225
f 224 226 225
f 225 226 227
f 226 228 227
f 227 228 229
f 228 230 229
f 229 230 231
f 230 232 231
f 231 232 233
f 232 234 233
f 233 234 235
f 234 236 235
f 235 236 237
f 236 238 237
f 237 238 239
f 238 240 239
f 239 240 241
f 240 242 241
f 241 242 243
f 242 244 243
f 243 244 245
f 244 246 245
f 245 246 247
f 246 248 247
f 247 248 249
f 248 250 249
f 249 250 251
f 250 252 251
f 251 252 253
f 252 254 253
f 253 254 255
f 254 256 255
f 255 256 257
f 256 258 257
f 257 258 259
f 258 260 259
f 259 260 261
f 260 262 261
f 261 262 263
f 262 264 263
f 263 264 265
f 264 266 265
f 265 266 267
f 266 268 267
f 267 268 269
f 268 270 269
f 269 270 271
f 270 272 271
f 271 272 273
f 272 274 273
f 273 274 275
f 274 276 275
f 275 276 277
f 276 278 277
f 277 278 279
f 278 280 279
f 279 280 281
f 280 282 281
f 281 282 283
f 282 284 283
f 283 284 285
f 284 286 285
f 285 286 287
f 286 288 287
f 287 288 289
f 288 290 289
f 289 290 291
f 290 292 291
f 291 292 293
f 292 294 293
f 293 294 295
f 294 296 295
f 295 296 297
f 296 298 297
f 297 298 299
f 298 300 299
f 299 300 301
f 300 302 301
f 301 302 303
f 302 304 303
f 303 304 305
f 304 306 305
f 305 306 307
f 306 308 307
f 307 308 309
f 308 310 309
f 309 310 311
f 310 312 311
f 311 312 313
f 312 314 313
f 313 314 315
f 314 316 315
f 315 316 317
f 316 318 317
f 317 318 175
f 318 176 175
f 13 54 53
f 172 9 11
f 53 16 8
f 16 15 8
f 11 13 172
f 13 53 172
f 172 53 5
f 53 8 5
f 5 8 1
f 8 2 1
f 33 319 34
f 319 320 34
f 320 319 321
f 320 321 322
f 321 323 322
f 322 323 324
f 323 325 324
f 324 325 326
f 325 327 326
f 326 327 328
f 327 329 328
f 328 329 330
f 329 331 330
f 330 331 332
f 331 333 332
f 332 333 334
f 333 335 334
f 334 335 336
f 335 337 336
f 336 337 338
f 337 339 338
f 338 339 340
f 339 341 340
f 340 341 342
f 341 343 342
f 342 343 344
f 343 345 344
f 344 345 346
f 345 347 346
f 346 347 348
f 347 349 348
f 348 349 350
f 349 351 350
f 350 351 352
f 351 353 352
f 352 353 354
f 353 355 354
f 354 355 356
f 355 357 356
f 356 357 358
f 357 359 358
f 358 359 360
f 359 361 360
f 360 361 362
f 361 363 362
f 362 363 364
f 363 365 364
f 364 365 366
f 365 367 366
f 366 367 368
f 367 369 368
f 368 369 370
f 369 371 370
f 370 371 372
f 371 373 372
f 372 373 374
f 373 375 374
f 374 375 376
f 377 378 35
f 378 379 35
f 6 7 376
f 116 118 6
f 171 380 381
f 382 383 14
f 6 118 5
f 118 120 5
f 5 120 122
f 34 244 242
f 384 173 385
f 173 35 385
f 385 35 386
f 35 379 386
f 384 387 173
f 387 388 173
f 173 388 389
f 390 391 171
f 391 392 171
f 171 392 380
f 110 112 6
f 112 113 6
f 6 113 116
f 393 394 172
f 394 395 172
f 396 397 14
f 397 398 14
f 399 400 35
f 5 164 166
f 401 402 171
f 234 15 18
f 250 248 34
f 248 246 34
f 34 246 244
f 389 403 173
f 403 404 173
f 173 404 405
f 404 406 405
f 405 406 407
f 406 408 407
f 407 408 409
f 408 410 409
f 409 410 411
f 410 412 411
f 411 412 413
f 412 414 413
f 398 415 14
f 415 416 14
f 14 416 13
f 416 417 13
f 13 417 418
f 418 419 13
f 419 420 13
f 13 420 54
f 420 421 54
f 400 422 35
f 422 423 35
f 35 423 377
f 99 101 6
f 101 103 6
f 139 141 5
f 141 143 5
f 5 143 145
f 170 424 172
f 424 425 172
f 172 425 393
f 381 426 171
f 426 427 171
f 171 427 428
f 402 429 171
f 429 430 171
f 171 430 431
f 242 240 34
f 240 238 34
f 34 238 32
f 238 236 32
f 214 7 216
f 7 218 216
f 264 320 266
f 320 322 266
f 266 322 268
f 322 324 268
f 268 324 270
f 324 326 270
f 270 326 272
f 431 432 171
f 432 433 171
f 171 433 14
f 433 434 14
f 14 434 435
f 383 436 14
f 436 437 14
f 14 437 438
f 421 439 54
f 439 440 54
f 54 440 52
f 440 50 52
f 35 38 399
f 38 40 399
f 399 40 42
f 133 135 5
f 135 137 5
f 5 137 139
f 441 442 172
f 442 443 172
f 172 443 444
f 26 28 236
f 28 30 236
f 236 30 32
f 226 224 8
f 224 222 8
f 8 222 7
f 222 220 7
f 7 220 218
f 214 212 7
f 212 210 7
f 7 210 208
f 184 376 186
f 376 188 186
f 434 445 446
f 447 448 434
f 448 449 434
f 435 450 14
f 450 451 14
f 14 451 382
f 438 452 14
f 452 453 14
f 14 453 396
f 145 147 5
f 147 149 5
f 5 149 151
f 5 166 172
f 166 168 172
f 172 168 170
f 454 455 172
f 455 456 172
f 172 456 441
f 428 457 171
f 457 458 171
f 171 458 459
f 459 460 171
f 460 461 171
f 171 461 462
f 18 20 234
f 20 22 234
f 234 22 236
f 22 24 236
f 236 24 26
f 234 232 15
f 232 230 15
f 15 230 8
f 230 228 8
f 8 228 226
f 208 206 7
f 206 204 7
f 7 204 202
f 196 194 7
f 194 192 7
f 7 192 376
f 192 190 376
f 376 190 188
f 264 262 320
f 262 260 320
f 320 260 258
f 258 256 320
f 256 254 320
f 320 254 34
f 254 252 34
f 34 252 250
f 446 463 434
f 463 464 434
f 434 464 447
f 449 465 434
f 465 466 434
f 434 466 435
f 376 55 6
f 55 58 6
f 6 58 60
f 65 67 6
f 67 69 6
f 103 106 6
f 106 108 6
f 6 108 110
f 151 153 5
f 153 155 5
f 5 155 157
f 157 159 5
f 159 161 5
f 5 161 164
f 202 200 7
f 200 198 7
f 7 198 196
f 42 44 399
f 44 46 399
f 399 46 440
f 46 48 440
f 440 48 50
f 60 62 6
f 62 64 6
f 6 64 65
f 127 129 5
f 129 131 5
f 5 131 133
f 444 467 172
f 467 468 172
f 172 468 469
f 470 471 171
f 471 472 171
f 171 472 401
f 445 434 473
f 434 474 473
f 473 474 475
f 474 476 475
f 475 476 477
f 476 478 477
f 477 478 479
f 478 480 479
f 479 480 481
f 480 482 481
f 481 482 483
f 482 484 483
f 483 484 485
f 484 486 485
f 485 486 487
f 486 488 487
f 487 488 489
f 488 490 489
f 489 490 491
f 490 492 491
f 491 492 493
f 492 494 493
f 493 494 495
f 494 496 495
f 495 496 497
f 496 498 497
f 497 498 499
f 498 500 499
f 499 500 501
f 500 502 501
f 501 502 503
f 502 504 503
f 503 504 505
f 504 506 505
f 505 506 507
f 506 508 507
f 507 508 509
f 508 510 509
f 509 510 511
f 510 512 511
f 511 512 513
f 512 514 513
f 513 514 414
f 514 515 414
f 414 515 413
f 516 517 172
f 517 518 172
f 172 518 454
f 184 182 376
f 182 180 376
f 376 180 178
f 326 328 272
f 328 330 272
f 272 330 274
f 330 332 274
f 274 332 276
f 332 334 276
f 276 334 278
f 334 336 278
f 278 336 280
f 336 338 280
f 280 338 282
f 338 340 282
f 282 340 284
f 340 342 284
f 284 342 286
f 342 344 286
f 286 344 288
f 344 346 288
f 288 346 290
f 346 348 290
f 290 348 292
f 348 350 292
f 292 350 294
f 350 352 294
f 294 352 296
f 352 354 296
f 296 354 298
f 354 356 298
f 298 356 300
f 356 358 300
f 300 358 302
f 358 360 302
f 302 360 304
f 360 362 304
f 304 362 306
f 362 364 306
f 306 364 308
f 364 366 308
f 308 366 310
f 366 368 310
f 310 368 312
f 368 370 312
f 312 370 314
f 370 372 314
f 314 372 316
f 372 374 316
f 316 374 318
f 374 376 318
f 318 376 176
f 376 178 176
f 93 95 6
f 95 97 6
f 6 97 99
f 122 123 5
f 123 125 5
f 5 125 127
f 395 519 172
f 519 520 172
f 172 520 516
f 469 521 172
f 521 522 172
f 172 522 171
f 522 523 171
f 171 523 390
f 462 524 171
f 524 525 171
f 171 525 526
f 69 71 6
f 71 73 6
f 6 73 75
f 527 528 171
f 528 529 171
f 171 529 470
f 87 89 6
f 89 91 6
f 6 91 93
f 75 77 6
f 77 79 6
f 6 79 81
f 526 530 171
f 530 531 171
f 171 531 532
f 532 533 171
f 533 534 171
f 171 534 527
f 81 83 6
f 83 85 6
f 6 85 87
f 55 376 56
f 376 375 56
f 434 535 536
f 434 536 474
f 536 537 474
f 474 537 476
f 537 538 476
f 476 538 478
f 538 539 478
f 478 539 480
f 539 540 480
f 480 540 482
f 540 541 482
f 482 541 484
f 541 542 484
f 484 542 486
f 542 543 486
f 486 543 488
f 543 544 488
f 488 544 490
f 544 545 490
f 490 545 492
f 545 546 492
f 492 546 494
f 546 547 494
f 494 547 496
f 547 548 496
f 496 548 498
f 548 549 498
f 498 549 500
f 549 550 500
f 500 550 502
f 550 551 502
f 502 551 504
f 551 552 504
f 504 552 506
f 552 553 506
f 506 553 508
f 553 554 508
f 508 554 510
f 554 555 510
f 510 555 512
f 555 556 512
f 512 556 514
f 556 557 514
f 514 557 515
f 557 558 515
f 515 558 413
f 558 559 413
f 413 559 411
f 559 560 411
f 411 560 409
f 560 561 409
f 409 561 407
f 561 562 407
f 407 562 405
f 562 174 405
f 405 174 173
f 12 10 14
f 10 171 14
f 563 535 433
f 535 434 433
f 427 426 564
f 426 565 564
f 427 564 566
f 427 566 428
f 566 567 428
f 428 567 457
f 567 568 457
f 457 568 458
f 568 569 458
f 458 569 459
f 459 569 460
f 569 570 460
f 460 570 461
f 570 571 461
f 461 571 462
f 571 572 462
f 462 572 524
f 572 573 524
f 524 573 525
f 573 574 525
f 525 574 526
f 574 575 526
f 526 575 530
f 575 576 530
f 530 576 531
f 576 577 531
f 531 577 532
f 577 578 532
f 532 578 533
f 578 579 533
f 533 579 534
f 579 580 534
f 534 580 527
f 580 581 527
f 527 581 528
f 581 582 528
f 528 582 529
f 582 583 529
f 529 583 470
f 583 584 470
f 470 584 471
f 584 585 471
f 471 585 472
f 585 586 472
f 472 586 401
f 586 587 401
f 401 587 402
f 587 588 402
f 402 588 429
f 588 589 429
f 589 590 429
f 429 590 430
f 590 591 430
f 430 591 431
f 591 592 431
f 431 592 432
f 592 563 432
f 432 563 433
f 424 170 593
f 170 169 593
f 594 473 595
f 473 475 595
f 595 475 596
f 475 477 596
f 596 477 597
f 477 479 597
f 597 479 598
f 479 481 598
f 598 481 599
f 481 483 599
f 599 483 600
f 483 485 600
f 600 485 601
f 485 487 601
f 601 487 602
f 487 489 602
f 602 489 603
f 489 491 603
f 603 491 604
f 491 493 604
f 604 493 605
f 493 495 605
f 605 495 606
f 495 497 606
f 606 497 607
f 497 499 607
f 607 499 608
f 499 501 608
f 608 501 609
f 501 503 609
f 609 503 610
f 503 505 610
f 610 505 611
f 505 507 611
f 611 507 612
f 507 509 612
f 612 509 613
f 509 511 613
f 613 511 614
f 511 513 614
f 614 513 615
f 513 414 615
f 615 414 616
f 414 412 616
f 616 412 617
f 412 410 617
f 617 410 618
f 410 408 618
f 618 408 619
f 408 406 619
f 619 406 620
f 406 404 620
f 620 404 621
f 404 403 621
f 621 403 622
f 403 389 622
f 622 389 623
f 389 388 623
f 623 388 624
f 388 387 624
f 624 387 625
f 387 384 625
f 625 384 626
f 384 385 626
f 626 385 627
f 385 386 627
f 627 386 628
f 386 379 628
f 628 379 629
f 379 378 629
f 629 378 630
f 378 377 630
f 630 377 631
f 377 423 631
f 631 423 632
f 423 422 632
f 632 422 633
f 422 400 633
f 633 400 634
f 400 399 634
f 634 399 635
f 399 440 635
f 635 440 636
f 440 439 636
f 636 439 637
f 439 421 637
f 637 421 638
f 421 420 638
f 638 420 639
f 420 419 639
f 639 419 640
f 419 418 640
f 640 418 641
f 418 417 641
f 641 417 642
f 417 416 642
f 642 416 643
f 416 415 643
f 643 415 644
f 415 398 644
f 644 398 645
f 398 397 645
f 645 397 646
f 397 396 646
f 646 396 647
f 396 453 647
f 647 453 648
f 453 452 648
f 648 452 649
f 452 438 649
f 649 438 650
f 438 437 650
f 650 437 651
f 437 436 651
f 651 436 652
f 436 383 652
f 652 383 653
f 383 382 653
f 653 382 654
f 382 451 654
f 654 451 655
f 451 450 655
f 655 450 656
f 450 435 656
f 656 435 657
f 435 466 657
f 657 466 658
f 466 465 658
f 658 465 659
f 465 449 659
f 659 449 660
f 449 448 660
f 660 448 661
f 448 447 661
f 661 447 662
f 447 464 662
f 662 464 663
f 464 463 663
f 663 463 664
f 463 446 664
f 664 446 665
f 446 445 665
f 665 445 594
f 445 473 594
f 113 112 114
f 112 111 114
f 661 662 535
f 662 663 535
f 375 317 175
f 627 628 36
f 259 319 257
f 319 255 257
f 658 659 563
f 245 247 33
f 628 629 36
f 629 630 36
f 36 630 631
f 631 632 36
f 632 633 36
f 36 633 37
f 633 634 37
f 247 249 33
f 249 251 33
f 33 251 319
f 251 253 319
f 319 253 255
f 174 624 625
f 43 41 634
f 41 39 634
f 634 39 37
f 563 659 535
f 659 660 535
f 535 660 661
f 51 49 635
f 49 47 635
f 635 47 634
f 47 45 634
f 634 45 43
f 174 625 36
f 625 626 36
f 36 626 627
f 259 261 319
f 261 263 319
f 319 263 321
f 263 265 321
f 321 265 323
f 265 267 323
f 323 267 325
f 267 269 325
f 325 269 327
f 269 271 327
f 327 271 329
f 271 273 329
f 317 375 315
f 375 373 315
f 315 373 313
f 373 371 313
f 313 371 311
f 371 369 311
f 311 369 309
f 369 367 309
f 309 367 307
f 367 365 307
f 307 365 305
f 365 363 305
f 305 363 303
f 363 361 303
f 303 361 301
f 361 359 301
f 301 359 299
f 359 357 299
f 299 357 297
f 357 355 297
f 297 355 295
f 355 353 295
f 295 353 293
f 353 351 293
f 293 351 291
f 351 349 291
f 291 349 289
f 349 347 289
f 289 347 287
f 347 345 287
f 287 345 285
f 345 343 285
f 285 343 283
f 343 341 283
f 283 341 281
f 341 339 281
f 281 339 279
f 339 337 279
f 279 337 277
f 337 335 277
f 277 335 275
f 335 333 275
f 275 333 273
f 333 331 273
f 273 331 329
f 189 191 56
f 563 654 655
f 616 617 560
f 560 617 561
f 617 618 561
f 561 618 562
f 618 619 562
f 562 619 174
f 619 620 174
f 174 620 621
f 621 622 174
f 622 623 174
f 174 623 624
f 191 193 56
f 193 195 56
f 56 195 197
f 235 237 33
f 237 239 33
f 649 650 563
f 650 651 563
f 655 656 563
f 656 657 563
f 563 657 658
f 175 177 375
f 177 179 375
f 375 179 181
f 239 241 33
f 241 243 33
f 33 243 245
f 651 652 563
f 652 653 563
f 563 653 654
f 560 559 616
f 559 558 616
f 616 558 615
f 558 557 615
f 615 557 614
f 557 556 614
f 614 556 613
f 556 555 613
f 613 555 612
f 555 554 612
f 612 554 611
f 554 553 611
f 611 553 610
f 553 552 610
f 610 552 609
f 552 551 609
f 609 551 608
f 551 550 608
f 608 550 607
f 550 549 607
f 607 549 606
f 549 548 606
f 606 548 605
f 548 547 605
f 605 547 604
f 547 546 604
f 604 546 603
f 546 545 603
f 603 545 602
f 545 544 602
f 602 544 601
f 544 543 601
f 601 543 600
f 543 542 600
f 600 542 599
f 542 541 599
f 599 541 598
f 541 540 598
f 598 540 597
f 540 539 597
f 597 539 596
f 539 538 596
f 596 538 595
f 538 537 595
f 595 537 594
f 537 536 594
f 594 536 665
f 536 535 665
f 665 535 664
f 535 663 664
f 51 635 53
f 635 636 53
f 53 636 637
f 574 573 648
f 33 31 235
f 31 29 235
f 235 29 27
f 181 183 375
f 183 185 375
f 375 185 56
f 185 187 56
f 56 187 189
f 637 638 53
f 638 639 53
f 53 639 16
f 639 640 16
f 197 199 56
f 199 201 56
f 56 201 203
f 229 16 227
f 16 225 227
f 203 205 56
f 205 207 56
f 56 207 57
f 66 63 207
f 211 213 167
f 213 215 167
f 167 215 217
f 566 564 648
f 229 231 16
f 231 233 16
f 16 233 17
f 233 19 17
f 588 587 648
f 587 586 648
f 63 61 207
f 61 59 207
f 207 59 57
f 644 645 666
f 645 646 666
f 666 646 667
f 646 668 667
f 649 563 648
f 563 592 648
f 648 592 591
f 669 670 646
f 670 671 646
f 648 570 569
f 591 590 648
f 590 589 648
f 648 589 588
f 648 564 647
f 564 565 647
f 647 565 646
f 565 672 646
f 646 672 669
f 673 674 646
f 573 572 648
f 572 571 648
f 648 571 570
f 27 25 235
f 25 23 235
f 235 23 233
f 23 21 233
f 233 21 19
f 68 66 100
f 66 102 100
f 167 165 211
f 165 163 211
f 211 163 162
f 675 642 666
f 642 643 666
f 666 643 644
f 640 641 16
f 641 642 16
f 16 642 676
f 642 675 676
f 569 568 648
f 568 567 648
f 648 567 566
f 586 585 648
f 585 584 648
f 648 584 583
f 119 117 211
f 117 115 211
f 211 115 209
f 115 114 209
f 209 114 207
f 114 111 207
f 207 111 66
f 111 109 66
f 66 109 107
f 72 70 96
f 162 160 211
f 160 158 211
f 211 158 156
f 676 593 16
f 593 169 16
f 16 169 167
f 677 678 646
f 678 679 646
f 646 679 673
f 674 680 646
f 680 681 646
f 646 681 682
f 107 105 66
f 105 104 66
f 66 104 102
f 150 148 211
f 148 146 211
f 211 146 144
f 144 142 211
f 142 140 211
f 211 140 138
f 217 219 167
f 219 221 167
f 167 221 16
f 221 223 16
f 16 223 225
f 682 683 646
f 683 684 646
f 646 684 685
f 577 576 648
f 576 575 648
f 648 575 574
f 68 100 70
f 100 98 70
f 70 98 96
f 138 136 211
f 136 134 211
f 211 134 132
f 132 130 211
f 130 128 211
f 211 128 126
f 126 124 211
f 124 121 211
f 211 121 119
f 685 686 646
f 686 687 646
f 646 687 668
f 688 689 646
f 689 690 646
f 646 690 677
f 76 74 92
f 156 154 211
f 154 152 211
f 211 152 150
f 583 582 648
f 582 581 648
f 648 581 580
f 72 96 74
f 96 94 74
f 74 94 92
f 671 691 646
f 691 692 646
f 646 692 688
f 580 579 648
f 579 578 648
f 648 578 577
f 76 92 78
f 92 90 78
f 78 90 80
f 90 88 80
f 88 86 80
f 80 86 82
f 86 84 82
f 424 593 676
f 424 676 425
f 676 675 425
f 425 675 393
f 675 666 393
f 393 666 394
f 666 667 394
f 394 667 395
f 395 667 519
f 667 668 519
f 519 668 520
f 668 687 520
f 520 687 516
f 687 686 516
f 516 686 517
f 686 685 517
f 517 685 518
f 685 684 518
f 518 684 454
f 684 683 454
f 454 683 455
f 683 682 455
f 455 682 456
f 682 681 456
f 456 681 441
f 681 680 441
f 441 680 442
f 680 674 442
f 442 674 443
f 674 673 443
f 443 673 444
f 673 679 444
f 444 679 467
f 679 678 467
f 467 678 468
f 678 677 468
f 468 677 469
f 677 690 469
f 469 690 521
f 690 689 521
f 521 689 522
f 689 688 522
f 522 688 523
f 688 692 523
f 523 692 390
f 692 691 390
f 390 691 391
f 691 671 391
f 671 670 391
f 391 670 392
f 670 669 392
f 392 669 380
f 669 672 380
f 380 672 381
f 672 565 381
f 381 565 426
