# generated by mjcf2godot
v 0.0013000004 -3.0962869e-08 -0.010099987
v 0.0024999773 -0.00088033269 -0.010061554
v 0.0012999794 -0.00088030404 -0.010061554
v 0.0024999565 -0.0017539058 -0.0099465464
v 0.0012999585 -0.0017538772 -0.0099465464
v 0.0024999359 -0.0026141322 -0.0097558376
v 0.001299938 -0.0026141035 -0.0097558376
v 0.0024999159 -0.0034544636 -0.0094908819
v 0.0012999179 -0.0034544349 -0.0094908819
v 0.0024998964 -0.0042685038 -0.0091536966
v 0.0012998985 -0.0042684751 -0.0091536966
v 0.0024998778 -0.0050500594 -0.0087468446
v 0.0012998798 -0.0050500308 -0.0087468446
v 0.00249986 -0.0057931813 -0.0082734235
v 0.0012998621 -0.0057931526 -0.0082734235
v 0.0024998433 -0.0064922143 -0.0077370362
v 0.0012998454 -0.0064921857 -0.0077370362
v 0.0024998278 -0.0071418379 -0.0071417665
v 0.0012998299 -0.0071418092 -0.0071417665
v 0.0024998136 -0.0077371085 -0.0064921429
v 0.0012998156 -0.0077370799 -0.0064921429
v 0.0024998008 -0.0082734954 -0.0057931108
v 0.0012998028 -0.0082734667 -0.0057931108
v 0.0024997895 -0.0087469165 -0.0050499862
v 0.0012997915 -0.0087468878 -0.0050499862
v 0.0024997798 -0.0091537684 -0.0042684314
v 0.0012997818 -0.0091537398 -0.0042684314
v 0.0024997717 -0.0094909547 -0.0034543922
v 0.0012997738 -0.0094909261 -0.0034543922
v 0.0024997654 -0.0097559104 -0.0026140598
v 0.0012997674 -0.0097558817 -0.0026140598
v 0.0024997609 -0.0099466173 -0.0017538343
v 0.0012997629 -0.0099465887 -0.0017538343
v 0.0024997581 -0.010061626 -0.00088026121
v 0.0012997601 -0.010061598 -0.00088026121
v 0.0024997572 -0.010100059 1.3712263e-08
v 0.0012997592 -0.010100031 1.3712263e-08
v 0.0024997581 -0.010061626 0.00088028491
v 0.0012997601 -0.010061598 0.00088028491
v 0.0024997609 -0.0099466173 0.0017538581
v 0.0012997629 -0.0099465887 0.0017538581
v 0.0024997654 -0.0097559104 0.0026140834
v 0.0012997674 -0.0097558817 0.0026140834
v 0.0024997717 -0.0094909547 0.0034544157
v 0.0012997738 -0.0094909261 0.0034544157
v 0.0024997798 -0.0091537684 0.004268455
v 0.0012997818 -0.0091537398 0.004268455
v 0.0024997895 -0.0087469165 0.0050500135
v 0.0012997915 -0.0087468878 0.0050500135
v 0.0024998008 -0.0082734954 0.0057931344
v 0.0012998028 -0.0082734667 0.0057931344
v 0.0024998136 -0.0077371085 0.0064921665
v 0.0012998156 -0.0077370799 0.0064921665
v 0.0024998278 -0.0071418379 0.00714179
v 0.0012998299 -0.0071418092 0.00714179
v 0.0024998433 -0.0064922143 0.0077370616
v 0.0012998454 -0.0064921857 0.0077370616
v 0.00249986 -0.0057931813 0.008273448
v 0.0012998621 -0.0057931526 0.008273448
v 0.0024998778 -0.0050500594 0.0087468691
v 0.0012998798 -0.0050500308 0.0087468691
v 0.0024998964 -0.0042685038 0.0091537229
v 0.0012998985 -0.0042684751 0.0091537229
v 0.0024999159 -0.0034544636 0.0094909064
v 0.0012999179 -0.0034544349 0.0094909064
v 0.0024999359 -0.0026141322 0.009755864
v 0.001299938 -0.0026141035 0.009755864
v 0.0024999565 -0.0017539058 0.0099465727
v 0.0012999585 -0.0017538772 0.0099465727
v 0.0024999773 -0.00088033269 0.01006158
v 0.0012999794 -0.00088030404 0.01006158
v 0.0024999983 -5.9612697e-08 0.010100014
v 0.0013000004 -3.0962869e-08 0.010100014
v 0.0025000193 0.00088021343 0.01006158
v 0.0013000214 0.00088024208 0.01006158
v 0.0025000402 0.0017537866 0.0099465727
v 0.0013000422 0.0017538152 0.0099465727
v 0.0025000607 0.002614012 0.009755864
v 0.0013000628 0.0026140406 0.009755864
v 0.0025000808 0.0034543443 0.0094909064
v 0.0013000828 0.003454373 0.0094909064
v 0.0025001002 0.0042683854 0.0091537229
v 0.0013001023 0.0042684141 0.0091537229
v 0.0025001189 0.0050499402 0.0087468691
v 0.0013001209 0.0050499688 0.0087468691
v 0.0025001366 0.0057930629 0.008273448
v 0.0013001387 0.0057930916 0.008273448
v 0.0025001533 0.006492095 0.0077370616
v 0.0013001554 0.0064921237 0.0077370616
v 0.0025001688 0.0071417186 0.00714179
v 0.0013001709 0.0071417473 0.00714179
v 0.0025001831 0.0077369883 0.0064921665
v 0.0013001851 0.007737017 0.0064921665
v 0.0025001959 0.0082733761 0.0057931344
v 0.0013001979 0.0082734048 0.0057931344
v 0.0025002072 0.0087467972 0.0050500135
v 0.0013002092 0.0087468258 0.0050500135
v 0.0025002169 0.0091536492 0.004268455
v 0.0013002189 0.0091536778 0.004268455
v 0.0025002249 0.0094908364 0.0034544157
v 0.001300227 0.009490865 0.0034544157
v 0.0025002312 0.0097557921 0.0026140834
v 0.0013002333 0.0097558207 0.0026140834
v 0.0025002358 0.009946499 0.0017538581
v 0.0013002378 0.0099465276 0.0017538581
v 0.0025002385 0.010061506 0.00088028491
v 0.0013002406 0.010061535 0.00088028491
v 0.0025002395 0.01009994 1.3712263e-08
v 0.0013002415 0.010099969 1.3712263e-08
v 0.0025002385 0.010061506 -0.00088026121
v 0.0013002406 0.010061535 -0.00088026121
v 0.0025002358 0.009946499 -0.0017538343
v 0.0013002378 0.0099465276 -0.0017538343
v 0.0025002312 0.0097557921 -0.0026140598
v 0.0013002333 0.0097558207 -0.0026140598
v 0.0025002249 0.0094908364 -0.0034543922
v 0.001300227 0.009490865 -0.0034543922
v 0.0025002169 0.0091536492 -0.0042684314
v 0.0013002189 0.0091536778 -0.0042684314
v 0.0025002072 0.0087467972 -0.0050499862
v 0.0013002092 0.0087468258 -0.0050499862
v 0.0025001959 0.0082733761 -0.0057931108
v 0.0013001979 0.0082734048 -0.0057931108
v 0.0025001831 0.0077369883 -0.0064921429
v 0.0013001851 0.007737017 -0.0064921429
v 0.0025001688 0.0071417186 -0.0071417665
v 0.0013001709 0.0071417473 -0.0071417665
v 0.0025001533 0.006492095 -0.0077370362
v 0.0013001554 0.0064921237 -0.0077370362
v 0.0025001366 0.0057930629 -0.0082734235
v 0.0013001387 0.0057930916 -0.0082734235
v 0.0025001189 0.0050499402 -0.0087468446
v 0.0013001209 0.0050499688 -0.0087468446
v 0.0025001002 0.0042683854 -0.0091536966
v 0.0013001023 0.0042684141 -0.0091536966
v 0.0025000808 0.0034543443 -0.0094908819
v 0.0013000828 0.003454373 -0.0094908819
v 0.0025000607 0.002614012 -0.0097558376
v 0.0013000628 0.0026140406 -0.0097558376
v 0.0025000402 0.0017537866 -0.0099465464
v 0.0013000422 0.0017538152 -0.0099465464
v 0.0025000193 0.00088021343 -0.010061554
v 0.0013000214 0.00088024208 -0.010061554
v 0.0024999983 -5.9612697e-08 -0.010099987
v 0.0024998057 -0.0080692368 0.00070597485
v 0.0024998049 -0.0081000598 1.3712263e-08
v 0.0024998057 -0.0080692368 -0.00070594743
v 0.0024998079 -0.0079770023 -0.0014065366
v 0.0024998115 -0.0078240587 -0.0020964233
v 0.0024998166 -0.00761157 -0.0027703506
v 0.0024998231 -0.007341153 -0.0034231966
v 0.0024998309 -0.0070148651 -0.0040499879
v 0.0024998399 -0.0066351909 -0.0046459561
v 0.0024998502 -0.0062050196 -0.0052065676
v 0.0024998616 -0.0057276245 -0.0057275531
v 0.002499874 -0.005206639 -0.0062049491
v 0.0024998874 -0.0046460284 -0.0066351195
v 0.0024999016 -0.0040500593 -0.0070147937
v 0.0024999166 -0.003423268 -0.0073410807
v 0.0024999322 -0.002770423 -0.0076114976
v 0.0024999483 -0.0020964938 -0.0078239859
v 0.0024999647 -0.00140661 -0.0079769295
v 0.0024999815 -0.00070602077 -0.008069164
v 0.0024999983 -5.9612697e-08 -0.008099987
v 0.0025000152 0.00070590151 -0.008069164
v 0.0025000319 0.0014064908 -0.0079769295
v 0.0025000484 0.0020963754 -0.0078239859
v 0.0025000645 0.0027703028 -0.0076114976
v 0.0025000801 0.0034231487 -0.0073410807
v 0.002500095 0.00404994 -0.0070147937
v 0.0025001093 0.0046459101 -0.0066351195
v 0.0025001226 0.0052065197 -0.0062049491
v 0.0025001351 0.0057275053 -0.0057275531
v 0.0025001465 0.0062048994 -0.0052065676
v 0.0025001567 0.0066350717 -0.0046459561
v 0.0025001658 0.0070147458 -0.0040499879
v 0.0025001736 0.0073410328 -0.0034231966
v 0.0025001801 0.0076114498 -0.0027703506
v 0.0025001851 0.0078239403 -0.0020964233
v 0.0025001888 0.007976884 -0.0014065366
v 0.002500191 0.0080691166 -0.00070594743
v 0.0025001917 0.0080999396 1.3712263e-08
v 0.002500191 0.0080691166 0.00070597485
v 0.0025001888 0.007976884 0.0014065642
v 0.0025001851 0.0078239403 0.0020964468
v 0.0025001801 0.0076114498 0.0027703742
v 0.0025001736 0.0073410328 0.0034232202
v 0.0025001658 0.0070147458 0.0040500114
v 0.0025001567 0.0066350717 0.0046459796
v 0.0025001465 0.0062048994 0.0052065911
v 0.0025001351 0.0057275053 0.0057275767
v 0.0025001226 0.0052065197 0.0062049727
v 0.0025001093 0.0046459101 0.0066351431
v 0.002500095 0.00404994 0.0070148172
v 0.0025000801 0.0034231487 0.0073411042
v 0.0025000645 0.0027703028 0.0076115231
v 0.0025000484 0.0020963754 0.0078240104
v 0.0025000319 0.0014064908 0.0079769559
v 0.0025000152 0.00070590151 0.0080691903
v 0.0024999983 -5.9612697e-08 0.0081000134
v 0.0024999815 -0.00070602077 0.0080691903
v 0.0024999647 -0.00140661 0.0079769559
v 0.0024999483 -0.0020964938 0.0078240104
v 0.0024999322 -0.002770423 0.0076115231
v 0.0024999166 -0.003423268 0.0073411042
v 0.0024999016 -0.0040500593 0.0070148172
v 0.0024998874 -0.0046460284 0.0066351431
v 0.002499874 -0.005206639 0.0062049727
v 0.0024998616 -0.0057276245 0.0057275767
v 0.0024998502 -0.0062050196 0.0052065911
v 0.0024998399 -0.0066351909 0.0046459796
v 0.0024998309 -0.0070148651 0.0040500114
v 0.0024998231 -0.007341153 0.0034232202
v 0.0024998166 -0.00761157 0.0027703742
v 0.0024998115 -0.0078240587 0.0020964468
v 0.0024998079 -0.0079770023 0.0014065642
v 0.0037999849 -0.00070605181 -0.008069164
v 0.0037999681 -0.0014066411 -0.0079769295
v 0.0037999517 -0.0020965248 -0.0078239859
v 0.0037999356 -0.002770454 -0.0076114976
v 0.00379992 -0.003423299 -0.0073410807
v 0.003799905 -0.0040500903 -0.0070147937
v 0.0037998908 -0.0046460595 -0.0066351195
v 0.0037998774 -0.00520667 -0.0062049491
v 0.003799865 -0.0057276556 -0.0057275531
v 0.0037998536 -0.0062050506 -0.0052065676
v 0.0037998433 -0.006635222 -0.0046459561
v 0.0037998342 -0.0070148961 -0.0040499879
v 0.0037998264 -0.0073411841 -0.0034231966
v 0.00379982 -0.007611601 -0.0027703506
v 0.0037998149 -0.0078240897 -0.0020964233
v 0.0037998113 -0.0079770334 -0.0014065366
v 0.0037998091 -0.0080692678 -0.00070594743
v 0.0037998083 -0.0081000909 1.3712263e-08
v 0.0037998091 -0.0080692678 0.00070597485
v 0.0037998113 -0.0079770334 0.0014065642
v 0.0037998149 -0.0078240897 0.0020964468
v 0.00379982 -0.007611601 0.0027703742
v 0.0037998264 -0.0073411841 0.0034232202
v 0.0037998342 -0.0070148961 0.0040500114
v 0.0037998433 -0.006635222 0.0046459796
v 0.0037998536 -0.0062050506 0.0052065911
v 0.003799865 -0.0057276556 0.0057275767
v 0.0037998774 -0.00520667 0.0062049727
v 0.0037998908 -0.0046460595 0.0066351431
v 0.003799905 -0.0040500903 0.0070148172
v 0.00379992 -0.003423299 0.0073411042
v 0.0037999356 -0.002770454 0.0076115231
v 0.0037999517 -0.0020965248 0.0078240104
v 0.0037999681 -0.0014066411 0.0079769559
v 0.0037999849 -0.00070605181 0.0080691903
v 0.0038000017 -9.0650143e-08 0.0081000134
v 0.0038000186 0.00070587047 0.0080691903
v 0.0038000353 0.0014064597 0.0079769559
v 0.0038000518 0.0020963444 0.0078240104
v 0.0038000679 0.0027702718 0.0076115231
v 0.0038000834 0.0034231177 0.0073411042
v 0.0038000984 0.004049909 0.0070148172
v 0.0038001126 0.004645879 0.0066351431
v 0.003800126 0.0052064887 0.0062049727
v 0.0038001385 0.0057274742 0.0057275767
v 0.0038001499 0.0062048683 0.0052065911
v 0.0038001601 0.0066350406 0.0046459796
v 0.0038001692 0.0070147148 0.0040500114
v 0.003800177 0.0073410018 0.0034232202
v 0.0038001834 0.0076114187 0.0027703742
v 0.0038001885 0.0078239093 0.0020964468
v 0.0038001922 0.007976853 0.0014065642
v 0.0038001944 0.0080690856 0.00070597485
v 0.0038001951 0.0080999086 1.3712263e-08
v 0.0038001944 0.0080690856 -0.00070594743
v 0.0038001922 0.007976853 -0.0014065366
v 0.0038001885 0.0078239093 -0.0020964233
v 0.0038001834 0.0076114187 -0.0027703506
v 0.003800177 0.0073410018 -0.0034231966
v 0.0038001692 0.0070147148 -0.0040499879
v 0.0038001601 0.0066350406 -0.0046459561
v 0.0038001499 0.0062048683 -0.0052065676
v 0.0038001385 0.0057274742 -0.0057275531
v 0.003800126 0.0052064887 -0.0062049491
v 0.0038001126 0.004645879 -0.0066351195
v 0.0038000984 0.004049909 -0.0070147937
v 0.0038000834 0.0034231177 -0.0073410807
v 0.0038000679 0.0027702718 -0.0076114976
v 0.0038000518 0.0020963444 -0.0078239859
v 0.0038000353 0.0014064597 -0.0079769295
v 0.0038000186 0.00070587047 -0.008069164
v 0.0038000017 -9.0650143e-08 -0.008099987
v 0.0037998824 -0.0049969185 0.0034988287
v 0.0037998756 -0.0052828457 0.0030500131
v 0.0037998697 -0.0055285686 0.0025779853
v 0.0037998649 -0.0057322153 0.0020863364
v 0.003799861 -0.005892238 0.0015788104
v 0.0037998583 -0.0060074184 0.0010592665
v 0.0037998566 -0.0060768783 0.00053166106
v 0.0037998561 -0.0061000905 1.3712263e-08
v 0.0037998566 -0.0060768783 -0.00053163737
v 0.0037998583 -0.0060074184 -0.0010592427
v 0.003799861 -0.005892238 -0.0015787829
v 0.0037998649 -0.0057322153 -0.0020863091
v 0.0037998697 -0.0055285686 -0.002577958
v 0.0037998756 -0.0052828457 -0.0030499896
v 0.0037998824 -0.0049969185 -0.0034988051
v 0.0037998901 -0.0046729616 -0.0039209922
v 0.0037998987 -0.0043134423 -0.0043133398
v 0.0037999081 -0.0039210956 -0.0046728601
v 0.0037999182 -0.0034989066 -0.0049968151
v 0.0037999289 -0.0030500911 -0.0052827423
v 0.0037999402 -0.0025780623 -0.0055284662
v 0.0037999519 -0.0020864134 -0.0057321129
v 0.003799964 -0.0015788873 -0.0058921365
v 0.0037999764 -0.0010593453 -0.006007315
v 0.003799989 -0.00053173989 -0.0060767767
v 0.0038000017 -9.0650143e-08 -0.006099989
v 0.0038000144 0.00053155855 -0.0060767767
v 0.003800027 0.001059164 -0.006007315
v 0.0038000394 0.001578706 -0.0058921365
v 0.0038000515 0.0020862321 -0.0057321129
v 0.0038000633 0.002577881 -0.0055284662
v 0.0038000745 0.0030499088 -0.0052827423
v 0.0038000852 0.0034987262 -0.0049968151
v 0.0038000953 0.0039209133 -0.0046728601
v 0.0038001047 0.0043132609 -0.0043133398
v 0.0038001133 0.0046727812 -0.0039209922
v 0.003800121 0.0049967362 -0.0034988051
v 0.0038001278 0.0052826634 -0.0030499896
v 0.0038001337 0.0055283873 -0.002577958
v 0.0038001386 0.005732034 -0.0020863091
v 0.0038001424 0.0058920576 -0.0015787829
v 0.0038001451 0.0060072361 -0.0010592427
v 0.0038001468 0.006076696 -0.00053163737
v 0.0038001473 0.0060999101 1.3712263e-08
v 0.0038001468 0.006076696 0.00053166106
v 0.0038001451 0.0060072361 0.0010592665
v 0.0038001424 0.0058920576 0.0015788104
v 0.0038001386 0.005732034 0.0020863364
v 0.0038001337 0.0055283873 0.0025779853
v 0.0038001278 0.0052826634 0.0030500131
v 0.003800121 0.0049967362 0.0034988287
v 0.0038001133 0.0046727812 0.0039210158
v 0.0038001047 0.0043132609 0.0043133634
v 0.0038000953 0.0039209133 0.0046728837
v 0.0038000852 0.0034987262 0.0049968387
v 0.0038000745 0.0030499088 0.0052827659
v 0.0038000633 0.002577881 0.0055284897
v 0.0038000515 0.0020862321 0.0057321365
v 0.0038000394 0.001578706 0.00589216
v 0.003800027 0.001059164 0.0060073386
v 0.0038000144 0.00053155855 0.0060768003
v 0.0038000017 -9.0650143e-08 0.0061000126
v 0.003799989 -0.00053173989 0.0060768003
v 0.0037999764 -0.0010593453 0.0060073386
v 0.003799964 -0.0015788873 0.00589216
v 0.0037999519 -0.0020864134 0.0057321365
v 0.0037999402 -0.0025780623 0.0055284897
v 0.0037999289 -0.0030500911 0.0052827659
v 0.0037999182 -0.0034989066 0.0049968387
v 0.0037999081 -0.0039210956 0.0046728837
v 0.0037998987 -0.0043134423 0.0043133634
v 0.0037998901 -0.0046729616 0.0039210158
v 0.00099999902 -2.3800368e-08 -0.006099989
v 0.00099998632 -0.00053167304 -0.0060767767
v 0.00099997373 -0.0010592785 -0.006007315
v 0.00099996132 -0.0015788205 -0.0058921365
v 0.0009999492 -0.0020863466 -0.0057321129
v 0.00099993747 -0.0025779955 -0.0055284662
v 0.0009999262 -0.0030500242 -0.0052827423
v 0.00099991548 -0.0034988397 -0.0049968151
v 0.0009999054 -0.0039210288 -0.0046728601
v 0.00099989603 -0.0043133754 -0.0043133398
v 0.00099988745 -0.0046728948 -0.0039209922
v 0.00099987972 -0.0049968516 -0.0034988051
v 0.00099987289 -0.0052827788 -0.0030499896
v 0.00099986702 -0.0055285018 -0.002577958
v 0.00099986216 -0.0057321485 -0.0020863091
v 0.00099985834 -0.0058921711 -0.0015787829
v 0.00099985559 -0.0060073515 -0.0010592427
v 0.00099985393 -0.0060768114 -0.00053163737
v 0.00099985338 -0.0061000237 1.3712263e-08
v 0.00099985393 -0.0060768114 0.00053166106
v 0.00099985559 -0.0060073515 0.0010592665
v 0.00099985834 -0.0058921711 0.0015788104
v 0.00099986216 -0.0057321485 0.0020863364
v 0.00099986702 -0.0055285018 0.0025779853
v 0.00099987289 -0.0052827788 0.0030500131
v 0.00099987972 -0.0049968516 0.0034988287
v 0.00099988745 -0.0046728948 0.0039210158
v 0.00099989603 -0.0043133754 0.0043133634
v 0.0009999054 -0.0039210288 0.0046728837
v 0.00099991548 -0.0034988397 0.0049968387
v 0.0009999262 -0.0030500242 0.0052827659
v 0.00099993747 -0.0025779955 0.0055284897
v 0.0009999492 -0.0020863466 0.0057321365
v 0.00099996132 -0.0015788205 0.00589216
v 0.00099997373 -0.0010592785 0.0060073386
v 0.00099998632 -0.00053167304 0.0060768003
v 0.00099999902 -2.3800368e-08 0.0061000126
v 0.0010000117 0.0005316254 0.0060768003
v 0.0010000243 0.0010592308 0.0060073386
v 0.0010000367 0.0015787728 0.00589216
v 0.0010000488 0.0020862989 0.0057321365
v 0.0010000606 0.0025779478 0.0055284897
v 0.0010000718 0.0030499757 0.0052827659
v 0.0010000825 0.003498793 0.0049968387
v 0.0010000926 0.0039209802 0.0046728837
v 0.001000102 0.0043133278 0.0043133634
v 0.0010001106 0.0046728481 0.0039210158
v 0.0010001183 0.0049968031 0.0034988287
v 0.0010001251 0.0052827303 0.0030500131
v 0.001000131 0.0055284541 0.0025779853
v 0.0010001359 0.0057321009 0.0020863364
v 0.0010001397 0.0058921244 0.0015788104
v 0.0010001424 0.0060073029 0.0010592665
v 0.0010001441 0.0060767628 0.00053166106
v 0.0010001447 0.006099977 1.3712263e-08
v 0.0010001441 0.0060767628 -0.00053163737
v 0.0010001424 0.0060073029 -0.0010592427
v 0.0010001397 0.0058921244 -0.0015787829
v 0.0010001359 0.0057321009 -0.0020863091
v 0.001000131 0.0055284541 -0.002577958
v 0.0010001251 0.0052827303 -0.0030499896
v 0.0010001183 0.0049968031 -0.0034988051
v 0.0010001106 0.0046728481 -0.0039209922
v 0.001000102 0.0043133278 -0.0043133398
v 0.0010000926 0.0039209802 -0.0046728601
v 0.0010000825 0.003498793 -0.0049968151
v 0.0010000718 0.0030499757 -0.0052827423
v 0.0010000606 0.0025779478 -0.0055284662
v 0.0010000488 0.0020862989 -0.0057321129
v 0.0010000367 0.0015787728 -0.0058921365
v 0.0010000243 0.0010592308 -0.006007315
v 0.0010000117 0.0005316254 -0.0060767767
v 0.00099991629 -0.0034648474 -0.0034648118
v 0.00099992382 -0.0031496832 -0.0037536038
v 0.00099993191 -0.0028105486 -0.0040138339
v 0.00099994052 -0.0024500243 -0.004243513
v 0.00099994957 -0.0020708531 -0.0044408975
v 0.000999959 -0.001675922 -0.0046044824
v 0.00099996874 -0.0012682374 -0.0047330236
v 0.0009999787 -0.00085090061 -0.0048255449
v 0.00099998882 -0.00042708734 -0.0048813423
v 0.00099999902 -2.3800368e-08 -0.0048999873
v 0.0010000092 0.00042703976 -0.0048813423
v 0.0010000193 0.00085085297 -0.0048255449
v 0.0010000293 0.0012681898 -0.0047330236
v 0.001000039 0.0016758744 -0.0046044824
v 0.0010000485 0.0020708055 -0.0044408975
v 0.0010000575 0.0024499767 -0.004243513
v 0.0010000661 0.002810501 -0.0040138339
v 0.0010000742 0.0031496346 -0.0037536038
v 0.0010000817 0.0034647998 -0.0034648118
v 0.0010000886 0.0037535936 -0.0031496485
v 0.0010000948 0.0040138219 -0.002810513
v 0.0010001003 0.0042435009 -0.0024499868
v 0.001000105 0.0044408836 -0.0020708156
v 0.0010001089 0.0046044704 -0.0016758863
v 0.001000112 0.0047330134 -0.0012682017
v 0.0010001142 0.0048255347 -0.00085086495
v 0.0010001156 0.0048813302 -0.00042704985
v 0.001000116 0.0048999753 1.3712263e-08
v 0.0010001156 0.0048813302 0.00042707726
v 0.0010001142 0.0048255347 0.00085088864
v 0.001000112 0.0047330134 0.0012682255
v 0.0010001089 0.0046044704 0.0016759101
v 0.001000105 0.0044408836 0.0020708429
v 0.0010001003 0.0042435009 0.0024500141
v 0.0010000948 0.0040138219 0.0028105366
v 0.0010000886 0.0037535936 0.0031496721
v 0.0010000817 0.0034647998 0.0034648354
v 0.0010000742 0.0031496346 0.0037536311
v 0.0010000661 0.002810501 0.0040138575
v 0.0010000575 0.0024499767 0.0042435365
v 0.0010000485 0.0020708055 0.004440921
v 0.001000039 0.0016758744 0.004604506
v 0.0010000293 0.0012681898 0.0047330471
v 0.0010000193 0.00085085297 0.0048255684
v 0.0010000092 0.00042703976 0.0048813658
v 0.00099999902 -2.3800368e-08 0.0049000109
v 0.00099998882 -0.00042708734 0.0048813658
v 0.0009999787 -0.00085090061 0.0048255684
v 0.00099996874 -0.0012682374 0.0047330471
v 0.000999959 -0.001675922 0.004604506
v 0.00099994957 -0.0020708531 0.004440921
v 0.00099994052 -0.0024500243 0.0042435365
v 0.00099993191 -0.0028105486 0.0040138575
v 0.00099992382 -0.0031496832 0.0037536311
v 0.00099991629 -0.0034648474 0.0034648354
v 0.0009999094 -0.0037536412 0.0031496721
v 0.00099990319 -0.0040138686 0.0028105366
v 0.0009998977 -0.0042435486 0.0024500141
v 0.00099989299 -0.0044409321 0.0020708429
v 0.00099988908 -0.004604518 0.0016759101
v 0.00099988601 -0.0047330601 0.0012682255
v 0.00099988381 -0.0048255823 0.00085088864
v 0.00099988247 -0.0048813779 0.00042707726
v 0.00099988203 -0.0049000239 1.3712263e-08
v 0.00099988247 -0.0048813779 -0.00042704985
v 0.00099988381 -0.0048255823 -0.00085086495
v 0.00099988601 -0.0047330601 -0.0012682017
v 0.00099988908 -0.004604518 -0.0016758863
v 0.00099989299 -0.0044409321 -0.0020708156
v 0.0009998977 -0.0042435486 -0.0024499868
v 0.00099990319 -0.0040138686 -0.002810513
v 0.0009999094 -0.0037536412 -0.0031496485
v -0.0010000013 2.3949434e-08 -0.0048999873
v -0.0010000115 -0.00042703959 -0.0048813423
v -0.0010000216 -0.00085085286 -0.0048255449
v -0.0010000316 -0.0012681897 -0.0047330236
v -0.0010000413 -0.0016758743 -0.0046044824
v -0.0010000508 -0.0020708053 -0.0044408975
v -0.0010000598 -0.0024499766 -0.004243513
v -0.0010000684 -0.0028105008 -0.0040138339
v -0.0010000765 -0.0031496354 -0.0037536038
v -0.001000084 -0.0034647997 -0.0034648118
v -0.0010000909 -0.0037535935 -0.0031496485
v -0.0010000971 -0.0040138208 -0.002810513
v -0.0010001026 -0.0042435008 -0.0024499868
v -0.0010001073 -0.0044408844 -0.0020708156
v -0.0010001112 -0.0046044703 -0.0016758863
v -0.0010001143 -0.0047330123 -0.0012682017
v -0.0010001165 -0.0048255346 -0.00085086495
v -0.0010001179 -0.0048813301 -0.00042704985
v -0.0010001183 -0.0048999761 1.3712263e-08
v -0.0010001179 -0.0048813301 0.00042707726
v -0.0010001165 -0.0048255346 0.00085088864
v -0.0010001143 -0.0047330123 0.0012682255
v -0.0010001112 -0.0046044703 0.0016759101
v -0.0010001073 -0.0044408844 0.0020708429
v -0.0010001026 -0.0042435008 0.0024500141
v -0.0010000971 -0.0040138208 0.0028105366
v -0.0010000909 -0.0037535935 0.0031496721
v -0.001000084 -0.0034647997 0.0034648354
v -0.0010000765 -0.0031496354 0.0037536311
v -0.0010000684 -0.0028105008 0.0040138575
v -0.0010000598 -0.0024499766 0.0042435365
v -0.0010000508 -0.0020708053 0.004440921
v -0.0010000413 -0.0016758743 0.004604506
v -0.0010000316 -0.0012681897 0.0047330471
v -0.0010000216 -0.00085085286 0.0048255684
v -0.0010000115 -0.00042703959 0.0048813658
v -0.0010000013 2.3949434e-08 0.0049000109
v -0.00099999112 0.00042708751 0.0048813658
v -0.000999981 0.00085090072 0.0048255684
v -0.00099997103 0.0012682375 0.0047330471
v -0.0009999613 0.0016759221 0.004604506
v -0.00099995187 0.0020708532 0.004440921
v -0.00099994282 0.0024500244 0.0042435365
v -0.00099993421 0.0028105487 0.0040138575
v -0.00099992611 0.0031496824 0.0037536311
v -0.00099991859 0.0034648475 0.0034648354
v -0.00099991169 0.0037536413 0.0031496721
v -0.00099990548 0.0040138696 0.0028105366
v -0.0009999 0.0042435487 0.0024500141
v -0.00099989529 0.0044409313 0.0020708429
v -0.00099989138 0.0046045181 0.0016759101
v -0.00099988831 0.0047330611 0.0012682255
v -0.0009998861 0.0048255824 0.00085088864
v -0.00099988477 0.004881378 0.00042707726
v -0.00099988432 0.0049000231 1.3712263e-08
v -0.00099988477 0.004881378 -0.00042704985
v -0.0009998861 0.0048255824 -0.00085086495
v -0.00099988831 0.0047330611 -0.0012682017
v -0.00099989138 0.0046045181 -0.0016758863
v -0.00099989529 0.0044409313 -0.0020708156
v -0.0009999 0.0042435487 -0.0024499868
v -0.00099990548 0.0040138696 -0.002810513
v -0.00099991169 0.0037536413 -0.0031496485
v -0.00099991859 0.0034648475 -0.0034648118
v -0.00099992611 0.0031496824 -0.0037536038
v -0.00099993421 0.0028105487 -0.0040138339
v -0.00099994282 0.0024500244 -0.004243513
v -0.00099995187 0.0020708532 -0.0044408975
v -0.0009999613 0.0016759221 -0.0046044824
v -0.00099997103 0.0012682375 -0.0047330236
v -0.000999981 0.00085090072 -0.0048255449
v -0.00099999112 0.00042708751 -0.0048813423
v -0.00099988975 0.0046728958 0.0039210158
v -0.00099988201 0.0049968508 0.0034988287
v -0.00099987519 0.005282778 0.0030500131
v -0.00099986932 0.0055285019 0.0025779853
v -0.00099986446 0.0057321486 0.0020863364
v -0.00099986064 0.0058921722 0.0015788104
v -0.00099985789 0.0060073507 0.0010592665
v -0.00099985623 0.0060768106 0.00053166106
v -0.00099985567 0.0061000247 1.3712263e-08
v -0.00099985623 0.0060768106 -0.00053163737
v -0.00099985789 0.0060073507 -0.0010592427
v -0.00099986064 0.0058921722 -0.0015787829
v -0.00099986446 0.0057321486 -0.0020863091
v -0.00099986932 0.0055285019 -0.002577958
v -0.00099987519 0.005282778 -0.0030499896
v -0.00099988201 0.0049968508 -0.0034988051
v -0.00099988975 0.0046728958 -0.0039209922
v -0.00099989833 0.0043133755 -0.0043133398
v -0.0009999077 0.0039210279 -0.0046728601
v -0.00099991778 0.0034988408 -0.0049968151
v -0.00099992849 0.0030500234 -0.0052827423
v -0.00099993976 0.0025779956 -0.0055284662
v -0.0009999515 0.0020863467 -0.0057321129
v -0.00099996362 0.0015788206 -0.0058921365
v -0.00099997602 0.0010592786 -0.006007315
v -0.00099998862 0.00053167315 -0.0060767767
v -0.0010000013 2.3949434e-08 -0.006099989
v -0.001000014 -0.00053162529 -0.0060767767
v -0.0010000266 -0.0010592307 -0.006007315
v -0.001000039 -0.0015787727 -0.0058921365
v -0.0010000511 -0.0020862988 -0.0057321129
v -0.0010000629 -0.0025779477 -0.0055284662
v -0.0010000741 -0.0030499765 -0.0052827423
v -0.0010000848 -0.003498792 -0.0049968151
v -0.0010000949 -0.003920981 -0.0046728601
v -0.0010001043 -0.0043133277 -0.0043133398
v -0.0010001129 -0.004672847 -0.0039209922
v -0.0010001206 -0.0049968039 -0.0034988051
v -0.0010001274 -0.0052827311 -0.0030499896
v -0.0010001333 -0.005528454 -0.002577958
v -0.0010001382 -0.0057321007 -0.0020863091
v -0.001000142 -0.0058921234 -0.0015787829
v -0.0010001447 -0.0060073038 -0.0010592427
v -0.0010001464 -0.0060767637 -0.00053163737
v -0.0010001469 -0.0060999759 1.3712263e-08
v -0.0010001464 -0.0060767637 0.00053166106
v -0.0010001447 -0.0060073038 0.0010592665
v -0.001000142 -0.0058921234 0.0015788104
v -0.0010001382 -0.0057321007 0.0020863364
v -0.0010001333 -0.005528454 0.0025779853
v -0.0010001274 -0.0052827311 0.0030500131
v -0.0010001206 -0.0049968039 0.0034988287
v -0.0010001129 -0.004672847 0.0039210158
v -0.0010001043 -0.0043133277 0.0043133634
v -0.0010000949 -0.003920981 0.0046728837
v -0.0010000848 -0.003498792 0.0049968387
v -0.0010000741 -0.0030499765 0.0052827659
v -0.0010000629 -0.0025779477 0.0055284897
v -0.0010000511 -0.0020862988 0.0057321365
v -0.001000039 -0.0015787727 0.00589216
v -0.0010000266 -0.0010592307 0.0060073386
v -0.001000014 -0.00053162529 0.0060768003
v -0.0010000013 2.3949434e-08 0.0061000126
v -0.00099998862 0.00053167315 0.0060768003
v -0.00099997602 0.0010592786 0.0060073386
v -0.00099996362 0.0015788206 0.00589216
v -0.0009999515 0.0020863467 0.0057321365
v -0.00099993976 0.0025779956 0.0055284897
v -0.00099992849 0.0030500234 0.0052827659
v -0.00099991778 0.0034988408 0.0049968387
v -0.0009999077 0.0039210279 0.0046728837
v -0.00099989833 0.0043133755 0.0043133634
v -0.0038000003 9.0799121e-08 -0.006099989
v -0.003800013 -0.00053155844 -0.0060767767
v -0.0038000256 -0.0010591639 -0.006007315
v -0.003800038 -0.0015787059 -0.0058921365
v -0.0038000501 -0.002086232 -0.0057321129
v -0.0038000618 -0.0025778809 -0.0055284662
v -0.0038000731 -0.0030499096 -0.0052827423
v -0.0038000838 -0.0034987252 -0.0049968151
v -0.0038000939 -0.0039209142 -0.0046728601
v -0.0038001033 -0.0043132608 -0.0043133398
v -0.0038001118 -0.0046727802 -0.0039209922
v -0.0038001196 -0.004996737 -0.0034988051
v -0.0038001264 -0.0052826642 -0.0030499896
v -0.0038001323 -0.0055283872 -0.002577958
v -0.0038001371 -0.0057320339 -0.0020863091
v -0.003800141 -0.0058920565 -0.0015787829
v -0.0038001437 -0.0060072369 -0.0010592427
v -0.0038001454 -0.0060766968 -0.00053163737
v -0.0038001459 -0.0060999091 1.3712263e-08
v -0.0038001454 -0.0060766968 0.00053166106
v -0.0038001437 -0.0060072369 0.0010592665
v -0.003800141 -0.0058920565 0.0015788104
v -0.0038001371 -0.0057320339 0.0020863364
v -0.0038001323 -0.0055283872 0.0025779853
v -0.0038001264 -0.0052826642 0.0030500131
v -0.0038001196 -0.004996737 0.0034988287
v -0.0038001118 -0.0046727802 0.0039210158
v -0.0038001033 -0.0043132608 0.0043133634
v -0.0038000939 -0.0039209142 0.0046728837
v -0.0038000838 -0.0034987252 0.0049968387
v -0.0038000731 -0.0030499096 0.0052827659
v -0.0038000618 -0.0025778809 0.0055284897
v -0.0038000501 -0.002086232 0.0057321365
v -0.003800038 -0.0015787059 0.00589216
v -0.0038000256 -0.0010591639 0.0060073386
v -0.003800013 -0.00053155844 0.0060768003
v -0.0038000003 9.0799121e-08 0.0061000126
v -0.0037999876 0.00053174 0.0060768003
v -0.003799975 0.0010593454 0.0060073386
v -0.0037999626 0.0015788874 0.00589216
v -0.0037999505 0.0020864135 0.0057321365
v -0.0037999387 0.0025780624 0.0055284897
v -0.0037999275 0.0030500903 0.0052827659
v -0.0037999167 0.0034989076 0.0049968387
v -0.0037999067 0.0039210948 0.0046728837
v -0.0037998973 0.0043134424 0.0043133634
v -0.0037998887 0.0046729627 0.0039210158
v -0.003799881 0.0049969177 0.0034988287
v -0.0037998742 0.0052828449 0.0030500131
v -0.0037998683 0.0055285687 0.0025779853
v -0.0037998634 0.0057322154 0.0020863364
v -0.0037998596 0.005892239 0.0015788104
v -0.0037998569 0.0060074175 0.0010592665
v -0.0037998552 0.0060768774 0.00053166106
v -0.0037998546 0.0061000916 1.3712263e-08
v -0.0037998552 0.0060768774 -0.00053163737
v -0.0037998569 0.0060074175 -0.0010592427
v -0.0037998596 0.005892239 -0.0015787829
v -0.0037998634 0.0057322154 -0.0020863091
v -0.0037998683 0.0055285687 -0.002577958
v -0.0037998742 0.0052828449 -0.0030499896
v -0.003799881 0.0049969177 -0.0034988051
v -0.0037998887 0.0046729627 -0.0039209922
v -0.0037998973 0.0043134424 -0.0043133398
v -0.0037999067 0.0039210948 -0.0046728601
v -0.0037999167 0.0034989076 -0.0049968151
v -0.0037999275 0.0030500903 -0.0052827423
v -0.0037999387 0.0025780624 -0.0055284662
v -0.0037999505 0.0020864135 -0.0057321129
v -0.0037999626 0.0015788874 -0.0058921365
v -0.003799975 0.0010593454 -0.006007315
v -0.0037999876 0.00053174 -0.0060767767
v -0.0038001907 -0.0079768519 0.0014065642
v -0.0038001871 -0.0078239083 0.0020964468
v -0.003800182 -0.0076114196 0.0027703742
v -0.0038001755 -0.0073410026 0.0034232202
v -0.0038001678 -0.0070147147 0.0040500114
v -0.0038001587 -0.0066350405 0.0046459796
v -0.0038001484 -0.0062048692 0.0052065911
v -0.003800137 -0.0057274741 0.0057275767
v -0.0038001246 -0.0052064886 0.0062049727
v -0.0038001112 -0.004645878 0.0066351431
v -0.003800097 -0.0040499089 0.0070148172
v -0.003800082 -0.0034231176 0.0073411042
v -0.0038000664 -0.0027702726 0.0076115231
v -0.0038000503 -0.0020963433 0.0078240104
v -0.0038000339 -0.0014064596 0.0079769559
v -0.0038000171 -0.00070587036 0.0080691903
v -0.0038000003 9.0799121e-08 0.0081000134
v -0.0037999834 0.00070605192 0.0080691903
v -0.0037999667 0.0014066412 0.0079769559
v -0.0037999502 0.0020965258 0.0078240104
v -0.0037999341 0.0027704532 0.0076115231
v -0.0037999186 0.0034232992 0.0073411042
v -0.0037999036 0.0040500904 0.0070148172
v -0.0037998894 0.0046460605 0.0066351431
v -0.003799876 0.0052066701 0.0062049727
v -0.0037998635 0.0057276557 0.0057275767
v -0.0037998521 0.0062050498 0.0052065911
v -0.0037998419 0.0066352221 0.0046459796
v -0.0037998328 0.0070148962 0.0040500114
v -0.003799825 0.0073411832 0.0034232202
v -0.0037998186 0.0076116002 0.0027703742
v -0.0037998135 0.0078240907 0.0020964468
v -0.0037998098 0.0079770344 0.0014065642
v -0.0037998076 0.008069267 0.00070597485
v -0.0037998069 0.0081000901 1.3712263e-08
v -0.0037998076 0.008069267 -0.00070594743
v -0.0037998098 0.0079770344 -0.0014065366
v -0.0037998135 0.0078240907 -0.0020964233
v -0.0037998186 0.0076116002 -0.0027703506
v -0.003799825 0.0073411832 -0.0034231966
v -0.0037998328 0.0070148962 -0.0040499879
v -0.0037998419 0.0066352221 -0.0046459561
v -0.0037998521 0.0062050498 -0.0052065676
v -0.0037998635 0.0057276557 -0.0057275531
v -0.003799876 0.0052066701 -0.0062049491
v -0.0037998894 0.0046460605 -0.0066351195
v -0.0037999036 0.0040500904 -0.0070147937
v -0.0037999186 0.0034232992 -0.0073410807
v -0.0037999341 0.0027704532 -0.0076114976
v -0.0037999502 0.0020965258 -0.0078239859
v -0.0037999667 0.0014066412 -0.0079769295
v -0.0037999834 0.00070605192 -0.008069164
v -0.0038000003 9.0799121e-08 -0.008099987
v -0.0038000171 -0.00070587036 -0.008069164
v -0.0038000339 -0.0014064596 -0.0079769295
v -0.0038000503 -0.0020963433 -0.0078239859
v -0.0038000664 -0.0027702726 -0.0076114976
v -0.003800082 -0.0034231176 -0.0073410807
v -0.003800097 -0.0040499089 -0.0070147937
v -0.0038001112 -0.004645878 -0.0066351195
v -0.0038001246 -0.0052064886 -0.0062049491
v -0.003800137 -0.0057274741 -0.0057275531
v -0.0038001484 -0.0062048692 -0.0052065676
v -0.0038001587 -0.0066350405 -0.0046459561
v -0.0038001678 -0.0070147147 -0.0040499879
v -0.0038001755 -0.0073410026 -0.0034231966
v -0.003800182 -0.0076114196 -0.0027703506
v -0.0038001871 -0.0078239083 -0.0020964233
v -0.0038001907 -0.0079768519 -0.0014065366
v -0.0038001929 -0.0080690864 -0.00070594743
v -0.0038001937 -0.0080999094 1.3712263e-08
v -0.0038001929 -0.0080690864 0.00070597485
v -0.0012999989 3.1111847e-08 -0.008099987
v 0.0012999835 -0.00070599212 -0.008069164
v -0.0013000158 -0.00070593004 -0.008069164
v 0.0012999668 -0.0014065814 -0.0079769295
v -0.0013000325 -0.0014065193 -0.0079769295
v 0.0012999503 -0.0020964651 -0.0078239859
v -0.001300049 -0.002096403 -0.0078239859
v 0.0012999342 -0.0027703943 -0.0076114976
v -0.0013000651 -0.0027703323 -0.0076114976
v 0.0012999186 -0.0034232394 -0.0073410807
v -0.0013000807 -0.0034231773 -0.0073410807
v 0.0012999037 -0.0040500306 -0.0070147937
v -0.0013000956 -0.0040499685 -0.0070147937
v 0.0012998894 -0.0046459998 -0.0066351195
v -0.0013001099 -0.0046459377 -0.0066351195
v 0.0012998761 -0.0052066103 -0.0062049491
v -0.0013001232 -0.0052065482 -0.0062049491
v 0.0012998636 -0.0057275959 -0.0057275531
v -0.0013001357 -0.0057275338 -0.0057275531
v 0.0012998522 -0.0062049909 -0.0052065676
v -0.0013001471 -0.0062049288 -0.0052065676
v 0.001299842 -0.0066351623 -0.0046459561
v -0.0013001574 -0.0066351002 -0.0046459561
v 0.0012998329 -0.0070148364 -0.0040499879
v -0.0013001664 -0.0070147744 -0.0040499879
v 0.0012998251 -0.0073411244 -0.0034231966
v -0.0013001742 -0.0073410623 -0.0034231966
v 0.0012998186 -0.0076115413 -0.0027703506
v -0.0013001807 -0.0076114792 -0.0027703506
v 0.0012998136 -0.00782403 -0.0020964233
v -0.0013001857 -0.0078239679 -0.0020964233
v 0.0012998099 -0.0079769737 -0.0014065366
v -0.0013001894 -0.0079769116 -0.0014065366
v 0.0012998077 -0.0080692081 -0.00070594743
v -0.0013001916 -0.0080691461 -0.00070594743
v 0.001299807 -0.0081000312 1.3712263e-08
v -0.0013001923 -0.0080999691 1.3712263e-08
v 0.0012998077 -0.0080692081 0.00070597485
v -0.0013001916 -0.0080691461 0.00070597485
v 0.0012998099 -0.0079769737 0.0014065642
v -0.0013001894 -0.0079769116 0.0014065642
v 0.0012998136 -0.00782403 0.0020964468
v -0.0013001857 -0.0078239679 0.0020964468
v 0.0012998186 -0.0076115413 0.0027703742
v -0.0013001807 -0.0076114792 0.0027703742
v 0.0012998251 -0.0073411244 0.0034232202
v -0.0013001742 -0.0073410623 0.0034232202
v 0.0012998329 -0.0070148364 0.0040500114
v -0.0013001664 -0.0070147744 0.0040500114
v 0.001299842 -0.0066351623 0.0046459796
v -0.0013001574 -0.0066351002 0.0046459796
v 0.0012998522 -0.0062049909 0.0052065911
v -0.0013001471 -0.0062049288 0.0052065911
v 0.0012998636 -0.0057275959 0.0057275767
v -0.0013001357 -0.0057275338 0.0057275767
v 0.0012998761 -0.0052066103 0.0062049727
v -0.0013001232 -0.0052065482 0.0062049727
v 0.0012998894 -0.0046459998 0.0066351431
v -0.0013001099 -0.0046459377 0.0066351431
v 0.0012999037 -0.0040500306 0.0070148172
v -0.0013000956 -0.0040499685 0.0070148172
v 0.0012999186 -0.0034232394 0.0073411042
v -0.0013000807 -0.0034231773 0.0073411042
v 0.0012999342 -0.0027703943 0.0076115231
v -0.0013000651 -0.0027703323 0.0076115231
v 0.0012999503 -0.0020964651 0.0078240104
v -0.001300049 -0.002096403 0.0078240104
v 0.0012999668 -0.0014065814 0.0079769559
v -0.0013000325 -0.0014065193 0.0079769559
v 0.0012999835 -0.00070599212 0.0080691903
v -0.0013000158 -0.00070593004 0.0080691903
v 0.0013000004 -3.0962869e-08 0.0081000134
v -0.0012999989 3.1111847e-08 0.0081000134
v 0.0013000172 0.00070593016 0.0080691903
v -0.0012999821 0.00070599223 0.0080691903
v 0.0013000339 0.0014065194 0.0079769559
v -0.0012999654 0.0014065815 0.0079769559
v 0.0013000504 0.0020964041 0.0078240104
v -0.0012999489 0.0020964661 0.0078240104
v 0.0013000665 0.0027703314 0.0076115231
v -0.0012999328 0.0027703935 0.0076115231
v 0.0013000821 0.0034231774 0.0073411042
v -0.0012999172 0.0034232395 0.0073411042
v 0.0013000971 0.0040499687 0.0070148172
v -0.0012999022 0.0040500307 0.0070148172
v 0.0013001113 0.0046459387 0.0066351431
v -0.001299888 0.0046460008 0.0066351431
v 0.0013001247 0.0052065484 0.0062049727
v -0.0012998746 0.0052066104 0.0062049727
v 0.0013001371 0.0057275339 0.0057275767
v -0.0012998622 0.005727596 0.0057275767
v 0.0013001485 0.006204928 0.0052065911
v -0.0012998508 0.0062049901 0.0052065911
v 0.0013001588 0.0066351003 0.0046459796
v -0.0012998405 0.0066351624 0.0046459796
v 0.0013001678 0.0070147745 0.0040500114
v -0.0012998315 0.0070148365 0.0040500114
v 0.0013001756 0.0073410615 0.0034232202
v -0.0012998237 0.0073411235 0.0034232202
v 0.0013001821 0.0076114784 0.0027703742
v -0.0012998172 0.0076115405 0.0027703742
v 0.0013001872 0.007823969 0.0020964468
v -0.0012998121 0.0078240311 0.0020964468
v 0.0013001908 0.0079769126 0.0014065642
v -0.0012998085 0.0079769747 0.0014065642
v 0.001300193 0.0080691452 0.00070597485
v -0.0012998063 0.0080692073 0.00070597485
v 0.0013001938 0.0080999683 1.3712263e-08
v -0.0012998056 0.0081000304 1.3712263e-08
v 0.001300193 0.0080691452 -0.00070594743
v -0.0012998063 0.0080692073 -0.00070594743
v 0.0013001908 0.0079769126 -0.0014065366
v -0.0012998085 0.0079769747 -0.0014065366
v 0.0013001872 0.007823969 -0.0020964233
v -0.0012998121 0.0078240311 -0.0020964233
v 0.0013001821 0.0076114784 -0.0027703506
v -0.0012998172 0.0076115405 -0.0027703506
v 0.0013001756 0.0073410615 -0.0034231966
v -0.0012998237 0.0073411235 -0.0034231966
v 0.0013001678 0.0070147745 -0.0040499879
v -0.0012998315 0.0070148365 -0.0040499879
v 0.0013001588 0.0066351003 -0.0046459561
v -0.0012998405 0.0066351624 -0.0046459561
v 0.0013001485 0.006204928 -0.0052065676
v -0.0012998508 0.0062049901 -0.0052065676
v 0.0013001371 0.0057275339 -0.0057275531
v -0.0012998622 0.005727596 -0.0057275531
v 0.0013001247 0.0052065484 -0.0062049491
v -0.0012998746 0.0052066104 -0.0062049491
v 0.0013001113 0.0046459387 -0.0066351195
v -0.001299888 0.0046460008 -0.0066351195
v 0.0013000971 0.0040499687 -0.0070147937
v -0.0012999022 0.0040500307 -0.0070147937
v 0.0013000821 0.0034231774 -0.0073410807
v -0.0012999172 0.0034232395 -0.0073410807
v 0.0013000665 0.0027703314 -0.0076114976
v -0.0012999328 0.0027703935 -0.0076114976
v 0.0013000504 0.0020964041 -0.0078239859
v -0.0012999489 0.0020964661 -0.0078239859
v 0.0013000339 0.0014065194 -0.0079769295
v -0.0012999654 0.0014065815 -0.0079769295
v 0.0013000172 0.00070593016 -0.008069164
v -0.0012999821 0.00070599223 -0.008069164
v 0.0013000004 -3.0962869e-08 -0.008099987
v -0.0013002392 -0.010061536 0.00088028491
v -0.0013002401 -0.010099969 1.3712263e-08
v -0.0013002392 -0.010061536 -0.00088026121
v -0.0013002364 -0.0099465266 -0.0017538343
v -0.0013002319 -0.0097558197 -0.0026140598
v -0.0013002255 -0.009490864 -0.0034543922
v -0.0013002175 -0.0091536777 -0.0042684314
v -0.0013002078 -0.0087468257 -0.0050499862
v -0.0013001965 -0.0082734047 -0.0057931108
v -0.0013001837 -0.0077370178 -0.0064921429
v -0.0013001694 -0.0071417472 -0.0071417665
v -0.0013001539 -0.0064921236 -0.0077370362
v -0.0013001372 -0.0057930905 -0.0082734235
v -0.0013001195 -0.0050499687 -0.0087468446
v -0.0013001008 -0.004268413 -0.0091536966
v -0.0013000814 -0.0034543729 -0.0094908819
v -0.0013000614 -0.0026140414 -0.0097558376
v -0.0013000408 -0.0017538151 -0.0099465464
v -0.00130002 -0.00088024197 -0.010061554
v -0.0012999989 3.1111847e-08 -0.010099987
v -0.0012999779 0.00088030415 -0.010061554
v -0.0012999571 0.0017538773 -0.0099465464
v -0.0012999365 0.0026141027 -0.0097558376
v -0.0012999165 0.003454435 -0.0094908819
v -0.001299897 0.0042684762 -0.0091536966
v -0.0012998784 0.0050500309 -0.0087468446
v -0.0012998606 0.0057931537 -0.0082734235
v -0.0012998439 0.0064921858 -0.0077370362
v -0.0012998284 0.0071418093 -0.0071417665
v -0.0012998142 0.0077370791 -0.0064921429
v -0.0012998014 0.0082734668 -0.0057931108
v -0.0012997901 0.0087468879 -0.0050499862
v -0.0012997804 0.0091537399 -0.0042684314
v -0.0012997723 0.0094909271 -0.0034543922
v -0.001299766 0.0097558828 -0.0026140598
v -0.0012997615 0.0099465897 -0.0017538343
v -0.0012997587 0.010061597 -0.00088026121
v -0.0012997578 0.010100031 1.3712263e-08
v -0.0012997587 0.010061597 0.00088028491
v -0.0012997615 0.0099465897 0.0017538581
v -0.001299766 0.0097558828 0.0026140834
v -0.0012997723 0.0094909271 0.0034544157
v -0.0012997804 0.0091537399 0.004268455
v -0.0012997901 0.0087468879 0.0050500135
v -0.0012998014 0.0082734668 0.0057931344
v -0.0012998142 0.0077370791 0.0064921665
v -0.0012998284 0.0071418093 0.00714179
v -0.0012998439 0.0064921858 0.0077370616
v -0.0012998606 0.0057931537 0.008273448
v -0.0012998784 0.0050500309 0.0087468691
v -0.001299897 0.0042684762 0.0091537229
v -0.0012999165 0.003454435 0.0094909064
v -0.0012999365 0.0026141027 0.009755864
v -0.0012999571 0.0017538773 0.0099465727
v -0.0012999779 0.00088030415 0.01006158
v -0.0012999989 3.1111847e-08 0.010100014
v -0.00130002 -0.00088024197 0.01006158
v -0.0013000408 -0.0017538151 0.0099465727
v -0.0013000614 -0.0026140414 0.009755864
v -0.0013000814 -0.0034543729 0.0094909064
v -0.0013001008 -0.004268413 0.0091537229
v -0.0013001195 -0.0050499687 0.0087468691
v -0.0013001372 -0.0057930905 0.008273448
v -0.0013001539 -0.0064921236 0.0077370616
v -0.0013001694 -0.0071417472 0.00714179
v -0.0013001837 -0.0077370178 0.0064921665
v -0.0013001965 -0.0082734047 0.0057931344
v -0.0013002078 -0.0087468257 0.0050500135
v -0.0013002175 -0.0091536777 0.004268455
v -0.0013002255 -0.009490864 0.0034544157
v -0.0013002319 -0.0097558197 0.0026140834
v -0.0013002364 -0.0099465266 0.0017538581
v -0.0025000006 5.9761763e-08 -0.010099987
v -0.0025000216 -0.00088021332 -0.010061554
v -0.0025000425 -0.0017537864 -0.0099465464
v -0.002500063 -0.0026140128 -0.0097558376
v -0.0025000831 -0.0034543442 -0.0094908819
v -0.0025001025 -0.0042683844 -0.0091536966
v -0.0025001212 -0.0050499401 -0.0087468446
v -0.0025001389 -0.0057930619 -0.0082734235
v -0.0025001556 -0.0064920949 -0.0077370362
v -0.0025001711 -0.0071417185 -0.0071417665
v -0.0025001853 -0.0077369892 -0.0064921429
v -0.0025001982 -0.008273376 -0.0057931108
v -0.0025002095 -0.0087467971 -0.0050499862
v -0.0025002192 -0.0091536491 -0.0042684314
v -0.0025002272 -0.0094908353 -0.0034543922
v -0.0025002335 -0.009755791 -0.0026140598
v -0.0025002381 -0.0099464979 -0.0017538343
v -0.0025002408 -0.010061507 -0.00088026121
v -0.0025002418 -0.01009994 1.3712263e-08
v -0.0025002408 -0.010061507 0.00088028491
v -0.0025002381 -0.0099464979 0.0017538581
v -0.0025002335 -0.009755791 0.0026140834
v -0.0025002272 -0.0094908353 0.0034544157
v -0.0025002192 -0.0091536491 0.004268455
v -0.0025002095 -0.0087467971 0.0050500135
v -0.0025001982 -0.008273376 0.0057931344
v -0.0025001853 -0.0077369892 0.0064921665
v -0.0025001711 -0.0071417185 0.00714179
v -0.0025001556 -0.0064920949 0.0077370616
v -0.0025001389 -0.0057930619 0.008273448
v -0.0025001212 -0.0050499401 0.0087468691
v -0.0025001025 -0.0042683844 0.0091537229
v -0.0025000831 -0.0034543442 0.0094909064
v -0.002500063 -0.0026140128 0.009755864
v -0.0025000425 -0.0017537864 0.0099465727
v -0.0025000216 -0.00088021332 0.01006158
v -0.0025000006 5.9761763e-08 0.010100014
v -0.0024999796 0.0008803328 0.01006158
v -0.0024999588 0.0017539059 0.0099465727
v -0.0024999382 0.0026141313 0.009755864
v -0.0024999182 0.0034544637 0.0094909064
v -0.0024998987 0.0042685048 0.0091537229
v -0.0024998801 0.0050500595 0.0087468691
v -0.0024998623 0.0057931823 0.008273448
v -0.0024998456 0.0064922144 0.0077370616
v -0.0024998301 0.007141838 0.00714179
v -0.0024998159 0.0077371077 0.0064921665
v -0.0024998031 0.0082734955 0.0057931344
v -0.0024997918 0.0087469166 0.0050500135
v -0.0024997821 0.0091537686 0.004268455
v -0.002499774 0.0094909558 0.0034544157
v -0.0024997677 0.0097559114 0.0026140834
v -0.0024997632 0.0099466184 0.0017538581
v -0.0024997604 0.010061626 0.00088028491
v -0.0024997595 0.010100059 1.3712263e-08
v -0.0024997604 0.010061626 -0.00088026121
v -0.0024997632 0.0099466184 -0.0017538343
v -0.0024997677 0.0097559114 -0.0026140598
v -0.002499774 0.0094909558 -0.0034543922
v -0.0024997821 0.0091537686 -0.0042684314
v -0.0024997918 0.0087469166 -0.0050499862
v -0.0024998031 0.0082734955 -0.0057931108
v -0.0024998159 0.0077371077 -0.0064921429
v -0.0024998301 0.007141838 -0.0071417665
v -0.0024998456 0.0064922144 -0.0077370362
v -0.0024998623 0.0057931823 -0.0082734235
v -0.0024998801 0.0050500595 -0.0087468446
v -0.0024998987 0.0042685048 -0.0091536966
v -0.0024999182 0.0034544637 -0.0094908819
v -0.0024999382 0.0026141313 -0.0097558376
v -0.0024999588 0.0017539059 -0.0099465464
v -0.0024999796 0.0008803328 -0.010061554
v -0.002500159 -0.0066350716 -0.0046459561
v -0.0025001681 -0.0070147457 -0.0040499879
v -0.0025001759 -0.0073410336 -0.0034231966
v -0.0025001823 -0.0076114506 -0.0027703506
v -0.0025001874 -0.0078239393 -0.0020964233
v -0.0025001911 -0.007976883 -0.0014065366
v -0.0025001933 -0.0080691174 -0.00070594743
v -0.002500194 -0.0080999405 1.3712263e-08
v -0.0025001933 -0.0080691174 0.00070597485
v -0.0025001911 -0.007976883 0.0014065642
v -0.0025001874 -0.0078239393 0.0020964468
v -0.0025001823 -0.0076114506 0.0027703742
v -0.0025001759 -0.0073410336 0.0034232202
v -0.0025001681 -0.0070147457 0.0040500114
v -0.002500159 -0.0066350716 0.0046459796
v -0.0025001488 -0.0062049002 0.0052065911
v -0.0025001374 -0.0057275052 0.0057275767
v -0.0025001249 -0.0052065196 0.0062049727
v -0.0025001115 -0.004645909 0.0066351431
v -0.0025000973 -0.0040499399 0.0070148172
v -0.0025000824 -0.0034231486 0.0073411042
v -0.0025000668 -0.0027703036 0.0076115231
v -0.0025000507 -0.0020963744 0.0078240104
v -0.0025000342 -0.0014064907 0.0079769559
v -0.0025000175 -0.00070590139 0.0080691903
v -0.0025000006 5.9761763e-08 0.0081000134
v -0.0024999838 0.00070602088 0.0080691903
v -0.002499967 0.0014066101 0.0079769559
v -0.0024999506 0.0020964948 0.0078240104
v -0.0024999345 0.0027704222 0.0076115231
v -0.0024999189 0.0034232681 0.0073411042
v -0.0024999039 0.0040500594 0.0070148172
v -0.0024998897 0.0046460295 0.0066351431
v -0.0024998763 0.0052066391 0.0062049727
v -0.0024998639 0.0057276247 0.0057275767
v -0.0024998525 0.0062050187 0.0052065911
v -0.0024998422 0.0066351911 0.0046459796
v -0.0024998331 0.0070148652 0.0040500114
v -0.0024998254 0.0073411522 0.0034232202
v -0.0024998189 0.0076115692 0.0027703742
v -0.0024998138 0.0078240597 0.0020964468
v -0.0024998102 0.0079770034 0.0014065642
v -0.002499808 0.008069236 0.00070597485
v -0.0024998072 0.008100059 1.3712263e-08
v -0.002499808 0.008069236 -0.00070594743
v -0.0024998102 0.0079770034 -0.0014065366
v -0.0024998138 0.0078240597 -0.0020964233
v -0.0024998189 0.0076115692 -0.0027703506
v -0.0024998254 0.0073411522 -0.0034231966
v -0.0024998331 0.0070148652 -0.0040499879
v -0.0024998422 0.0066351911 -0.0046459561
v -0.0024998525 0.0062050187 -0.0052065676
v -0.0024998639 0.0057276247 -0.0057275531
v -0.0024998763 0.0052066391 -0.0062049491
v -0.0024998897 0.0046460295 -0.0066351195
v -0.0024999039 0.0040500594 -0.0070147937
v -0.0024999189 0.0034232681 -0.0073410807
v -0.0024999345 0.0027704222 -0.0076114976
v -0.0024999506 0.0020964948 -0.0078239859
v -0.002499967 0.0014066101 -0.0079769295
v -0.0024999838 0.00070602088 -0.008069164
v -0.0025000006 5.9761763e-08 -0.008099987
v -0.0025000175 -0.00070590139 -0.008069164
v -0.0025000342 -0.0014064907 -0.0079769295
v -0.0025000507 -0.0020963744 -0.0078239859
v -0.0025000668 -0.0027703036 -0.0076114976
v -0.0025000824 -0.0034231486 -0.0073410807
v -0.0025000973 -0.0040499399 -0.0070147937
v -0.0025001115 -0.004645909 -0.0066351195
v -0.0025001249 -0.0052065196 -0.0062049491
v -0.0025001374 -0.0057275052 -0.0057275531
v -0.0025001488 -0.0062049002 -0.0052065676
f 1 2 3
f 2 4 3
f 3 4 5
f 4 6 5
f 5 6 7
f 6 8 7
f 7 8 9
f 8 10 9
f 9 10 11
f 10 12 11
f 11 12 13
f 12 14 13
f 13 14 15
f 14 16 15
f 15 16 17
f 16 18 17
f 17 18 19
f 18 20 19
f 19 20 21
f 20 22 21
f 21 22 23
f 22 24 23
f 23 24 25
f 24 26 25
f 25 26 27
f 26 28 27
f 27 28 29
f 28 30 29
f 29 30 31
f 30 32 31
f 31 32 33
f 32 34 33
f 33 34 35
f 34 36 35
f 35 36 37
f 36 38 37
f 37 38 39
f 38 40 39
f 39 40 41
f 40 42 41
f 41 42 43
f 42 44 43
f 43 44 45
f 44 46 45
f 45 46 47
f 46 48 47
f 47 48 49
f 48 50 49
f 49 50 51
f 50 52 51
f 51 52 53
f 52 54 53
f 53 54 55
f 54 56 55
f 55 56 57
f 56 58 57
f 57 58 59
f 58 60 59
f 59 60 61
f 60 62 61
f 61 62 63
f 62 64 63
f 63 64 65
f 64 66 65
f 65 66 67
f 66 68 67
f 67 68 69
f 68 70 69
f 69 70 71
f 70 72 71
f 71 72 73
f 72 74 73
f 73 74 75
f 74 76 75
f 75 76 77
f 76 78 77
f 77 78 79
f 78 80 79
f 79 80 81
f 80 82 81
f 81 82 83
f 82 84 83
f 83 84 85
f 84 86 85
f 85 86 87
f 86 88 87
f 87 88 89
f 88 90 89
f 89 90 91
f 90 92 91
f 91 92 93
f 92 94 93
f 93 94 95
f 94 96 95
f 95 96 97
f 96 98 97
f 97 98 99
f 98 100 99
f 99 100 101
f 100 102 101
f 101 102 103
f 102 104 103
f 103 104 105
f 104 106 105
f 105 106 107
f 106 108 107
f 107 108 109
f 108 110 109
f 109 110 111
f 110 112 111
f 111 112 113
f 112 114 113
f 113 114 115
f 114 116 115
f 115 116 117
f 116 118 117
f 117 118 119
f 118 120 119
f 119 120 121
f 120 122 121
f 121 122 123
f 122 124 123
f 123 124 125
f 124 126 125
f 125 126 127
f 126 128 127
f 127 128 129
f 128 130 129
f 129 130 131
f 130 132 131
f 131 132 133
f 132 134 133
f 133 134 135
f 134 136 135
f 135 136 137
f 136 138 137
f 137 138 139
f 138 140 139
f 139 140 141
f 140 142 141
f 141 142 143
f 142 144 143
f 143 144 1
f 144 2 1
f 145 38 146
f 38 36 146
f 146 36 147
f 36 34 147
f 147 34 148
f 34 32 148
f 148 32 149
f 32 30 149
f 149 30 150
f 30 28 150
f 150 28 151
f 28 26 151
f 151 26 152
f 26 24 152
f 152 24 153
f 24 22 153
f 153 22 154
f 22 20 154
f 154 20 155
f 20 18 155
f 155 18 156
f 18 16 156
f 156 16 157
f 16 14 157
f 157 14 158
f 14 12 158
f 158 12 159
f 12 10 159
f 159 10 160
f 10 8 160
f 160 8 161
f 8 6 161
f 161 6 162
f 6 4 162
f 162 4 163
f 4 2 163
f 163 2 164
f 2 144 164
f 164 144 165
f 144 142 165
f 165 142 166
f 142 140 166
f 166 140 167
f 140 138 167
f 167 138 168
f 138 136 168
f 168 136 169
f 136 134 169
f 169 134 170
f 134 132 170
f 170 132 171
f 132 130 171
f 171 130 172
f 130 128 172
f 172 128 173
f 128 126 173
f 173 126 174
f 126 124 174
f 174 124 175
f 124 122 175
f 175 122 176
f 122 120 176
f 176 120 177
f 120 118 177
f 177 118 178
f 118 116 178
f 178 116 179
f 116 114 179
f 179 114 180
f 114 112 180
f 180 112 181
f 112 110 181
f 181 110 182
f 110 108 182
f 182 108 183
f 108 106 183
f 183 106 184
f 106 104 184
f 184 104 185
f 104 102 185
f 185 102 186
f 102 100 186
f 186 100 187
f 100 98 187
f 187 98 188
f 98 96 188
f 188 96 189
f 96 94 189
f 189 94 190
f 94 92 190
f 190 92 191
f 92 90 191
f 191 90 192
f 90 88 192
f 192 88 193
f 88 86 193
f 193 86 194
f 86 84 194
f 194 84 195
f 84 82 195
f 195 82 196
f 82 80 196
f 196 80 197
f 80 78 197
f 197 78 198
f 78 76 198
f 198 76 199
f 76 74 199
f 199 74 200
f 74 72 200
f 200 72 201
f 72 70 201
f 201 70 202
f 70 68 202
f 202 68 203
f 68 66 203
f 203 66 204
f 66 64 204
f 204 64 205
f 64 62 205
f 205 62 206
f 62 60 206
f 206 60 207
f 60 58 207
f 207 58 208
f 58 56 208
f 208 56 209
f 56 54 209
f 209 54 210
f 54 52 210
f 210 52 211
f 52 50 211
f 211 50 212
f 50 48 212
f 212 48 213
f 48 46 213
f 213 46 214
f 46 44 214
f 214 44 215
f 44 42 215
f 215 42 216
f 42 40 216
f 216 40 145
f 40 38 145
f 164 217 163
f 217 218 163
f 163 218 162
f 218 219 162
f 162 219 161
f 219 220 161
f 161 220 160
f 220 221 160
f 160 221 159
f 221 222 159
f 159 222 158
f 222 223 158
f 158 223 157
f 223 224 157
f 157 224 156
f 224 225 156
f 156 225 155
f 225 226 155
f 155 226 154
f 226 227 154
f 154 227 153
f 227 228 153
f 153 228 152
f 228 229 152
f 152 229 151
f 229 230 151
f 151 230 150
f 230 231 150
f 150 231 149
f 231 232 149
f 149 232 148
f 232 233 148
f 148 233 147
f 233 234 147
f 147 234 146
f 234 235 146
f 146 235 145
f 235 236 145
f 145 236 216
f 236 237 216
f 216 237 215
f 237 238 215
f 215 238 214
f 238 239 214
f 214 239 213
f 239 240 213
f 213 240 212
f 240 241 212
f 212 241 211
f 241 242 211
f 211 242 210
f 242 243 210
f 210 243 209
f 243 244 209
f 209 244 208
f 244 245 208
f 208 245 207
f 245 246 207
f 207 246 206
f 246 247 206
f 206 247 205
f 247 248 205
f 205 248 204
f 248 249 204
f 204 249 203
f 249 250 203
f 203 250 202
f 250 251 202
f 202 251 201
f 251 252 201
f 201 252 200
f 252 253 200
f 200 253 199
f 253 254 199
f 199 254 198
f 254 255 198
f 198 255 197
f 255 256 197
f 197 256 196
f 256 257 196
f 196 257 195
f 257 258 195
f 195 258 194
f 258 259 194
f 194 259 193
f 259 260 193
f 193 260 192
f 260 261 192
f 192 261 191
f 261 262 191
f 191 262 190
f 262 263 190
f 190 263 189
f 263 264 189
f 189 264 188
f 264 265 188
f 188 265 187
f 265 266 187
f 187 266 186
f 266 267 186
f 186 267 185
f 267 268 185
f 185 268 184
f 268 269 184
f 184 269 183
f 269 270 183
f 183 270 182
f 270 271 182
f 182 271 181
f 271 272 181
f 181 272 180
f 272 273 180
f 180 273 179
f 273 274 179
f 179 274 178
f 274 275 178
f 178 275 177
f 275 276 177
f 177 276 176
f 276 277 176
f 176 277 175
f 277 278 175
f 175 278 174
f 278 279 174
f 174 279 173
f 279 280 173
f 173 280 172
f 280 281 172
f 172 281 171
f 281 282 171
f 171 282 170
f 282 283 170
f 170 283 169
f 283 284 169
f 169 284 168
f 284 285 168
f 168 285 167
f 285 286 167
f 167 286 166
f 286 287 166
f 166 287 165
f 287 288 165
f 165 288 164
f 288 217 164
f 289 241 290
f 241 240 290
f 290 240 291
f 240 239 291
f 291 239 292
f 239 238 292
f 292 238 293
f 238 237 293
f 293 237 294
f 237 236 294
f 294 236 295
f 236 235 295
f 295 235 296
f 235 234 296
f 296 234 297
f 234 233 297
f 297 233 298
f 233 232 298
f 298 232 299
f 232 231 299
f 299 231 300
f 231 230 300
f 300 230 301
f 230 229 301
f 301 229 302
f 229 228 302
f 302 228 303
f 228 227 303
f 303 227 304
f 227 226 304
f 304 226 305
f 226 225 305
f 305 225 306
f 225 224 306
f 306 224 307
f 224 223 307
f 307 223 308
f 223 222 308
f 308 222 309
f 222 221 309
f 309 221 310
f 221 220 310
f 310 220 311
f 220 219 311
f 311 219 312
f 219 218 312
f 312 218 313
f 218 217 313
f 313 217 314
f 217 288 314
f 314 288 315
f 288 287 315
f 315 287 316
f 287 286 316
f 316 286 317
f 286 285 317
f 317 285 318
f 285 284 318
f 318 284 319
f 284 283 319
f 319 283 320
f 283 282 320
f 320 282 321
f 282 281 321
f 321 281 322
f 281 280 322
f 322 280 323
f 280 279 323
f 323 279 324
f 279 278 324
f 324 278 325
f 278 277 325
f 325 277 326
f 277 276 326
f 326 276 327
f 276 275 327
f 327 275 328
f 275 274 328
f 328 274 329
f 274 273 329
f 329 273 330
f 273 272 330
f 330 272 331
f 272 271 331
f 331 271 332
f 271 270 332
f 332 270 333
f 270 269 333
f 333 269 334
f 269 268 334
f 334 268 335
f 268 267 335
f 335 267 336
f 267 266 336
f 336 266 337
f 266 265 337
f 337 265 338
f 265 264 338
f 338 264 339
f 264 263 339
f 339 263 340
f 263 262 340
f 340 262 341
f 262 261 341
f 341 261 342
f 261 260 342
f 342 260 343
f 260 259 343
f 343 259 344
f 259 258 344
f 344 258 345
f 258 257 345
f 345 257 346
f 257 256 346
f 346 256 347
f 256 255 347
f 347 255 348
f 255 254 348
f 348 254 349
f 254 253 349
f 349 253 350
f 253 252 350
f 350 252 351
f 252 251 351
f 351 251 352
f 251 250 352
f 352 250 353
f 250 249 353
f 353 249 354
f 249 248 354
f 354 248 355
f 248 247 355
f 355 247 356
f 247 246 356
f 356 246 357
f 246 245 357
f 357 245 358
f 245 244 358
f 358 244 359
f 244 243 359
f 359 243 360
f 243 242 360
f 360 242 289
f 242 241 289
f 314 361 313
f 361 362 313
f 313 362 312
f 362 363 312
f 312 363 311
f 363 364 311
f 311 364 310
f 364 365 310
f 310 365 309
f 365 366 309
f 309 366 308
f 366 367 308
f 308 367 307
f 367 368 307
f 307 368 306
f 368 369 306
f 306 369 305
f 369 370 305
f 305 370 304
f 370 371 304
f 304 371 303
f 371 372 303
f 303 372 302
f 372 373 302
f 302 373 301
f 373 374 301
f 301 374 300
f 374 375 300
f 300 375 299
f 375 376 299
f 299 376 298
f 376 377 298
f 298 377 297
f 377 378 297
f 297 378 296
f 378 379 296
f 296 379 295
f 379 380 295
f 295 380 294
f 380 381 294
f 294 381 293
f 381 382 293
f 293 382 292
f 382 383 292
f 292 383 291
f 383 384 291
f 291 384 290
f 384 385 290
f 290 385 289
f 385 386 289
f 289 386 360
f 386 387 360
f 360 387 359
f 387 388 359
f 359 388 358
f 388 389 358
f 358 389 357
f 389 390 357
f 357 390 356
f 390 391 356
f 356 391 355
f 391 392 355
f 355 392 354
f 392 393 354
f 354 393 353
f 393 394 353
f 353 394 352
f 394 395 352
f 352 395 351
f 395 396 351
f 351 396 350
f 396 397 350
f 350 397 349
f 397 398 349
f 349 398 348
f 398 399 348
f 348 399 347
f 399 400 347
f 347 400 346
f 400 401 346
f 346 401 345
f 401 402 345
f 345 402 344
f 402 403 344
f 344 403 343
f 403 404 343
f 343 404 342
f 404 405 342
f 342 405 341
f 405 406 341
f 341 406 340
f 406 407 340
f 340 407 339
f 407 408 339
f 339 408 338
f 408 409 338
f 338 409 337
f 409 410 337
f 337 410 336
f 410 411 336
f 336 411 335
f 411 412 335
f 335 412 334
f 412 413 334
f 334 413 333
f 413 414 333
f 333 414 332
f 414 415 332
f 332 415 331
f 415 416 331
f 331 416 330
f 416 417 330
f 330 417 329
f 417 418 329
f 329 418 328
f 418 419 328
f 328 419 327
f 419 420 327
f 327 420 326
f 420 421 326
f 326 421 325
f 421 422 325
f 325 422 324
f 422 423 324
f 324 423 323
f 423 424 323
f 323 424 322
f 424 425 322
f 322 425 321
f 425 426 321
f 321 426 320
f 426 427 320
f 320 427 319
f 427 428 319
f 319 428 318
f 428 429 318
f 318 429 317
f 429 430 317
f 317 430 316
f 430 431 316
f 316 431 315
f 431 432 315
f 315 432 314
f 432 361 314
f 433 370 434
f 370 369 434
f 434 369 435
f 369 368 435
f 435 368 436
f 368 367 436
f 436 367 437
f 367 366 437
f 437 366 438
f 366 365 438
f 438 365 439
f 365 364 439
f 439 364 440
f 364 363 440
f 440 363 441
f 363 362 441
f 441 362 442
f 362 361 442
f 442 361 443
f 361 432 443
f 443 432 444
f 432 431 444
f 444 431 445
f 431 430 445
f 445 430 446
f 430 429 446
f 446 429 447
f 429 428 447
f 447 428 448
f 428 427 448
f 448 427 449
f 427 426 449
f 449 426 450
f 426 425 450
f 450 425 451
f 425 424 451
f 451 424 452
f 424 423 452
f 452 423 453
f 423 422 453
f 453 422 454
f 422 421 454
f 454 421 455
f 421 420 455
f 455 420 456
f 420 419 456
f 456 419 457
f 419 418 457
f 457 418 458
f 418 417 458
f 458 417 459
f 417 416 459
f 459 416 460
f 416 415 460
f 460 415 461
f 415 414 461
f 461 414 462
f 414 413 462
f 462 413 463
f 413 412 463
f 463 412 464
f 412 411 464
f 464 411 465
f 411 410 465
f 465 410 466
f 410 409 466
f 466 409 467
f 409 408 467
f 467 408 468
f 408 407 468
f 468 407 469
f 407 406 469
f 469 406 470
f 406 405 470
f 470 405 471
f 405 404 471
f 471 404 472
f 404 403 472
f 472 403 473
f 403 402 473
f 473 402 474
f 402 401 474
f 474 401 475
f 401 400 475
f 475 400 476
f 400 399 476
f 476 399 477
f 399 398 477
f 477 398 478
f 398 397 478
f 478 397 479
f 397 396 479
f 479 396 480
f 396 395 480
f 480 395 481
f 395 394 481
f 481 394 482
f 394 393 482
f 482 393 483
f 393 392 483
f 483 392 484
f 392 391 484
f 484 391 485
f 391 390 485
f 485 390 486
f 390 389 486
f 486 389 487
f 389 388 487
f 487 388 488
f 388 387 488
f 488 387 489
f 387 386 489
f 489 386 490
f 386 385 490
f 490 385 491
f 385 384 491
f 491 384 492
f 384 383 492
f 492 383 493
f 383 382 493
f 493 382 494
f 382 381 494
f 494 381 495
f 381 380 495
f 495 380 496
f 380 379 496
f 496 379 497
f 379 378 497
f 497 378 498
f 378 377 498
f 498 377 499
f 377 376 499
f 499 376 500
f 376 375 500
f 500 375 501
f 375 374 501
f 501 374 502
f 374 373 502
f 502 373 503
f 373 372 503
f 503 372 504
f 372 371 504
f 504 371 433
f 371 370 433
f 442 505 441
f 505 506 441
f 441 506 440
f 506 507 440
f 440 507 439
f 507 508 439
f 439 508 438
f 508 509 438
f 438 509 437
f 509 510 437
f 437 510 436
f 510 511 436
f 436 511 435
f 511 512 435
f 435 512 434
f 512 513 434
f 434 513 433
f 513 514 433
f 433 514 504
f 514 515 504
f 504 515 503
f 515 516 503
f 503 516 502
f 516 517 502
f 502 517 501
f 517 518 501
f 501 518 500
f 518 519 500
f 500 519 499
f 519 520 499
f 499 520 498
f 520 521 498
f 498 521 497
f 521 522 497
f 497 522 496
f 522 523 496
f 496 523 495
f 523 524 495
f 495 524 494
f 524 525 494
f 494 525 493
f 525 526 493
f 493 526 492
f 526 527 492
f 492 527 491
f 527 528 491
f 491 528 490
f 528 529 490
f 490 529 489
f 529 530 489
f 489 530 488
f 530 531 488
f 488 531 487
f 531 532 487
f 487 532 486
f 532 533 486
f 486 533 485
f 533 534 485
f 485 534 484
f 534 535 484
f 484 535 483
f 535 536 483
f 483 536 482
f 536 537 482
f 482 537 481
f 537 538 481
f 481 538 480
f 538 539 480
f 480 539 479
f 539 540 479
f 479 540 478
f 540 541 478
f 478 541 477
f 541 542 477
f 477 542 476
f 542 543 476
f 476 543 475
f 543 544 475
f 475 544 474
f 544 545 474
f 474 545 473
f 545 546 473
f 473 546 472
f 546 547 472
f 472 547 471
f 547 548 471
f 471 548 470
f 548 549 470
f 470 549 469
f 549 550 469
f 469 550 468
f 550 551 468
f 468 551 467
f 551 552 467
f 467 552 466
f 552 553 466
f 466 553 465
f 553 554 465
f 465 554 464
f 554 555 464
f 464 555 463
f 555 556 463
f 463 556 462
f 556 557 462
f 462 557 461
f 557 558 461
f 461 558 460
f 558 559 460
f 460 559 459
f 559 560 459
f 459 560 458
f 560 561 458
f 458 561 457
f 561 562 457
f 457 562 456
f 562 563 456
f 456 563 455
f 563 564 455
f 455 564 454
f 564 565 454
f 454 565 453
f 565 566 453
f 453 566 452
f 566 567 452
f 452 567 451
f 567 568 451
f 451 568 450
f 568 569 450
f 450 569 449
f 569 570 449
f 449 570 448
f 570 571 448
f 448 571 447
f 571 572 447
f 447 572 446
f 572 573 446
f 446 573 445
f 573 574 445
f 445 574 444
f 574 575 444
f 444 575 443
f 575 576 443
f 443 576 442
f 576 505 442
f 551 577 552
f 577 578 552
f 552 578 553
f 578 579 553
f 553 579 554
f 579 580 554
f 554 580 555
f 580 581 555
f 555 581 556
f 581 582 556
f 556 582 557
f 582 583 557
f 557 583 558
f 583 584 558
f 558 584 559
f 584 585 559
f 559 585 560
f 585 586 560
f 560 586 561
f 586 587 561
f 561 587 562
f 587 588 562
f 562 588 563
f 588 589 563
f 563 589 564
f 589 590 564
f 564 590 565
f 590 591 565
f 565 591 566
f 591 592 566
f 566 592 567
f 592 593 567
f 567 593 568
f 593 594 568
f 568 594 569
f 594 595 569
f 569 595 570
f 595 596 570
f 570 596 571
f 596 597 571
f 571 597 572
f 597 598 572
f 572 598 573
f 598 599 573
f 573 599 574
f 599 600 574
f 574 600 575
f 600 601 575
f 575 601 576
f 601 602 576
f 576 602 505
f 602 603 505
f 505 603 506
f 603 604 506
f 506 604 507
f 604 605 507
f 507 605 508
f 605 606 508
f 508 606 509
f 606 607 509
f 509 607 510
f 607 608 510
f 510 608 511
f 608 609 511
f 511 609 512
f 609 610 512
f 512 610 513
f 610 611 513
f 513 611 514
f 611 612 514
f 514 612 515
f 612 613 515
f 515 613 516
f 613 614 516
f 516 614 517
f 614 615 517
f 517 615 518
f 615 616 518
f 518 616 519
f 616 617 519
f 519 617 520
f 617 618 520
f 520 618 521
f 618 619 521
f 521 619 522
f 619 620 522
f 522 620 523
f 620 621 523
f 523 621 524
f 621 622 524
f 524 622 525
f 622 623 525
f 525 623 526
f 623 624 526
f 526 624 527
f 624 625 527
f 527 625 528
f 625 626 528
f 528 626 529
f 626 627 529
f 529 627 530
f 627 628 530
f 530 628 531
f 628 629 531
f 531 629 532
f 629 630 532
f 532 630 533
f 630 631 533
f 533 631 534
f 631 632 534
f 534 632 535
f 632 633 535
f 535 633 536
f 633 634 536
f 536 634 537
f 634 635 537
f 537 635 538
f 635 636 538
f 538 636 539
f 636 637 539
f 539 637 540
f 637 638 540
f 540 638 541
f 638 639 541
f 541 639 542
f 639 640 542
f 542 640 543
f 640 641 543
f 543 641 544
f 641 642 544
f 544 642 545
f 642 643 545
f 545 643 546
f 643 644 546
f 546 644 547
f 644 645 547
f 547 645 548
f 645 646 548
f 548 646 549
f 646 647 549
f 549 647 550
f 647 648 550
f 550 648 551
f 648 577 551
f 603 649 604
f 649 650 604
f 604 650 605
f 650 651 605
f 605 651 606
f 651 652 606
f 606 652 607
f 652 653 607
f 607 653 608
f 653 654 608
f 608 654 609
f 654 655 609
f 609 655 610
f 655 656 610
f 610 656 611
f 656 657 611
f 611 657 612
f 657 658 612
f 612 658 613
f 658 659 613
f 613 659 614
f 659 660 614
f 614 660 615
f 660 661 615
f 615 661 616
f 661 662 616
f 616 662 617
f 662 663 617
f 617 663 618
f 663 664 618
f 618 664 619
f 664 665 619
f 619 665 620
f 665 666 620
f 620 666 621
f 666 667 621
f 621 667 622
f 667 668 622
f 622 668 623
f 668 669 623
f 623 669 624
f 669 670 624
f 624 670 625
f 670 671 625
f 625 671 626
f 671 672 626
f 626 672 627
f 672 673 627
f 627 673 628
f 673 674 628
f 628 674 629
f 674 675 629
f 629 675 630
f 675 676 630
f 630 676 631
f 676 677 631
f 631 677 632
f 677 678 632
f 632 678 633
f 678 679 633
f 633 679 634
f 679 680 634
f 634 680 635
f 680 681 635
f 635 681 636
f 681 682 636
f 636 682 637
f 682 683 637
f 637 683 638
f 683 684 638
f 638 684 639
f 684 685 639
f 639 685 640
f 685 686 640
f 640 686 641
f 686 687 641
f 641 687 642
f 687 688 642
f 642 688 643
f 688 689 643
f 643 689 644
f 689 690 644
f 644 690 645
f 690 691 645
f 645 691 646
f 691 692 646
f 646 692 647
f 692 693 647
f 647 693 648
f 693 694 648
f 648 694 577
f 694 695 577
f 577 695 578
f 695 696 578
f 578 696 579
f 696 697 579
f 579 697 580
f 697 698 580
f 580 698 581
f 698 699 581
f 581 699 582
f 699 700 582
f 582 700 583
f 700 701 583
f 583 701 584
f 701 702 584
f 584 702 585
f 702 703 585
f 585 703 586
f 703 704 586
f 586 704 587
f 704 705 587
f 587 705 588
f 705 706 588
f 588 706 589
f 706 707 589
f 589 707 590
f 707 708 590
f 590 708 591
f 708 709 591
f 591 709 592
f 709 710 592
f 592 710 593
f 710 711 593
f 593 711 594
f 711 712 594
f 594 712 595
f 712 713 595
f 595 713 596
f 713 714 596
f 596 714 597
f 714 715 597
f 597 715 598
f 715 716 598
f 598 716 599
f 716 717 599
f 599 717 600
f 717 718 600
f 600 718 601
f 718 719 601
f 601 719 602
f 719 720 602
f 602 720 603
f 720 649 603
f 669 721 670
f 721 722 670
f 670 722 671
f 722 723 671
f 671 723 672
f 723 724 672
f 672 724 673
f 724 725 673
f 673 725 674
f 725 726 674
f 674 726 675
f 726 727 675
f 675 727 676
f 727 728 676
f 676 728 677
f 728 729 677
f 677 729 678
f 729 730 678
f 678 730 679
f 730 731 679
f 679 731 680
f 731 732 680
f 680 732 681
f 732 733 681
f 681 733 682
f 733 734 682
f 682 734 683
f 734 735 683
f 683 735 684
f 735 736 684
f 684 736 685
f 736 737 685
f 685 737 686
f 737 738 686
f 686 738 687
f 738 739 687
f 687 739 688
f 739 740 688
f 688 740 689
f 740 741 689
f 689 741 690
f 741 742 690
f 690 742 691
f 742 743 691
f 691 743 692
f 743 744 692
f 692 744 693
f 744 745 693
f 693 745 694
f 745 746 694
f 694 746 695
f 746 747 695
f 695 747 696
f 747 748 696
f 696 748 697
f 748 749 697
f 697 749 698
f 749 750 698
f 698 750 699
f 750 751 699
f 699 751 700
f 751 752 700
f 700 752 701
f 752 753 701
f 701 753 702
f 753 754 702
f 702 754 703
f 754 755 703
f 703 755 704
f 755 756 704
f 704 756 705
f 756 757 705
f 705 757 706
f 757 758 706
f 706 758 707
f 758 759 707
f 707 759 708
f 759 760 708
f 708 760 709
f 760 761 709
f 709 761 710
f 761 762 710
f 710 762 711
f 762 763 711
f 711 763 712
f 763 764 712
f 712 764 713
f 764 765 713
f 713 765 714
f 765 766 714
f 714 766 715
f 766 767 715
f 715 767 716
f 767 768 716
f 716 768 717
f 768 769 717
f 717 769 718
f 769 770 718
f 718 770 719
f 770 771 719
f 719 771 720
f 771 772 720
f 720 772 649
f 772 773 649
f 649 773 650
f 773 774 650
f 650 774 651
f 774 775 651
f 651 775 652
f 775 776 652
f 652 776 653
f 776 777 653
f 653 777 654
f 777 778 654
f 654 778 655
f 778 779 655
f 655 779 656
f 779 780 656
f 656 780 657
f 780 781 657
f 657 781 658
f 781 782 658
f 658 782 659
f 782 783 659
f 659 783 660
f 783 784 660
f 660 784 661
f 784 785 661
f 661 785 662
f 785 786 662
f 662 786 663
f 786 787 663
f 663 787 664
f 787 788 664
f 664 788 665
f 788 789 665
f 665 789 666
f 789 790 666
f 666 790 667
f 790 791 667
f 667 791 668
f 791 792 668
f 668 792 669
f 792 721 669
f 793 794 795
f 794 796 795
f 795 796 797
f 796 798 797
f 797 798 799
f 798 800 799
f 799 800 801
f 800 802 801
f 801 802 803
f 802 804 803
f 803 804 805
f 804 806 805
f 805 806 807
f 806 808 807
f 807 808 809
f 808 810 809
f 809 810 811
f 810 812 811
f 811 812 813
f 812 814 813
f 813 814 815
f 814 816 815
f 815 816 817
f 816 818 817
f 817 818 819
f 818 820 819
f 819 820 821
f 820 822 821
f 821 822 823
f 822 824 823
f 823 824 825
f 824 826 825
f 825 826 827
f 826 828 827
f 827 828 829
f 828 830 829
f 829 830 831
f 830 832 831
f 831 832 833
f 832 834 833
f 833 834 835
f 834 836 835
f 835 836 837
f 836 838 837
f 837 838 839
f 838 840 839
f 839 840 841
f 840 842 841
f 841 842 843
f 842 844 843
f 843 844 845
f 844 846 845
f 845 846 847
f 846 848 847
f 847 848 849
f 848 850 849
f 849 850 851
f 850 852 851
f 851 852 853
f 852 854 853
f 853 854 855
f 854 856 855
f 855 856 857
f 856 858 857
f 857 858 859
f 858 860 859
f 859 860 861
f 860 862 861
f 861 862 863
f 862 864 863
f 863 864 865
f 864 866 865
f 865 866 867
f 866 868 867
f 867 868 869
f 868 870 869
f 869 870 871
f 870 872 871
f 871 872 873
f 872 874 873
f 873 874 875
f 874 876 875
f 875 876 877
f 876 878 877
f 877 878 879
f 878 880 879
f 879 880 881
f 880 882 881
f 881 882 883
f 882 884 883
f 883 884 885
f 884 886 885
f 885 886 887
f 886 888 887
f 887 888 889
f 888 890 889
f 889 890 891
f 890 892 891
f 891 892 893
f 892 894 893
f 893 894 895
f 894 896 895
f 895 896 897
f 896 898 897
f 897 898 899
f 898 900 899
f 899 900 901
f 900 902 901
f 901 902 903
f 902 904 903
f 903 904 905
f 904 906 905
f 905 906 907
f 906 908 907
f 907 908 909
f 908 910 909
f 909 910 911
f 910 912 911
f 911 912 913
f 912 914 913
f 913 914 915
f 914 916 915
f 915 916 917
f 916 918 917
f 917 918 919
f 918 920 919
f 919 920 921
f 920 922 921
f 921 922 923
f 922 924 923
f 923 924 925
f 924 926 925
f 925 926 927
f 926 928 927
f 927 928 929
f 928 930 929
f 929 930 931
f 930 932 931
f 931 932 933
f 932 934 933
f 933 934 935
f 934 936 935
f 935 936 793
f 936 794 793
f 814 23 816
f 23 25 816
f 816 25 818
f 25 27 818
f 818 27 820
f 27 29 820
f 820 29 822
f 29 31 822
f 822 31 824
f 31 33 824
f 824 33 826
f 33 35 826
f 826 35 828
f 35 37 828
f 828 37 830
f 37 39 830
f 830 39 832
f 39 41 832
f 832 41 834
f 41 43 834
f 834 43 836
f 43 45 836
f 836 45 838
f 45 47 838
f 838 47 840
f 47 49 840
f 840 49 842
f 49 51 842
f 842 51 844
f 51 53 844
f 844 53 846
f 53 55 846
f 846 55 848
f 55 57 848
f 848 57 850
f 57 59 850
f 850 59 852
f 59 61 852
f 852 61 854
f 61 63 854
f 854 63 856
f 63 65 856
f 856 65 858
f 65 67 858
f 858 67 860
f 67 69 860
f 860 69 862
f 69 71 862
f 862 71 864
f 71 73 864
f 864 73 866
f 73 75 866
f 866 75 868
f 75 77 868
f 868 77 870
f 77 79 870
f 870 79 872
f 79 81 872
f 872 81 874
f 81 83 874
f 874 83 876
f 83 85 876
f 876 85 878
f 85 87 878
f 878 87 880
f 87 89 880
f 880 89 882
f 89 91 882
f 882 91 884
f 91 93 884
f 884 93 886
f 93 95 886
f 886 95 888
f 95 97 888
f 888 97 890
f 97 99 890
f 890 99 892
f 99 101 892
f 892 101 894
f 101 103 894
f 894 103 896
f 103 105 896
f 896 105 898
f 105 107 898
f 898 107 900
f 107 109 900
f 900 109 902
f 109 111 902
f 902 111 904
f 111 113 904
f 904 113 906
f 113 115 906
f 906 115 908
f 115 117 908
f 908 117 910
f 117 119 910
f 910 119 912
f 119 121 912
f 912 121 914
f 121 123 914
f 914 123 916
f 123 125 916
f 916 125 918
f 125 127 918
f 918 127 920
f 127 129 920
f 920 129 922
f 129 131 922
f 922 131 924
f 131 133 924
f 924 133 926
f 133 135 926
f 926 135 928
f 135 137 928
f 928 137 930
f 137 139 930
f 930 139 932
f 139 141 932
f 932 141 934
f 141 143 934
f 934 143 936
f 143 1 936
f 936 1 794
f 1 3 794
f 794 3 796
f 3 5 796
f 796 5 798
f 5 7 798
f 798 7 800
f 7 9 800
f 800 9 802
f 9 11 802
f 802 11 804
f 11 13 804
f 804 13 806
f 13 15 806
f 806 15 808
f 15 17 808
f 808 17 810
f 17 19 810
f 810 19 812
f 19 21 812
f 812 21 814
f 21 23 814
f 831 937 829
f 937 938 829
f 829 938 827
f 938 939 827
f 827 939 825
f 939 940 825
f 825 940 823
f 940 941 823
f 823 941 821
f 941 942 821
f 821 942 819
f 942 943 819
f 819 943 817
f 943 944 817
f 817 944 815
f 944 945 815
f 815 945 813
f 945 946 813
f 813 946 811
f 946 947 811
f 811 947 809
f 947 948 809
f 809 948 807
f 948 949 807
f 807 949 805
f 949 950 805
f 805 950 803
f 950 951 803
f 803 951 801
f 951 952 801
f 801 952 799
f 952 953 799
f 799 953 797
f 953 954 797
f 797 954 795
f 954 955 795
f 795 955 793
f 955 956 793
f 793 956 935
f 956 957 935
f 935 957 933
f 957 958 933
f 933 958 931
f 958 959 931
f 931 959 929
f 959 960 929
f 929 960 927
f 960 961 927
f 927 961 925
f 961 962 925
f 925 962 923
f 962 963 923
f 923 963 921
f 963 964 921
f 921 964 919
f 964 965 919
f 919 965 917
f 965 966 917
f 917 966 915
f 966 967 915
f 915 967 913
f 967 968 913
f 913 968 911
f 968 969 911
f 911 969 909
f 969 970 909
f 909 970 907
f 970 971 907
f 907 971 905
f 971 972 905
f 905 972 903
f 972 973 903
f 903 973 901
f 973 974 901
f 901 974 899
f 974 975 899
f 899 975 897
f 975 976 897
f 897 976 895
f 976 977 895
f 895 977 893
f 977 978 893
f 893 978 891
f 978 979 891
f 891 979 889
f 979 980 889
f 889 980 887
f 980 981 887
f 887 981 885
f 981 982 885
f 885 982 883
f 982 983 883
f 883 983 881
f 983 984 881
f 881 984 879
f 984 985 879
f 879 985 877
f 985 986 877
f 877 986 875
f 986 987 875
f 875 987 873
f 987 988 873
f 873 988 871
f 988 989 871
f 871 989 869
f 989 990 869
f 869 990 867
f 990 991 867
f 867 991 865
f 991 992 865
f 865 992 863
f 992 993 863
f 863 993 861
f 993 994 861
f 861 994 859
f 994 995 859
f 859 995 857
f 995 996 857
f 857 996 855
f 996 997 855
f 855 997 853
f 997 998 853
f 853 998 851
f 998 999 851
f 851 999 849
f 999 1000 849
f 849 1000 847
f 1000 1001 847
f 847 1001 845
f 1001 1002 845
f 845 1002 843
f 1002 1003 843
f 843 1003 841
f 1003 1004 841
f 841 1004 839
f 1004 1005 839
f 839 1005 837
f 1005 1006 837
f 837 1006 835
f 1006 1007 835
f 835 1007 833
f 1007 1008 833
f 833 1008 831
f 1008 937 831
f 1009 955 1010
f 955 954 1010
f 1010 954 1011
f 954 953 1011
f 1011 953 1012
f 953 952 1012
f 1012 952 1013
f 952 951 1013
f 1013 951 1014
f 951 950 1014
f 1014 950 1015
f 950 949 1015
f 1015 949 1016
f 949 948 1016
f 1016 948 1017
f 948 947 1017
f 1017 947 1018
f 947 946 1018
f 1018 946 1019
f 946 945 1019
f 1019 945 1020
f 945 944 1020
f 1020 944 1021
f 944 943 1021
f 1021 943 1022
f 943 942 1022
f 1022 942 1023
f 942 941 1023
f 1023 941 1024
f 941 940 1024
f 1024 940 1025
f 940 939 1025
f 1025 939 1026
f 939 938 1026
f 1026 938 1027
f 938 937 1027
f 1027 937 1028
f 937 1008 1028
f 1028 1008 1029
f 1008 1007 1029
f 1029 1007 1030
f 1007 1006 1030
f 1030 1006 1031
f 1006 1005 1031
f 1031 1005 1032
f 1005 1004 1032
f 1032 1004 1033
f 1004 1003 1033
f 1033 1003 1034
f 1003 1002 1034
f 1034 1002 1035
f 1002 1001 1035
f 1035 1001 1036
f 1001 1000 1036
f 1036 1000 1037
f 1000 999 1037
f 1037 999 1038
f 999 998 1038
f 1038 998 1039
f 998 997 1039
f 1039 997 1040
f 997 996 1040
f 1040 996 1041
f 996 995 1041
f 1041 995 1042
f 995 994 1042
f 1042 994 1043
f 994 993 1043
f 1043 993 1044
f 993 992 1044
f 1044 992 1045
f 992 991 1045
f 1045 991 1046
f 991 990 1046
f 1046 990 1047
f 990 989 1047
f 1047 989 1048
f 989 988 1048
f 1048 988 1049
f 988 987 1049
f 1049 987 1050
f 987 986 1050
f 1050 986 1051
f 986 985 1051
f 1051 985 1052
f 985 984 1052
f 1052 984 1053
f 984 983 1053
f 1053 983 1054
f 983 982 1054
f 1054 982 1055
f 982 981 1055
f 1055 981 1056
f 981 980 1056
f 1056 980 1057
f 980 979 1057
f 1057 979 1058
f 979 978 1058
f 1058 978 1059
f 978 977 1059
f 1059 977 1060
f 977 976 1060
f 1060 976 1061
f 976 975 1061
f 1061 975 1062
f 975 974 1062
f 1062 974 1063
f 974 973 1063
f 1063 973 1064
f 973 972 1064
f 1064 972 1065
f 972 971 1065
f 1065 971 1066
f 971 970 1066
f 1066 970 1067
f 970 969 1067
f 1067 969 1068
f 969 968 1068
f 1068 968 1069
f 968 967 1069
f 1069 967 1070
f 967 966 1070
f 1070 966 1071
f 966 965 1071
f 1071 965 1072
f 965 964 1072
f 1072 964 1073
f 964 963 1073
f 1073 963 1074
f 963 962 1074
f 1074 962 1075
f 962 961 1075
f 1075 961 1076
f 961 960 1076
f 1076 960 1077
f 960 959 1077
f 1077 959 1078
f 959 958 1078
f 1078 958 1079
f 958 957 1079
f 1079 957 1080
f 957 956 1080
f 1080 956 1009
f 956 955 1009
f 1081 1020 1082
f 1020 1021 1082
f 1082 1021 1083
f 1021 1022 1083
f 1083 1022 1084
f 1022 1023 1084
f 1084 1023 1085
f 1023 1024 1085
f 1085 1024 1086
f 1024 1025 1086
f 1086 1025 1087
f 1025 1026 1087
f 1087 1026 1088
f 1026 1027 1088
f 1088 1027 1089
f 1027 1028 1089
f 1089 1028 1090
f 1028 1029 1090
f 1090 1029 1091
f 1029 1030 1091
f 1091 1030 1092
f 1030 1031 1092
f 1092 1031 1093
f 1031 1032 1093
f 1093 1032 1094
f 1032 1033 1094
f 1094 1033 1095
f 1033 1034 1095
f 1095 1034 1096
f 1034 1035 1096
f 1096 1035 1097
f 1035 1036 1097
f 1097 1036 1098
f 1036 1037 1098
f 1098 1037 1099
f 1037 1038 1099
f 1099 1038 1100
f 1038 1039 1100
f 1100 1039 1101
f 1039 1040 1101
f 1101 1040 1102
f 1040 1041 1102
f 1102 1041 1103
f 1041 1042 1103
f 1103 1042 1104
f 1042 1043 1104
f 1104 1043 1105
f 1043 1044 1105
f 1105 1044 1106
f 1044 1045 1106
f 1106 1045 1107
f 1045 1046 1107
f 1107 1046 1108
f 1046 1047 1108
f 1108 1047 1109
f 1047 1048 1109
f 1109 1048 1110
f 1048 1049 1110
f 1110 1049 1111
f 1049 1050 1111
f 1111 1050 1112
f 1050 1051 1112
f 1112 1051 1113
f 1051 1052 1113
f 1113 1052 1114
f 1052 1053 1114
f 1114 1053 1115
f 1053 1054 1115
f 1115 1054 1116
f 1054 1055 1116
f 1116 1055 1117
f 1055 1056 1117
f 1117 1056 1118
f 1056 1057 1118
f 1118 1057 1119
f 1057 1058 1119
f 1119 1058 1120
f 1058 1059 1120
f 1120 1059 1121
f 1059 1060 1121
f 1121 1060 1122
f 1060 1061 1122
f 1122 1061 1123
f 1061 1062 1123
f 1123 1062 1124
f 1062 1063 1124
f 1124 1063 1125
f 1063 1064 1125
f 1125 1064 1126
f 1064 1065 1126
f 1126 1065 1127
f 1065 1066 1127
f 1127 1066 1128
f 1066 1067 1128
f 1128 1067 1129
f 1067 1068 1129
f 1129 1068 1130
f 1068 1069 1130
f 1130 1069 1131
f 1069 1070 1131
f 1131 1070 1132
f 1070 1071 1132
f 1132 1071 1133
f 1071 1072 1133
f 1133 1072 1134
f 1072 1073 1134
f 1134 1073 1135
f 1073 1074 1135
f 1135 1074 1136
f 1074 1075 1136
f 1136 1075 1137
f 1075 1076 1137
f 1137 1076 1138
f 1076 1077 1138
f 1138 1077 1139
f 1077 1078 1139
f 1139 1078 1140
f 1078 1079 1140
f 1140 1079 1141
f 1079 1080 1141
f 1141 1080 1142
f 1080 1009 1142
f 1142 1009 1143
f 1009 1010 1143
f 1143 1010 1144
f 1010 1011 1144
f 1144 1011 1145
f 1011 1012 1145
f 1145 1012 1146
f 1012 1013 1146
f 1146 1013 1147
f 1013 1014 1147
f 1147 1014 1148
f 1014 1015 1148
f 1148 1015 1149
f 1015 1016 1149
f 1149 1016 1150
f 1016 1017 1150
f 1150 1017 1151
f 1017 1018 1151
f 1151 1018 1152
f 1018 1019 1152
f 1152 1019 1081
f 1019 1020 1081
f 773 1143 774
f 1143 1144 774
f 774 1144 775
f 1144 1145 775
f 775 1145 776
f 1145 1146 776
f 776 1146 777
f 1146 1147 777
f 777 1147 778
f 1147 1148 778
f 778 1148 779
f 1148 1149 779
f 779 1149 780
f 1149 1150 780
f 780 1150 781
f 1150 1151 781
f 781 1151 782
f 1151 1152 782
f 782 1152 783
f 1152 1081 783
f 783 1081 784
f 1081 1082 784
f 784 1082 785
f 1082 1083 785
f 785 1083 786
f 1083 1084 786
f 786 1084 787
f 1084 1085 787
f 787 1085 788
f 1085 1086 788
f 788 1086 789
f 1086 1087 789
f 789 1087 790
f 1087 1088 790
f 790 1088 791
f 1088 1089 791
f 791 1089 792
f 1089 1090 792
f 792 1090 721
f 1090 1091 721
f 721 1091 722
f 1091 1092 722
f 722 1092 723
f 1092 1093 723
f 723 1093 724
f 1093 1094 724
f 724 1094 725
f 1094 1095 725
f 725 1095 726
f 1095 1096 726
f 726 1096 727
f 1096 1097 727
f 727 1097 728
f 1097 1098 728
f 728 1098 729
f 1098 1099 729
f 729 1099 730
f 1099 1100 730
f 730 1100 731
f 1100 1101 731
f 731 1101 732
f 1101 1102 732
f 732 1102 733
f 1102 1103 733
f 733 1103 734
f 1103 1104 734
f 734 1104 735
f 1104 1105 735
f 735 1105 736
f 1105 1106 736
f 736 1106 737
f 1106 1107 737
f 737 1107 738
f 1107 1108 738
f 738 1108 739
f 1108 1109 739
f 739 1109 740
f 1109 1110 740
f 740 1110 741
f 1110 1111 741
f 741 1111 742
f 1111 1112 742
f 742 1112 743
f 1112 1113 743
f 743 1113 744
f 1113 1114 744
f 744 1114 745
f 1114 1115 745
f 745 1115 746
f 1115 1116 746
f 746 1116 747
f 1116 1117 747
f 747 1117 748
f 1117 1118 748
f 748 1118 749
f 1118 1119 749
f 749 1119 750
f 1119 1120 750
f 750 1120 751
f 1120 1121 751
f 751 1121 752
f 1121 1122 752
f 752 1122 753
f 1122 1123 753
f 753 1123 754
f 1123 1124 754
f 754 1124 755
f 1124 1125 755
f 755 1125 756
f 1125 1126 756
f 756 1126 757
f 1126 1127 757
f 757 1127 758
f 1127 1128 758
f 758 1128 759
f 1128 1129 759
f 759 1129 760
f 1129 1130 760
f 760 1130 761
f 1130 1131 761
f 761 1131 762
f 1131 1132 762
f 762 1132 763
f 1132 1133 763
f 763 1133 764
f 1133 1134 764
f 764 1134 765
f 1134 1135 765
f 765 1135 766
f 1135 1136 766
f 766 1136 767
f 1136 1137 767
f 767 1137 768
f 1137 1138 768
f 768 1138 769
f 1138 1139 769
f 769 1139 770
f 1139 1140 770
f 770 1140 771
f 1140 1141 771
f 771 1141 772
f 1141 1142 772
f 772 1142 773
f 1142 1143 773
