# generated by mjcf2godot
v 0.0078619176 0.0090858519 -0.012265709
v 0.0079306939 0.0090862728 -0.012274753
v 0.0079999992 0.0090494494 -0.011483451
v 0.0079999992 0.0090864135 -0.012277776
v 0.0080693045 0.0090862728 -0.012274753
v 0.0076639413 0.0090829502 -0.012203354
v 0.0077280311 0.0090841843 -0.012229873
v 0.0077941904 0.009085154 -0.01225071
v 0.0074888656 0.0090777655 -0.01209194
v 0.0075439012 0.0090797286 -0.012134124
v 0.0076024088 0.0090814612 -0.012171357
v 0.0073486234 0.0090706511 -0.011939057
v 0.0073908533 0.0090732094 -0.011994033
v 0.0074377193 0.009075587 -0.012045124
v 0.0072527716 0.0090620919 -0.011755126
v 0.0072793181 0.0090650711 -0.011819148
v 0.00731135 0.0090679315 -0.011880614
v 0.0072078409 0.009052671 -0.011552681
v 0.0072168971 0.0090558681 -0.011621384
v 0.0072319119 0.0090590164 -0.011689038
v 0.0072168971 0.0090430307 -0.011345519
v 0.0072078409 0.0090462278 -0.011414221
v 0.007204816 0.0090494494 -0.011483451
v 0.0072793181 0.0090338277 -0.011147755
v 0.0072527716 0.009036807 -0.011211776
v 0.0072319119 0.0090398824 -0.011277865
v 0.0073908533 0.0090256894 -0.010972869
v 0.0073486234 0.0090282477 -0.011027845
v 0.00731135 0.0090309674 -0.011086289
v 0.0075439012 0.0090191702 -0.010832779
v 0.0074888656 0.0090211333 -0.010874963
v 0.0074377193 0.0090233119 -0.010921779
v 0.0077280311 0.0090147146 -0.01073703
v 0.0076639413 0.0090159486 -0.010763548
v 0.0076024088 0.0090174376 -0.010795546
v 0.0079306939 0.009012626 -0.010692149
v 0.0078619176 0.0090130469 -0.010701194
v 0.0077941904 0.0090137449 -0.010716192
v 0.0081380827 0.0090130469 -0.010701194
v 0.0080693045 0.009012626 -0.010692149
v 0.0079999992 0.0090124854 -0.010689127
v 0.0083360595 0.0090159486 -0.010763548
v 0.0082719696 0.0090147146 -0.01073703
v 0.0082058085 0.0090137449 -0.010716192
v 0.0085111351 0.0090211333 -0.010874963
v 0.0084560996 0.0090191702 -0.010832779
v 0.008397592 0.0090174376 -0.010795546
v 0.0086513774 0.0090282477 -0.011027845
v 0.0086091457 0.0090256894 -0.010972869
v 0.0085622796 0.0090233119 -0.010921779
v 0.0087472291 0.009036807 -0.011211776
v 0.0087206808 0.0090338277 -0.011147755
v 0.0086886489 0.0090309674 -0.011086289
v 0.008792158 0.0090462278 -0.011414221
v 0.0087831037 0.0090430307 -0.011345519
v 0.0087680889 0.0090398824 -0.011277865
v 0.0087831037 0.0090558681 -0.011621384
v 0.008792158 0.009052671 -0.011552681
v 0.0087951848 0.0090494494 -0.011483451
v 0.0087206808 0.0090650711 -0.011819148
v 0.0087472291 0.0090620919 -0.011755126
v 0.0087680889 0.0090590164 -0.011689038
v 0.0086091457 0.0090732094 -0.011994033
v 0.0086513774 0.0090706511 -0.011939057
v 0.0086886489 0.0090679315 -0.011880614
v 0.0084560996 0.0090797286 -0.012134124
v 0.0085111351 0.0090777655 -0.01209194
v 0.0085622796 0.009075587 -0.012045124
v 0.0082719696 0.0090841843 -0.012229873
v 0.0083360595 0.0090829502 -0.012203354
v 0.008397592 0.0090814612 -0.012171357
v 0.0081380827 0.0090858519 -0.012265709
v 0.0082058085 0.009085154 -0.01225071
v 0.0079999992 0.011089124 -0.012289509
v 0.0079215595 0.011088965 -0.012286088
v 0.0078437158 0.011088489 -0.012275851
v 0.0077670629 0.011087699 -0.012258875
v 0.0076921827 0.011086601 -0.012235291
v 0.0076196438 0.011085204 -0.012205277
v 0.0075499995 0.011083519 -0.012169062
v 0.0074837806 0.011081558 -0.012126922
v 0.0074214919 0.011079336 -0.012079176
v 0.0073636046 0.011076871 -0.01202619
v 0.0073105602 0.01107418 -0.011968365
v 0.0072627629 0.011071284 -0.011906142
v 0.0072205777 0.011068206 -0.011839996
v 0.0071843232 0.011064969 -0.011770427
v 0.0071542768 0.011061597 -0.011697967
v 0.0071306678 0.011058116 -0.011623167
v 0.007113673 0.011054552 -0.011546596
v 0.0071034248 0.011050934 -0.011468837
v 0.0070999994 0.011047288 -0.011390481
v 0.0071034248 0.011043641 -0.011312126
v 0.007113673 0.011040023 -0.011234367
v 0.0071306678 0.01103646 -0.011157796
v 0.0071542768 0.011032979 -0.011082996
v 0.0071843232 0.011029607 -0.011010536
v 0.0072205777 0.01102637 -0.010940968
v 0.0072627629 0.011023291 -0.010874821
v 0.0073105602 0.011020396 -0.010812598
v 0.0073636046 0.011017705 -0.010754773
v 0.0074214919 0.011015239 -0.010701787
v 0.0074837806 0.011013017 -0.010654041
v 0.0075499995 0.011011056 -0.010611902
v 0.0076196438 0.011009371 -0.010575686
v 0.0076921827 0.011007974 -0.010545673
v 0.0077670629 0.011006877 -0.010522088
v 0.0078437158 0.011006087 -0.010505113
v 0.0079215595 0.011005611 -0.010494875
v 0.0079999992 0.011005451 -0.010491455
v 0.0080784408 0.011005611 -0.010494875
v 0.0081562826 0.011006087 -0.010505113
v 0.008232936 0.011006877 -0.010522088
v 0.0083078181 0.011007974 -0.010545673
v 0.008380357 0.011009371 -0.010575686
v 0.0084499994 0.011011056 -0.010611902
v 0.0085162183 0.011013017 -0.010654041
v 0.0085785089 0.011015239 -0.010701787
v 0.0086363962 0.011017705 -0.010754773
v 0.0086894406 0.011020396 -0.010812598
v 0.008737236 0.011023291 -0.010874821
v 0.0087794231 0.01102637 -0.010940968
v 0.0088156776 0.011029607 -0.011010536
v 0.0088457239 0.011032979 -0.011082996
v 0.008869333 0.01103646 -0.011157796
v 0.0088863259 0.011040023 -0.011234367
v 0.0088965742 0.011043641 -0.011312126
v 0.0088999996 0.011047288 -0.011390481
v 0.0088965742 0.011050934 -0.011468837
v 0.0088863259 0.011054552 -0.011546596
v 0.008869333 0.011058116 -0.011623167
v 0.0088457239 0.011061597 -0.011697967
v 0.0088156776 0.011064969 -0.011770427
v 0.0087794231 0.011068206 -0.011839996
v 0.008737236 0.011071284 -0.011906142
v 0.0086894406 0.01107418 -0.011968365
v 0.0086363962 0.011076871 -0.01202619
v 0.0085785089 0.011079336 -0.012079176
v 0.0085162183 0.011081558 -0.012126922
v 0.0084499994 0.011083519 -0.012169062
v 0.008380357 0.011085204 -0.012205277
v 0.0083078181 0.011086601 -0.012235291
v 0.008232936 0.011087699 -0.012258875
v 0.0081562826 0.011088489 -0.012275851
v 0.0080784408 0.011088965 -0.012286088
v -0.0081380822 0.0090858519 -0.012265709
v -0.008069305 0.0090862728 -0.012274753
v -0.0080000006 0.0090494494 -0.011483451
v -0.0080000006 0.0090864135 -0.012277776
v -0.0079306953 0.0090862728 -0.012274753
v -0.00833606 0.0090829502 -0.012203354
v -0.0082719691 0.0090841843 -0.012229873
v -0.0082058089 0.009085154 -0.01225071
v -0.0085111346 0.0090777655 -0.01209194
v -0.0084560991 0.0090797286 -0.012134124
v -0.0083975925 0.0090814612 -0.012171357
v -0.0086513769 0.0090706511 -0.011939057
v -0.008609147 0.0090732094 -0.011994033
v -0.008562281 0.009075587 -0.012045124
v -0.0087472296 0.0090620919 -0.011755126
v -0.0087206822 0.0090650711 -0.011819148
v -0.0086886503 0.0090679315 -0.011880614
v -0.0087921584 0.009052671 -0.011552681
v -0.0087831041 0.0090558681 -0.011621384
v -0.0087680893 0.0090590164 -0.011689038
v -0.0087831041 0.0090430307 -0.011345519
v -0.0087921584 0.0090462278 -0.011414221
v -0.0087951843 0.0090494494 -0.011483451
v -0.0087206822 0.0090338277 -0.011147755
v -0.0087472296 0.009036807 -0.011211776
v -0.0087680893 0.0090398824 -0.011277865
v -0.008609147 0.0090256894 -0.010972869
v -0.0086513769 0.0090282477 -0.011027845
v -0.0086886503 0.0090309674 -0.011086289
v -0.0084560991 0.0090191702 -0.010832779
v -0.0085111346 0.0090211333 -0.010874963
v -0.008562281 0.0090233119 -0.010921779
v -0.0082719691 0.0090147146 -0.01073703
v -0.00833606 0.0090159486 -0.010763548
v -0.0083975925 0.0090174376 -0.010795546
v -0.008069305 0.009012626 -0.010692149
v -0.0081380822 0.0090130469 -0.010701194
v -0.0082058089 0.0090137449 -0.010716192
v -0.0078619181 0.0090130469 -0.010701194
v -0.0079306953 0.009012626 -0.010692149
v -0.0080000006 0.0090124854 -0.010689127
v -0.0076639408 0.0090159486 -0.010763548
v -0.0077280307 0.0090147146 -0.01073703
v -0.0077941909 0.0090137449 -0.010716192
v -0.0074888652 0.0090211333 -0.010874963
v -0.0075439007 0.0090191702 -0.010832779
v -0.0076024074 0.0090174376 -0.010795546
v -0.0073486229 0.0090282477 -0.011027845
v -0.0073908528 0.0090256894 -0.010972869
v -0.0074377197 0.0090233119 -0.010921779
v -0.0072527712 0.009036807 -0.011211776
v -0.0072793176 0.0090338277 -0.011147755
v -0.0073113495 0.0090309674 -0.011086289
v -0.0072078414 0.0090462278 -0.011414221
v -0.0072168957 0.0090430307 -0.011345519
v -0.0072319105 0.0090398824 -0.011277865
v -0.0072168957 0.0090558681 -0.011621384
v -0.0072078414 0.009052671 -0.011552681
v -0.0072048155 0.0090494494 -0.011483451
v -0.0072793176 0.0090650711 -0.011819148
v -0.0072527712 0.0090620919 -0.011755126
v -0.0072319105 0.0090590164 -0.011689038
v -0.0073908528 0.0090732094 -0.011994033
v -0.0073486229 0.0090706511 -0.011939057
v -0.0073113495 0.0090679315 -0.011880614
v -0.0075439007 0.0090797286 -0.012134124
v -0.0074888652 0.0090777655 -0.01209194
v -0.0074377197 0.009075587 -0.012045124
v -0.0077280307 0.0090841843 -0.012229873
v -0.0076639408 0.0090829502 -0.012203354
v -0.0076024074 0.0090814612 -0.012171357
v -0.0078619181 0.0090858519 -0.012265709
v -0.0077941909 0.009085154 -0.01225071
v 0.0089999994 0.011419167 -0.019381833
v 0.0089999994 0.012418085 -0.019335348
v 0.0092178898 0.012417643 -0.019325845
v 0.0092178898 0.011418725 -0.01937233
v 0.0094341205 0.012416319 -0.019297409
v 0.0094341205 0.011417401 -0.019343894
v 0.0096470469 0.012414125 -0.019250255
v 0.0096470469 0.011415207 -0.01929674
v 0.0098550504 0.012411076 -0.019184743
v 0.0098550504 0.011412158 -0.019231227
v 0.010056546 0.012407197 -0.019101371
v 0.010056546 0.011408279 -0.019147856
v 0.01025 0.012402515 -0.019000775
v 0.01025 0.011403597 -0.019047259
v 0.01043394 0.012397068 -0.018883717
v 0.01043394 0.01139815 -0.018930201
v 0.010606969 0.012390896 -0.018751093
v 0.010606969 0.011391978 -0.018797577
v 0.010767767 0.012384047 -0.018603907
v 0.010767767 0.011385129 -0.018650392
v 0.010915112 0.012376572 -0.018443283
v 0.010915112 0.011377654 -0.018489768
v 0.011047879 0.012368529 -0.018270441
v 0.011047879 0.011369611 -0.018316926
v 0.011165064 0.012359979 -0.0180867
v 0.011165064 0.011361061 -0.018133185
v 0.011265769 0.012350986 -0.017893455
v 0.011265769 0.011352068 -0.01793994
v 0.011349231 0.01234162 -0.017692177
v 0.011349231 0.011342701 -0.017738662
v 0.011414815 0.012331951 -0.017484399
v 0.011414815 0.011333032 -0.017530884
v 0.01146202 0.012322053 -0.017271703
v 0.01146202 0.011323135 -0.017318187
v 0.011490486 0.012312001 -0.017055706
v 0.011490486 0.011313083 -0.01710219
v 0.011499999 0.012301873 -0.016838051
v 0.011499999 0.011302955 -0.016884536
v 0.011499999 0.011184418 -0.014337293
v 0.011499999 0.010979378 0.011581194
v 0.011499999 0.010674902 0.018124114
v 0.011499999 0.0096759838 0.018077629
v 0.011499999 0.0099804598 0.011534709
v 0.011499999 0.010631248 -0.0024501563
v 0.011499999 0.011114691 -0.012838914
v 0.011490486 0.010664773 0.018341769
v 0.011490486 0.0096658551 0.018295284
v 0.01146202 0.010654722 0.018557766
v 0.01146202 0.0096558037 0.018511281
v 0.011414815 0.010644824 0.018770462
v 0.011414815 0.0096459058 0.018723977
v 0.011349231 0.010635155 0.018978241
v 0.011349231 0.0096362368 0.018931756
v 0.011265769 0.010625789 0.019179518
v 0.011265769 0.0096268703 0.019133034
v 0.011165064 0.010616796 0.019372764
v 0.011165064 0.0096178776 0.019326279
v 0.011047879 0.010608245 0.019556505
v 0.011047879 0.0096093272 0.01951002
v 0.010915112 0.010600202 0.019729346
v 0.010915112 0.009601284 0.019682861
v 0.010767767 0.010592727 0.019889971
v 0.010767767 0.0095938093 0.019843486
v 0.010606969 0.010585878 0.020037156
v 0.010606969 0.00958696 0.019990671
v 0.01043394 0.010579707 0.02016978
v 0.01043394 0.0095807883 0.020123295
v 0.01025 0.010574259 0.020286838
v 0.01025 0.009575341 0.020240353
v 0.010056546 0.010569578 0.020387435
v 0.010056546 0.0095706597 0.02034095
v 0.0098550504 0.010565698 0.020470806
v 0.0098550504 0.00956678 0.020424321
v 0.0096470469 0.01056265 0.020536319
v 0.0096470469 0.0095637314 0.020489834
v 0.0094341205 0.010560455 0.020583473
v 0.0094341205 0.009561537 0.020536988
v 0.0092178898 0.010559132 0.020611909
v 0.0092178898 0.0095602138 0.020565424
v 0.0089999994 0.01055869 0.020621411
v 0.0089999994 0.0095597716 0.020574926
v 1.6250581e-10 0.0095597716 0.020574926
v 1.6250581e-10 0.01055869 0.020621411
v -0.007 0.0095597716 0.020574926
v -0.0089999998 0.01055869 0.020621411
v -0.0089999998 0.0095597716 0.020574926
v -0.0092178893 0.010559132 0.020611909
v -0.0092178893 0.0095602138 0.020565424
v -0.009434121 0.010560455 0.020583473
v -0.009434121 0.009561537 0.020536988
v -0.0096470483 0.01056265 0.020536319
v -0.0096470483 0.0095637314 0.020489834
v -0.0098550508 0.010565698 0.020470806
v -0.0098550508 0.00956678 0.020424321
v -0.010056546 0.010569578 0.020387435
v -0.010056546 0.0095706597 0.02034095
v -0.010250001 0.010574259 0.020286838
v -0.010250001 0.009575341 0.020240353
v -0.010433941 0.010579707 0.02016978
v -0.010433941 0.0095807883 0.020123295
v -0.010606969 0.010585878 0.020037156
v -0.010606969 0.00958696 0.019990671
v -0.010767767 0.010592727 0.019889971
v -0.010767767 0.0095938093 0.019843486
v -0.010915111 0.010600202 0.019729346
v -0.010915111 0.009601284 0.019682861
v -0.01104788 0.010608245 0.019556505
v -0.01104788 0.0096093272 0.01951002
v -0.011165063 0.010616796 0.019372764
v -0.011165063 0.0096178776 0.019326279
v -0.01126577 0.010625789 0.019179518
v -0.01126577 0.0096268703 0.019133034
v -0.011349231 0.010635155 0.018978241
v -0.011349231 0.0096362368 0.018931756
v -0.011414815 0.010644824 0.018770462
v -0.011414815 0.0096459058 0.018723977
v -0.011462019 0.010654722 0.018557766
v -0.011462019 0.0096558037 0.018511281
v -0.011490487 0.010664773 0.018341769
v -0.011490487 0.0096658551 0.018295284
v -0.0115 0.010674902 0.018124114
v -0.0115 0.0096759838 0.018077629
v -0.0115 0.011302955 -0.016884536
v -0.0115 0.012301873 -0.016838051
v -0.011490487 0.012312001 -0.017055706
v -0.011490487 0.011313083 -0.01710219
v -0.011462019 0.012322053 -0.017271703
v -0.011462019 0.011323135 -0.017318187
v -0.011414815 0.012331951 -0.017484399
v -0.011414815 0.011333032 -0.017530884
v -0.011349231 0.01234162 -0.017692177
v -0.011349231 0.011342701 -0.017738662
v -0.01126577 0.012350986 -0.017893455
v -0.01126577 0.011352068 -0.01793994
v -0.011165063 0.012359979 -0.0180867
v -0.011165063 0.011361061 -0.018133185
v -0.01104788 0.012368529 -0.018270441
v -0.01104788 0.011369611 -0.018316926
v -0.010915111 0.012376572 -0.018443283
v -0.010915111 0.011377654 -0.018489768
v -0.010767767 0.012384047 -0.018603907
v -0.010767767 0.011385129 -0.018650392
v -0.010606969 0.012390896 -0.018751093
v -0.010606969 0.011391978 -0.018797577
v -0.010433941 0.012397068 -0.018883717
v -0.010433941 0.01139815 -0.018930201
v -0.010250001 0.012402515 -0.019000775
v -0.010250001 0.011403597 -0.019047259
v -0.010056546 0.012407197 -0.019101371
v -0.010056546 0.011408279 -0.019147856
v -0.0098550508 0.012411076 -0.019184743
v -0.0098550508 0.011412158 -0.019231227
v -0.0096470483 0.012414125 -0.019250255
v -0.0096470483 0.011415207 -0.01929674
v -0.009434121 0.012416319 -0.019297409
v -0.009434121 0.011417401 -0.019343894
v -0.0092178893 0.012417643 -0.019325845
v -0.0092178893 0.011418725 -0.01937233
v -0.0089999998 0.012418085 -0.019335348
v -0.0089999998 0.011419167 -0.019381833
v -0.0080000006 0.011089124 -0.012289509
v -0.0080784403 0.011088965 -0.012286088
v -0.008156284 0.011088489 -0.012275851
v -0.0082329374 0.011087699 -0.012258875
v -0.0083078185 0.011086601 -0.012235291
v -0.0083803565 0.011085204 -0.012205277
v -0.0084499998 0.011083519 -0.012169062
v -0.0085162187 0.011081558 -0.012126922
v -0.0085785093 0.011079336 -0.012079176
v -0.0086363966 0.011076871 -0.01202619
v -0.0086894401 0.01107418 -0.011968365
v -0.0087372374 0.011071284 -0.011906142
v -0.0087794235 0.011068206 -0.011839996
v -0.0088156771 0.011064969 -0.011770427
v -0.0088457235 0.011061597 -0.011697967
v -0.0088693334 0.011058116 -0.011623167
v -0.0088863273 0.011054552 -0.011546596
v -0.0088965755 0.011050934 -0.011468837
v -0.0089 0.011047288 -0.011390481
v -0.0088965755 0.011043641 -0.011312126
v -0.0088863273 0.011040023 -0.011234367
v -0.0088693334 0.01103646 -0.011157796
v -0.0088457235 0.011032979 -0.011082996
v -0.0088156771 0.011029607 -0.011010536
v -0.0087794235 0.01102637 -0.010940968
v -0.0087372374 0.011023291 -0.010874821
v -0.0086894401 0.011020396 -0.010812598
v -0.0086363966 0.011017705 -0.010754773
v -0.0085785093 0.011015239 -0.010701787
v -0.0085162187 0.011013017 -0.010654041
v -0.0084499998 0.011011056 -0.010611902
v -0.0083803565 0.011009371 -0.010575686
v -0.0083078185 0.011007974 -0.010545673
v -0.0082329374 0.011006877 -0.010522088
v -0.008156284 0.011006087 -0.010505113
v -0.0080784403 0.011005611 -0.010494875
v -0.0080000006 0.011005451 -0.010491455
v -0.00792156 0.011005611 -0.010494875
v -0.0078437172 0.011006087 -0.010505113
v -0.0077670624 0.011006877 -0.010522088
v -0.0076921813 0.011007974 -0.010545673
v -0.0076196433 0.011009371 -0.010575686
v -0.00755 0.011011056 -0.010611902
v -0.0074837811 0.011013017 -0.010654041
v -0.0074214914 0.011015239 -0.010701787
v -0.0073636041 0.011017705 -0.010754773
v -0.0073105597 0.011020396 -0.010812598
v -0.0072627633 0.011023291 -0.010874821
v -0.0072205772 0.01102637 -0.010940968
v -0.0071843227 0.011029607 -0.011010536
v -0.0071542764 0.011032979 -0.011082996
v -0.0071306664 0.01103646 -0.011157796
v -0.0071136726 0.011040023 -0.011234367
v -0.0071034243 0.011043641 -0.011312126
v -0.0070999998 0.011047288 -0.011390481
v -0.0071034243 0.011050934 -0.011468837
v -0.0071136726 0.011054552 -0.011546596
v -0.0071306664 0.011058116 -0.011623167
v -0.0071542764 0.011061597 -0.011697967
v -0.0071843227 0.011064969 -0.011770427
v -0.0072205772 0.011068206 -0.011839996
v -0.0072627633 0.011071284 -0.011906142
v -0.0073105597 0.01107418 -0.011968365
v -0.0073636041 0.011076871 -0.01202619
v -0.0074214914 0.011079336 -0.012079176
v -0.0074837811 0.011081558 -0.012126922
v -0.00755 0.011083519 -0.012169062
v -0.0076196433 0.011085204 -0.012205277
v -0.0076921813 0.011086601 -0.012235291
v -0.0077670624 0.011087699 -0.012258875
v -0.0078437172 0.011088489 -0.012275851
v -0.00792156 0.011088965 -0.012286088
v -0.0079041293 0.010600721 0.019718203
v -0.0080000006 0.010600526 0.019722386
v 0.0080958714 0.010600721 0.019718203
v 0.0079999992 0.010600526 0.019722386
v 0.0097070669 0.01223946 -0.015496854
v 0.0096309332 0.012236744 -0.015438499
v 0.0095499994 0.012234347 -0.015386993
v 0.0094648802 0.012232288 -0.015342731
v 0.009376222 0.012230581 -0.015306048
v 0.0080989318 0.012249301 -0.015708339
v 0.0080473719 0.012253064 -0.015789187
v 0.0040148741 0.012097801 -0.012452721
v 0.003249191 0.012112544 -0.012769534
v 0.0079663375 0.012261142 -0.015962776
v 0.0016496574 0.012132467 -0.013197665
v 0.0024587812 0.012124128 -0.01301848
v 0.009284701 0.012229239 -0.015277222
v 0.0091910118 0.012228274 -0.015256475
v 0.0090958716 0.012227692 -0.015243962
v 0.0072774219 0.011981428 -0.0099519852
v 0.0089999994 0.012227497 -0.015239781
v 0.008904129 0.012227692 -0.015243962
v 0.0054489768 0.012059312 -0.011625636
v 0.0082929337 0.01223946 -0.015496854
v 0.0047500006 0.012080012 -0.012070452
v 0.008222183 0.012242474 -0.015561616
v 0.0081573499 0.012245762 -0.01563229
v 0.0080030614 0.01225702 -0.015874215
v 0.0079041848 0.012283087 -0.016434359
v 0.007916711 0.01228751 -0.016529398
v 1.6250581e-10 0.012418085 -0.019335348
v 0.0081573499 0.012311498 -0.017044893
v 0.008222183 0.012314787 -0.017115568
v 0.010099999 0.01227863 -0.016338592
v 0.010095814 0.012283087 -0.016434359
v 0.010083288 0.01228751 -0.016529398
v 0.010095814 0.012274174 -0.016242824
v 0.010083288 0.012269751 -0.016147784
v 0.010062517 0.012265396 -0.016054198
v 0.008808987 0.012228274 -0.015256475
v 0.0087152997 0.012229239 -0.015277222
v 0.0067175145 0.012009832 -0.010562357
v 0.0079374814 0.012265396 -0.016054198
v 1.6250581e-10 0.012139176 -0.013341835
v 0.00082797948 0.012137495 -0.013305723
v 0.0082929337 0.012317801 -0.017180329
v 0.0083690656 0.012320516 -0.017238684
v 0.0084499994 0.012322913 -0.01729019
v 0.0085351204 0.012324973 -0.017334452
v 0.0086237767 0.01232668 -0.017371137
v 0.0087152997 0.012328021 -0.017399961
v 0.008808987 0.012328987 -0.017420709
v 0.009176295 0.011583273 -0.001395981
v 0.0093556733 0.011620885 -0.0022042296
v 0.0094638502 0.011659081 -0.0030250195
v 0.0089270787 0.011546531 -0.00060642501
v 0.0086099242 0.011510938 0.00015842923
v 0.0082272419 0.011476766 0.00089276105
v 0.010033661 0.012261142 -0.015962776
v 0.0099969374 0.01225702 -0.015874215
v 0.0099526269 0.012253064 -0.015789187
v 0.009901067 0.012249301 -0.015708339
v 0.0077819454 0.011950864 -0.0092951897
v 0.0082272419 0.011918372 -0.0085969691
v 0.0086099242 0.0118842 -0.0078626373
v 0.0089270787 0.011848608 -0.0070977833
v 0.009176295 0.011811865 -0.0063082271
v 0.0093556733 0.011774253 -0.0054999785
v 0.0094638502 0.011736058 -0.0046791887
v 0.0095000004 0.011697569 -0.003852104
v 0.0086237767 0.012230581 -0.015306048
v 0.0085351204 0.012232288 -0.015342731
v 0.0061064831 0.012035859 -0.011121659
v 0.0084499994 0.012234347 -0.015386993
v 0.0083690656 0.012236744 -0.015438499
v 0.007916711 0.012269751 -0.016147784
v 0.0079041848 0.012274174 -0.016242824
v 0.0078999994 0.01227863 -0.016338592
v 0.0079374814 0.012291865 -0.016622984
v 0.0079663375 0.012296119 -0.016714406
v 0.0080030614 0.01230024 -0.016802969
v 0.0080473719 0.012304197 -0.016887998
v 0.0080989318 0.012307959 -0.016968844
v 0.0098426489 0.012245762 -0.01563229
v 0.0097778177 0.012242474 -0.015561616
v 0.0077819454 0.011444274 0.0015909817
v 0.0072774219 0.01141371 0.0022477772
v 0.0067175145 0.011385306 0.0028581486
v 0.009284701 0.012328021 -0.017399961
v 0.0091910118 0.012328987 -0.017420709
v 0.0090958716 0.012329569 -0.01743322
v 0.0089999994 0.012329764 -0.017437403
v 0.008904129 0.012329569 -0.01743322
v 0.0097778177 0.012314787 -0.017115568
v 0.0097070669 0.012317801 -0.017180329
v 0.0096309332 0.012320516 -0.017238684
v 0.0095499994 0.012322913 -0.01729019
v 0.0094648802 0.012324973 -0.017334452
v 0.009376222 0.01232668 -0.017371137
v 0.010062517 0.012291865 -0.016622984
v 0.010033661 0.012296119 -0.016714406
v 0.0099969374 0.01230024 -0.016802969
v 0.0099526269 0.012304197 -0.016887998
v 0.009901067 0.012307959 -0.016968844
v 0.0098426489 0.012311498 -0.017044893
v 0.0061064831 0.011359279 0.0034174512
v 0.0054489768 0.011335827 0.0039214279
v 0.0047500006 0.011315127 0.0043662435
v 0.0040148741 0.011297338 0.0047485121
v 0.003249191 0.011282595 0.0050653256
v 1.6250581e-10 0.010979378 0.011581194
v 0.0024587812 0.01127101 0.0053142716
v 0.0016496574 0.011262672 0.005493456
v -0.0097070665 0.012317801 -0.017180329
v -0.0096309346 0.012320516 -0.017238684
v -0.0115 0.010979378 0.011581194
v -0.0097778172 0.012242474 -0.015561616
v -0.0098426493 0.012245762 -0.01563229
v -0.010033662 0.012261142 -0.015962776
v -0.010062519 0.012265396 -0.016054198
v -0.0095499998 0.012234347 -0.015386993
v -0.0094648807 0.012232288 -0.015342731
v -0.0093762225 0.012230581 -0.015306048
v -0.0089041286 0.012329569 -0.01743322
v -0.0088089874 0.012328987 -0.017420709
v -0.0087152992 0.012328021 -0.017399961
v -0.0086237781 0.01232668 -0.017371137
v -0.0085351199 0.012324973 -0.017334452
v -0.0084499998 0.012322913 -0.01729019
v -0.008369066 0.012320516 -0.017238684
v -0.0082929341 0.012317801 -0.017180329
v -0.0082221825 0.012314787 -0.017115568
v -0.009095872 0.012227692 -0.015243962
v -0.0091910132 0.012228274 -0.015256475
v -0.0092847014 0.012229239 -0.015277222
v -0.0096309346 0.012236744 -0.015438499
v -0.0097070665 0.01223946 -0.015496854
v -0.010083288 0.012269751 -0.016147784
v -0.010095814 0.012274174 -0.016242824
v -0.0101 0.01227863 -0.016338592
v -0.0095499998 0.012322913 -0.01729019
v -0.0094648807 0.012324973 -0.017334452
v -0.0093762225 0.01232668 -0.017371137
v -0.0092847014 0.012328021 -0.017399961
v -0.0091910132 0.012328987 -0.017420709
v -0.0054489763 0.012059312 -0.011625636
v -0.0082929341 0.01223946 -0.015496854
v -0.008369066 0.012236744 -0.015438499
v 0.00082797948 0.011257643 0.005601515
v 1.6250581e-10 0.011255963 0.0056376261
v -0.00082797911 0.011257643 0.005601515
v -0.0099010675 0.012249301 -0.015708339
v -0.0099526283 0.012253064 -0.015789187
v -0.0099969387 0.01225702 -0.015874215
v -0.010095814 0.012283087 -0.016434359
v -0.010083288 0.01228751 -0.016529398
v -0.010062519 0.012291865 -0.016622984
v -0.010033662 0.012296119 -0.016714406
v -0.0099969387 0.01230024 -0.016802969
v -0.0099526283 0.012304197 -0.016887998
v -0.0099010675 0.012307959 -0.016968844
v -0.0098426493 0.012311498 -0.017044893
v -0.0097778172 0.012314787 -0.017115568
v -0.0061064826 0.012035859 -0.011121659
v -0.0061064826 0.011359279 0.0034174512
v -0.006717514 0.011385306 0.0028581486
v -0.0072774223 0.01141371 0.0022477772
v -0.007781944 0.011444274 0.0015909817
v -0.009095872 0.012329569 -0.01743322
v -0.0089999998 0.012329764 -0.017437403
v -0.0080030619 0.01225702 -0.015874215
v -0.0016496571 0.012132467 -0.013197665
v -0.0079663389 0.012261142 -0.015962776
v -0.00082797911 0.012137495 -0.013305723
v -0.0079374819 0.012265396 -0.016054198
v -0.0079167115 0.012269751 -0.016147784
v -0.0079041861 0.012274174 -0.016242824
v -0.0082221825 0.012242474 -0.015561616
v -0.0047500001 0.012080012 -0.012070452
v -0.0081573513 0.012245762 -0.01563229
v -0.0084499998 0.012234347 -0.015386993
v -0.0085351199 0.012232288 -0.015342731
v -0.006717514 0.012009832 -0.010562357
v -0.0086237781 0.012230581 -0.015306048
v -0.0072774223 0.011981428 -0.0099519852
v -0.0087152992 0.012229239 -0.015277222
v -0.007781944 0.011950864 -0.0092951897
v -0.0088089874 0.012228274 -0.015256475
v -0.0089041286 0.012227692 -0.015243962
v -0.0094638497 0.011736058 -0.0046791887
v -0.0093556738 0.011774253 -0.0054999785
v -0.0089999998 0.012227497 -0.015239781
v -0.0091762955 0.011811865 -0.0063082271
v -0.0089270801 0.011848608 -0.0070977833
v -0.0086099247 0.0118842 -0.0078626373
v -0.0082272414 0.011918372 -0.0085969691
v -0.0040148736 0.011297338 0.0047485121
v -0.0047500001 0.011315127 0.0043662435
v -0.0054489763 0.011335827 0.0039214279
v -0.0082272414 0.011476766 0.00089276105
v -0.0086099247 0.011510938 0.00015842923
v -0.0089270801 0.011546531 -0.00060642501
v -0.0091762955 0.011583273 -0.001395981
v -0.0093556738 0.011620885 -0.0022042296
v -0.0094638497 0.011659081 -0.0030250195
v -0.0094999999 0.011697569 -0.003852104
v -0.0081573513 0.012311498 -0.017044893
v -0.0080989331 0.012307959 -0.016968844
v -0.0080473723 0.012304197 -0.016887998
v -0.0079374819 0.012291865 -0.016622984
v -0.0079167115 0.01228751 -0.016529398
v -0.0079041861 0.012283087 -0.016434359
v -0.0078999998 0.01227863 -0.016338592
v -0.0080989331 0.012249301 -0.015708339
v -0.0040148736 0.012097801 -0.012452721
v -0.0080473723 0.012253064 -0.015789187
v -0.0032491914 0.012112544 -0.012769534
v -0.0024587808 0.012124128 -0.01301848
v -0.0080030619 0.01230024 -0.016802969
v -0.0079663389 0.012296119 -0.016714406
v -0.0016496571 0.011262672 0.005493456
v -0.0024587808 0.01127101 0.0053142716
v -0.0032491914 0.011282595 0.0050653256
v 0.0076237789 0.01060361 0.019656119
v 0.0075351207 0.010605317 0.019619435
v 0.0070989321 0.010680988 0.017993321
v 0.0070473722 0.010677226 0.018074169
v 0.0070030617 0.010673269 0.018159196
v 0.0079041289 0.010600721 0.019718203
v 0.0078089873 0.010601303 0.019705692
v 0.0077153 0.010602268 0.019684944
v 0.0074499997 0.010607377 0.019575172
v 0.0073690659 0.010609774 0.019523666
v 0.007292934 0.010612489 0.019465311
v 0.0069041869 0.010647203 0.018719341
v 0.0068999997 0.010651659 0.018623575
v 0.0069041869 0.010656116 0.018527806
v 0.0084648801 0.010698002 0.017627713
v 0.0085499992 0.010695942 0.017671975
v 0.0090336611 0.010634171 0.018999389
v 0.0089969391 0.01063005 0.019087951
v 0.0069167113 0.010660539 0.018432767
v 0.0069374817 0.010664894 0.018339181
v 0.0069663378 0.010669148 0.018247759
v 0.0079041289 0.010702598 0.017528945
v 0.0079999992 0.010702793 0.017524764
v 0.0080958714 0.010702598 0.017528945
v 0.0081910135 0.010702016 0.017541456
v 0.0082847008 0.010701051 0.017562203
v 0.0083762219 0.010699709 0.01759103
v 0.0072221833 0.010615503 0.01940055
v 0.0071573521 0.010618792 0.019329876
v 0.0070989321 0.010622331 0.019253826
v 0.0070473722 0.010626093 0.01917298
v 0.0070030617 0.01063005 0.019087951
v 0.0069663378 0.010634171 0.018999389
v 0.0071573521 0.010684527 0.017917271
v 0.0072221833 0.010687816 0.017846597
v 0.007292934 0.01069083 0.017781836
v 0.008630933 0.010693545 0.017723481
v 0.0087070668 0.01069083 0.017781836
v 0.0087778175 0.010687816 0.017846597
v 0.0089526267 0.010626093 0.01917298
v 0.0089010669 0.010622331 0.019253826
v 0.0069374817 0.010638425 0.018907967
v 0.0069167113 0.01064278 0.018814381
v 0.0073690659 0.010693545 0.017723481
v 0.0074499997 0.010695942 0.017671975
v 0.0075351207 0.010698002 0.017627713
v 0.0090625172 0.010638425 0.018907967
v 0.0090832876 0.01064278 0.018814381
v 0.0090958139 0.010647203 0.018719341
v 0.0088426487 0.010618792 0.019329876
v 0.0087778175 0.010615503 0.01940055
v 0.0087070668 0.010612489 0.019465311
v 0.008630933 0.010609774 0.019523666
v 0.0085499992 0.010607377 0.019575172
v 0.0084648801 0.010605317 0.019619435
v 0.0083762219 0.01060361 0.019656119
v 0.0088426487 0.010684527 0.017917271
v 0.0089010669 0.010680988 0.017993321
v 0.0089526267 0.010677226 0.018074169
v 0.0089969391 0.010673269 0.018159196
v 0.0090336611 0.010669148 0.018247759
v 0.0082847008 0.010602268 0.019684944
v 0.0081910135 0.010601303 0.019705692
v 0.0076237789 0.010699709 0.01759103
v 0.0077153 0.010701051 0.017562203
v 0.0078089873 0.010702016 0.017541456
v 0.0090999992 0.010651659 0.018623575
v 0.0090958139 0.010656116 0.018527806
v 0.0090832876 0.010660539 0.018432767
v 0.0090625172 0.010664894 0.018339181
v -0.0088426492 0.010684527 0.017917271
v -0.0087778179 0.010687816 0.017846597
v -0.0085500006 0.010695942 0.017671975
v -0.0084648805 0.010698002 0.017627713
v -0.0080958719 0.010600721 0.019718203
v -0.008191013 0.010601303 0.019705692
v -0.0082847013 0.010602268 0.019684944
v -0.0080000006 0.010702793 0.017524764
v -0.0080958719 0.010702598 0.017528945
v -0.008191013 0.010702016 0.017541456
v -0.0087070663 0.01069083 0.017781836
v -0.0086309344 0.010693545 0.017723481
v -0.0083762223 0.010699709 0.01759103
v -0.0082847013 0.010701051 0.017562203
v -0.0076237775 0.010699709 0.01759103
v -0.0075351193 0.010698002 0.017627713
v -0.0072221828 0.010615503 0.01940055
v -0.0072929335 0.010612489 0.019465311
v -0.0079041293 0.010702598 0.017528945
v -0.0078089868 0.010702016 0.017541456
v -0.0077152986 0.010701051 0.017562203
v -0.0069663383 0.010669148 0.018247759
v -0.0069374812 0.010664894 0.018339181
v -0.0073690654 0.010609774 0.019523666
v -0.0074500001 0.010607377 0.019575172
v -0.0075351193 0.010605317 0.019619435
v -0.0076237775 0.01060361 0.019656119
v -0.0077152986 0.010602268 0.019684944
v -0.0078089868 0.010601303 0.019705692
v -0.0091000006 0.010651659 0.018623575
v -0.0090958143 0.010656116 0.018527806
v -0.0090832889 0.010660539 0.018432767
v -0.0090625186 0.010664894 0.018339181
v -0.0090336625 0.010669148 0.018247759
v -0.0089969386 0.010673269 0.018159196
v -0.0089526281 0.010677226 0.018074169
v -0.0089010673 0.010680988 0.017993321
v -0.0074500001 0.010695942 0.017671975
v -0.0073690654 0.010693545 0.017723481
v -0.0072929335 0.01069083 0.017781836
v -0.0072221828 0.010687816 0.017846597
v -0.0071573506 0.010684527 0.017917271
v -0.0070989325 0.010680988 0.017993321
v -0.0070473717 0.010677226 0.018074169
v -0.0070030612 0.010673269 0.018159196
v -0.0069167109 0.010660539 0.018432767
v -0.0069041855 0.010656116 0.018527806
v -0.0069000001 0.010651659 0.018623575
v -0.0069041855 0.010647203 0.018719341
v -0.0069167109 0.01064278 0.018814381
v -0.0069374812 0.010638425 0.018907967
v -0.0070473717 0.010626093 0.01917298
v -0.0070989325 0.010622331 0.019253826
v -0.0071573506 0.010618792 0.019329876
v -0.0083762223 0.01060361 0.019656119
v -0.0084648805 0.010605317 0.019619435
v -0.0085500006 0.010607377 0.019575172
v -0.0086309344 0.010609774 0.019523666
v -0.0087070663 0.010612489 0.019465311
v -0.0087778179 0.010615503 0.01940055
v -0.0088426492 0.010618792 0.019329876
v -0.0089010673 0.010622331 0.019253826
v -0.0089526281 0.010626093 0.01917298
v -0.0069663383 0.010634171 0.018999389
v -0.0070030612 0.01063005 0.019087951
v -0.0090625186 0.010638425 0.018907967
v -0.0090336625 0.010634171 0.018999389
v -0.0089969386 0.01063005 0.019087951
v -0.0090958143 0.010647203 0.018719341
v -0.0090832889 0.01064278 0.018814381
v 0.0089999994 0.011228579 -0.015286266
v 0.0090958716 0.011228773 -0.015290447
v 0.0091910118 0.011229356 -0.01530296
v 0.009284701 0.011230321 -0.015323707
v 0.009376222 0.011231662 -0.015352532
v 0.0094648802 0.01123337 -0.015389216
v 0.0095499994 0.011235429 -0.015433478
v 0.0096309332 0.011237826 -0.015484983
v 0.0097070669 0.011240542 -0.015543338
v 0.0097778177 0.011243555 -0.0156081
v 0.0098426489 0.011246844 -0.015678775
v 0.009901067 0.011250383 -0.015754824
v 0.0099526269 0.011254145 -0.015835671
v 0.0099969374 0.011258102 -0.0159207
v 0.010033661 0.011262223 -0.016009261
v 0.010062517 0.011266478 -0.016100683
v 0.010083288 0.011270833 -0.016194269
v 0.010095814 0.011275256 -0.016289308
v 0.010099999 0.011279712 -0.016385077
v 0.010095814 0.011284169 -0.016480844
v 0.010083288 0.011288591 -0.016575883
v 0.010062517 0.011292946 -0.016669469
v 0.010033661 0.011297201 -0.016760891
v 0.0099969374 0.011301322 -0.016849453
v 0.0099526269 0.011305279 -0.016934482
v 0.009901067 0.011309041 -0.017015329
v 0.0098426489 0.01131258 -0.017091378
v 0.0097778177 0.011315869 -0.017162053
v 0.0097070669 0.011318882 -0.017226814
v 0.0096309332 0.011321598 -0.017285169
v 0.0095499994 0.011323995 -0.017336675
v 0.0094648802 0.011326055 -0.017380937
v 0.009376222 0.011327762 -0.017417621
v 0.009284701 0.011329103 -0.017446446
v 0.0091910118 0.011330069 -0.017467194
v 0.0090958716 0.011330651 -0.017479705
v 0.0089999994 0.011330845 -0.017483888
v 0.008904129 0.011330651 -0.017479705
v 0.008808987 0.011330069 -0.017467194
v 0.0087152997 0.011329103 -0.017446446
v 0.0086237767 0.011327762 -0.017417621
v 0.0085351204 0.011326055 -0.017380937
v 0.0084499994 0.011323995 -0.017336675
v 0.0083690656 0.011321598 -0.017285169
v 0.0082929337 0.011318882 -0.017226814
v 0.008222183 0.011315869 -0.017162053
v 0.0081573499 0.01131258 -0.017091378
v 0.0080989318 0.011309041 -0.017015329
v 0.0080473719 0.011305279 -0.016934482
v 0.0080030614 0.011301322 -0.016849453
v 0.0079663375 0.011297201 -0.016760891
v 0.0079374814 0.011292946 -0.016669469
v 0.007916711 0.011288591 -0.016575883
v 0.0079041848 0.011284169 -0.016480844
v 0.0078999994 0.011279712 -0.016385077
v 0.0079041848 0.011275256 -0.016289308
v 0.007916711 0.011270833 -0.016194269
v 0.0079374814 0.011266478 -0.016100683
v 0.0079663375 0.011262223 -0.016009261
v 0.0080030614 0.011258102 -0.0159207
v 0.0080473719 0.011254145 -0.015835671
v 0.0080989318 0.011250383 -0.015754824
v 0.0081573499 0.011246844 -0.015678775
v 0.008222183 0.011243555 -0.0156081
v 0.0082929337 0.011240542 -0.015543338
v 0.0083690656 0.011237826 -0.015484983
v 0.0084499994 0.011235429 -0.015433478
v 0.0085351204 0.01123337 -0.015389216
v 0.0086237767 0.011231662 -0.015352532
v 0.0087152997 0.011230321 -0.015323707
v 0.008808987 0.011229356 -0.01530296
v 0.008904129 0.011228773 -0.015290447
v -0.0032491914 0.011113625 -0.012816019
v -0.007 0.011114691 -0.012838914
v -0.007 0.011184418 -0.014337293
v 0.0089999994 0.011114691 -0.012838914
v 0.00082797948 0.011138577 -0.013352208
v 1.6250581e-10 0.011140257 -0.013388319
v 1.6250581e-10 0.011184418 -0.014337293
v 0.0088426487 0.0096198734 0.019283391
v 0.0089010669 0.0096234124 0.019207342
v 0.0089999994 0.0095806898 0.020125413
v 0.0070473722 0.0096783079 0.018027684
v 0.0070030617 0.0096743512 0.018112712
v 1.6250581e-10 0.0099804598 0.011534709
v 0.0089969391 0.0096743512 0.018112712
v 0.0089526267 0.0096783079 0.018027684
v 0.0089999994 0.0099804598 0.011534709
v 0.0089010669 0.0096820702 0.017946836
v 0.0088426487 0.0096856092 0.017870787
v 0.0087778175 0.0096888981 0.017800112
v 0.0087070668 0.0096919117 0.017735351
v 0.008630933 0.0096946273 0.017676996
v 0.0085499992 0.0096970241 0.01762549
v 0.0084648801 0.0096990839 0.017581228
v 0.0083762219 0.0097007909 0.017544545
v 0.0082847008 0.0097021324 0.017515719
v 0.0081910135 0.0097030979 0.017494971
v 0.0080958714 0.0097036801 0.01748246
v 0.0079999992 0.0097038746 0.017478279
v 0.0079041289 0.0097036801 0.01748246
v 0.0075351207 0.0096990839 0.017581228
v 0.0074499997 0.0096970241 0.01762549
v 0.0072221833 0.0096888981 0.017800112
v 0.0071573521 0.0096856092 0.017870787
v 0.0070989321 0.0096820702 0.017946836
v 0.0069041869 0.0096571979 0.018481321
v 0.0068999997 0.0096527413 0.01857709
v 1.6250581e-10 0.0095806898 0.020125413
v 0.0069041869 0.0096482847 0.018672857
v 0.0069167113 0.0096438621 0.018767896
v 0.0070030617 0.0096311314 0.019041466
v 0.0070473722 0.0096271746 0.019126495
v 0.0073690659 0.0096108553 0.019477182
v 0.007292934 0.0096135709 0.019418827
v 0.0072221833 0.0096165846 0.019354065
v 0.0074499997 0.0096084585 0.019528688
v 0.0075351207 0.0096063987 0.01957295
v 0.0076237789 0.0096046916 0.019609634
v 0.0087778175 0.0096165846 0.019354065
v 0.0069663378 0.0096702299 0.018201274
v 0.0069374817 0.0096659756 0.018292696
v 0.0069167113 0.0096616205 0.018386282
v 0.0084648801 0.0096063987 0.01957295
v 0.0085499992 0.0096084585 0.019528688
v 0.0073690659 0.0096946273 0.017676996
v 0.007292934 0.0096919117 0.017735351
v 0.0070989321 0.0096234124 0.019207342
v 0.0071573521 0.0096198734 0.019283391
v 0.0081910135 0.0096023847 0.019659207
v 0.0080958714 0.0096018025 0.019671718
v 0.0079999992 0.0096016079 0.019675901
v 0.008630933 0.0096108553 0.019477182
v 0.0087070668 0.0096135709 0.019418827
v 0.0069374817 0.009639507 0.018861482
v 0.0069663378 0.0096352527 0.018952904
v 0.0077153 0.0096033502 0.019638459
v 0.0078089873 0.0096023847 0.019659207
v 0.0079041289 0.0096018025 0.019671718
v 0.0078089873 0.0097030979 0.017494971
v 0.0077153 0.0097021324 0.017515719
v 0.0076237789 0.0097007909 0.017544545
v 0.0082847008 0.0096033502 0.019638459
v 0.0083762219 0.0096046916 0.019609634
v 0.0089526267 0.0096271746 0.019126495
v 0.0089969391 0.0096311314 0.019041466
v 0.0092999989 0.0095806898 0.020125413
v 0.0090336611 0.0096352527 0.018952904
v 0.0090625172 0.009639507 0.018861482
v 0.0090832876 0.0096438621 0.018767896
v 0.0090958139 0.0096482847 0.018672857
v 0.0090336611 0.0096702299 0.018201274
v 0.0092999989 0.0099804598 0.011534709
v 0.0090625172 0.0096659756 0.018292696
v 0.0090999992 0.0096527413 0.01857709
v 0.0090958139 0.0096571979 0.018481321
v 0.0090832876 0.0096616205 0.018386282
v 0.0016496574 0.011133548 -0.013244149
v 0.0089999994 0.011184418 -0.014337293
v 0.0024587812 0.01112521 -0.013064965
v 0.009176295 0.010812947 -0.0063547119
v 0.0077819454 0.010951946 -0.0093416745
v 0.0072774219 0.01098251 -0.0099984701
v 0.0082272419 0.010919454 -0.0086434539
v 0.0086099242 0.010885282 -0.0079091222
v 0.003249191 0.011113625 -0.012816019
v 0.0089270787 0.010849689 -0.0071442681
v 0.0067175145 0.011010914 -0.010608842
v 0.0054489768 0.011060394 -0.011672121
v 0.0061064831 0.011036941 -0.011168144
v 0.0040148741 0.011098882 -0.012499205
v 0.0047500006 0.011081093 -0.012116937
v 0.0108 0.010631248 -0.0024501563
v 0.0094638502 0.010660163 -0.0030715044
v 0.0095000004 0.010698651 -0.0038985889
v 0.0093556733 0.010621967 -0.0022507144
v 0.0108 0.0099804598 0.011534709
v 0.0082272419 0.010477848 0.00084627621
v 0.0086099242 0.01051202 0.00011194439
v 0.0089270787 0.010547613 -0.00065290985
v 0.009176295 0.010584355 -0.0014424659
v 0.0024587812 0.010272092 0.0052677868
v 0.003249191 0.010283677 0.0050188408
v 0.0040148741 0.01029842 0.0047020273
v 0.0047500006 0.010316209 0.0043197587
v 0.0016496574 0.010263754 0.0054469712
v 0.00082797948 0.010258725 0.0055550301
v 0.0054489768 0.010336908 0.003874943
v 0.0061064831 0.010360361 0.0033709663
v 0.0067175145 0.010386388 0.0028116637
v 0.0072774219 0.010414792 0.0022012923
v 0.0077819454 0.010445356 0.0015444968
v -0.0024587808 0.010272092 0.0052677868
v -0.0016496571 0.010263754 0.0054469712
v -0.00082797911 0.010258725 0.0055550301
v 1.6250581e-10 0.010257045 0.0055911413
v -0.006717514 0.010386388 0.0028116637
v -0.0061064826 0.010360361 0.0033709663
v -0.007 0.0099804598 0.011534709
v -0.0054489763 0.010336908 0.003874943
v -0.0047500001 0.010316209 0.0043197587
v -0.0040148736 0.01029842 0.0047020273
v -0.0032491914 0.010283677 0.0050188408
v -0.0093556738 0.010621967 -0.0022507144
v -0.0091762955 0.010584355 -0.0014424659
v -0.0093000003 0.0099804598 0.011534709
v -0.0089270801 0.010547613 -0.00065290985
v -0.0086099247 0.01051202 0.00011194439
v -0.0082272414 0.010477848 0.00084627621
v -0.007781944 0.010445356 0.0015444968
v -0.0072774223 0.010414792 0.0022012923
v -0.0094638497 0.01073714 -0.0047256736
v -0.0094999999 0.010698651 -0.0038985889
v -0.0115 0.010631248 -0.0024501563
v -0.0094638497 0.010660163 -0.0030715044
v -0.0115 0.0099804598 0.011534709
v -0.0093000003 0.011114691 -0.012838914
v -0.006717514 0.011010914 -0.010608842
v -0.0082272414 0.010919454 -0.0086434539
v -0.007781944 0.010951946 -0.0093416745
v -0.0072774223 0.01098251 -0.0099984701
v -0.0089270801 0.010849689 -0.0071442681
v -0.0091762955 0.010812947 -0.0063547119
v -0.0093556738 0.010775335 -0.0055464633
v -0.0086099247 0.010885282 -0.0079091222
v -0.0061064826 0.011036941 -0.011168144
v -0.0054489763 0.011060394 -0.011672121
v -0.0040148736 0.011098882 -0.012499205
v -0.0047500001 0.011081093 -0.012116937
v -0.00082797911 0.011138577 -0.013352208
v -0.0016496571 0.011133548 -0.013244149
v -0.0024587808 0.01112521 -0.013064965
v 0.0108 0.011184418 -0.014337293
v 0.0092999989 0.011184418 -0.014337293
v 1.6250581e-10 0.011419167 -0.019381833
v -0.0091910132 0.011229356 -0.01530296
v -0.009095872 0.011228773 -0.015290447
v -0.0093000003 0.011184418 -0.014337293
v -0.0089999998 0.011228579 -0.015286266
v -0.0089041286 0.011228773 -0.015290447
v -0.0085351199 0.01123337 -0.015389216
v -0.0084499998 0.011235429 -0.015433478
v -0.0088089874 0.011229356 -0.01530296
v -0.0087152992 0.011230321 -0.015323707
v -0.0086237781 0.011231662 -0.015352532
v -0.008369066 0.011237826 -0.015484983
v -0.0082929341 0.011240542 -0.015543338
v -0.0082221825 0.011243555 -0.0156081
v -0.0081573513 0.011246844 -0.015678775
v -0.0080989331 0.011250383 -0.015754824
v -0.0080473723 0.011254145 -0.015835671
v -0.0079374819 0.011292946 -0.016669469
v -0.007 0.011419167 -0.019381833
v -0.0079167115 0.011288591 -0.016575883
v -0.0079041861 0.011284169 -0.016480844
v -0.0079663389 0.011297201 -0.016760891
v -0.0080030619 0.011301322 -0.016849453
v -0.0080473723 0.011305279 -0.016934482
v -0.0080030619 0.011258102 -0.0159207
v -0.0079663389 0.011262223 -0.016009261
v -0.0079374819 0.011266478 -0.016100683
v -0.0079167115 0.011270833 -0.016194269
v -0.0079041861 0.011275256 -0.016289308
v -0.0078999998 0.011279712 -0.016385077
v -0.0080989331 0.011309041 -0.017015329
v -0.0081573513 0.01131258 -0.017091378
v -0.0082221825 0.011315869 -0.017162053
v -0.0082929341 0.011318882 -0.017226814
v -0.008369066 0.011321598 -0.017285169
v -0.0084499998 0.011323995 -0.017336675
v -0.0088089874 0.011330069 -0.017467194
v -0.0089041286 0.011330651 -0.017479705
v -0.0089999998 0.011330845 -0.017483888
v -0.009095872 0.011330651 -0.017479705
v -0.0085351199 0.011326055 -0.017380937
v -0.0086237781 0.011327762 -0.017417621
v -0.0087152992 0.011329103 -0.017446446
v -0.0095499998 0.011235429 -0.015433478
v -0.0094648807 0.01123337 -0.015389216
v -0.0093762225 0.011231662 -0.015352532
v -0.0092847014 0.011230321 -0.015323707
v -0.0099010675 0.011250383 -0.015754824
v -0.0098426493 0.011246844 -0.015678775
v -0.0115 0.011184418 -0.014337293
v -0.0092847014 0.011329103 -0.017446446
v -0.0093762225 0.011327762 -0.017417621
v -0.0091910132 0.011330069 -0.017467194
v -0.010033662 0.011262223 -0.016009261
v -0.0099969387 0.011258102 -0.0159207
v -0.0099526283 0.011254145 -0.015835671
v -0.0097778172 0.011243555 -0.0156081
v -0.0097070665 0.011240542 -0.015543338
v -0.0096309346 0.011237826 -0.015484983
v -0.0097778172 0.011315869 -0.017162053
v -0.0097070665 0.011318882 -0.017226814
v -0.0096309346 0.011321598 -0.017285169
v -0.0095499998 0.011323995 -0.017336675
v -0.0094648807 0.011326055 -0.017380937
v -0.0101 0.011279712 -0.016385077
v -0.010095814 0.011284169 -0.016480844
v -0.010083288 0.011288591 -0.016575883
v -0.010095814 0.011275256 -0.016289308
v -0.010083288 0.011270833 -0.016194269
v -0.010062519 0.011266478 -0.016100683
v -0.010062519 0.011292946 -0.016669469
v -0.010033662 0.011297201 -0.016760891
v -0.0099969387 0.011301322 -0.016849453
v -0.0099526283 0.011305279 -0.016934482
v -0.0099010675 0.011309041 -0.017015329
v -0.0098426493 0.01131258 -0.017091378
v -0.0093000003 0.0095806898 0.020125413
v -0.0084648805 0.0096063987 0.01957295
v -0.0085500006 0.0096084585 0.019528688
v -0.0086309344 0.0096108553 0.019477182
v -0.008191013 0.0097030979 0.017494971
v -0.0082847013 0.0097021324 0.017515719
v -0.0083762223 0.0096046916 0.019609634
v -0.0082847013 0.0096033502 0.019638459
v -0.008191013 0.0096023847 0.019659207
v -0.0080958719 0.0096018025 0.019671718
v -0.0080000006 0.0096016079 0.019675901
v -0.007 0.0095806898 0.020125413
v -0.0079041293 0.0096018025 0.019671718
v -0.0078089868 0.0096023847 0.019659207
v -0.0075351193 0.0096990839 0.017581228
v -0.0076237775 0.0097007909 0.017544545
v -0.0077152986 0.0097021324 0.017515719
v -0.0078089868 0.0097030979 0.017494971
v -0.0079041293 0.0097036801 0.01748246
v -0.0080000006 0.0097038746 0.017478279
v -0.0080958719 0.0097036801 0.01748246
v -0.0083762223 0.0097007909 0.017544545
v -0.0084648805 0.0096990839 0.017581228
v -0.0085500006 0.0096970241 0.01762549
v -0.0086309344 0.0096946273 0.017676996
v -0.0087070663 0.0096919117 0.017735351
v -0.0087778179 0.0096888981 0.017800112
v -0.0077152986 0.0096033502 0.019638459
v -0.0076237775 0.0096046916 0.019609634
v -0.0075351193 0.0096063987 0.01957295
v -0.0070989325 0.0096820702 0.017946836
v -0.0070473717 0.0096783079 0.018027684
v -0.0070030612 0.0096743512 0.018112712
v -0.0071573506 0.0096856092 0.017870787
v -0.0072221828 0.0096888981 0.017800112
v -0.0072929335 0.0096919117 0.017735351
v -0.0073690654 0.0096946273 0.017676996
v -0.0074500001 0.0096970241 0.01762549
v -0.0074500001 0.0096084585 0.019528688
v -0.0073690654 0.0096108553 0.019477182
v -0.0072929335 0.0096135709 0.019418827
v -0.0072221828 0.0096165846 0.019354065
v -0.0071573506 0.0096198734 0.019283391
v -0.0070989325 0.0096234124 0.019207342
v -0.0089526281 0.0096783079 0.018027684
v -0.0089969386 0.0096743512 0.018112712
v -0.0088426492 0.0096856092 0.017870787
v -0.0089010673 0.0096820702 0.017946836
v -0.0090336625 0.0096702299 0.018201274
v -0.0090625186 0.0096659756 0.018292696
v -0.0090832889 0.0096616205 0.018386282
v -0.0090958143 0.0096571979 0.018481321
v -0.0091000006 0.0096527413 0.01857709
v -0.0090958143 0.0096482847 0.018672857
v -0.0090832889 0.0096438621 0.018767896
v -0.0090625186 0.009639507 0.018861482
v -0.0090336625 0.0096352527 0.018952904
v -0.0089969386 0.0096311314 0.019041466
v -0.0089526281 0.0096271746 0.019126495
v -0.0089010673 0.0096234124 0.019207342
v -0.0088426492 0.0096198734 0.019283391
v -0.0087778179 0.0096165846 0.019354065
v -0.0087070663 0.0096135709 0.019418827
v -0.0069663383 0.0096702299 0.018201274
v -0.0070473717 0.0096271746 0.019126495
v -0.0070030612 0.0096311314 0.019041466
v -0.0069663383 0.0096352527 0.018952904
v -0.0069374812 0.009639507 0.018861482
v -0.0069167109 0.0096438621 0.018767896
v -0.0069041855 0.0096482847 0.018672857
v -0.0069000001 0.0096527413 0.01857709
v -0.0069041855 0.0096571979 0.018481321
v -0.0069167109 0.0096616205 0.018386282
v -0.0069374812 0.0096659756 0.018292696
v -0.0115 0.011114691 -0.012838914
v 0.0092999989 0.011114691 -0.012838914
v 0.0093556733 0.010775335 -0.0055464633
v 0.0108 0.011114691 -0.012838914
v 0.0094638502 0.01073714 -0.0047256736
f 1 2 3
f 2 4 3
f 3 4 5
f 6 7 3
f 7 8 3
f 3 8 1
f 9 10 3
f 10 11 3
f 3 11 6
f 12 13 3
f 13 14 3
f 3 14 9
f 15 16 3
f 16 17 3
f 3 17 12
f 18 19 3
f 19 20 3
f 3 20 15
f 21 22 3
f 22 23 3
f 3 23 18
f 24 25 3
f 25 26 3
f 3 26 21
f 27 28 3
f 28 29 3
f 3 29 24
f 30 31 3
f 31 32 3
f 3 32 27
f 33 34 3
f 34 35 3
f 3 35 30
f 36 37 3
f 37 38 3
f 3 38 33
f 39 40 3
f 40 41 3
f 3 41 36
f 42 43 3
f 43 44 3
f 3 44 39
f 45 46 3
f 46 47 3
f 3 47 42
f 48 49 3
f 49 50 3
f 3 50 45
f 51 52 3
f 52 53 3
f 3 53 48
f 54 55 3
f 55 56 3
f 3 56 51
f 57 58 3
f 58 59 3
f 3 59 54
f 60 61 3
f 61 62 3
f 3 62 57
f 63 64 3
f 64 65 3
f 3 65 60
f 66 67 3
f 67 68 3
f 3 68 63
f 69 70 3
f 70 71 3
f 3 71 66
f 5 72 3
f 72 73 3
f 3 73 69
f 74 2 75
f 2 1 75
f 75 1 76
f 1 8 76
f 76 8 77
f 8 7 77
f 77 7 78
f 7 6 78
f 78 6 79
f 6 11 79
f 79 11 80
f 11 10 80
f 80 10 81
f 10 9 81
f 81 9 82
f 9 14 82
f 82 14 83
f 14 13 83
f 83 13 84
f 13 12 84
f 84 12 85
f 12 17 85
f 85 17 86
f 17 16 86
f 86 16 87
f 16 15 87
f 87 15 88
f 15 20 88
f 88 20 89
f 20 19 89
f 89 19 90
f 19 18 90
f 90 18 91
f 18 23 91
f 91 23 92
f 23 22 92
f 92 22 93
f 22 21 93
f 93 21 94
f 21 26 94
f 94 26 95
f 26 25 95
f 95 25 96
f 25 24 96
f 96 24 97
f 24 29 97
f 97 29 98
f 29 28 98
f 98 28 99
f 28 27 99
f 99 27 100
f 27 32 100
f 100 32 101
f 32 31 101
f 101 31 102
f 31 30 102
f 102 30 103
f 30 35 103
f 103 35 104
f 35 34 104
f 104 34 105
f 34 33 105
f 105 33 106
f 33 38 106
f 106 38 107
f 38 37 107
f 107 37 108
f 37 36 108
f 108 36 109
f 36 41 109
f 109 41 110
f 41 40 110
f 110 40 111
f 40 39 111
f 111 39 112
f 39 44 112
f 112 44 113
f 44 43 113
f 113 43 114
f 43 42 114
f 114 42 115
f 42 47 115
f 115 47 116
f 47 46 116
f 116 46 117
f 46 45 117
f 117 45 118
f 45 50 118
f 118 50 119
f 50 49 119
f 119 49 120
f 49 48 120
f 120 48 121
f 48 53 121
f 121 53 122
f 53 52 122
f 122 52 123
f 52 51 123
f 123 51 124
f 51 56 124
f 124 56 125
f 56 55 125
f 125 55 126
f 55 54 126
f 126 54 127
f 54 59 127
f 127 59 128
f 59 58 128
f 128 58 129
f 58 57 129
f 129 57 130
f 57 62 130
f 130 62 131
f 62 61 131
f 131 61 132
f 61 60 132
f 132 60 133
f 60 65 133
f 133 65 134
f 65 64 134
f 134 64 135
f 64 63 135
f 135 63 136
f 63 68 136
f 136 68 137
f 68 67 137
f 137 67 138
f 67 66 138
f 138 66 139
f 66 71 139
f 139 71 140
f 71 70 140
f 140 70 141
f 70 69 141
f 141 69 142
f 69 73 142
f 142 73 143
f 73 72 143
f 143 72 144
f 72 5 144
f 144 5 145
f 5 4 145
f 145 4 74
f 4 2 74
f 146 147 148
f 147 149 148
f 148 149 150
f 151 152 148
f 152 153 148
f 148 153 146
f 154 155 148
f 155 156 148
f 148 156 151
f 157 158 148
f 158 159 148
f 148 159 154
f 160 161 148
f 161 162 148
f 148 162 157
f 163 164 148
f 164 165 148
f 148 165 160
f 166 167 148
f 167 168 148
f 148 168 163
f 169 170 148
f 170 171 148
f 148 171 166
f 172 173 148
f 173 174 148
f 148 174 169
f 175 176 148
f 176 177 148
f 148 177 172
f 178 179 148
f 179 180 148
f 148 180 175
f 181 182 148
f 182 183 148
f 148 183 178
f 184 185 148
f 185 186 148
f 148 186 181
f 187 188 148
f 188 189 148
f 148 189 184
f 190 191 148
f 191 192 148
f 148 192 187
f 193 194 148
f 194 195 148
f 148 195 190
f 196 197 148
f 197 198 148
f 148 198 193
f 199 200 148
f 200 201 148
f 148 201 196
f 202 203 148
f 203 204 148
f 148 204 199
f 205 206 148
f 206 207 148
f 148 207 202
f 208 209 148
f 209 210 148
f 148 210 205
f 211 212 148
f 212 213 148
f 148 213 208
f 214 215 148
f 215 216 148
f 148 216 211
f 150 217 148
f 217 218 148
f 148 218 214
f 219 220 221
f 219 221 222
f 221 223 222
f 222 223 224
f 223 225 224
f 224 225 226
f 225 227 226
f 226 227 228
f 227 229 228
f 228 229 230
f 229 231 230
f 230 231 232
f 231 233 232
f 232 233 234
f 233 235 234
f 234 235 236
f 235 237 236
f 236 237 238
f 237 239 238
f 238 239 240
f 239 241 240
f 240 241 242
f 241 243 242
f 242 243 244
f 243 245 244
f 244 245 246
f 245 247 246
f 246 247 248
f 247 249 248
f 248 249 250
f 249 251 250
f 250 251 252
f 251 253 252
f 252 253 254
f 253 255 254
f 254 255 256
f 257 256 255
f 258 259 260
f 260 261 258
f 261 262 258
f 258 262 255
f 262 263 255
f 255 263 257
f 260 259 264
f 260 264 265
f 264 266 265
f 265 266 267
f 266 268 267
f 267 268 269
f 268 270 269
f 269 270 271
f 270 272 271
f 271 272 273
f 272 274 273
f 273 274 275
f 274 276 275
f 275 276 277
f 276 278 277
f 277 278 279
f 278 280 279
f 279 280 281
f 280 282 281
f 281 282 283
f 282 284 283
f 283 284 285
f 284 286 285
f 285 286 287
f 286 288 287
f 287 288 289
f 288 290 289
f 289 290 291
f 290 292 291
f 291 292 293
f 292 294 293
f 293 294 295
f 294 296 295
f 295 296 297
f 296 298 297
f 297 298 299
f 299 298 300
f 298 301 300
f 300 301 302
f 301 303 302
f 302 303 304
f 304 303 305
f 304 305 306
f 305 307 306
f 306 307 308
f 307 309 308
f 308 309 310
f 309 311 310
f 310 311 312
f 311 313 312
f 312 313 314
f 313 315 314
f 314 315 316
f 315 317 316
f 316 317 318
f 317 319 318
f 318 319 320
f 319 321 320
f 320 321 322
f 321 323 322
f 322 323 324
f 323 325 324
f 324 325 326
f 325 327 326
f 326 327 328
f 327 329 328
f 328 329 330
f 329 331 330
f 330 331 332
f 331 333 332
f 332 333 334
f 333 335 334
f 334 335 336
f 335 337 336
f 336 337 338
f 337 339 338
f 338 339 340
f 341 342 343
f 341 343 344
f 343 345 344
f 344 345 346
f 345 347 346
f 346 347 348
f 347 349 348
f 348 349 350
f 349 351 350
f 350 351 352
f 351 353 352
f 352 353 354
f 353 355 354
f 354 355 356
f 355 357 356
f 356 357 358
f 357 359 358
f 358 359 360
f 359 361 360
f 360 361 362
f 361 363 362
f 362 363 364
f 363 365 364
f 364 365 366
f 365 367 366
f 366 367 368
f 367 369 368
f 368 369 370
f 369 371 370
f 370 371 372
f 371 373 372
f 372 373 374
f 373 375 374
f 374 375 376
f 375 377 376
f 376 377 378
f 379 147 380
f 147 146 380
f 380 146 381
f 146 153 381
f 381 153 382
f 153 152 382
f 382 152 383
f 152 151 383
f 383 151 384
f 151 156 384
f 384 156 385
f 156 155 385
f 385 155 386
f 155 154 386
f 386 154 387
f 154 159 387
f 387 159 388
f 159 158 388
f 388 158 389
f 158 157 389
f 389 157 390
f 157 162 390
f 390 162 391
f 162 161 391
f 391 161 392
f 161 160 392
f 392 160 393
f 160 165 393
f 393 165 394
f 165 164 394
f 394 164 395
f 164 163 395
f 395 163 396
f 163 168 396
f 396 168 397
f 168 167 397
f 397 167 398
f 167 166 398
f 398 166 399
f 166 171 399
f 399 171 400
f 171 170 400
f 400 170 401
f 170 169 401
f 401 169 402
f 169 174 402
f 402 174 403
f 174 173 403
f 403 173 404
f 173 172 404
f 404 172 405
f 172 177 405
f 405 177 406
f 177 176 406
f 406 176 407
f 176 175 407
f 407 175 408
f 175 180 408
f 408 180 409
f 180 179 409
f 409 179 410
f 179 178 410
f 410 178 411
f 178 183 411
f 411 183 412
f 183 182 412
f 412 182 413
f 182 181 413
f 413 181 414
f 181 186 414
f 414 186 415
f 186 185 415
f 415 185 416
f 185 184 416
f 416 184 417
f 184 189 417
f 417 189 418
f 189 188 418
f 418 188 419
f 188 187 419
f 419 187 420
f 187 192 420
f 420 192 421
f 192 191 421
f 421 191 422
f 191 190 422
f 422 190 423
f 190 195 423
f 423 195 424
f 195 194 424
f 424 194 425
f 194 193 425
f 425 193 426
f 193 198 426
f 426 198 427
f 198 197 427
f 427 197 428
f 197 196 428
f 428 196 429
f 196 201 429
f 429 201 430
f 201 200 430
f 430 200 431
f 200 199 431
f 431 199 432
f 199 204 432
f 432 204 433
f 204 203 433
f 433 203 434
f 203 202 434
f 434 202 435
f 202 207 435
f 435 207 436
f 207 206 436
f 436 206 437
f 206 205 437
f 437 205 438
f 205 210 438
f 438 210 439
f 210 209 439
f 439 209 440
f 209 208 440
f 440 208 441
f 208 213 441
f 441 213 442
f 213 212 442
f 442 212 443
f 212 211 443
f 443 211 444
f 211 216 444
f 444 216 445
f 216 215 445
f 445 215 446
f 215 214 446
f 446 214 447
f 214 218 447
f 447 218 448
f 218 217 448
f 448 217 449
f 217 150 449
f 449 150 450
f 150 149 450
f 450 149 379
f 149 147 379
f 451 452 303
f 453 454 298
f 258 455 456
f 456 457 258
f 457 458 258
f 258 458 459
f 460 461 462
f 461 463 462
f 464 465 466
f 459 467 258
f 467 468 258
f 258 468 469
f 470 471 472
f 473 474 475
f 474 476 475
f 475 476 462
f 476 477 462
f 462 477 460
f 463 461 466
f 461 478 466
f 466 478 464
f 479 480 481
f 481 482 483
f 484 255 485
f 255 486 485
f 484 487 255
f 487 488 255
f 255 488 489
f 472 490 470
f 490 491 470
f 470 491 492
f 493 494 464
f 494 495 464
f 464 495 465
f 483 496 481
f 496 497 481
f 481 497 220
f 497 498 220
f 220 498 499
f 499 500 220
f 500 501 220
f 220 501 502
f 503 258 504
f 258 505 504
f 503 506 258
f 506 507 258
f 258 507 508
f 489 509 255
f 509 510 255
f 255 510 258
f 510 511 258
f 258 511 512
f 471 470 469
f 470 513 469
f 469 513 514
f 514 515 469
f 515 516 469
f 469 516 517
f 517 518 469
f 518 519 469
f 469 519 258
f 519 520 258
f 258 520 505
f 491 521 492
f 521 522 492
f 492 522 523
f 522 524 523
f 523 524 473
f 524 525 473
f 473 525 474
f 493 526 494
f 526 527 494
f 494 527 481
f 527 528 481
f 481 528 479
f 480 529 481
f 529 530 481
f 481 530 531
f 531 532 481
f 532 533 481
f 481 533 482
f 512 534 258
f 534 535 258
f 258 535 455
f 508 536 258
f 536 537 258
f 258 537 538
f 539 225 540
f 225 223 540
f 540 223 541
f 223 221 541
f 541 221 542
f 221 220 542
f 542 220 543
f 220 502 543
f 544 239 545
f 239 237 545
f 545 237 546
f 237 235 546
f 546 235 547
f 235 233 547
f 547 233 548
f 233 231 548
f 548 231 549
f 231 229 549
f 549 229 539
f 229 227 539
f 539 227 225
f 486 255 550
f 255 253 550
f 550 253 551
f 253 251 551
f 551 251 552
f 251 249 552
f 552 249 553
f 249 247 553
f 553 247 554
f 247 245 554
f 554 245 555
f 245 243 555
f 555 243 544
f 243 241 544
f 544 241 239
f 538 556 258
f 556 557 258
f 258 557 558
f 558 559 258
f 559 560 258
f 258 560 561
f 560 562 561
f 561 562 563
f 564 565 361
f 566 567 568
f 569 570 342
f 571 566 572
f 566 573 572
f 574 575 377
f 575 576 377
f 377 576 577
f 577 578 377
f 578 579 377
f 377 579 481
f 579 580 481
f 580 581 481
f 481 581 582
f 583 584 566
f 584 585 566
f 566 585 573
f 571 586 566
f 586 587 566
f 566 587 567
f 570 588 342
f 588 589 342
f 342 589 590
f 361 565 363
f 565 591 363
f 363 591 365
f 591 592 365
f 365 592 367
f 592 593 367
f 367 593 369
f 593 594 369
f 369 594 371
f 594 595 371
f 371 595 373
f 596 597 598
f 563 599 561
f 599 600 561
f 561 600 601
f 568 602 566
f 602 603 566
f 566 603 342
f 603 604 342
f 342 604 569
f 590 605 342
f 605 606 342
f 342 606 343
f 606 607 343
f 343 607 345
f 607 608 345
f 345 608 347
f 608 609 347
f 347 609 349
f 609 610 349
f 349 610 351
f 610 611 351
f 351 611 353
f 611 612 353
f 353 612 355
f 612 613 355
f 355 613 357
f 613 564 357
f 357 564 359
f 564 361 359
f 596 598 614
f 615 616 566
f 616 617 566
f 566 617 618
f 373 595 375
f 595 619 375
f 375 619 377
f 619 620 377
f 377 620 574
f 621 622 623
f 622 624 623
f 623 624 625
f 624 494 625
f 625 494 626
f 494 627 626
f 597 596 628
f 596 629 628
f 628 629 630
f 598 631 614
f 631 632 614
f 614 632 633
f 632 634 633
f 633 634 635
f 634 636 635
f 635 636 637
f 636 638 637
f 637 638 639
f 640 641 642
f 641 643 642
f 643 644 642
f 644 645 642
f 642 645 639
f 645 646 639
f 639 646 637
f 647 648 566
f 648 649 566
f 566 649 615
f 618 650 566
f 650 651 566
f 566 651 652
f 652 653 566
f 653 654 566
f 566 654 655
f 655 656 566
f 656 640 566
f 566 640 583
f 640 642 583
f 582 657 481
f 657 658 481
f 481 658 659
f 660 661 481
f 661 662 481
f 481 662 494
f 662 663 494
f 494 663 627
f 630 629 664
f 629 665 664
f 664 665 666
f 665 667 666
f 666 667 621
f 667 668 621
f 621 668 622
f 659 669 481
f 669 670 481
f 481 670 660
f 601 671 561
f 671 672 561
f 561 672 566
f 672 673 566
f 566 673 647
f 674 675 301
f 676 561 677
f 561 678 677
f 454 679 298
f 679 680 298
f 298 680 301
f 680 681 301
f 301 681 674
f 675 682 301
f 682 683 301
f 301 683 684
f 685 686 301
f 686 687 301
f 258 688 689
f 690 691 280
f 692 693 561
f 693 694 561
f 561 694 678
f 695 696 258
f 696 697 258
f 258 697 698
f 698 699 258
f 699 700 258
f 258 700 688
f 684 701 301
f 701 702 301
f 301 702 703
f 703 704 301
f 704 705 301
f 301 705 706
f 676 707 561
f 707 708 561
f 561 708 709
f 689 710 258
f 710 711 258
f 258 711 712
f 280 691 282
f 691 713 282
f 282 713 284
f 713 714 284
f 284 714 286
f 706 715 301
f 715 716 301
f 301 716 685
f 709 717 561
f 717 718 561
f 561 718 719
f 280 278 690
f 278 276 690
f 690 276 720
f 276 274 720
f 720 274 721
f 274 272 721
f 721 272 722
f 286 714 288
f 714 723 288
f 288 723 290
f 723 724 290
f 290 724 292
f 724 725 292
f 292 725 294
f 725 726 294
f 294 726 296
f 726 727 296
f 296 727 298
f 727 728 298
f 298 728 729
f 712 730 258
f 730 731 258
f 258 731 259
f 731 732 259
f 732 733 259
f 259 733 734
f 729 735 298
f 735 736 298
f 298 736 453
f 719 737 561
f 737 738 561
f 561 738 258
f 738 739 258
f 258 739 695
f 272 270 722
f 270 268 722
f 722 268 740
f 268 266 740
f 740 266 741
f 266 264 741
f 741 264 742
f 264 259 742
f 742 259 743
f 259 734 743
f 744 745 566
f 566 746 747
f 452 748 303
f 748 749 303
f 303 749 750
f 751 566 752
f 566 753 752
f 745 754 566
f 754 755 566
f 566 755 746
f 747 756 566
f 756 757 566
f 566 757 753
f 561 758 759
f 760 761 301
f 751 762 566
f 762 763 566
f 566 763 561
f 763 764 561
f 561 764 758
f 765 766 561
f 766 301 561
f 561 301 692
f 301 687 692
f 761 767 301
f 767 768 301
f 301 768 769
f 769 770 301
f 770 771 301
f 301 771 303
f 771 772 303
f 303 772 451
f 773 774 337
f 337 774 339
f 774 775 339
f 775 776 339
f 339 776 777
f 777 778 339
f 778 779 339
f 339 779 566
f 779 780 566
f 566 780 744
f 759 781 561
f 781 782 561
f 561 782 783
f 783 784 561
f 784 785 561
f 561 785 786
f 786 787 561
f 787 788 561
f 561 788 765
f 766 789 301
f 789 790 301
f 301 790 791
f 791 792 301
f 792 793 301
f 301 793 794
f 795 796 301
f 796 797 301
f 301 797 760
f 750 798 303
f 798 799 303
f 303 799 305
f 799 800 305
f 305 800 307
f 800 801 307
f 307 801 309
f 801 802 309
f 309 802 311
f 802 803 311
f 311 803 313
f 803 804 313
f 313 804 315
f 804 805 315
f 315 805 317
f 805 806 317
f 794 807 301
f 807 808 301
f 301 808 795
f 809 325 810
f 325 323 810
f 810 323 811
f 323 321 811
f 811 321 806
f 321 319 806
f 806 319 317
f 337 335 773
f 335 333 773
f 773 333 812
f 333 331 812
f 812 331 813
f 331 329 813
f 813 329 809
f 329 327 809
f 809 327 325
f 814 471 815
f 471 469 815
f 815 469 816
f 469 468 816
f 816 468 817
f 468 467 817
f 817 467 818
f 467 459 818
f 818 459 819
f 459 458 819
f 819 458 820
f 458 457 820
f 820 457 821
f 457 456 821
f 821 456 822
f 456 455 822
f 822 455 823
f 455 535 823
f 823 535 824
f 535 534 824
f 824 534 825
f 534 512 825
f 825 512 826
f 512 511 826
f 826 511 827
f 511 510 827
f 827 510 828
f 510 509 828
f 828 509 829
f 509 489 829
f 829 489 830
f 489 488 830
f 830 488 831
f 488 487 831
f 831 487 832
f 487 484 832
f 832 484 833
f 484 485 833
f 833 485 834
f 485 486 834
f 834 486 835
f 486 550 835
f 835 550 836
f 550 551 836
f 836 551 837
f 551 552 837
f 837 552 838
f 552 553 838
f 838 553 839
f 553 554 839
f 839 554 840
f 554 555 840
f 840 555 841
f 555 544 841
f 841 544 842
f 544 545 842
f 842 545 843
f 545 546 843
f 843 546 844
f 546 547 844
f 844 547 845
f 547 548 845
f 845 548 846
f 548 549 846
f 846 549 847
f 549 539 847
f 847 539 848
f 539 540 848
f 848 540 849
f 540 541 849
f 849 541 850
f 541 542 850
f 850 542 851
f 542 543 851
f 851 543 852
f 543 502 852
f 852 502 853
f 502 501 853
f 853 501 854
f 501 500 854
f 854 500 855
f 500 499 855
f 855 499 856
f 499 498 856
f 856 498 857
f 498 497 857
f 857 497 858
f 497 496 858
f 858 496 859
f 496 483 859
f 859 483 860
f 483 482 860
f 860 482 861
f 482 533 861
f 861 533 862
f 533 532 862
f 862 532 863
f 532 531 863
f 863 531 864
f 531 530 864
f 864 530 865
f 530 529 865
f 865 529 866
f 529 480 866
f 866 480 867
f 480 479 867
f 867 479 868
f 479 528 868
f 868 528 869
f 528 527 869
f 869 527 870
f 527 526 870
f 870 526 871
f 526 493 871
f 871 493 872
f 493 464 872
f 872 464 873
f 464 478 873
f 873 478 874
f 478 461 874
f 874 461 875
f 461 460 875
f 875 460 876
f 460 477 876
f 876 477 877
f 477 476 877
f 877 476 878
f 476 474 878
f 878 474 879
f 474 525 879
f 879 525 880
f 525 524 880
f 880 524 881
f 524 522 881
f 881 522 882
f 522 521 882
f 882 521 883
f 521 491 883
f 883 491 884
f 491 490 884
f 884 490 885
f 490 472 885
f 885 472 814
f 472 471 814
f 886 887 888
f 145 74 889
f 890 891 892
f 893 894 895
f 896 897 898
f 899 900 901
f 900 902 901
f 902 903 901
f 903 904 901
f 901 904 905
f 905 906 901
f 906 907 901
f 901 907 908
f 908 909 901
f 909 910 901
f 901 910 911
f 911 912 901
f 912 913 901
f 901 913 914
f 915 916 898
f 917 918 898
f 918 919 898
f 898 919 896
f 920 921 922
f 921 923 922
f 922 923 924
f 925 926 922
f 927 922 928
f 922 929 928
f 927 930 922
f 930 931 922
f 922 931 932
f 893 895 933
f 897 934 898
f 934 935 898
f 898 935 922
f 935 936 922
f 922 936 920
f 937 938 895
f 916 939 898
f 939 940 898
f 898 940 917
f 926 941 922
f 941 942 922
f 922 942 929
f 943 895 944
f 895 945 944
f 938 946 895
f 946 947 895
f 895 947 933
f 924 948 922
f 948 949 922
f 922 949 925
f 932 950 922
f 950 951 922
f 922 951 895
f 951 952 895
f 895 952 945
f 914 953 901
f 953 954 901
f 901 954 898
f 954 955 898
f 898 955 915
f 943 956 895
f 956 957 895
f 895 957 937
f 894 958 895
f 958 959 895
f 895 959 960
f 959 961 960
f 961 962 960
f 962 963 960
f 960 963 964
f 899 901 965
f 901 966 965
f 965 966 967
f 964 968 960
f 968 969 960
f 960 969 966
f 969 970 966
f 966 970 967
f 890 892 971
f 972 889 892
f 889 973 892
f 892 973 971
f 83 973 82
f 973 81 82
f 116 117 974
f 74 75 889
f 75 76 889
f 889 76 973
f 76 77 973
f 973 77 78
f 78 79 973
f 79 80 973
f 973 80 81
f 117 118 974
f 118 119 974
f 974 119 120
f 975 108 109
f 976 103 104
f 975 109 977
f 109 110 977
f 110 111 977
f 977 111 978
f 136 137 889
f 137 138 889
f 889 138 139
f 83 84 973
f 84 85 973
f 973 85 86
f 130 131 889
f 131 132 889
f 889 132 133
f 142 143 889
f 143 144 889
f 889 144 145
f 86 87 973
f 87 88 973
f 973 88 979
f 104 105 976
f 105 106 976
f 976 106 975
f 106 107 975
f 975 107 108
f 111 112 978
f 112 113 978
f 978 113 980
f 113 114 980
f 980 114 974
f 114 115 974
f 974 115 116
f 120 121 974
f 121 122 974
f 974 122 123
f 123 124 974
f 124 125 974
f 974 125 126
f 126 127 974
f 127 128 974
f 974 128 889
f 128 129 889
f 889 129 130
f 139 140 889
f 140 141 889
f 889 141 142
f 981 98 99
f 133 134 889
f 134 135 889
f 889 135 136
f 982 92 983
f 92 93 983
f 983 93 94
f 94 95 983
f 95 96 983
f 983 96 981
f 96 97 981
f 981 97 98
f 99 100 981
f 100 101 981
f 981 101 976
f 101 102 976
f 976 102 103
f 979 88 984
f 88 89 984
f 984 89 985
f 89 90 985
f 985 90 982
f 90 91 982
f 982 91 92
f 986 987 988
f 987 986 989
f 986 990 989
f 989 990 966
f 991 992 901
f 992 993 901
f 901 993 966
f 993 994 966
f 966 994 989
f 995 996 901
f 996 997 901
f 901 997 998
f 995 901 999
f 901 898 999
f 999 898 1000
f 998 1001 901
f 1001 1002 901
f 901 1002 1003
f 1003 1004 901
f 1004 1005 901
f 901 1005 991
f 1006 1007 898
f 1007 1008 898
f 1008 1009 898
f 898 1009 1000
f 1010 1011 1012
f 1011 1013 1012
f 1012 1013 1014
f 1014 1015 1012
f 1015 1016 1012
f 1012 1016 1006
f 1017 1018 1019
f 1018 1020 1019
f 1019 1020 1021
f 1021 1022 1019
f 1022 1023 1019
f 1019 1023 1012
f 1023 1024 1012
f 1012 1024 1010
f 1025 1026 1027
f 1026 1028 1027
f 1028 1017 1027
f 1027 1017 1029
f 1017 1019 1029
f 1029 1019 340
f 447 448 887
f 448 449 887
f 887 449 450
f 382 383 1030
f 383 384 1030
f 384 385 1030
f 1030 385 386
f 386 387 1030
f 387 388 1030
f 1030 388 389
f 425 426 1031
f 431 1031 430
f 1031 429 430
f 444 445 887
f 445 446 887
f 887 446 447
f 1032 415 1033
f 415 416 1033
f 420 421 1034
f 426 427 1031
f 427 428 1031
f 1031 428 429
f 1030 392 393
f 1035 1036 410
f 1036 1037 410
f 410 1037 409
f 416 417 1033
f 417 418 1033
f 1033 418 1034
f 418 419 1034
f 1034 419 420
f 421 422 1034
f 422 423 1034
f 1034 423 1031
f 423 424 1031
f 1031 424 425
f 441 442 887
f 442 443 887
f 887 443 444
f 379 380 1030
f 380 381 1030
f 1030 381 382
f 389 390 1030
f 390 391 1030
f 1030 391 392
f 1037 405 406
f 410 411 1035
f 411 412 1035
f 1035 412 1038
f 412 413 1038
f 1038 413 1032
f 413 414 1032
f 1032 414 415
f 431 432 1031
f 432 433 1031
f 1031 433 434
f 435 436 887
f 436 437 887
f 887 437 438
f 393 394 1030
f 394 395 1030
f 1030 395 396
f 402 1037 401
f 1037 400 401
f 406 407 1037
f 407 408 1037
f 1037 408 409
f 396 397 1030
f 397 398 1030
f 1030 398 1037
f 398 399 1037
f 1037 399 400
f 402 403 1037
f 403 404 1037
f 1037 404 405
f 438 439 887
f 439 440 887
f 887 440 441
f 434 435 1031
f 435 887 1031
f 1031 887 1039
f 887 1040 1039
f 886 1041 887
f 1041 1042 887
f 887 1042 1040
f 891 1043 892
f 1043 1044 892
f 892 1044 888
f 1044 1045 888
f 888 1045 886
f 219 222 849
f 849 222 848
f 222 224 848
f 848 224 847
f 818 819 1046
f 819 820 1046
f 1046 820 821
f 821 822 1046
f 822 823 1046
f 1046 823 824
f 840 238 839
f 238 838 839
f 824 825 1046
f 825 826 1046
f 1046 826 827
f 827 828 1046
f 828 829 1046
f 1046 829 830
f 224 226 847
f 226 228 847
f 847 228 846
f 228 230 846
f 846 230 845
f 230 232 845
f 845 232 844
f 232 234 844
f 844 234 843
f 234 236 843
f 843 236 842
f 236 238 842
f 842 238 841
f 238 840 841
f 238 834 835
f 830 831 1046
f 831 832 1046
f 1046 832 238
f 832 833 238
f 238 833 834
f 835 836 238
f 836 837 238
f 238 837 838
f 814 815 1047
f 815 816 1047
f 1047 816 817
f 860 1048 859
f 1048 858 859
f 219 855 856
f 871 872 892
f 875 876 892
f 876 877 892
f 892 880 972
f 880 881 972
f 972 881 882
f 882 883 972
f 883 884 972
f 972 884 885
f 860 861 1048
f 861 862 1048
f 1048 862 863
f 872 873 892
f 873 874 892
f 892 874 875
f 877 878 892
f 878 879 892
f 892 879 880
f 849 850 219
f 850 851 219
f 219 851 852
f 219 856 1048
f 856 857 1048
f 1048 857 858
f 867 868 892
f 852 853 219
f 853 854 219
f 219 854 855
f 868 869 892
f 869 870 892
f 892 870 871
f 1048 866 867
f 863 864 1048
f 864 865 1048
f 1048 865 866
f 960 287 289
f 289 291 960
f 291 293 960
f 960 293 295
f 990 281 966
f 281 283 966
f 966 283 960
f 283 285 960
f 960 285 287
f 269 281 267
f 281 265 267
f 281 275 279
f 275 277 279
f 269 271 281
f 271 273 281
f 281 273 275
f 246 240 244
f 240 242 244
f 246 248 240
f 248 250 240
f 240 250 252
f 252 254 240
f 254 256 240
f 240 256 238
f 1049 1050 1051
f 1050 1052 1051
f 1051 1052 1053
f 888 1054 1055
f 1056 1057 888
f 1057 1058 888
f 888 1058 1054
f 1055 1059 888
f 1059 1060 888
f 888 1060 1061
f 1061 1062 888
f 1062 1063 888
f 888 1063 1064
f 1065 1066 1067
f 1066 1068 1067
f 1065 1069 1066
f 1069 1070 1066
f 1066 1070 1071
f 1064 1072 888
f 1072 1073 888
f 888 1073 1074
f 1074 1075 888
f 1075 1076 888
f 888 1076 1077
f 1071 1078 1066
f 1078 1079 1066
f 1066 1079 1080
f 1080 1081 1066
f 1081 1082 1066
f 1066 1082 1083
f 1084 1085 378
f 1085 1086 378
f 378 1086 376
f 1086 1087 376
f 1083 1088 1066
f 1088 1089 1066
f 1066 1089 378
f 1089 1090 378
f 378 1090 1084
f 1091 1092 1051
f 1092 1093 1051
f 1093 1094 1051
f 1051 1094 1049
f 1095 1096 1097
f 372 1098 370
f 1098 1099 370
f 1087 1100 376
f 1100 1098 376
f 376 1098 374
f 1098 372 374
f 1101 1102 1097
f 1102 1103 1097
f 1097 1103 1095
f 1096 1104 1097
f 1104 1105 1097
f 1097 1105 1106
f 1107 358 1108
f 358 360 1108
f 1108 360 1109
f 360 362 1109
f 1109 362 1110
f 362 364 1110
f 1110 364 1111
f 364 366 1111
f 1111 366 1099
f 366 368 1099
f 1099 368 370
f 1112 341 1113
f 341 1114 1113
f 1112 1115 341
f 1115 1116 341
f 341 1116 1097
f 1116 1117 1097
f 1097 1117 1101
f 1114 341 1118
f 341 344 1118
f 1118 344 1119
f 344 346 1119
f 1119 346 1120
f 346 348 1120
f 1120 348 1121
f 348 350 1121
f 1121 350 1122
f 350 352 1122
f 1122 352 1123
f 352 354 1123
f 1123 354 1107
f 354 356 1107
f 1107 356 358
f 316 318 1124
f 318 320 1124
f 326 328 1124
f 328 330 1124
f 1124 330 332
f 320 322 1124
f 322 324 1124
f 1124 324 326
f 332 334 1124
f 334 336 1124
f 1124 336 338
f 1124 308 310
f 310 312 1124
f 312 314 1124
f 1124 314 316
f 302 304 1124
f 304 306 1124
f 1124 306 308
f 1125 1124 1126
f 1124 1127 1126
f 1019 1128 1129
f 1125 1130 1124
f 1130 1131 1124
f 1124 1131 1132
f 1133 1134 1135
f 1134 1136 1135
f 1135 1136 1137
f 1138 1139 1012
f 1139 1140 1012
f 1012 1140 1141
f 1141 1142 1012
f 1142 1143 1012
f 1012 1143 1019
f 1143 1144 1019
f 1019 1144 1128
f 1129 1145 1019
f 1145 1146 1019
f 1019 1146 1147
f 1147 1148 1019
f 1148 1149 1019
f 1019 1149 1150
f 1137 1151 1135
f 1151 1152 1135
f 1135 1152 1153
f 1154 1012 1155
f 1012 1156 1155
f 1154 1157 1012
f 1157 1158 1012
f 1012 1158 1159
f 1159 1160 1012
f 1160 1161 1012
f 1012 1161 1138
f 1153 1162 1135
f 1162 1163 1135
f 1135 1163 1164
f 1164 1165 1135
f 1165 1166 1135
f 1135 1166 1167
f 1019 1168 1169
f 1150 1170 1019
f 1170 1171 1019
f 1019 1171 1168
f 1169 1172 1019
f 1172 1173 1019
f 1019 1173 1174
f 338 340 1124
f 340 1019 1124
f 1124 1019 1175
f 1019 1174 1175
f 1175 1176 1124
f 1176 1177 1124
f 1124 1177 1178
f 1178 1179 1124
f 1179 1180 1124
f 1124 1180 1181
f 1181 1182 1124
f 1182 1183 1124
f 1124 1183 1184
f 1184 1185 1124
f 1185 1186 1124
f 1124 1186 1127
f 1006 898 1012
f 898 1187 1012
f 1012 1187 1156
f 1167 1188 1135
f 1188 1189 1135
f 1135 1189 922
f 1189 1190 922
f 922 1190 1191
f 1191 1192 922
f 1192 1193 922
f 922 1193 1194
f 1194 1195 922
f 1195 1196 922
f 922 1196 898
f 1196 1197 898
f 898 1197 1187
f 867 892 1048
f 892 888 1048
f 1048 888 1066
f 888 1077 1066
f 1066 1077 1068
f 1106 1091 1097
f 1091 1051 1097
f 1097 1051 1198
f 1051 1030 1198
f 1198 1030 1027
f 1030 1037 1027
f 1027 1037 1025
f 1053 1056 1051
f 1056 888 1051
f 1051 888 1030
f 888 887 1030
f 1030 887 379
f 887 450 379
f 885 814 972
f 814 1047 972
f 972 1047 889
f 1047 1199 889
f 889 1199 974
f 1199 1200 974
f 817 818 1047
f 818 1046 1047
f 1047 1046 1199
f 1046 1201 1199
f 1199 1201 1200
f 1201 986 1200
f 1200 986 1202
f 986 988 1202
f 238 256 1046
f 256 257 1046
f 1046 257 1201
f 257 263 1201
f 1201 263 986
f 263 262 986
f 986 262 990
f 262 261 990
f 990 261 281
f 261 260 281
f 281 260 265
f 295 297 960
f 297 299 960
f 960 299 895
f 299 300 895
f 895 300 922
f 300 302 922
f 922 302 1135
f 302 1124 1135
f 1135 1124 1133
f 1124 1132 1133
f 342 341 1097
f 340 339 1029
f 339 566 1029
f 1029 566 1027
f 566 342 1027
f 1027 342 1198
f 342 1097 1198
f 220 219 481
f 219 1048 481
f 481 1048 377
f 1048 1066 377
f 377 1066 378
f 1009 600 1000
f 600 599 1000
f 1000 599 999
f 599 563 999
f 999 563 995
f 563 562 995
f 995 562 996
f 562 560 996
f 996 560 997
f 560 559 997
f 997 559 998
f 559 558 998
f 998 558 1001
f 558 557 1001
f 1001 557 1002
f 557 556 1002
f 1002 556 1003
f 556 538 1003
f 1003 538 1004
f 538 537 1004
f 1004 537 1005
f 537 536 1005
f 1005 536 991
f 536 508 991
f 991 508 992
f 508 507 992
f 992 507 993
f 507 506 993
f 993 506 994
f 506 503 994
f 994 503 989
f 503 504 989
f 989 504 987
f 504 505 987
f 987 505 988
f 505 520 988
f 988 520 1202
f 520 519 1202
f 1202 519 1200
f 519 518 1200
f 1200 518 974
f 518 517 974
f 974 517 980
f 517 516 980
f 980 516 978
f 516 515 978
f 978 515 977
f 515 514 977
f 977 514 975
f 514 513 975
f 975 513 976
f 513 470 976
f 976 470 981
f 470 492 981
f 981 492 983
f 492 523 983
f 983 523 982
f 523 473 982
f 982 473 985
f 473 475 985
f 985 475 984
f 475 462 984
f 984 462 979
f 462 463 979
f 979 463 973
f 463 466 973
f 973 466 971
f 466 465 971
f 971 465 890
f 465 495 890
f 890 495 891
f 495 494 891
f 891 494 1043
f 494 624 1043
f 1043 624 1044
f 624 622 1044
f 1044 622 1045
f 622 668 1045
f 1045 668 886
f 668 667 886
f 886 667 1041
f 667 665 1041
f 1041 665 1042
f 665 629 1042
f 1042 629 1040
f 629 596 1040
f 1040 596 1039
f 596 614 1039
f 1039 614 1031
f 614 633 1031
f 1031 633 1034
f 633 635 1034
f 1034 635 1033
f 635 637 1033
f 1033 637 1032
f 637 646 1032
f 1032 646 1038
f 646 645 1038
f 1038 645 1035
f 645 644 1035
f 1035 644 1036
f 644 643 1036
f 1036 643 1037
f 643 641 1037
f 1037 641 1025
f 641 640 1025
f 1025 640 1026
f 640 656 1026
f 1026 656 1028
f 656 655 1028
f 1028 655 1017
f 655 654 1017
f 1017 654 1018
f 654 653 1018
f 1018 653 1020
f 653 652 1020
f 1020 652 1021
f 652 651 1021
f 1021 651 1022
f 651 650 1022
f 1022 650 1023
f 650 618 1023
f 1023 618 1024
f 618 617 1024
f 1024 617 1010
f 617 616 1010
f 1010 616 1011
f 616 615 1011
f 1011 615 1013
f 615 649 1013
f 1013 649 1014
f 649 648 1014
f 1014 648 1015
f 648 647 1015
f 1015 647 1016
f 647 673 1016
f 1016 673 1006
f 673 672 1006
f 1006 672 1007
f 672 671 1007
f 1007 671 1008
f 671 601 1008
f 1008 601 1009
f 601 600 1009
f 1052 642 1053
f 642 639 1053
f 1053 639 1056
f 639 638 1056
f 1056 638 1057
f 638 636 1057
f 1057 636 1058
f 636 634 1058
f 1058 634 1054
f 634 632 1054
f 1054 632 1055
f 632 631 1055
f 1055 631 1059
f 631 598 1059
f 1059 598 1060
f 598 597 1060
f 1060 597 1061
f 597 628 1061
f 1061 628 1062
f 628 630 1062
f 1062 630 1063
f 630 664 1063
f 1063 664 1064
f 664 666 1064
f 1064 666 1072
f 666 621 1072
f 1072 621 1073
f 621 623 1073
f 1073 623 1074
f 623 625 1074
f 1074 625 1075
f 625 626 1075
f 1075 626 1076
f 626 627 1076
f 1076 627 1077
f 627 663 1077
f 1077 663 1068
f 663 662 1068
f 1068 662 1067
f 662 661 1067
f 1067 661 1065
f 661 660 1065
f 1065 660 1069
f 660 670 1069
f 1069 670 1070
f 670 669 1070
f 1070 669 1071
f 669 659 1071
f 1071 659 1078
f 659 658 1078
f 1078 658 1079
f 658 657 1079
f 1079 657 1080
f 657 582 1080
f 1080 582 1081
f 582 581 1081
f 1081 581 1082
f 581 580 1082
f 1082 580 1083
f 580 579 1083
f 1083 579 1088
f 579 578 1088
f 1088 578 1089
f 578 577 1089
f 1089 577 1090
f 577 576 1090
f 1090 576 1084
f 576 575 1084
f 1084 575 1085
f 575 574 1085
f 1085 574 1086
f 574 620 1086
f 1086 620 1087
f 620 619 1087
f 1087 619 1100
f 619 595 1100
f 1100 595 1098
f 595 594 1098
f 1098 594 1099
f 594 593 1099
f 1099 593 1111
f 593 592 1111
f 1111 592 1110
f 592 591 1110
f 1110 591 1109
f 591 565 1109
f 1109 565 1108
f 565 564 1108
f 1108 564 1107
f 564 613 1107
f 1107 613 1123
f 613 612 1123
f 1123 612 1122
f 612 611 1122
f 1122 611 1121
f 611 610 1121
f 1121 610 1120
f 610 609 1120
f 1120 609 1119
f 609 608 1119
f 1119 608 1118
f 608 607 1118
f 1118 607 1114
f 607 606 1114
f 1114 606 1113
f 606 605 1113
f 1113 605 1112
f 605 590 1112
f 1112 590 1115
f 590 589 1115
f 1115 589 1116
f 589 588 1116
f 1116 588 1117
f 588 570 1117
f 1117 570 1101
f 570 569 1101
f 1101 569 1102
f 569 604 1102
f 1102 604 1103
f 604 603 1103
f 1103 603 1095
f 603 602 1095
f 1095 602 1096
f 602 568 1096
f 1096 568 1104
f 568 567 1104
f 1104 567 1105
f 567 587 1105
f 1105 587 1106
f 587 586 1106
f 1106 586 1091
f 586 571 1091
f 1091 571 1092
f 571 572 1092
f 1092 572 1093
f 572 573 1093
f 1093 573 1094
f 573 585 1094
f 1094 585 1049
f 585 584 1049
f 1049 584 1050
f 584 583 1050
f 1050 583 1052
f 583 642 1052
f 945 454 944
f 454 453 944
f 944 453 943
f 453 736 943
f 943 736 956
f 736 735 956
f 956 735 957
f 735 729 957
f 957 729 937
f 729 728 937
f 937 728 938
f 728 727 938
f 938 727 946
f 727 726 946
f 946 726 947
f 726 725 947
f 947 725 933
f 725 724 933
f 933 724 893
f 724 723 893
f 893 723 894
f 723 714 894
f 894 714 958
f 714 713 958
f 958 713 959
f 713 691 959
f 959 691 961
f 691 690 961
f 961 690 962
f 690 720 962
f 962 720 963
f 720 721 963
f 963 721 964
f 721 722 964
f 964 722 968
f 722 740 968
f 968 740 969
f 740 741 969
f 969 741 970
f 741 742 970
f 970 742 967
f 742 743 967
f 967 743 965
f 743 734 965
f 965 734 899
f 734 733 899
f 899 733 900
f 733 732 900
f 900 732 902
f 732 731 902
f 902 731 903
f 731 730 903
f 903 730 904
f 730 712 904
f 904 712 905
f 712 711 905
f 905 711 906
f 711 710 906
f 906 710 907
f 710 689 907
f 907 689 908
f 689 688 908
f 908 688 909
f 688 700 909
f 909 700 910
f 700 699 910
f 910 699 911
f 699 698 911
f 911 698 912
f 698 697 912
f 912 697 913
f 697 696 913
f 913 696 914
f 696 695 914
f 914 695 953
f 695 739 953
f 953 739 954
f 739 738 954
f 954 738 955
f 738 737 955
f 955 737 915
f 737 719 915
f 915 719 916
f 719 718 916
f 916 718 939
f 718 717 939
f 939 717 940
f 717 709 940
f 940 709 917
f 709 708 917
f 917 708 918
f 708 707 918
f 918 707 919
f 707 676 919
f 919 676 896
f 676 677 896
f 896 677 897
f 677 678 897
f 897 678 934
f 678 694 934
f 934 694 935
f 694 693 935
f 935 693 936
f 693 692 936
f 936 692 920
f 692 687 920
f 920 687 921
f 687 686 921
f 921 686 923
f 686 685 923
f 923 685 924
f 685 716 924
f 924 716 948
f 716 715 948
f 948 715 949
f 715 706 949
f 949 706 925
f 706 705 925
f 925 705 926
f 705 704 926
f 926 704 941
f 704 703 941
f 941 703 942
f 703 702 942
f 942 702 929
f 702 701 929
f 929 701 928
f 701 684 928
f 928 684 927
f 684 683 927
f 927 683 930
f 683 682 930
f 930 682 931
f 682 675 931
f 931 675 932
f 675 674 932
f 932 674 950
f 674 681 950
f 950 681 951
f 681 680 951
f 951 680 952
f 680 679 952
f 952 679 945
f 679 454 945
f 1134 452 1136
f 452 451 1136
f 1136 451 1137
f 451 772 1137
f 1137 772 1151
f 772 771 1151
f 1151 771 1152
f 771 770 1152
f 1152 770 1153
f 770 769 1153
f 1153 769 1162
f 769 768 1162
f 1162 768 1163
f 768 767 1163
f 1163 767 1164
f 767 761 1164
f 1164 761 1165
f 761 760 1165
f 1165 760 1166
f 760 797 1166
f 1166 797 1167
f 797 796 1167
f 1167 796 1188
f 796 795 1188
f 1188 795 1189
f 795 808 1189
f 1189 808 1190
f 808 807 1190
f 1190 807 1191
f 807 794 1191
f 1191 794 1192
f 794 793 1192
f 1192 793 1193
f 793 792 1193
f 1193 792 1194
f 792 791 1194
f 1194 791 1195
f 791 790 1195
f 1195 790 1196
f 790 789 1196
f 1196 789 1197
f 789 766 1197
f 1197 766 1187
f 766 765 1187
f 1187 765 1156
f 765 788 1156
f 1156 788 1155
f 788 787 1155
f 1155 787 1154
f 787 786 1154
f 1154 786 1157
f 786 785 1157
f 1157 785 1158
f 785 784 1158
f 1158 784 1159
f 784 783 1159
f 1159 783 1160
f 783 782 1160
f 1160 782 1161
f 782 781 1161
f 1161 781 1138
f 781 759 1138
f 1138 759 1139
f 759 758 1139
f 1139 758 1140
f 758 764 1140
f 1140 764 1141
f 764 763 1141
f 1141 763 1142
f 763 762 1142
f 1142 762 1143
f 762 751 1143
f 1143 751 1144
f 751 752 1144
f 1144 752 1128
f 752 753 1128
f 1128 753 1129
f 753 757 1129
f 1129 757 1145
f 757 756 1145
f 1145 756 1146
f 756 747 1146
f 1146 747 1147
f 747 746 1147
f 1147 746 1148
f 746 755 1148
f 1148 755 1149
f 755 754 1149
f 1149 754 1150
f 754 745 1150
f 1150 745 1170
f 745 744 1170
f 1170 744 1171
f 744 780 1171
f 1171 780 1168
f 780 779 1168
f 1168 779 1169
f 779 778 1169
f 1169 778 1172
f 778 777 1172
f 1172 777 1173
f 777 776 1173
f 1173 776 1174
f 776 775 1174
f 1174 775 1175
f 775 774 1175
f 1175 774 1176
f 774 773 1176
f 1176 773 1177
f 773 812 1177
f 1177 812 1178
f 812 813 1178
f 1178 813 1179
f 813 809 1179
f 1179 809 1180
f 809 810 1180
f 1180 810 1181
f 810 811 1181
f 1181 811 1182
f 811 806 1182
f 1182 806 1183
f 806 805 1183
f 1183 805 1184
f 805 804 1184
f 1184 804 1185
f 804 803 1185
f 1185 803 1186
f 803 802 1186
f 1186 802 1127
f 802 801 1127
f 1127 801 1126
f 801 800 1126
f 1126 800 1125
f 800 799 1125
f 1125 799 1130
f 799 798 1130
f 1130 798 1131
f 798 750 1131
f 1131 750 1132
f 750 749 1132
f 1132 749 1133
f 749 748 1133
f 1133 748 1134
f 748 452 1134
