# generated by mjcf2godot
v -0.0078997701 -0.0111665 -0.0013543784
v -0.007999999 -0.0111665 -0.0013499975
v -0.0078997701 -0.0111665 0.001354377
v -0.0086596119 -0.0111665 -0.0034420238
v -0.0085749994 -0.0111665 -0.0034959287
v -0.0094142142 -0.0111665 -0.0049142136
v -0.0085749994 -0.0111665 0.0034959271
v -0.0086596119 -0.0111665 0.0034420221
v -0.0095320898 -0.0111665 0.0047855781
v 0.0081002298 -0.0111665 0.0036456241
v 0.0079999999 -0.0111665 0.0036499976
v 0.0079999999 -0.0111665 0.0054999994
v 0.007899771 -0.0111665 0.0036456241
v -0.0090422533 -0.0111665 0.0020139917
v -0.0089959293 -0.0111665 0.0019250021
v -0.0081002279 -0.0111665 -0.0013543784
v -0.0089420243 -0.0111665 0.0018403858
v -0.00888095 -0.0111665 0.0017607913
v -0.0086596119 -0.0111665 0.0015579716
v -0.0085749994 -0.0111665 0.0015040741
v -0.0084860115 -0.0111665 0.0014577464
v -0.0083933226 -0.0111665 0.0014193535
v -0.0082976422 -0.0111665 0.0013891861
v -0.0087392046 -0.0111665 -0.0016190454
v -0.010000001 -0.0111665 0.0035000025
v -0.0086596119 -0.0111665 -0.001557973
v -0.0085749994 -0.0111665 -0.001504068
v -0.0088131721 -0.0111665 0.0016868294
v -0.0087392046 -0.0111665 0.0016190514
v -0.008199695 -0.0111665 0.0013674677
v -0.0081002279 -0.0111665 0.001354377
v -0.007999999 -0.0111665 0.0013500035
v -0.0083933226 -0.0111665 0.0035806476
v -0.0088452357 -0.0111665 0.0053126173
v -0.0082976422 -0.0111665 0.003610815
v -0.0086840405 -0.0111665 0.0053793819
v -0.008199695 -0.0111665 0.003632526
v -0.0096383053 -0.0111665 0.0046471538
v -0.0087392046 -0.0111665 0.0033809497
v -0.0097320522 -0.0111665 0.0044999973
v -0.008199695 -0.0111665 -0.0013674691
v -0.0091108135 -0.0111665 0.0022023573
v -0.0090806461 -0.0111665 0.0021066769
v -0.0092855762 -0.0111665 -0.0050320892
v -0.0084860115 -0.0111665 -0.0035422564
v -0.0091471518 -0.0111665 -0.0051383047
v -0.0089999992 -0.0111665 -0.0052320479
v -0.0083933226 -0.0111665 -0.0035806493
v -0.0088452357 -0.0111665 -0.0053126185
v -0.0082976422 -0.0111665 -0.0036108167
v -0.0086840405 -0.0111665 -0.0053793831
v -0.0085176374 -0.0111665 -0.0054318501
v -0.008199695 -0.0111665 -0.0036325277
v -0.0083472966 -0.0111665 -0.0054696171
v -0.0081002279 -0.0111665 -0.0036456258
v -0.0081743109 -0.0111665 -0.0054923861
v -0.007999999 -0.0111665 -0.0055000006
v -0.007999999 -0.0111665 -0.0036499993
v -0.0078997701 -0.0111665 -0.0036456258
v -0.0078003053 -0.0111665 -0.0036325277
v -0.0077023581 -0.0111665 -0.0036108167
v -0.0076066777 -0.0111665 -0.0035806493
v 0.0082976422 -0.0111665 0.0013891861
v 0.0083933235 -0.0111665 0.0014193535
v 0.01 -0.0111665 -0.0034999967
v -0.007999999 -0.0111665 0.0054999994
v -0.007999999 -0.0111665 0.0036499976
v -0.0081743109 -0.0111665 0.0054923923
v -0.0081002279 -0.0111665 0.0036456241
v -0.0083472966 -0.0111665 0.0054696159
v -0.0085176374 -0.0111665 0.0054318489
v -0.0094142142 -0.0111665 0.0049142124
v -0.0092855762 -0.0111665 0.005032088
v -0.0084860115 -0.0111665 0.0035422548
v -0.0091471518 -0.0111665 0.0051383035
v -0.0089999992 -0.0111665 0.0052320541
v -0.0098126153 -0.0111665 0.0043452339
v -0.0088131721 -0.0111665 0.0033131718
v -0.0098793837 -0.0111665 0.0041840406
v -0.00888095 -0.0111665 0.0032392024
v -0.0099318507 -0.0111665 0.0040176393
v -0.0089420243 -0.0111665 0.0031596153
v -0.009969614 -0.0111665 0.0038472965
v -0.0090806461 -0.0111665 0.0028933241
v -0.0091108135 -0.0111665 0.0027976438
v -0.0075139888 -0.0111665 -0.0035422564
v -0.0074250009 -0.0111665 -0.0034959287
v 0.0079999999 -0.0111665 -0.0055000006
v 0.0089959293 -0.0111665 -0.0019250035
v 0.007899771 -0.0111665 0.001354377
v 0.0090422542 -0.0111665 -0.0020139859
v 0.009080647 -0.0111665 -0.0021066786
v 0.0089420252 -0.0111665 -0.0018403873
v 0.0088809519 -0.0111665 -0.0017607927
v 0.008813173 -0.0111665 -0.0016868308
v 0.0087392065 -0.0111665 -0.0016190454
v 0.0086596128 -0.0111665 -0.001557973
v 0.0085750003 -0.0111665 -0.001504068
v 0.0084860115 -0.0111665 -0.0014577478
v 0.0083933235 -0.0111665 -0.0014193549
v 0.0082976422 -0.0111665 -0.0013891875
v 0.007004071 -0.0111665 0.0019250021
v 0.007057975 -0.0111665 0.0018403858
v 0.0079999999 -0.0111665 -0.0013499975
v 0.0071190484 -0.0111665 0.0017607913
v 0.0073403874 -0.0111665 0.0015579716
v 0.007425 -0.0111665 0.0015040741
v 0.0075139888 -0.0111665 0.0014577464
v 0.0076066768 -0.0111665 0.0014193535
v -0.0099923904 -0.0111665 0.0036743089
v -0.0089959293 -0.0111665 0.0030749991
v -0.0090422533 -0.0111665 0.0029860093
v -0.0089420243 -0.0111665 -0.0018403873
v -0.0089959293 -0.0111665 -0.0019250035
v -0.0090422533 -0.0111665 -0.0020139859
v -0.0095320898 -0.0111665 -0.0047855718
v -0.0096383053 -0.0111665 -0.004647155
v -0.0087392046 -0.0111665 -0.0033809514
v -0.0097320522 -0.0111665 -0.0044999985
v -0.0088131721 -0.0111665 -0.0033131734
v -0.0098126153 -0.0111665 -0.0043452351
v -0.00888095 -0.0111665 -0.0032392041
v 0.0071868272 -0.0111665 0.0016868294
v 0.0072607938 -0.0111665 0.0016190514
v 0.008199696 -0.0111665 -0.0013674691
v 0.0081002298 -0.0111665 -0.0013543784
v 0.0078003043 -0.0111665 0.0013674677
v 0.0077023581 -0.0111665 0.0013891861
v 0.0083933235 -0.0111665 -0.0035806493
v 0.0088452366 -0.0111665 -0.0053126185
v 0.0082976422 -0.0111665 -0.0036108167
v 0.0086840405 -0.0111665 -0.0053793831
v 0.008199696 -0.0111665 -0.0036325277
v 0.0087392065 -0.0111665 -0.0033809514
v 0.0096383044 -0.0111665 -0.004647155
v 0.0086596128 -0.0111665 -0.0034420238
v 0.0095320889 -0.0111665 -0.0047855718
v 0.0085750003 -0.0111665 -0.0034959287
v 0.0084860115 -0.0111665 0.0014577464
v 0.0085750003 -0.0111665 0.0015040741
v 0.0086596128 -0.0111665 0.0015579716
v -0.0091325282 -0.0111665 0.0026996984
v -0.0091456245 -0.0111665 0.0026002257
v -0.0091499998 -0.0111665 0.0025000005
v -0.0091456245 -0.0111665 0.0023997678
v -0.0091325282 -0.0111665 0.0023003026
v -0.0088131721 -0.0111665 -0.0016868308
v -0.00888095 -0.0111665 -0.0017607927
v -0.0076066777 -0.0111665 0.0014193535
v -0.0075139888 -0.0111665 0.0014577464
v -0.0076066777 -0.0111665 -0.0014193549
v 0.0079999999 -0.0111665 -0.0036499993
v 0.0081743118 -0.0111665 -0.0054923861
v 0.0081002298 -0.0111665 -0.0036456258
v 0.0083472966 -0.0111665 -0.0054696171
v 0.0085176383 -0.0111665 -0.0054318501
v 0.0094142142 -0.0111665 -0.0049142136
v 0.0092855752 -0.0111665 -0.0050320892
v 0.0084860115 -0.0111665 -0.0035422564
v 0.0091471528 -0.0111665 -0.0051383047
v 0.0090000001 -0.0111665 -0.0052320479
v 0.0091456245 -0.0111665 -0.0023997695
v 0.0091500008 -0.0111665 -0.0025000022
v 0.0091456245 -0.0111665 -0.0026002274
v -0.0082976422 -0.0111665 -0.0013891875
v -0.0083933226 -0.0111665 -0.0014193549
v -0.0084860115 -0.0111665 -0.0014577478
v -0.010000001 -0.0111665 -0.0034999967
v -0.0091456245 -0.0111665 -0.0023997695
v -0.0091499998 -0.0111665 -0.0025000022
v 0.0078003043 -0.0111665 0.003632526
v 0.0077023581 -0.0111665 0.003610815
v 0.0076066768 -0.0111665 0.0035806476
v 0.0075139888 -0.0111665 0.0035422548
v 0.007425 -0.0111665 0.0034959271
v 0.0073403874 -0.0111665 0.0034420221
v 0.0072607938 -0.0111665 0.0033809497
v 0.0078003043 -0.0111665 -0.0013674691
v 0.0068891849 -0.0111665 0.0022023573
v 0.007899771 -0.0111665 -0.0013543784
v 0.0069193533 -0.0111665 0.0021066769
v 0.0069577461 -0.0111665 0.0020139917
v 0.0075139888 -0.0111665 -0.0014577478
v 0.0068674711 -0.0111665 0.0023003026
v 0.0076066768 -0.0111665 -0.0014193549
v 0.0077023581 -0.0111665 -0.0013891875
v 0.0068543758 -0.0111665 0.0023997678
v 0.0068499995 -0.0111665 0.0025000005
v 0.0068543758 -0.0111665 0.0026002257
v -0.0068543758 -0.0111665 0.0023997678
v -0.0073403865 -0.0111665 -0.001557973
v -0.0068674721 -0.0111665 0.0023003026
v -0.0074250009 -0.0111665 -0.001504068
v -0.0075139888 -0.0111665 -0.0014577478
v 0.0089420252 -0.0111665 -0.0031596095
v 0.0099696158 -0.0111665 -0.0038472981
v 0.0099318516 -0.0111665 -0.0040176405
v -0.0090806461 -0.0111665 -0.0021066786
v -0.0091108135 -0.0111665 -0.0022023589
v -0.0091325282 -0.0111665 -0.0023003043
v -0.0091456245 -0.0111665 -0.0026002274
v -0.0091325282 -0.0111665 -0.0026996926
v -0.0091108135 -0.0111665 -0.0027976454
v 0.0071868272 -0.0111665 0.0033131718
v 0.0071190484 -0.0111665 0.0032392024
v 0.007057975 -0.0111665 0.0031596153
v 0.007004071 -0.0111665 0.0030749991
v 0.0069577461 -0.0111665 0.0029860093
v 0.0069193533 -0.0111665 0.0028933241
v 0.0076066768 -0.0111665 -0.0035806493
v 0.0077023581 -0.0111665 -0.0036108167
v -0.0073403865 -0.0111665 0.0034420221
v -0.0074250009 -0.0111665 0.0034959271
v -0.0075139888 -0.0111665 0.0035422548
v -0.0076066777 -0.0111665 0.0035806476
v -0.0077023581 -0.0111665 0.003610815
v 0.0088809519 -0.0111665 -0.0032392041
v 0.0098793856 -0.0111665 -0.0041840418
v 0.008813173 -0.0111665 -0.0033131734
v 0.0098126163 -0.0111665 -0.0043452351
v 0.0097320513 -0.0111665 -0.0044999985
v 0.0099923895 -0.0111665 -0.0036743105
v 0.0089959293 -0.0111665 -0.0030750007
v 0.0090422542 -0.0111665 -0.002986011
v 0.009080647 -0.0111665 -0.0028933258
v 0.0087392065 -0.0111665 0.0016190514
v 0.008813173 -0.0111665 0.0016868294
v 0.0088809519 -0.0111665 0.0017607913
v 0.0089420252 -0.0111665 0.0018403858
v 0.0089959293 -0.0111665 0.0019250021
v 0.0090422542 -0.0111665 0.0020139917
v 0.007425 -0.0111665 -0.001504068
v 0.0073403874 -0.0111665 -0.001557973
v 0.0072607938 -0.0111665 -0.0033809514
v 0.0073403874 -0.0111665 -0.0034420238
v 0.007425 -0.0111665 -0.0034959287
v 0.0075139888 -0.0111665 -0.0035422564
v 0.0078003043 -0.0111665 -0.0036325277
v 0.007899771 -0.0111665 -0.0036456258
v -0.0078003053 -0.0111665 0.003632526
v -0.0078997701 -0.0111665 0.0036456241
v -0.0074250009 -0.0111665 0.0015040741
v -0.0073403865 -0.0111665 0.0015579716
v 0.0091325291 -0.0111665 -0.0023003043
v 0.0091108154 -0.0111665 -0.0022023589
v 0.0084860115 -0.0111665 0.0035422548
v 0.0092855752 -0.0111665 0.005032088
v 0.0085750003 -0.0111665 0.0034959271
v 0.0094142142 -0.0111665 0.0049142124
v 0.0086596128 -0.0111665 0.0034420221
v 0.0082976422 -0.0111665 0.003610815
v 0.0088452366 -0.0111665 0.0053126173
v 0.0083933235 -0.0111665 0.0035806476
v 0.0090000001 -0.0111665 0.0052320541
v 0.0091471528 -0.0111665 0.0051383035
v -0.0098793837 -0.0111665 -0.0041840418
v -0.0099318507 -0.0111665 -0.0040176405
v -0.0089420243 -0.0111665 -0.0031596095
v -0.009969614 -0.0111665 -0.0038472981
v -0.0089959293 -0.0111665 -0.0030750007
v -0.0099923904 -0.0111665 -0.0036743105
v -0.0090422533 -0.0111665 -0.002986011
v -0.0090806461 -0.0111665 -0.0028933258
v 0.0068891849 -0.0111665 0.0027976438
v 0.0068674711 -0.0111665 0.0026996984
v -0.0073403865 -0.0111665 -0.0034420238
v -0.0072607938 -0.0111665 -0.0033809514
v -0.0071868282 -0.0111665 -0.0033131734
v -0.0072607938 -0.0111665 0.0016190514
v -0.0071868282 -0.0111665 0.0016868294
v -0.0071190484 -0.0111665 0.0017607913
v -0.007057976 -0.0111665 0.0018403858
v -0.007004071 -0.0111665 0.0019250021
v -0.006957747 -0.0111665 0.0020139917
v -0.0069193542 -0.0111665 0.0021066769
v -0.0068891849 -0.0111665 0.0022023573
v 0.0091108154 -0.0111665 -0.0027976454
v 0.0091325291 -0.0111665 -0.0026996926
v 0.0079999999 -0.0111665 0.0013500035
v 0.0081002298 -0.0111665 0.001354377
v 0.008199696 -0.0111665 0.0013674677
v 0.01 -0.0111665 0.0035000025
v 0.0090422542 -0.0111665 0.0029860093
v 0.0099923895 -0.0111665 0.0036743089
v 0.0089959293 -0.0111665 0.0030749991
v 0.0099696158 -0.0111665 0.0038472965
v 0.0089420252 -0.0111665 0.0031596153
v 0.0099318516 -0.0111665 0.0040176393
v 0.0088809519 -0.0111665 0.0032392024
v 0.0095320889 -0.0111665 0.0047855781
v 0.0096383044 -0.0111665 0.0046471538
v 0.0087392065 -0.0111665 0.0033809497
v 0.0097320513 -0.0111665 0.0044999973
v 0.008813173 -0.0111665 0.0033131718
v 0.0098126163 -0.0111665 0.0043452339
v 0.0098793856 -0.0111665 0.0041840406
v 0.0081743118 -0.0111665 0.0054923923
v 0.0083472966 -0.0111665 0.0054696159
v 0.008199696 -0.0111665 0.003632526
v 0.0085176383 -0.0111665 0.0054318489
v 0.0086840405 -0.0111665 0.0053793819
v 0.0072607938 -0.0111665 -0.0016190454
v -0.0071190484 -0.0111665 0.0032392024
v -0.0077023581 -0.0111665 0.0013891861
v -0.0077023581 -0.0111665 -0.0013891875
v -0.0078003053 -0.0111665 -0.0013674691
v 0.0091456245 -0.0111665 0.0023997678
v 0.0091500008 -0.0111665 0.0025000005
v 0.0091456245 -0.0111665 0.0026002257
v 0.0091325291 -0.0111665 0.0026996984
v -0.0071868282 -0.0111665 0.0033131718
v -0.0072607938 -0.0111665 0.0033809497
v 0.009080647 -0.0111665 0.0021066769
v 0.0091108154 -0.0111665 0.0022023573
v 0.0091325291 -0.0111665 0.0023003026
v 0.0091108154 -0.0111665 0.0027976438
v 0.009080647 -0.0111665 0.0028933241
v -0.007057976 -0.0111665 -0.0018403873
v 0.0071868272 -0.0111665 -0.0016868308
v 0.0071190484 -0.0111665 -0.0017607927
v 0.007057975 -0.0111665 -0.0018403873
v 0.007004071 -0.0111665 -0.0019250035
v 0.007004071 -0.0111665 -0.0030750007
v 0.007057975 -0.0111665 -0.0031596095
v -0.007057976 -0.0111665 -0.0031596095
v 0.0071190484 -0.0111665 -0.0032392041
v -0.0078003053 -0.0111665 0.0013674677
v -0.0071190484 -0.0111665 -0.0032392041
v 0.0071868272 -0.0111665 -0.0033131734
v -0.0068500005 -0.0111665 0.0025000005
v -0.0068543758 -0.0111665 0.0026002257
v -0.0068674721 -0.0111665 0.0026996984
v -0.0068891849 -0.0111665 0.0027976438
v -0.0069193542 -0.0111665 0.0028933241
v -0.006957747 -0.0111665 0.0029860093
v -0.007004071 -0.0111665 0.0030749991
v -0.007057976 -0.0111665 0.0031596153
v 0.0069577461 -0.0111665 -0.0020139859
v 0.0069193533 -0.0111665 -0.0021066786
v 0.0068891849 -0.0111665 -0.0022023589
v -0.007004071 -0.0111665 -0.0030750007
v -0.006957747 -0.0111665 -0.002986011
v 0.0068543758 -0.0111665 -0.0026002274
v -0.0069193542 -0.0111665 -0.0028933258
v -0.0068891849 -0.0111665 -0.0027976454
v -0.0068674721 -0.0111665 -0.0026996926
v -0.0068543758 -0.0111665 -0.0026002274
v 0.0068499995 -0.0111665 -0.0025000022
v -0.0068500005 -0.0111665 -0.0025000022
v 0.0068543758 -0.0111665 -0.0023997695
v -0.0068543758 -0.0111665 -0.0023997695
v -0.0068674721 -0.0111665 -0.0023003043
v 0.0068891849 -0.0111665 -0.0027976454
v 0.0069193533 -0.0111665 -0.0028933258
v 0.0069577461 -0.0111665 -0.002986011
v -0.0068891849 -0.0111665 -0.0022023589
v -0.0069193542 -0.0111665 -0.0021066786
v -0.006957747 -0.0111665 -0.0020139859
v 0.0068674711 -0.0111665 -0.0023003043
v -0.007004071 -0.0111665 -0.0019250035
v -0.0071190484 -0.0111665 -0.0017607927
v -0.0071868282 -0.0111665 -0.0016868308
v -0.0072607938 -0.0111665 -0.0016190454
v 0.0068674711 -0.0111665 -0.0026996926
v -0.007999999 -0.0131665 -0.0055000006
v -0.007999999 -0.0131665 -0.0036499993
v -0.0081743109 -0.0131665 -0.0054923861
v -0.0081002279 -0.0131665 -0.0036456258
v -0.0083472966 -0.0131665 -0.0054696171
v -0.008199695 -0.0131665 -0.0036325277
v 0.0079999999 -0.0131665 -0.0055000006
v 0.0079999999 -0.0131665 -0.0036499993
v 0.007899771 -0.0131665 -0.0036456258
v -0.0085749994 -0.0131665 0.0015040741
v -0.0086596119 -0.0131665 0.0015579716
v -0.010000001 -0.0131665 -0.0034999967
v -0.0074250009 -0.0131665 0.0015040741
v -0.0075139888 -0.0131665 0.0014577464
v -0.0081002279 -0.0131665 -0.0013543784
v -0.0076066777 -0.0131665 0.0014193535
v -0.0077023581 -0.0131665 0.0013891861
v -0.0086596119 -0.0131665 -0.001557973
v -0.0085749994 -0.0131665 -0.001504068
v -0.007999999 -0.0131665 0.0013500035
v -0.0084860115 -0.0131665 -0.0014577478
v -0.0083933226 -0.0131665 -0.0014193549
v -0.007999999 -0.0131665 0.0036499976
v -0.0078997701 -0.0131665 0.0036456241
v -0.007999999 -0.0131665 0.0054999994
v -0.0087392046 -0.0131665 -0.0033809514
v -0.0096383053 -0.0131665 -0.004647155
v -0.0086596119 -0.0131665 -0.0034420238
v -0.0095320898 -0.0131665 -0.0047855718
v -0.0085749994 -0.0131665 -0.0034959287
v -0.007004071 -0.0131665 0.0019250021
v -0.006957747 -0.0131665 0.0020139917
v -0.0069193542 -0.0131665 0.0021066769
v 0.0081002298 -0.0131665 -0.0036456258
v -0.0083933226 -0.0131665 -0.0035806493
v -0.0088452357 -0.0131665 -0.0053126185
v -0.0082976422 -0.0131665 -0.0036108167
v -0.0086840405 -0.0131665 -0.0053793831
v -0.0085176374 -0.0131665 -0.0054318501
v -0.0094142142 -0.0131665 -0.0049142136
v -0.0092855762 -0.0131665 -0.0050320892
v -0.0084860115 -0.0131665 -0.0035422564
v -0.0091471518 -0.0131665 -0.0051383047
v -0.0089999992 -0.0131665 -0.0052320479
v -0.0087392046 -0.0131665 0.0016190514
v -0.0088131721 -0.0131665 0.0016868294
v -0.00888095 -0.0131665 0.0017607913
v -0.010000001 -0.0131665 0.0035000025
v -0.0091456245 -0.0131665 0.0023997678
v -0.0091499998 -0.0131665 0.0025000005
v -0.007057976 -0.0131665 0.0018403858
v -0.0071190484 -0.0131665 0.0017607913
v -0.0071868282 -0.0131665 0.0016868294
v -0.0072607938 -0.0131665 0.0016190514
v -0.0073403865 -0.0131665 0.0015579716
v -0.0089959293 -0.0131665 -0.0019250035
v -0.0089420243 -0.0131665 -0.0018403873
v -0.00888095 -0.0131665 -0.0017607927
v -0.0078003053 -0.0131665 0.0013674677
v -0.0078997701 -0.0131665 0.001354377
v -0.008199695 -0.0131665 -0.0013674691
v -0.0082976422 -0.0131665 -0.0013891875
v -0.0081002279 -0.0131665 0.0036456241
v -0.008199695 -0.0131665 0.0013674677
v -0.0091108135 -0.0131665 -0.0022023589
v -0.0081002279 -0.0131665 0.001354377
v -0.0090806461 -0.0131665 -0.0021066786
v -0.0090422533 -0.0131665 -0.0020139859
v -0.0091456245 -0.0131665 0.0026002257
v -0.0091325282 -0.0131665 0.0026996984
v -0.0091108135 -0.0131665 0.0027976438
v -0.0086596119 -0.0131665 0.0034420221
v -0.0096383053 -0.0131665 0.0046471538
v -0.0087392046 -0.0131665 0.0033809497
v -0.0097320522 -0.0131665 0.0044999973
v -0.0088131721 -0.0131665 0.0033131718
v -0.0098126153 -0.0131665 0.0043452339
v -0.00888095 -0.0131665 0.0032392024
v -0.0082976422 -0.0131665 0.003610815
v -0.0088452357 -0.0131665 0.0053126173
v -0.0083933226 -0.0131665 0.0035806476
v -0.0089999992 -0.0131665 0.0052320541
v -0.0084860115 -0.0131665 0.0035422548
v -0.0088131721 -0.0131665 -0.0016868308
v -0.0087392046 -0.0131665 -0.0016190454
v -0.0089420243 -0.0131665 -0.0031596095
v -0.0099318507 -0.0131665 -0.0040176405
v -0.00888095 -0.0131665 -0.0032392041
v -0.0098793837 -0.0131665 -0.0041840418
v -0.0088131721 -0.0131665 -0.0033131734
v -0.0098126153 -0.0131665 -0.0043452351
v -0.0097320522 -0.0131665 -0.0044999985
v -0.0089420243 -0.0131665 0.0018403858
v -0.0089959293 -0.0131665 0.0019250021
v -0.0090422533 -0.0131665 0.0020139917
v -0.0090806461 -0.0131665 0.0021066769
v -0.0091108135 -0.0131665 0.0022023573
v -0.0091325282 -0.0131665 0.0023003026
v -0.0090806461 -0.0131665 0.0028933241
v -0.0090422533 -0.0131665 0.0029860093
v -0.0099923904 -0.0131665 0.0036743089
v -0.0089959293 -0.0131665 0.0030749991
v -0.009969614 -0.0131665 0.0038472965
v -0.0089420243 -0.0131665 0.0031596153
v -0.0099318507 -0.0131665 0.0040176393
v -0.0098793837 -0.0131665 0.0041840406
v -0.0091471518 -0.0131665 0.0051383035
v -0.0092855762 -0.0131665 0.005032088
v -0.0085749994 -0.0131665 0.0034959271
v -0.0094142142 -0.0131665 0.0049142124
v -0.0095320898 -0.0131665 0.0047855781
v -0.0081743109 -0.0131665 0.0054923923
v -0.0083472966 -0.0131665 0.0054696159
v -0.008199695 -0.0131665 0.003632526
v -0.0085176374 -0.0131665 0.0054318489
v -0.0086840405 -0.0131665 0.0053793819
v -0.0091325282 -0.0131665 -0.0026996926
v -0.0091456245 -0.0131665 -0.0026002274
v -0.0091499998 -0.0131665 -0.0025000022
v 0.0079999999 -0.0131665 0.0013500035
v 0.0079999999 -0.0131665 -0.0013499975
v 0.0081002298 -0.0131665 0.001354377
v 0.0081002298 -0.0131665 -0.0013543784
v 0.008199696 -0.0131665 -0.0013674691
v -0.0090422533 -0.0131665 -0.002986011
v -0.0090806461 -0.0131665 -0.0028933258
v -0.0091108135 -0.0131665 -0.0027976454
v -0.0091456245 -0.0131665 -0.0023997695
v -0.0091325282 -0.0131665 -0.0023003043
v -0.0089959293 -0.0131665 -0.0030750007
v -0.0099923904 -0.0131665 -0.0036743105
v -0.009969614 -0.0131665 -0.0038472981
v -0.0082976422 -0.0131665 0.0013891861
v -0.0083933226 -0.0131665 0.0014193535
v -0.0084860115 -0.0131665 0.0014577464
v -0.0074250009 -0.0131665 -0.0034959287
v -0.0075139888 -0.0131665 -0.0035422564
v -0.0076066777 -0.0131665 -0.0035806493
v -0.0077023581 -0.0131665 -0.0036108167
v 0.0083933235 -0.0131665 0.0035806476
v 0.0088452366 -0.0131665 0.0053126173
v 0.0082976422 -0.0131665 0.003610815
v 0.0086840405 -0.0131665 0.0053793819
v 0.008199696 -0.0131665 0.003632526
v 0.0087392065 -0.0131665 0.0033809497
v 0.0096383044 -0.0131665 0.0046471538
v 0.0086596128 -0.0131665 0.0034420221
v 0.0095320889 -0.0131665 0.0047855781
v 0.0085750003 -0.0131665 0.0034959271
v 0.007004071 -0.0131665 -0.0019250035
v 0.007057975 -0.0131665 -0.0018403873
v 0.0071190484 -0.0131665 -0.0017607927
v 0.0071868272 -0.0131665 -0.0016868308
v 0.0072607938 -0.0131665 -0.0016190454
v 0.0073403874 -0.0131665 -0.001557973
v 0.007425 -0.0131665 -0.001504068
v 0.0075139888 -0.0131665 -0.0014577478
v 0.0076066768 -0.0131665 -0.0014193549
v 0.0077023581 -0.0131665 -0.0013891875
v -0.0078003053 -0.0131665 -0.0036325277
v -0.0078997701 -0.0131665 -0.0036456258
v 0.0079999999 -0.0131665 0.0054999994
v 0.0079999999 -0.0131665 0.0036499976
v 0.0081743118 -0.0131665 0.0054923923
v 0.0081002298 -0.0131665 0.0036456241
v 0.0083472966 -0.0131665 0.0054696159
v 0.0085176383 -0.0131665 0.0054318489
v 0.0094142142 -0.0131665 0.0049142124
v 0.0092855752 -0.0131665 0.005032088
v 0.0084860115 -0.0131665 0.0035422548
v 0.0091471528 -0.0131665 0.0051383035
v 0.0090000001 -0.0131665 0.0052320541
v 0.0078003043 -0.0131665 -0.0013674691
v 0.007899771 -0.0131665 -0.0013543784
v 0.01 -0.0131665 0.0035000025
v 0.0091456245 -0.0131665 0.0026002257
v 0.0091500008 -0.0131665 0.0025000005
v 0.0084860115 -0.0131665 0.0014577464
v 0.01 -0.0131665 -0.0034999967
v 0.0085750003 -0.0131665 0.0015040741
v 0.0086596128 -0.0131665 0.0015579716
v 0.0084860115 -0.0131665 -0.0014577478
v 0.0083933235 -0.0131665 0.0014193535
v -0.0078003053 -0.0131665 0.003632526
v -0.0077023581 -0.0131665 0.003610815
v -0.0076066777 -0.0131665 0.0035806476
v -0.0073403865 -0.0131665 0.0034420221
v -0.0074250009 -0.0131665 0.0034959271
v -0.0075139888 -0.0131665 0.0035422548
v 0.0076066768 -0.0131665 -0.0035806493
v 0.0075139888 -0.0131665 -0.0035422564
v -0.0072607938 -0.0131665 -0.0033809514
v -0.0073403865 -0.0131665 -0.0034420238
v 0.0089420252 -0.0131665 0.0031596153
v 0.0099696158 -0.0131665 0.0038472965
v 0.0099318516 -0.0131665 0.0040176393
v 0.0089420252 -0.0131665 0.0018403858
v 0.0088809519 -0.0131665 0.0017607913
v -0.007999999 -0.0131665 -0.0013499975
v -0.0078997701 -0.0131665 -0.0013543784
v -0.0068891849 -0.0131665 0.0022023573
v -0.0078003053 -0.0131665 -0.0013674691
v -0.0075139888 -0.0131665 -0.0014577478
v -0.0068674721 -0.0131665 0.0023003026
v -0.0076066777 -0.0131665 -0.0014193549
v -0.0077023581 -0.0131665 -0.0013891875
v -0.0072607938 -0.0131665 0.0033809497
v -0.0071868282 -0.0131665 0.0033131718
v -0.0071190484 -0.0131665 0.0032392024
v 0.0088809519 -0.0131665 0.0032392024
v 0.0098793856 -0.0131665 0.0041840406
v 0.008813173 -0.0131665 0.0033131718
v 0.0098126163 -0.0131665 0.0043452339
v 0.0097320513 -0.0131665 0.0044999973
v 0.0099923895 -0.0131665 0.0036743089
v 0.0089959293 -0.0131665 0.0030749991
v 0.0090422542 -0.0131665 0.0029860093
v 0.009080647 -0.0131665 0.0028933241
v 0.009080647 -0.0131665 0.0021066769
v 0.0090422542 -0.0131665 0.0020139917
v 0.0089959293 -0.0131665 0.0019250021
v 0.008813173 -0.0131665 0.0016868294
v 0.0087392065 -0.0131665 0.0016190514
v 0.0085750003 -0.0131665 -0.001504068
v 0.0086596128 -0.0131665 -0.001557973
v 0.0087392065 -0.0131665 -0.0016190454
v 0.0091325291 -0.0131665 -0.0023003043
v 0.0091456245 -0.0131665 -0.0023997695
v -0.0068674721 -0.0131665 0.0026996984
v -0.0068543758 -0.0131665 0.0026002257
v -0.0068500005 -0.0131665 0.0025000005
v -0.0068543758 -0.0131665 0.0023997678
v 0.0072607938 -0.0131665 0.0033809497
v 0.0073403874 -0.0131665 0.0034420221
v 0.007425 -0.0131665 0.0034959271
v 0.0075139888 -0.0131665 0.0035422548
v 0.0076066768 -0.0131665 0.0035806476
v 0.0077023581 -0.0131665 0.003610815
v 0.0082976422 -0.0131665 -0.0013891875
v 0.0083933235 -0.0131665 -0.0014193549
v 0.008199696 -0.0131665 0.0013674677
v 0.0082976422 -0.0131665 0.0013891861
v -0.007057976 -0.0131665 0.0031596153
v -0.007004071 -0.0131665 0.0030749991
v -0.006957747 -0.0131665 0.0029860093
v -0.0069193542 -0.0131665 0.0028933241
v -0.0068891849 -0.0131665 0.0027976438
v -0.0074250009 -0.0131665 -0.001504068
v -0.0073403865 -0.0131665 -0.001557973
v 0.0078003043 -0.0131665 -0.0036325277
v 0.0077023581 -0.0131665 -0.0036108167
v -0.0071190484 -0.0131665 -0.0017607927
v -0.007057976 -0.0131665 -0.0018403873
v 0.0078003043 -0.0131665 0.003632526
v 0.007899771 -0.0131665 0.0036456241
v 0.0091108154 -0.0131665 0.0027976438
v 0.0091325291 -0.0131665 0.0026996984
v 0.0089420252 -0.0131665 -0.0018403873
v 0.0089959293 -0.0131665 -0.0019250035
v 0.0078003043 -0.0131665 0.0013674677
v 0.0068891849 -0.0131665 -0.0022023589
v 0.007899771 -0.0131665 0.001354377
v 0.0069193533 -0.0131665 -0.0021066786
v 0.0069577461 -0.0131665 -0.0020139859
v 0.0075139888 -0.0131665 0.0014577464
v 0.0068674711 -0.0131665 -0.0023003043
v 0.0076066768 -0.0131665 0.0014193535
v 0.0077023581 -0.0131665 0.0013891861
v -0.0071868282 -0.0131665 -0.0016868308
v 0.008813173 -0.0131665 -0.0016868308
v 0.0088809519 -0.0131665 -0.0017607927
v 0.0071190484 -0.0131665 -0.0032392041
v 0.007057975 -0.0131665 -0.0031596095
v -0.0072607938 -0.0131665 -0.0016190454
v -0.0071190484 -0.0131665 -0.0032392041
v -0.0071868282 -0.0131665 -0.0033131734
v 0.0072607938 -0.0131665 0.0016190514
v 0.0073403874 -0.0131665 0.0015579716
v 0.0091456245 -0.0131665 0.0023997678
v 0.0091325291 -0.0131665 0.0023003026
v 0.0091108154 -0.0131665 0.0022023573
v 0.0084860115 -0.0131665 -0.0035422564
v 0.0092855752 -0.0131665 -0.0050320892
v 0.0085750003 -0.0131665 -0.0034959287
v 0.0094142142 -0.0131665 -0.0049142136
v 0.0086596128 -0.0131665 -0.0034420238
v 0.0082976422 -0.0131665 -0.0036108167
v 0.0088452366 -0.0131665 -0.0053126185
v 0.0083933235 -0.0131665 -0.0035806493
v 0.0090000001 -0.0131665 -0.0052320479
v 0.0091471528 -0.0131665 -0.0051383047
v 0.0071868272 -0.0131665 -0.0033131734
v 0.0090422542 -0.0131665 -0.002986011
v 0.0099923895 -0.0131665 -0.0036743105
v 0.0089959293 -0.0131665 -0.0030750007
v 0.0099696158 -0.0131665 -0.0038472981
v 0.0089420252 -0.0131665 -0.0031596095
v 0.0099318516 -0.0131665 -0.0040176405
v 0.0088809519 -0.0131665 -0.0032392041
v 0.0095320889 -0.0131665 -0.0047855718
v 0.0096383044 -0.0131665 -0.004647155
v 0.0087392065 -0.0131665 -0.0033809514
v 0.0097320513 -0.0131665 -0.0044999985
v 0.008813173 -0.0131665 -0.0033131734
v 0.0098126163 -0.0131665 -0.0043452351
v 0.0098793856 -0.0131665 -0.0041840418
v 0.0081743118 -0.0131665 -0.0054923861
v 0.0083472966 -0.0131665 -0.0054696171
v 0.008199696 -0.0131665 -0.0036325277
v 0.0085176383 -0.0131665 -0.0054318501
v 0.0086840405 -0.0131665 -0.0053793831
v 0.007425 -0.0131665 -0.0034959287
v 0.0073403874 -0.0131665 -0.0034420238
v 0.0072607938 -0.0131665 -0.0033809514
v 0.0069577461 -0.0131665 0.0029860093
v 0.007004071 -0.0131665 0.0030749991
v 0.0090422542 -0.0131665 -0.0020139859
v 0.009080647 -0.0131665 -0.0021066786
v 0.0091108154 -0.0131665 -0.0022023589
v 0.0091500008 -0.0131665 -0.0025000022
v 0.0091456245 -0.0131665 -0.0026002274
v 0.0091325291 -0.0131665 -0.0026996926
v 0.007004071 -0.0131665 -0.0030750007
v 0.0069577461 -0.0131665 -0.002986011
v 0.0069193533 -0.0131665 -0.0028933258
v 0.0068543758 -0.0131665 -0.0026002274
v 0.0068499995 -0.0131665 -0.0025000022
v 0.0068543758 -0.0131665 -0.0023997695
v 0.007425 -0.0131665 0.0015040741
v 0.0091108154 -0.0131665 -0.0027976454
v 0.009080647 -0.0131665 -0.0028933258
v -0.0068543758 -0.0131665 -0.0023997695
v 0.0071868272 -0.0131665 0.0016868294
v -0.0068891849 -0.0131665 -0.0022023589
v 0.007057975 -0.0131665 0.0018403858
v 0.007004071 -0.0131665 0.0019250021
v 0.0071190484 -0.0131665 0.0017607913
v -0.0068674721 -0.0131665 -0.0023003043
v -0.0068500005 -0.0131665 -0.0025000022
v -0.0068543758 -0.0131665 -0.0026002274
v -0.0068674721 -0.0131665 -0.0026996926
v 0.0068891849 -0.0131665 -0.0027976454
v 0.0068674711 -0.0131665 -0.0026996926
v -0.0068891849 -0.0131665 -0.0027976454
v -0.0069193542 -0.0131665 -0.0028933258
v -0.006957747 -0.0131665 -0.002986011
v -0.007004071 -0.0131665 -0.0030750007
v -0.007057976 -0.0131665 -0.0031596095
v 0.0068499995 -0.0131665 0.0025000005
v 0.0068543758 -0.0131665 0.0026002257
v 0.0068674711 -0.0131665 0.0026996984
v 0.007057975 -0.0131665 0.0031596153
v 0.0071190484 -0.0131665 0.0032392024
v 0.0071868272 -0.0131665 0.0033131718
v 0.0068891849 -0.0131665 0.0027976438
v 0.0069193533 -0.0131665 0.0028933241
v 0.0068543758 -0.0131665 0.0023997678
v -0.007004071 -0.0131665 -0.0019250035
v -0.006957747 -0.0131665 -0.0020139859
v 0.0069577461 -0.0131665 0.0020139917
v 0.0069193533 -0.0131665 0.0021066769
v -0.0069193542 -0.0131665 -0.0021066786
v 0.0068891849 -0.0131665 0.0022023573
v 0.0068674711 -0.0131665 0.0023003026
f 1 2 3
f 4 5 6
f 7 8 9
f 10 11 12
f 11 13 12
f 14 15 16
f 15 17 16
f 16 17 18
f 16 19 20
f 20 21 16
f 21 22 16
f 16 22 23
f 24 25 26
f 25 27 26
f 18 28 16
f 28 29 16
f 16 29 19
f 23 30 16
f 30 31 16
f 16 31 2
f 31 32 2
f 2 32 3
f 33 34 35
f 34 36 35
f 35 36 37
f 9 8 38
f 8 39 38
f 38 39 40
f 41 42 16
f 42 43 16
f 16 43 14
f 6 5 44
f 5 45 44
f 44 45 46
f 46 45 47
f 45 48 47
f 47 48 49
f 48 50 49
f 49 50 51
f 51 50 52
f 50 53 52
f 52 53 54
f 53 55 54
f 54 55 56
f 56 55 57
f 55 58 57
f 57 58 59
f 59 60 57
f 60 61 57
f 57 61 62
f 63 64 65
f 66 67 68
f 67 69 68
f 68 69 70
f 69 37 70
f 70 37 71
f 37 36 71
f 9 72 7
f 72 73 7
f 7 73 74
f 73 75 74
f 74 75 33
f 75 76 33
f 33 76 34
f 40 39 77
f 39 78 77
f 77 78 79
f 78 80 79
f 79 80 81
f 80 82 81
f 81 82 83
f 84 85 25
f 62 86 57
f 86 87 57
f 57 87 88
f 89 90 91
f 90 92 91
f 89 93 90
f 93 94 90
f 90 94 95
f 95 96 90
f 96 97 90
f 90 97 98
f 98 99 90
f 99 100 90
f 90 100 101
f 102 103 104
f 103 105 104
f 106 107 104
f 107 108 104
f 104 108 109
f 83 82 110
f 82 111 110
f 110 111 25
f 111 112 25
f 25 112 84
f 113 114 25
f 114 115 25
f 6 116 4
f 116 117 4
f 4 117 118
f 117 119 118
f 118 119 120
f 119 121 120
f 120 121 122
f 105 123 104
f 123 124 104
f 104 124 106
f 101 125 90
f 125 126 90
f 90 126 127
f 126 104 127
f 127 104 128
f 104 109 128
f 129 130 131
f 130 132 131
f 131 132 133
f 134 135 136
f 135 137 136
f 136 137 138
f 64 139 65
f 139 140 65
f 65 140 141
f 85 142 25
f 142 143 25
f 25 143 144
f 144 145 25
f 145 146 25
f 25 146 42
f 24 147 25
f 147 148 25
f 25 148 113
f 149 150 151
f 88 152 153
f 152 154 153
f 153 154 155
f 154 133 155
f 155 133 156
f 133 132 156
f 137 157 138
f 157 158 138
f 138 158 159
f 158 160 159
f 159 160 129
f 160 161 129
f 129 161 130
f 162 65 163
f 65 164 163
f 41 165 42
f 165 166 42
f 42 166 25
f 166 167 25
f 25 167 27
f 168 169 170
f 13 171 12
f 171 172 12
f 12 172 173
f 173 174 12
f 174 175 12
f 12 175 66
f 175 176 66
f 66 176 177
f 178 179 180
f 179 181 180
f 180 181 104
f 181 182 104
f 104 182 102
f 183 184 185
f 184 179 185
f 185 179 186
f 179 178 186
f 187 66 188
f 66 189 188
f 190 191 192
f 191 193 192
f 151 150 194
f 195 196 197
f 115 198 25
f 198 199 25
f 25 199 168
f 199 200 168
f 168 200 169
f 170 201 168
f 201 202 168
f 168 202 203
f 177 204 66
f 204 205 66
f 66 205 206
f 206 207 66
f 207 208 66
f 66 208 209
f 88 210 211
f 66 212 213
f 213 214 66
f 214 215 66
f 66 215 216
f 195 197 217
f 197 218 217
f 217 218 219
f 218 220 219
f 219 220 134
f 220 221 134
f 134 221 135
f 196 195 222
f 195 223 222
f 222 223 65
f 223 224 65
f 65 224 225
f 141 226 65
f 226 227 65
f 65 227 228
f 228 229 65
f 229 230 65
f 65 230 231
f 183 232 184
f 232 233 184
f 184 233 187
f 234 235 88
f 235 236 88
f 236 237 88
f 88 237 210
f 211 238 88
f 238 239 88
f 88 239 152
f 216 240 66
f 240 241 66
f 66 241 67
f 194 150 193
f 150 242 193
f 193 242 243
f 162 244 65
f 244 245 65
f 65 245 92
f 246 247 248
f 247 249 248
f 248 249 250
f 251 252 253
f 252 254 253
f 253 254 246
f 254 255 246
f 246 255 247
f 121 256 122
f 256 257 122
f 122 257 258
f 257 259 258
f 258 259 260
f 259 261 260
f 260 261 262
f 261 168 262
f 262 168 263
f 168 203 263
f 209 264 66
f 264 265 66
f 66 265 189
f 87 266 88
f 266 267 88
f 88 267 234
f 267 268 234
f 243 269 193
f 269 270 193
f 193 270 271
f 271 272 193
f 272 273 193
f 193 273 274
f 274 275 193
f 275 276 193
f 193 276 192
f 225 277 65
f 277 278 65
f 65 278 164
f 90 279 92
f 279 280 92
f 92 280 65
f 280 281 65
f 65 281 63
f 282 283 284
f 283 285 284
f 284 285 286
f 285 287 286
f 286 287 288
f 287 289 288
f 249 290 250
f 290 291 250
f 250 291 292
f 291 293 292
f 292 293 294
f 293 295 294
f 294 295 289
f 295 296 289
f 289 296 288
f 12 297 10
f 297 298 10
f 10 298 299
f 298 300 299
f 299 300 251
f 300 301 251
f 251 301 252
f 187 233 66
f 233 302 66
f 66 302 303
f 149 151 304
f 151 305 304
f 304 305 306
f 307 308 282
f 308 309 282
f 282 309 310
f 303 311 66
f 311 312 66
f 66 312 212
f 231 313 65
f 313 314 65
f 65 314 282
f 314 315 282
f 282 315 307
f 310 316 282
f 316 317 282
f 282 317 283
f 318 302 319
f 319 320 318
f 320 321 318
f 318 321 322
f 323 324 325
f 324 326 325
f 1 3 306
f 3 327 306
f 306 327 304
f 268 328 234
f 328 325 234
f 234 325 329
f 325 326 329
f 190 330 302
f 330 331 302
f 302 331 332
f 332 333 302
f 333 334 302
f 302 334 335
f 335 336 302
f 336 337 302
f 302 337 303
f 322 338 318
f 338 339 318
f 318 339 340
f 341 342 343
f 342 344 343
f 343 344 345
f 345 346 343
f 346 347 343
f 343 347 348
f 347 349 348
f 348 349 350
f 349 351 350
f 350 351 352
f 353 354 325
f 354 355 325
f 325 355 323
f 352 356 350
f 356 357 350
f 350 357 358
f 340 359 318
f 359 350 318
f 318 350 360
f 350 358 360
f 318 361 302
f 361 362 302
f 302 362 190
f 362 363 190
f 190 363 191
f 341 343 325
f 343 364 325
f 325 364 353
f 365 366 367
f 366 368 367
f 367 368 369
f 368 370 369
f 371 372 373
f 374 375 376
f 377 378 379
f 378 380 379
f 379 380 381
f 382 383 384
f 383 385 384
f 384 385 386
f 387 388 389
f 390 391 392
f 391 393 392
f 392 393 394
f 395 379 396
f 379 397 396
f 372 371 398
f 399 400 401
f 400 402 401
f 401 402 370
f 402 403 370
f 370 403 369
f 393 404 394
f 404 405 394
f 394 405 406
f 405 407 406
f 406 407 399
f 407 408 399
f 399 408 400
f 375 409 376
f 409 410 376
f 376 410 411
f 412 413 414
f 395 415 379
f 415 416 379
f 379 416 417
f 417 418 379
f 418 419 379
f 379 419 377
f 420 421 384
f 421 422 384
f 381 423 379
f 423 424 379
f 379 424 425
f 424 384 425
f 425 384 426
f 384 386 426
f 387 389 427
f 428 429 430
f 429 431 430
f 430 431 384
f 431 432 384
f 384 432 420
f 414 433 412
f 433 434 412
f 412 434 435
f 436 437 438
f 437 439 438
f 438 439 440
f 439 441 440
f 440 441 442
f 443 444 445
f 444 446 445
f 445 446 447
f 422 448 384
f 448 449 384
f 384 449 382
f 450 451 452
f 451 453 452
f 452 453 454
f 453 455 454
f 454 455 390
f 455 456 390
f 390 456 391
f 411 457 376
f 457 458 376
f 376 458 459
f 459 460 376
f 460 461 376
f 376 461 412
f 461 462 412
f 412 462 413
f 435 463 412
f 463 464 412
f 412 464 465
f 464 466 465
f 465 466 467
f 466 468 467
f 467 468 469
f 468 442 469
f 469 442 470
f 442 441 470
f 446 471 447
f 471 472 447
f 447 472 473
f 472 474 473
f 473 474 436
f 474 475 436
f 436 475 437
f 389 476 427
f 476 477 427
f 427 477 478
f 477 479 478
f 478 479 443
f 479 480 443
f 443 480 444
f 481 482 376
f 482 483 376
f 484 485 486
f 485 487 486
f 486 487 488
f 489 490 376
f 490 491 376
f 376 491 481
f 483 492 376
f 492 493 376
f 376 493 429
f 489 376 494
f 376 495 494
f 494 495 450
f 495 496 450
f 450 496 451
f 428 497 429
f 497 498 429
f 429 498 376
f 498 499 376
f 376 499 374
f 500 501 365
f 501 502 365
f 365 502 503
f 504 505 506
f 505 507 506
f 506 507 508
f 509 510 511
f 510 512 511
f 511 512 513
f 514 515 484
f 515 516 484
f 484 516 517
f 517 518 484
f 518 519 484
f 484 519 520
f 520 521 484
f 521 522 484
f 484 522 523
f 503 524 365
f 524 525 365
f 365 525 366
f 526 527 528
f 527 529 528
f 528 529 530
f 529 508 530
f 530 508 531
f 508 507 531
f 512 532 513
f 532 533 513
f 513 533 534
f 533 535 534
f 534 535 504
f 535 536 504
f 504 536 505
f 523 537 484
f 537 538 484
f 484 538 485
f 539 540 541
f 542 543 544
f 543 545 544
f 546 542 547
f 388 548 389
f 548 549 389
f 389 549 550
f 551 526 552
f 526 389 552
f 552 389 553
f 389 550 553
f 554 555 371
f 371 556 365
f 556 557 365
f 365 557 500
f 558 559 560
f 543 561 562
f 379 563 397
f 563 564 397
f 397 564 565
f 564 566 565
f 567 568 569
f 568 565 569
f 569 565 570
f 565 566 570
f 551 571 526
f 571 572 526
f 526 572 573
f 558 560 574
f 560 575 574
f 574 575 576
f 575 577 576
f 576 577 509
f 577 578 509
f 509 578 510
f 559 558 579
f 558 580 579
f 579 580 539
f 580 581 539
f 539 581 582
f 583 584 543
f 584 585 543
f 543 585 561
f 562 586 543
f 586 587 543
f 543 587 545
f 546 588 542
f 588 589 542
f 542 589 590
f 591 592 543
f 593 594 526
f 594 595 526
f 526 595 596
f 597 598 526
f 598 599 526
f 599 600 526
f 600 601 526
f 526 601 602
f 488 603 486
f 603 604 486
f 486 604 605
f 604 546 605
f 605 546 606
f 546 547 606
f 573 607 526
f 607 608 526
f 526 608 609
f 609 610 526
f 610 611 526
f 526 611 593
f 567 612 568
f 612 613 568
f 568 613 596
f 373 614 371
f 614 615 371
f 371 615 554
f 616 617 526
f 602 618 526
f 618 619 526
f 526 619 527
f 582 620 539
f 620 621 539
f 539 621 540
f 542 622 623
f 624 625 626
f 625 627 626
f 626 627 484
f 627 628 484
f 484 628 514
f 629 630 631
f 630 625 631
f 631 625 632
f 625 624 632
f 616 526 633
f 590 634 542
f 634 635 542
f 542 635 622
f 636 637 556
f 596 613 526
f 613 638 526
f 526 638 633
f 639 640 641
f 640 556 641
f 641 556 642
f 541 643 539
f 643 644 539
f 539 644 543
f 644 645 543
f 543 645 583
f 646 647 648
f 647 649 648
f 648 649 650
f 651 652 653
f 652 654 653
f 653 654 646
f 654 655 646
f 646 655 647
f 636 556 656
f 543 657 658
f 657 659 658
f 658 659 660
f 659 661 660
f 660 661 662
f 661 663 662
f 649 664 650
f 664 665 650
f 650 665 666
f 665 667 666
f 666 667 668
f 667 669 668
f 668 669 663
f 669 670 663
f 663 670 662
f 371 671 398
f 671 672 398
f 398 672 673
f 672 674 673
f 673 674 651
f 674 675 651
f 651 675 652
f 555 676 371
f 676 677 371
f 371 677 556
f 677 678 556
f 556 678 656
f 679 680 617
f 623 681 542
f 681 682 542
f 542 682 543
f 682 683 543
f 543 683 591
f 592 684 543
f 684 685 543
f 543 685 686
f 637 687 556
f 687 688 556
f 556 688 689
f 690 691 556
f 691 692 556
f 556 692 642
f 692 630 642
f 642 630 693
f 630 629 693
f 686 694 543
f 694 695 543
f 543 695 657
f 696 641 697
f 698 699 700
f 697 701 696
f 701 699 696
f 696 699 702
f 699 698 702
f 696 703 641
f 703 704 641
f 641 704 705
f 689 706 556
f 706 707 556
f 556 707 690
f 705 708 641
f 708 709 641
f 641 709 710
f 710 711 641
f 711 712 641
f 641 712 639
f 713 714 617
f 714 715 617
f 680 716 617
f 716 717 617
f 617 717 526
f 717 718 526
f 526 718 597
f 715 719 617
f 719 720 617
f 617 720 679
f 713 617 721
f 617 722 721
f 721 722 723
f 700 724 698
f 724 725 698
f 698 725 726
f 725 727 726
f 726 727 723
f 727 728 723
f 723 728 721
f 539 282 284
f 539 284 579
f 284 286 579
f 579 286 559
f 286 288 559
f 559 288 560
f 288 296 560
f 560 296 575
f 296 295 575
f 575 295 577
f 295 293 577
f 577 293 578
f 293 291 578
f 578 291 510
f 291 290 510
f 510 290 512
f 290 249 512
f 512 249 532
f 249 247 532
f 532 247 533
f 247 255 533
f 533 255 535
f 255 254 535
f 535 254 536
f 254 252 536
f 536 252 505
f 252 301 505
f 505 301 507
f 301 300 507
f 507 300 531
f 300 298 531
f 531 298 530
f 298 297 530
f 530 297 528
f 297 12 528
f 528 12 526
f 563 2 564
f 2 1 564
f 564 1 566
f 1 306 566
f 566 306 570
f 306 305 570
f 570 305 569
f 305 151 569
f 569 151 567
f 151 194 567
f 567 194 612
f 194 193 612
f 612 193 613
f 193 191 613
f 613 191 638
f 191 363 638
f 638 363 633
f 363 362 633
f 633 362 616
f 362 361 616
f 616 361 617
f 361 318 617
f 617 318 722
f 318 360 722
f 722 360 723
f 360 358 723
f 723 358 726
f 358 357 726
f 726 357 698
f 357 356 698
f 698 356 702
f 356 352 702
f 702 352 696
f 352 351 696
f 696 351 703
f 351 349 703
f 703 349 704
f 349 347 704
f 704 347 705
f 347 346 705
f 705 346 708
f 346 345 708
f 708 345 709
f 345 344 709
f 709 344 710
f 344 342 710
f 710 342 711
f 342 341 711
f 711 341 712
f 341 325 712
f 712 325 639
f 325 328 639
f 639 328 640
f 328 268 640
f 640 268 556
f 268 267 556
f 556 267 557
f 267 266 557
f 557 266 500
f 266 87 500
f 500 87 501
f 87 86 501
f 501 86 502
f 86 62 502
f 502 62 503
f 62 61 503
f 503 61 524
f 61 60 524
f 524 60 525
f 60 59 525
f 525 59 366
f 59 58 366
f 366 58 368
f 58 55 368
f 368 55 370
f 55 53 370
f 370 53 401
f 53 50 401
f 401 50 399
f 50 48 399
f 399 48 406
f 48 45 406
f 406 45 394
f 45 5 394
f 394 5 392
f 5 4 392
f 392 4 390
f 4 118 390
f 390 118 454
f 118 120 454
f 454 120 452
f 120 122 452
f 452 122 450
f 122 258 450
f 450 258 494
f 258 260 494
f 494 260 489
f 260 262 489
f 489 262 490
f 262 263 490
f 490 263 491
f 263 203 491
f 491 203 481
f 203 202 481
f 481 202 482
f 202 201 482
f 482 201 483
f 201 170 483
f 483 170 492
f 170 169 492
f 492 169 493
f 169 200 493
f 493 200 429
f 200 199 429
f 429 199 431
f 199 198 431
f 431 198 432
f 198 115 432
f 432 115 420
f 115 114 420
f 420 114 421
f 114 113 421
f 421 113 422
f 113 148 422
f 422 148 448
f 148 147 448
f 448 147 449
f 147 24 449
f 449 24 382
f 24 26 382
f 382 26 383
f 26 27 383
f 383 27 385
f 27 167 385
f 385 167 386
f 167 166 386
f 386 166 426
f 166 165 426
f 426 165 425
f 165 41 425
f 425 41 379
f 41 16 379
f 379 16 563
f 16 2 563
f 485 104 487
f 104 126 487
f 487 126 488
f 126 125 488
f 488 125 603
f 125 101 603
f 603 101 604
f 101 100 604
f 604 100 546
f 100 99 546
f 546 99 588
f 99 98 588
f 588 98 589
f 98 97 589
f 589 97 590
f 97 96 590
f 590 96 634
f 96 95 634
f 634 95 635
f 95 94 635
f 635 94 622
f 94 93 622
f 622 93 623
f 93 89 623
f 623 89 681
f 89 91 681
f 681 91 682
f 91 92 682
f 682 92 683
f 92 245 683
f 683 245 591
f 245 244 591
f 591 244 592
f 244 162 592
f 592 162 684
f 162 163 684
f 684 163 685
f 163 164 685
f 685 164 686
f 164 278 686
f 686 278 694
f 278 277 694
f 694 277 695
f 277 225 695
f 695 225 657
f 225 224 657
f 657 224 659
f 224 223 659
f 659 223 661
f 223 195 661
f 661 195 663
f 195 217 663
f 663 217 668
f 217 219 668
f 668 219 666
f 219 134 666
f 666 134 650
f 134 136 650
f 650 136 648
f 136 138 648
f 648 138 646
f 138 159 646
f 646 159 653
f 159 129 653
f 653 129 651
f 129 131 651
f 651 131 673
f 131 133 673
f 673 133 398
f 133 154 398
f 398 154 372
f 154 152 372
f 372 152 373
f 152 239 373
f 373 239 614
f 239 238 614
f 614 238 615
f 238 211 615
f 615 211 554
f 211 210 554
f 554 210 555
f 210 237 555
f 555 237 676
f 237 236 676
f 676 236 677
f 236 235 677
f 677 235 678
f 235 234 678
f 678 234 656
f 234 329 656
f 656 329 636
f 329 326 636
f 636 326 637
f 326 324 637
f 637 324 687
f 324 323 687
f 687 323 688
f 323 355 688
f 688 355 689
f 355 354 689
f 689 354 706
f 354 353 706
f 706 353 707
f 353 364 707
f 707 364 690
f 364 343 690
f 690 343 691
f 343 348 691
f 691 348 692
f 348 350 692
f 692 350 630
f 350 359 630
f 630 359 625
f 359 340 625
f 625 340 627
f 340 339 627
f 627 339 628
f 339 338 628
f 628 338 514
f 338 322 514
f 514 322 515
f 322 321 515
f 515 321 516
f 321 320 516
f 516 320 517
f 320 319 517
f 517 319 518
f 319 302 518
f 518 302 519
f 302 233 519
f 519 233 520
f 233 232 520
f 520 232 521
f 232 183 521
f 521 183 522
f 183 185 522
f 522 185 523
f 185 186 523
f 523 186 537
f 186 178 537
f 537 178 538
f 178 180 538
f 538 180 485
f 180 104 485
f 527 11 529
f 11 10 529
f 529 10 508
f 10 299 508
f 508 299 506
f 299 251 506
f 506 251 504
f 251 253 504
f 504 253 534
f 253 246 534
f 534 246 513
f 246 248 513
f 513 248 511
f 248 250 511
f 511 250 509
f 250 292 509
f 509 292 576
f 292 294 576
f 576 294 574
f 294 289 574
f 574 289 558
f 289 287 558
f 558 287 580
f 287 285 580
f 580 285 581
f 285 283 581
f 581 283 582
f 283 317 582
f 582 317 620
f 317 316 620
f 620 316 621
f 316 310 621
f 621 310 540
f 310 309 540
f 540 309 541
f 309 308 541
f 541 308 643
f 308 307 643
f 643 307 644
f 307 315 644
f 644 315 645
f 315 314 645
f 645 314 583
f 314 313 583
f 583 313 584
f 313 231 584
f 584 231 585
f 231 230 585
f 585 230 561
f 230 229 561
f 561 229 562
f 229 228 562
f 562 228 586
f 228 227 586
f 586 227 587
f 227 226 587
f 587 226 545
f 226 141 545
f 545 141 544
f 141 140 544
f 544 140 542
f 140 139 542
f 542 139 547
f 139 64 547
f 547 64 606
f 64 63 606
f 606 63 605
f 63 281 605
f 605 281 486
f 281 280 486
f 486 280 484
f 280 279 484
f 484 279 626
f 279 90 626
f 626 90 624
f 90 127 624
f 624 127 632
f 127 128 632
f 632 128 631
f 128 109 631
f 631 109 629
f 109 108 629
f 629 108 693
f 108 107 693
f 693 107 642
f 107 106 642
f 642 106 641
f 106 124 641
f 641 124 697
f 124 123 697
f 697 123 701
f 123 105 701
f 701 105 699
f 105 103 699
f 699 103 700
f 103 102 700
f 700 102 724
f 102 182 724
f 724 182 725
f 182 181 725
f 725 181 727
f 181 179 727
f 727 179 728
f 179 184 728
f 728 184 721
f 184 187 721
f 721 187 713
f 187 188 713
f 713 188 714
f 188 189 714
f 714 189 715
f 189 265 715
f 715 265 719
f 265 264 719
f 719 264 720
f 264 209 720
f 720 209 679
f 209 208 679
f 679 208 680
f 208 207 680
f 680 207 716
f 207 206 716
f 716 206 717
f 206 205 717
f 717 205 718
f 205 204 718
f 718 204 597
f 204 177 597
f 597 177 598
f 177 176 598
f 598 176 599
f 176 175 599
f 599 175 600
f 175 174 600
f 600 174 601
f 174 173 601
f 601 173 602
f 173 172 602
f 602 172 618
f 172 171 618
f 618 171 619
f 171 13 619
f 619 13 527
f 13 11 527
f 387 67 388
f 67 241 388
f 388 241 548
f 241 240 548
f 548 240 549
f 240 216 549
f 549 216 550
f 216 215 550
f 550 215 553
f 215 214 553
f 553 214 552
f 214 213 552
f 552 213 551
f 213 212 551
f 551 212 571
f 212 312 571
f 571 312 572
f 312 311 572
f 572 311 573
f 311 303 573
f 573 303 607
f 303 337 607
f 607 337 608
f 337 336 608
f 608 336 609
f 336 335 609
f 609 335 610
f 335 334 610
f 610 334 611
f 334 333 611
f 611 333 593
f 333 332 593
f 593 332 594
f 332 331 594
f 594 331 595
f 331 330 595
f 595 330 596
f 330 190 596
f 596 190 568
f 190 192 568
f 568 192 565
f 192 276 565
f 565 276 397
f 276 275 397
f 397 275 396
f 275 274 396
f 396 274 395
f 274 273 395
f 395 273 415
f 273 272 415
f 415 272 416
f 272 271 416
f 416 271 417
f 271 270 417
f 417 270 418
f 270 269 418
f 418 269 419
f 269 243 419
f 419 243 377
f 243 242 377
f 377 242 378
f 242 150 378
f 378 150 380
f 150 149 380
f 380 149 381
f 149 304 381
f 381 304 423
f 304 327 423
f 423 327 424
f 327 3 424
f 424 3 384
f 3 32 384
f 384 32 430
f 32 31 430
f 430 31 428
f 31 30 428
f 428 30 497
f 30 23 497
f 497 23 498
f 23 22 498
f 498 22 499
f 22 21 499
f 499 21 374
f 21 20 374
f 374 20 375
f 20 19 375
f 375 19 409
f 19 29 409
f 409 29 410
f 29 28 410
f 410 28 411
f 28 18 411
f 411 18 457
f 18 17 457
f 457 17 458
f 17 15 458
f 458 15 459
f 15 14 459
f 459 14 460
f 14 43 460
f 460 43 461
f 43 42 461
f 461 42 462
f 42 146 462
f 462 146 413
f 146 145 413
f 413 145 414
f 145 144 414
f 414 144 433
f 144 143 433
f 433 143 434
f 143 142 434
f 434 142 435
f 142 85 435
f 435 85 463
f 85 84 463
f 463 84 464
f 84 112 464
f 464 112 466
f 112 111 466
f 466 111 468
f 111 82 468
f 468 82 442
f 82 80 442
f 442 80 440
f 80 78 440
f 440 78 438
f 78 39 438
f 438 39 436
f 39 8 436
f 436 8 473
f 8 7 473
f 473 7 447
f 7 74 447
f 447 74 445
f 74 33 445
f 445 33 443
f 33 35 443
f 443 35 478
f 35 37 478
f 478 37 427
f 37 69 427
f 427 69 387
f 69 67 387
f 539 543 282
f 543 65 282
f 389 66 68
f 389 68 476
f 68 70 476
f 476 70 477
f 70 71 477
f 477 71 479
f 71 36 479
f 479 36 480
f 36 34 480
f 480 34 444
f 34 76 444
f 444 76 446
f 76 75 446
f 446 75 471
f 75 73 471
f 471 73 472
f 73 72 472
f 472 72 474
f 72 9 474
f 474 9 475
f 9 38 475
f 475 38 437
f 38 40 437
f 437 40 439
f 40 77 439
f 439 77 441
f 77 79 441
f 441 79 470
f 79 81 470
f 470 81 469
f 81 83 469
f 469 83 467
f 83 110 467
f 467 110 465
f 110 25 465
f 465 25 412
f 376 412 168
f 412 25 168
f 389 526 66
f 526 12 66
f 376 168 261
f 376 261 495
f 261 259 495
f 495 259 496
f 259 257 496
f 496 257 451
f 257 256 451
f 451 256 453
f 256 121 453
f 453 121 455
f 121 119 455
f 455 119 456
f 119 117 456
f 456 117 391
f 117 116 391
f 391 116 393
f 116 6 393
f 393 6 404
f 6 44 404
f 404 44 405
f 44 46 405
f 405 46 407
f 46 47 407
f 407 47 408
f 47 49 408
f 408 49 400
f 49 51 400
f 400 51 402
f 51 52 402
f 402 52 403
f 52 54 403
f 403 54 369
f 54 56 369
f 369 56 367
f 56 57 367
f 367 57 365
f 371 365 88
f 365 57 88
f 371 88 153
f 371 153 671
f 153 155 671
f 671 155 672
f 155 156 672
f 672 156 674
f 156 132 674
f 674 132 675
f 132 130 675
f 675 130 652
f 130 161 652
f 652 161 654
f 161 160 654
f 654 160 655
f 160 158 655
f 655 158 647
f 158 157 647
f 647 157 649
f 157 137 649
f 649 137 664
f 137 135 664
f 664 135 665
f 135 221 665
f 665 221 667
f 221 220 667
f 667 220 669
f 220 218 669
f 669 218 670
f 218 197 670
f 670 197 662
f 197 196 662
f 662 196 660
f 196 222 660
f 660 222 658
f 222 65 658
f 658 65 543
