# Blender 4.0.2
# www.blender.org
mtllib control_terminal.mtl
o control_terminal
v -1.501713 -0.117878 0.215595
v -1.501713 -0.117878 -0.909513
v 1.501713 -0.117878 -0.909513
v 1.501713 -0.117878 0.215595
v -1.501713 6.142553 0.215595
v -1.501713 6.142553 -0.909513
v 1.501713 6.142553 -0.909513
v 1.501713 6.142553 0.215595
v 1.221290 0.371492 1.209685
v 1.221290 0.371492 0.084576
v 1.304284 0.371492 0.084576
v 1.304284 0.371492 1.209685
v 1.221290 -0.152677 1.209685
v 1.221290 -0.152677 0.084576
v 1.304284 -0.152677 0.084576
v 1.304284 -0.152677 1.209685
v 1.221290 0.109407 1.209685
v 1.304284 0.109407 1.209685
v 1.304284 0.109407 0.084576
v 1.221290 0.109407 0.084576
v 1.221290 -0.152677 2.143864
v 1.304284 -0.152677 2.143864
v 1.221290 0.109407 2.143864
v 1.304284 0.109407 2.143864
v -1.314232 0.371492 1.209685
v -1.314232 0.371492 0.084576
v -1.231239 0.371492 0.084576
v -1.231239 0.371492 1.209685
v -1.314232 -0.152677 1.209685
v -1.314232 -0.152677 0.084576
v -1.231239 -0.152677 0.084576
v -1.231239 -0.152677 1.209685
v -1.314232 0.109407 1.209685
v -1.231239 0.109407 1.209685
v -1.231239 0.109407 0.084576
v -1.314232 0.109407 0.084576
v -1.314232 -0.152677 2.143864
v -1.231239 -0.152677 2.143864
v -1.314232 0.109407 2.143864
v -1.231239 0.109407 2.143864
v 1.465871 0.337804 1.327114
v 1.465871 0.337804 0.118896
v -1.473409 0.337804 0.118896
v -1.473409 0.337804 1.327114
v 1.465871 0.414083 1.327114
v 1.465871 0.414083 0.118896
v -1.473409 0.414083 0.118896
v -1.473409 0.414083 1.327114
v 1.465871 0.074290 2.349252
v 1.465871 0.074290 1.141035
v -1.473409 0.074290 1.141035
v -1.473409 0.074290 2.349252
v 1.465871 0.150570 2.349252
v 1.465871 0.150570 1.141035
v -1.473409 0.150570 1.141035
v -1.473409 0.150570 2.349252
v -1.501713 1.487881 0.215595
v -1.501713 1.487881 -0.909513
v 1.501713 1.487881 -0.909513
v 1.501713 1.487881 0.215595
v -1.501713 2.297779 0.215595
v -1.501713 2.297779 -0.909513
v 1.501713 2.297779 -0.909513
v 1.501713 2.297779 0.215595
v 1.120578 6.142553 -0.909513
v 1.120578 6.142553 0.215595
v 1.120578 -0.117878 0.215595
v 1.120578 1.487881 0.215595
v 1.120578 2.297779 0.215595
v -1.140324 6.142553 0.215595
v -1.140324 6.142553 -0.909513
v -1.140324 -0.117878 0.215595
v -1.140324 1.487881 0.215595
v -1.140324 2.297779 0.215595
v 1.120578 1.487881 0.142101
v 1.120578 2.297779 0.142101
v -1.140324 1.487881 0.142101
v -1.140324 2.297779 0.142101
v -1.501713 5.619248 0.215595
v -1.501713 5.619248 -0.909513
v 1.501713 5.619248 -0.909513
v 1.501713 5.619248 0.215595
v 1.120578 5.619248 0.215595
v -1.140324 5.619248 0.215595
v -1.501713 2.790259 -0.909513
v 1.501713 2.790259 -0.909513
v 1.501713 2.790259 0.215595
v 1.120578 2.790259 0.215595
v -1.140324 2.790259 0.215595
v -1.501713 2.790259 0.215595
v -0.782718 6.142553 -0.909513
v -0.782718 -0.117878 0.215595
v -0.782718 1.487881 0.215595
v -0.782718 2.297779 0.215595
v -0.782718 6.142553 0.215595
v -0.782718 1.487881 0.142101
v -0.782718 2.297779 0.142101
v -0.782718 5.619248 0.215595
v -0.782718 2.790259 0.215595
v 1.120578 5.619248 0.145948
v 1.120578 2.790259 0.145948
v -0.782718 5.619248 0.145948
v -0.782718 2.790259 0.145948
vn -1.0000 -0.0000 -0.0000
vn 1.0000 -0.0000 -0.0000
vn -0.0000 -0.0000 1.0000
vn -0.0000 -0.0000 -1.0000
vn -0.0000 1.0000 -0.0000
vn -0.0000 -1.0000 -0.0000
vt 0.809679 0.155905
vt 0.809678 0.033586
vt 0.984252 0.033586
vt 0.984252 0.155904
vt 0.208094 0.631271
vt 0.176459 0.631271
vt 0.176459 0.495465
vt 0.208094 0.495465
vt 0.038815 0.623360
vt 0.124874 0.623360
vt 0.124874 0.746184
vt 0.038815 0.746184
vt 0.809679 0.195194
vt 0.984252 0.195194
vt 0.176459 0.485447
vt 0.208094 0.485447
vt 0.124874 0.065233
vt 0.038814 0.065233
vt 0.038814 0.037590
vt 0.124874 0.037590
vt 0.176459 0.349641
vt 0.208094 0.349641
vt 0.144824 0.631271
vt 0.144824 0.495465
vt 0.144824 0.485447
vt 0.144824 0.349641
vt 0.151024 0.108284
vt 0.151024 0.038621
vt 0.173084 0.038621
vt 0.173084 0.108284
vt 0.237693 0.108284
vt 0.237693 0.038621
vt 0.259753 0.038621
vt 0.259753 0.108284
vt 0.176459 0.744031
vt 0.144824 0.744031
vt 0.144824 0.236881
vt 0.176459 0.236881
vt 0.274504 0.631293
vt 0.242869 0.631282
vt 0.242916 0.495476
vt 0.274551 0.495487
vt 0.242920 0.485458
vt 0.274554 0.485469
vt 0.242967 0.349652
vt 0.274601 0.349663
vt 0.211234 0.631271
vt 0.211281 0.495465
vt 0.211285 0.485447
vt 0.211332 0.349641
vt 0.179914 0.108284
vt 0.179914 0.038621
vt 0.201974 0.038621
vt 0.201974 0.108284
vt 0.208803 0.108284
vt 0.208803 0.038621
vt 0.230863 0.038621
vt 0.230863 0.108284
vt 0.242830 0.744042
vt 0.211195 0.744031
vt 0.211371 0.236881
vt 0.243006 0.236892
vt 0.372118 0.329889
vt 0.372118 0.244906
vt 0.651674 0.244906
vt 0.651674 0.329889
vt 0.372118 0.335254
vt 0.651674 0.335254
vt 0.651674 0.420237
vt 0.372118 0.420237
vt 0.992188 0.505481
vt 0.992188 0.514457
vt 0.799925 0.514457
vt 0.799925 0.505481
vt 0.372118 0.425602
vt 0.651674 0.425602
vt 0.992218 0.487794
vt 0.992218 0.496771
vt 0.799956 0.496771
vt 0.799956 0.487794
vt 0.351091 0.622834
vt 0.351091 0.505779
vt 0.679557 0.505779
vt 0.679557 0.622834
vt 0.351091 0.630224
vt 0.679557 0.630224
vt 0.679557 0.747279
vt 0.351091 0.747279
vt 0.993547 0.541659
vt 0.993547 0.550427
vt 0.833345 0.550427
vt 0.833345 0.541659
vt 0.351091 0.754669
vt 0.679557 0.754669
vt 0.994087 0.522999
vt 0.994087 0.531768
vt 0.833885 0.531768
vt 0.833885 0.522999
vt 0.721629 0.195194
vt 0.721629 0.155905
vt 0.038815 0.561410
vt 0.124874 0.561410
vt 0.721629 0.033586
vt 0.668088 0.155905
vt 0.668088 0.033586
vt 0.038815 0.523741
vt 0.124874 0.523740
vt 0.668088 0.195194
vt 0.668088 0.482428
vt 0.668088 0.440992
vt 0.721629 0.440992
vt 0.721629 0.482428
vt 0.809679 0.440992
vt 0.809679 0.482427
vt 0.124874 0.267323
vt 0.038814 0.267323
vt 0.038814 0.238170
vt 0.124874 0.238170
vt 0.984252 0.440991
vt 0.984252 0.482427
vt 0.668088 0.234071
vt 0.721629 0.234071
vt 0.368376 0.009583
vt 0.453851 0.009583
vt 0.453851 0.017339
vt 0.368376 0.017339
vt 0.124874 0.092586
vt 0.038814 0.092586
vt 0.809679 0.234071
vt 0.984252 0.234071
vt 0.135492 0.977019
vt 0.045140 0.977019
vt 0.045140 0.772390
vt 0.135492 0.772390
vt 0.044295 0.009583
vt 0.129766 0.009583
vt 0.129766 0.017339
vt 0.044295 0.017339
vt 0.330636 0.009583
vt 0.330636 0.017339
vt 0.491591 0.009583
vt 0.692467 0.009583
vt 0.692467 0.017339
vt 0.491591 0.017339
vt 0.303637 0.234072
vt 0.303637 0.195194
vt 0.360529 0.195194
vt 0.360529 0.234072
vt 0.303638 0.482428
vt 0.303638 0.440992
vt 0.360530 0.440992
vt 0.360530 0.482428
vt 0.303637 0.155905
vt 0.360529 0.155905
vt 0.124874 0.307350
vt 0.038814 0.307350
vt 0.303637 0.033587
vt 0.360529 0.033587
vt 0.012154 0.480102
vt 0.012154 0.204579
vt 0.019504 0.204579
vt 0.019504 0.480102
vt 0.616378 0.977019
vt 0.616378 0.772390
vt 0.981182 0.985428
vt 0.697033 0.985428
vt 0.697033 0.563078
vt 0.981182 0.563078
vt 0.012153 0.019207
vt 0.019504 0.019207
vt 0.012155 0.940980
vt 0.012154 0.665467
vt 0.019505 0.665467
vt 0.019505 0.940980
s 0
usemtl control_terminal
f 57/1/1 58/2/1 2/3/1 1/4/1
f 12/5/2 18/6/2 19/7/2 11/8/2
f 59/9/2 60/10/2 4/11/2 3/12/2
f 73/13/3 57/1/3 1/4/3 72/14/3
f 11/8/4 19/7/4 20/15/4 10/16/4
f 70/17/5 71/18/5 6/19/5 5/20/5
f 10/16/1 20/15/1 17/21/1 9/22/1
f 18/6/2 16/23/2 15/24/2 19/7/2
f 19/7/4 15/24/4 14/25/4 20/15/4
f 20/15/1 14/25/1 13/26/1 17/21/1
f 9/27/3 17/28/3 18/29/3 12/30/3
f 23/31/3 21/32/3 22/33/3 24/34/3
f 18/6/2 24/35/2 22/36/2 16/23/2
f 13/26/1 21/37/1 23/38/1 17/21/1
f 28/39/2 34/40/2 35/41/2 27/42/2
f 27/42/4 35/41/4 36/43/4 26/44/4
f 26/44/1 36/43/1 33/45/1 25/46/1
f 34/40/2 32/47/2 31/48/2 35/41/2
f 35/41/4 31/48/4 30/49/4 36/43/4
f 36/43/1 30/49/1 29/50/1 33/45/1
f 25/51/3 33/52/3 34/53/3 28/54/3
f 39/55/3 37/56/3 38/57/3 40/58/3
f 34/40/2 40/59/2 38/60/2 32/47/2
f 29/50/1 37/61/1 39/62/1 33/45/1
f 44/63/6 43/64/6 42/65/6 41/66/6
f 48/67/5 45/68/5 46/69/5 47/70/5
f 41/66/3 45/68/3 48/67/3 44/63/3
f 44/71/1 48/72/1 47/73/1 43/74/1
f 43/75/4 47/70/4 46/69/4 42/76/4
f 42/77/2 46/78/2 45/79/2 41/80/2
f 52/81/6 51/82/6 50/83/6 49/84/6
f 56/85/5 53/86/5 54/87/5 55/88/5
f 49/84/3 53/86/3 56/85/3 52/81/3
f 52/89/1 56/90/1 55/91/1 51/92/1
f 51/93/4 55/88/4 54/87/4 50/94/4
f 50/95/2 54/96/2 53/97/2 49/98/2
f 74/99/3 61/100/3 57/1/3 73/13/3
f 63/101/2 64/102/2 60/10/2 59/9/2
f 61/100/1 62/103/1 58/2/1 57/1/1
f 90/104/1 85/105/1 62/103/1 61/100/1
f 86/106/2 87/107/2 64/102/2 63/101/2
f 89/108/3 90/104/3 61/100/3 74/99/3
f 87/109/3 88/110/3 69/111/3 64/112/3
f 64/112/3 69/111/3 68/113/3 60/114/3
f 8/115/5 7/116/5 65/117/5 66/118/5
f 60/114/3 68/113/3 67/119/3 4/120/3
f 99/121/3 89/108/3 74/99/3 94/122/3
f 74/123/2 73/124/2 77/125/2 78/126/2
f 95/127/5 91/128/5 71/18/5 70/17/5
f 93/129/3 73/13/3 72/14/3 92/130/3
f 97/131/3 78/132/3 77/133/3 96/134/3
f 68/135/1 69/136/1 76/137/1 75/138/1
f 94/139/6 74/123/6 78/126/6 97/140/6
f 93/141/5 68/142/5 75/143/5 96/144/5
f 95/145/3 70/146/3 84/147/3 98/148/3
f 8/149/3 66/150/3 83/151/3 82/152/3
f 70/146/3 5/153/3 79/154/3 84/147/3
f 7/116/2 8/115/2 82/155/2 81/156/2
f 5/153/1 6/157/1 80/158/1 79/154/1
f 98/148/3 84/147/3 89/108/3 99/121/3
f 82/152/3 83/151/3 88/110/3 87/109/3
f 84/147/3 79/154/3 90/104/3 89/108/3
f 81/156/2 82/155/2 87/107/2 86/106/2
f 79/154/1 80/158/1 85/105/1 90/104/1
f 98/159/2 99/160/2 103/161/2 102/162/2
f 66/150/3 95/145/3 98/148/3 83/151/3
f 73/124/5 93/141/5 96/144/5 77/125/5
f 69/136/6 94/139/6 97/140/6 76/137/6
f 76/163/3 97/131/3 96/134/3 75/164/3
f 68/113/3 93/129/3 92/130/3 67/119/3
f 66/118/5 65/117/5 91/128/5 95/127/5
f 88/110/3 99/121/3 94/122/3 69/111/3
f 100/165/3 102/166/3 103/167/3 101/168/3
f 99/160/5 88/169/5 101/170/5 103/161/5
f 88/171/1 83/172/1 100/173/1 101/174/1
f 83/172/6 98/159/6 102/162/6 100/173/6
