# Blender 4.0.2
# www.blender.org
mtllib tank_control_panel.mtl
o tank_control_panel
v -1.923347 3.406861 -0.887837
v -0.288223 3.406863 -0.887837
v -1.923346 -0.072766 -0.887837
v -0.288223 -0.072765 -0.887837
v -1.923346 3.140226 -1.946639
v -0.288223 3.140228 -1.946639
v -1.923346 -0.072766 -1.946639
v -0.288223 -0.072765 -1.946639
v -0.288223 -0.072765 -1.626799
v -1.923346 -0.072766 -1.626798
v -0.288223 3.406863 -1.626799
v -1.923346 3.406861 -1.626798
v -1.721595 3.406862 -0.887837
v -1.721595 -0.072766 -0.887837
v -1.721595 3.140226 -1.946639
v -1.721595 -0.072766 -1.946639
v -1.721595 3.406862 -1.626798
v -0.755449 3.406863 -0.887837
v -0.755449 -0.072765 -0.887837
v -0.755449 3.140227 -1.946639
v -0.755449 -0.072765 -1.946639
v -0.755449 3.406863 -1.626798
v -1.923346 3.015403 -0.887837
v -0.288223 3.015405 -0.887837
v -1.923346 2.778765 -1.946639
v -0.288223 2.778766 -1.946639
v -1.923346 3.015403 -1.626798
v -0.288223 3.015405 -1.626799
v -1.721595 2.778765 -1.946639
v -1.721595 3.015404 -0.887837
v -0.755449 2.778766 -1.946639
v -0.755449 3.015404 -0.887837
v -0.288223 1.096996 -0.887837
v -0.288223 1.007361 -1.946639
v -1.923346 1.096995 -1.626798
v -1.721595 1.007359 -1.946639
v -0.755449 1.007360 -1.946639
v -1.923346 1.096995 -0.887837
v -1.923346 1.007359 -1.946639
v -0.288223 1.096996 -1.626799
v -1.721595 1.096995 -0.887837
v -0.755449 1.096996 -0.887837
v -1.721595 2.778765 -1.845697
v -0.755449 2.778766 -1.845698
v -1.721595 1.007359 -1.845697
v -0.755449 1.007360 -1.845698
v -0.357381 3.131896 -1.842325
v -0.357381 3.108606 -1.801985
v -0.357381 3.062025 -1.801985
v -0.357381 3.038734 -1.842325
v -0.357381 3.062025 -1.882665
v -0.357381 3.108606 -1.882665
v 0.478813 3.131896 -1.842325
v 0.478813 3.108606 -1.801985
v 0.478813 3.062025 -1.801985
v 0.478813 3.038734 -1.842325
v 0.478813 3.062025 -1.882665
v 0.478813 3.108606 -1.882665
v -0.363234 3.131896 -1.684287
v -0.363234 3.108606 -1.643946
v -0.363234 3.062025 -1.643946
v -0.363234 3.038734 -1.684287
v -0.363234 3.062025 -1.724627
v -0.363234 3.108606 -1.724627
v 0.472960 3.131896 -1.684287
v 0.472960 3.108606 -1.643946
v 0.472960 3.062025 -1.643946
v 0.472960 3.038734 -1.684287
v 0.472960 3.062025 -1.724627
v 0.472960 3.108606 -1.724627
v 0.611468 3.131896 -1.806226
v 0.591298 3.108606 -1.771290
v 0.591298 3.062025 -1.771290
v 0.611468 3.038734 -1.806226
v 0.631638 3.062025 -1.841161
v 0.631638 3.108606 -1.841161
v 0.527380 3.131896 -1.672287
v 0.507210 3.108606 -1.637351
v 0.507210 3.062025 -1.637351
v 0.527380 3.038734 -1.672287
v 0.547550 3.062025 -1.707222
v 0.547550 3.108606 -1.707222
v 0.708301 3.131896 -1.708635
v 0.673365 3.108606 -1.688464
v 0.673365 3.062025 -1.688465
v 0.708301 3.038734 -1.708635
v 0.743237 3.062025 -1.728805
v 0.743237 3.108606 -1.728805
v 0.568509 3.131896 -1.634685
v 0.533573 3.108606 -1.614514
v 0.533573 3.062025 -1.614514
v 0.568509 3.038734 -1.634685
v 0.603445 3.062025 -1.654855
v 0.603445 3.108606 -1.654855
v 0.743365 3.131896 -1.575702
v 0.703025 3.108606 -1.575702
v 0.703025 3.062025 -1.575702
v 0.743365 3.038734 -1.575702
v 0.783705 3.062025 -1.575702
v 0.783705 3.108606 -1.575702
v 0.585327 3.131896 -1.581555
v 0.544986 3.108606 -1.581555
v 0.544986 3.062025 -1.581555
v 0.585327 3.038734 -1.581555
v 0.625667 3.062025 -1.581556
v 0.625667 3.108606 -1.581556
v 0.743365 3.131896 -1.294748
v 0.703025 3.108606 -1.294748
v 0.703025 3.062025 -1.294748
v 0.743365 3.038734 -1.294748
v 0.783705 3.062025 -1.294748
v 0.783705 3.108606 -1.294748
v 0.585327 3.131896 -1.300601
v 0.544986 3.108606 -1.300601
v 0.544986 3.062025 -1.300602
v 0.585327 3.038734 -1.300601
v 0.625667 3.062025 -1.300602
v 0.625667 3.108606 -1.300602
v 0.743365 3.152790 -1.299233
v 0.684931 3.119052 -1.299233
v 0.684931 3.051578 -1.299233
v 0.743365 3.017842 -1.299233
v 0.801799 3.051578 -1.299233
v 0.801799 3.119052 -1.299233
v 0.585327 3.152790 -1.305086
v 0.526892 3.119052 -1.305086
v 0.526893 3.051578 -1.305086
v 0.585327 3.017842 -1.305086
v 0.643761 3.051578 -1.305086
v 0.643761 3.119052 -1.305086
v 0.743365 3.152790 -1.421337
v 0.684931 3.119052 -1.421337
v 0.684931 3.051578 -1.421337
v 0.743365 3.017842 -1.421337
v 0.801799 3.051578 -1.421337
v 0.801799 3.119052 -1.421337
v 0.585327 3.152790 -1.427191
v 0.526892 3.119052 -1.427191
v 0.526893 3.051578 -1.427191
v 0.585327 3.017842 -1.427191
v 0.643761 3.051578 -1.427191
v 0.643761 3.119052 -1.427191
v 0.495757 2.999679 -1.229183
v 0.495757 2.999679 -1.400456
v 0.832933 2.999679 -1.400456
v 0.832932 2.999679 -1.229183
v 0.495757 3.170952 -1.229183
v 0.495757 3.170952 -1.400456
v 0.832933 3.170952 -1.400456
v 0.832933 3.170952 -1.229183
v -1.923347 2.251019 -0.887837
v -1.923346 2.072954 -1.946639
v -0.288223 2.251021 -1.626799
v -1.721595 2.251020 -0.887837
v -0.755449 2.251021 -0.887837
v -0.288223 2.251021 -0.887837
v -0.288223 2.072955 -1.946639
v -1.923346 2.251019 -1.626798
v -1.721595 2.072954 -1.946639
v -0.755449 2.072955 -1.946639
v -1.721595 2.072954 -1.845697
v -0.755449 2.072955 -1.845698
v -0.350229 2.736651 -1.946639
v -0.693443 2.736651 -1.946639
v -0.350229 2.115070 -1.946639
v -0.693443 2.115069 -1.946639
v -0.350229 2.736651 -1.989861
v -0.693443 2.736651 -1.989861
v -0.350229 2.115070 -1.989861
v -0.693443 2.115069 -1.989861
v 0.691265 3.115395 -1.421337
v 0.743365 3.145475 -1.421337
v 0.691265 3.055236 -1.421337
v 0.743365 3.025156 -1.421337
v 0.795465 3.055235 -1.421337
v 0.795465 3.115395 -1.421337
v 0.533227 3.115395 -1.427191
v 0.585327 3.145475 -1.427191
v 0.533227 3.055235 -1.427191
v 0.585327 3.025156 -1.427191
v 0.637427 3.055236 -1.427191
v 0.637427 3.115395 -1.427191
v -0.354735 2.728490 -1.926883
v -0.688937 2.728490 -1.926883
v -0.354735 2.123231 -1.926883
v -0.688937 2.123230 -1.926883
v -0.354735 2.728490 -1.998455
v -0.688937 2.728490 -1.998455
v -0.354735 2.123231 -1.998455
v -0.688937 2.123230 -1.998455
v -0.324107 2.755523 -1.926883
v -0.719565 2.755522 -1.926883
v -0.324107 2.096199 -1.926883
v -0.719565 2.096198 -1.926883
v -0.324107 2.755523 -1.998455
v -0.719565 2.755522 -1.998455
v -0.324107 2.096199 -1.998455
v -0.719565 2.096198 -1.998455
vn -0.0000 -0.0000 1.0000
vn -0.0000 -0.0000 -1.0000
vn -0.0000 1.0000 -0.0000
vn 1.0000 -0.0000 -0.0000
vn -1.0000 -0.0000 -0.0000
vn -0.0000 0.7681 -0.6403
vn -0.0000 -1.0000 -0.0000
vn -0.0000 0.5000 -0.8660
vn 0.0113 0.9991 -0.0419
vn 0.1135 0.4813 -0.8692
vn -0.0000 -0.5000 -0.8660
vn 0.1135 -0.4813 -0.8692
vn 0.0113 -0.9991 -0.0419
vn -0.0000 -0.5000 0.8660
vn -0.1168 -0.5173 0.8478
vn -0.0000 0.5000 0.8660
vn -0.1168 0.5173 0.8478
vn 0.0101 0.9994 -0.0341
vn 0.0977 0.4830 -0.8701
vn 0.0977 -0.4830 -0.8701
vn 0.0101 -0.9994 -0.0341
vn -0.0860 -0.5108 0.8554
vn -0.0861 0.5108 0.8554
vn 0.0391 0.9966 -0.0729
vn 0.4170 0.4672 -0.7796
vn 0.4170 -0.4672 -0.7796
vn 0.0391 -0.9966 -0.0729
vn -0.3700 -0.5391 0.7567
vn -0.3700 0.5391 0.7567
vn 0.0418 0.9966 -0.0715
vn 0.4446 0.4673 -0.7642
vn 0.4446 -0.4673 -0.7642
vn 0.0418 -0.9966 -0.0715
vn -0.4244 -0.5394 0.7273
vn -0.4244 0.5394 0.7273
vn 0.0703 0.9966 -0.0436
vn 0.7510 0.4672 -0.4667
vn 0.7510 -0.4672 -0.4667
vn 0.0703 -0.9966 -0.0436
vn -0.6987 -0.5391 0.4703
vn -0.6987 0.5391 0.4703
vn 0.0720 0.9966 -0.0410
vn 0.7671 0.4673 -0.4395
vn 0.7671 -0.4673 -0.4395
vn 0.0720 -0.9966 -0.0410
vn -0.7312 -0.5394 0.4176
vn -0.7312 0.5394 0.4176
vn 0.0484 0.9987 -0.0127
vn 0.8682 0.4799 -0.1263
vn 0.8682 -0.4799 -0.1263
vn 0.0484 -0.9987 -0.0127
vn -0.8402 -0.5229 0.1436
vn -0.8402 0.5229 0.1436
vn 0.0407 0.9991 -0.0108
vn 0.8694 0.4816 -0.1106
vn 0.8694 -0.4816 -0.1106
vn 0.0407 -0.9991 -0.0108
vn -0.8488 -0.5165 0.1129
vn -0.8488 0.5165 0.1129
vn 0.8660 0.5000 -0.0000
vn 0.8660 -0.5000 -0.0000
vn -0.8660 -0.5000 -0.0000
vn -0.8660 0.5000 -0.0000
vn 0.6862 0.3962 -0.6100
vn -0.0000 0.7924 -0.6100
vn 0.6862 -0.3962 -0.6100
vn -0.0000 -0.7924 -0.6100
vn -0.6862 -0.3962 -0.6100
vn -0.6862 0.3962 -0.6100
vt 0.434522 0.207594
vt 0.434522 0.042561
vt 0.500439 0.042561
vt 0.500439 0.207594
vt 0.818558 0.319731
vt 0.878817 0.319731
vt 0.878817 0.472117
vt 0.818558 0.472117
vt 0.434522 0.533475
vt 0.500439 0.533475
vt 0.500439 0.637730
vt 0.434522 0.637730
vt 0.604693 0.207594
vt 0.604693 0.042561
vt 0.649817 0.042561
vt 0.649817 0.194948
vt 0.165498 0.478247
vt 0.165498 0.533475
vt 0.120374 0.495858
vt 0.120374 0.444862
vt 0.500439 0.696477
vt 0.434521 0.696477
vt 0.269752 0.478247
vt 0.269752 0.533475
vt 0.269752 0.637729
vt 0.298216 0.637729
vt 0.298215 0.696477
vt 0.269752 0.696477
vt 0.298216 0.533475
vt 0.667932 0.319731
vt 0.693952 0.319731
vt 0.693952 0.472117
vt 0.667932 0.472117
vt 0.269752 0.207594
vt 0.269752 0.042561
vt 0.298216 0.042561
vt 0.298216 0.207594
vt 0.298216 0.478247
vt 0.434522 0.478247
vt 0.693952 0.018821
vt 0.818558 0.018821
vt 0.818558 0.069817
vt 0.693952 0.069817
vt 0.667932 0.018821
vt 0.667932 0.069817
vt 0.500439 0.478247
vt 0.604693 0.478247
vt 0.604693 0.533475
vt 0.269752 0.370406
vt 0.165498 0.370406
vt 0.120374 0.345284
vt 0.649817 0.444862
vt 0.649817 0.495858
vt 0.878817 0.018821
vt 0.878817 0.069817
vt 0.165498 0.042561
vt 0.165498 0.207594
vt 0.120374 0.194948
vt 0.120374 0.042561
vt 0.298216 0.370406
vt 0.434522 0.370406
vt 0.076194 0.333937
vt 0.076194 0.500000
vt 0.022163 0.500000
vt 0.022163 0.333937
vt 0.667932 0.169394
vt 0.693952 0.169394
vt 0.500439 0.370406
vt 0.604693 0.370406
vt 0.649817 0.345284
vt 0.818558 0.169394
vt 0.878817 0.169394
vt 0.356228 0.748747
vt 0.356228 0.972113
vt 0.109870 0.972113
vt 0.109870 0.748747
vt 0.076195 0.150779
vt 0.022163 0.150779
vt 0.076194 0.683158
vt 0.076195 0.804475
vt 0.022163 0.804475
vt 0.022163 0.683158
vt 0.076195 0.970538
vt 0.022164 0.970538
vt 0.671400 0.747131
vt 0.660017 0.747131
vt 0.660017 0.873625
vt 0.671400 0.873625
vt 0.682783 0.747131
vt 0.682783 0.873625
vt 0.694165 0.747131
vt 0.694165 0.873625
vt 0.637253 0.747131
vt 0.625870 0.747131
vt 0.625870 0.873625
vt 0.637253 0.873625
vt 0.648636 0.747131
vt 0.648636 0.873625
vt 0.561141 0.746913
vt 0.571881 0.746913
vt 0.571881 0.896626
vt 0.561141 0.896626
vt 0.550402 0.746913
vt 0.550402 0.896626
vt 0.539663 0.746913
vt 0.539663 0.896626
vt 0.593359 0.746913
vt 0.604099 0.746913
vt 0.604099 0.896626
vt 0.593359 0.896626
vt 0.582620 0.746913
vt 0.582620 0.896626
vt 0.571881 0.906604
vt 0.561141 0.906604
vt 0.550402 0.906604
vt 0.539663 0.906604
vt 0.604099 0.906604
vt 0.593359 0.906604
vt 0.582620 0.906604
vt 0.660017 0.894421
vt 0.671400 0.894421
vt 0.682783 0.894421
vt 0.694165 0.894421
vt 0.625870 0.894421
vt 0.637253 0.894421
vt 0.648636 0.894421
vt 0.571881 0.916583
vt 0.561141 0.916583
vt 0.550402 0.916583
vt 0.539663 0.916583
vt 0.604099 0.916583
vt 0.593359 0.916583
vt 0.582620 0.916583
vt 0.660017 0.915218
vt 0.671400 0.915218
vt 0.682783 0.915218
vt 0.694165 0.915218
vt 0.625870 0.915218
vt 0.637253 0.915218
vt 0.648636 0.915218
vt 0.571881 0.926561
vt 0.561141 0.926561
vt 0.550402 0.926561
vt 0.539663 0.926561
vt 0.604099 0.926561
vt 0.593359 0.926561
vt 0.582620 0.926561
vt 0.660017 0.936015
vt 0.671400 0.936015
vt 0.682783 0.936015
vt 0.694165 0.936015
vt 0.625870 0.936015
vt 0.637253 0.936015
vt 0.648636 0.936015
vt 0.571881 0.976863
vt 0.561141 0.976863
vt 0.550402 0.976863
vt 0.539663 0.976863
vt 0.604099 0.976863
vt 0.593359 0.976863
vt 0.582620 0.976863
vt 0.660017 0.978516
vt 0.671400 0.978516
vt 0.682783 0.978516
vt 0.694165 0.978516
vt 0.625870 0.978516
vt 0.637253 0.978516
vt 0.648636 0.978516
vt 0.518763 0.547822
vt 0.564347 0.547821
vt 0.564347 0.574390
vt 0.518763 0.574390
vt 0.518763 0.680665
vt 0.564347 0.680665
vt 0.564347 0.707234
vt 0.518763 0.707234
vt 0.518763 0.654097
vt 0.564347 0.654097
vt 0.518763 0.627528
vt 0.564347 0.627528
vt 0.518763 0.600959
vt 0.564347 0.600959
vt 0.587726 0.680665
vt 0.633310 0.680665
vt 0.633310 0.707234
vt 0.587726 0.707234
vt 0.587726 0.654096
vt 0.633310 0.654096
vt 0.587726 0.627528
vt 0.633310 0.627528
vt 0.587726 0.600959
vt 0.633310 0.600959
vt 0.587726 0.574390
vt 0.633310 0.574390
vt 0.587726 0.547821
vt 0.633310 0.547821
vt 0.873993 0.921699
vt 0.826750 0.948974
vt 0.779508 0.921699
vt 0.779508 0.867148
vt 0.826750 0.839873
vt 0.873992 0.867148
vt 0.873993 0.742546
vt 0.826751 0.769822
vt 0.779508 0.742546
vt 0.779508 0.687996
vt 0.826751 0.660721
vt 0.873993 0.687996
vt 0.113814 0.689830
vt 0.141398 0.689830
vt 0.141398 0.717414
vt 0.113814 0.717414
vt 0.168981 0.553643
vt 0.168981 0.607945
vt 0.141398 0.607945
vt 0.141398 0.553643
vt 0.141398 0.635528
vt 0.113814 0.635528
vt 0.113814 0.607945
vt 0.113814 0.553643
vt 0.076196 0.029462
vt 0.022163 0.029462
vt 0.519406 0.748747
vt 0.519406 0.972113
vt 0.870820 0.075758
vt 0.826555 0.075758
vt 0.870820 0.163452
vt 0.826555 0.163452
vt 0.881569 0.494338
vt 0.881569 0.612434
vt 0.667689 0.612434
vt 0.667688 0.494338
vt 0.879737 0.925015
vt 0.826750 0.955607
vt 0.879736 0.863832
vt 0.826750 0.833241
vt 0.773765 0.863832
vt 0.773765 0.925015
vt 0.879737 0.745863
vt 0.826751 0.776454
vt 0.879737 0.684680
vt 0.826751 0.654088
vt 0.773765 0.684680
vt 0.773765 0.745863
vt 0.972283 0.649528
vt 0.950981 0.649528
vt 0.950981 0.481916
vt 0.972283 0.481916
vt 0.950981 0.191426
vt 0.972283 0.191426
vt 0.972283 0.940019
vt 0.950981 0.940019
vt 0.950981 0.023814
vt 0.972283 0.023814
vt 0.917519 0.649528
vt 0.917519 0.481916
vt 0.938822 0.481916
vt 0.938822 0.649528
vt 0.917519 0.191426
vt 0.938822 0.191426
vt 0.917519 0.940019
vt 0.938822 0.940019
vt 0.917519 0.023814
vt 0.938822 0.023814
s 0
usemtl tank_control_panel
f 42/1/1 19/2/1 4/3/1 33/4/1
f 37/5/2 34/6/2 8/7/2 21/8/2
f 18/9/3 2/10/3 11/11/3 22/12/3
f 40/13/4 9/14/4 8/15/4 34/16/4
f 27/17/5 12/18/5 5/19/5 25/20/5
f 22/12/6 11/11/6 6/21/6 20/22/6
f 23/23/5 1/24/5 12/18/5 27/17/5
f 33/4/4 4/3/4 9/14/4 40/13/4
f 12/25/6 17/26/6 15/27/6 5/28/6
f 1/24/3 13/29/3 17/26/3 12/25/3
f 39/30/2 36/31/2 16/32/2 7/33/2
f 38/34/1 3/35/1 14/36/1 41/37/1
f 17/26/6 22/12/6 20/22/6 15/27/6
f 13/29/3 18/9/3 22/12/3 17/26/3
f 36/31/2 37/5/2 21/8/2 16/32/2
f 41/37/1 14/36/1 19/2/1 42/1/1
f 13/29/1 30/38/1 32/39/1 18/9/1
f 15/40/2 20/41/2 31/42/2 29/43/2
f 1/24/1 23/23/1 30/38/1 13/29/1
f 5/44/2 15/40/2 29/43/2 25/45/2
f 2/10/4 24/46/4 28/47/4 11/48/4
f 151/49/5 23/23/5 27/17/5 158/50/5
f 158/50/5 27/17/5 25/20/5 152/51/5
f 11/48/4 28/47/4 26/52/4 6/53/4
f 20/41/2 6/54/2 26/55/2 31/42/2
f 18/9/1 32/39/1 24/46/1 2/10/1
f 10/56/5 35/57/5 39/58/5 7/59/5
f 3/35/5 38/34/5 35/57/5 10/56/5
f 154/60/1 41/37/1 42/1/1 155/61/1
f 37/62/3 36/63/3 45/64/3 46/65/3
f 151/49/1 38/34/1 41/37/1 154/60/1
f 152/66/2 159/67/2 36/31/2 39/30/2
f 156/68/4 33/4/4 40/13/4 153/69/4
f 153/69/4 40/13/4 34/16/4 157/70/4
f 160/71/2 157/72/2 34/6/2 37/5/2
f 155/61/1 42/1/1 33/4/1 156/68/1
f 161/73/2 162/74/2 46/75/2 45/76/2
f 160/77/5 37/62/5 46/65/5 162/78/5
f 159/79/4 29/80/4 43/81/4 161/82/4
f 29/80/7 31/83/7 44/84/7 43/81/7
s 1
f 52/85/8 47/86/3 53/87/9 58/88/10
f 51/89/11 52/85/8 58/88/10 57/90/12
f 50/91/7 51/89/11 57/90/12 56/92/13
f 49/93/14 50/94/7 56/95/13 55/96/15
f 48/97/16 49/93/14 55/96/15 54/98/17
f 47/86/3 48/97/16 54/98/17 53/87/9
f 64/99/8 59/100/3 65/101/18 70/102/19
f 63/103/11 64/99/8 70/102/19 69/104/20
f 62/105/7 63/103/11 69/104/20 68/106/21
f 61/107/14 62/108/7 68/109/21 67/110/22
f 60/111/16 61/107/14 67/110/22 66/112/23
f 59/100/3 60/111/16 66/112/23 65/101/18
f 70/102/19 65/101/18 77/113/24 82/114/25
f 69/104/20 70/102/19 82/114/25 81/115/26
f 68/106/21 69/104/20 81/115/26 80/116/27
f 67/110/22 68/109/21 80/117/27 79/118/28
f 66/112/23 67/110/22 79/118/28 78/119/29
f 65/101/18 66/112/23 78/119/29 77/113/24
f 58/88/10 53/87/9 71/120/30 76/121/31
f 57/90/12 58/88/10 76/121/31 75/122/32
f 56/92/13 57/90/12 75/122/32 74/123/33
f 55/96/15 56/95/13 74/124/33 73/125/34
f 54/98/17 55/96/15 73/125/34 72/126/35
f 53/87/9 54/98/17 72/126/35 71/120/30
f 82/114/25 77/113/24 89/127/36 94/128/37
f 81/115/26 82/114/25 94/128/37 93/129/38
f 80/116/27 81/115/26 93/129/38 92/130/39
f 79/118/28 80/117/27 92/131/39 91/132/40
f 78/119/29 79/118/28 91/132/40 90/133/41
f 77/113/24 78/119/29 90/133/41 89/127/36
f 76/121/31 71/120/30 83/134/42 88/135/43
f 75/122/32 76/121/31 88/135/43 87/136/44
f 74/123/33 75/122/32 87/136/44 86/137/45
f 73/125/34 74/124/33 86/138/45 85/139/46
f 72/126/35 73/125/34 85/139/46 84/140/47
f 71/120/30 72/126/35 84/140/47 83/134/42
f 94/128/37 89/127/36 101/141/48 106/142/49
f 93/129/38 94/128/37 106/142/49 105/143/50
f 92/130/39 93/129/38 105/143/50 104/144/51
f 91/132/40 92/131/39 104/145/51 103/146/52
f 90/133/41 91/132/40 103/146/52 102/147/53
f 89/127/36 90/133/41 102/147/53 101/141/48
f 88/135/43 83/134/42 95/148/54 100/149/55
f 87/136/44 88/135/43 100/149/55 99/150/56
f 86/137/45 87/136/44 99/150/56 98/151/57
f 85/139/46 86/138/45 98/152/57 97/153/58
f 84/140/47 85/139/46 97/153/58 96/154/59
f 83/134/42 84/140/47 96/154/59 95/148/54
f 106/142/49 101/141/48 113/155/3 118/156/60
f 105/143/50 106/142/49 118/156/60 117/157/61
f 104/144/51 105/143/50 117/157/61 116/158/7
f 103/146/52 104/145/51 116/159/7 115/160/62
f 102/147/53 103/146/52 115/160/62 114/161/63
f 101/141/48 102/147/53 114/161/63 113/155/3
f 100/149/55 95/148/54 107/162/3 112/163/60
f 99/150/56 100/149/55 112/163/60 111/164/61
f 98/151/57 99/150/56 111/164/61 110/165/7
f 97/153/58 98/152/57 110/166/7 109/167/62
f 96/154/59 97/153/58 109/167/62 108/168/63
f 95/148/54 96/154/59 108/168/63 107/162/3
f 130/169/60 142/170/64 137/171/65 125/172/3
f 129/173/61 141/174/66 142/175/64 130/176/60
f 128/177/7 140/178/67 141/174/66 129/173/61
f 127/179/62 139/180/68 140/178/67 128/177/7
f 126/181/63 138/182/69 139/180/68 127/179/62
f 125/172/3 137/171/65 138/182/69 126/181/63
f 124/183/60 136/184/64 131/185/65 119/186/3
f 123/187/61 135/188/66 136/184/64 124/183/60
f 122/189/7 134/190/67 135/188/66 123/187/61
f 121/191/62 133/192/68 134/190/67 122/189/7
f 120/193/63 132/194/69 133/192/68 121/191/62
f 119/195/3 131/196/65 132/194/69 120/193/63
f 171/197/2 172/198/2 176/199/2 175/200/2 174/201/2 173/202/2
f 177/203/2 178/204/2 182/205/2 181/206/2 180/207/2 179/208/2
s 0
f 147/209/5 148/210/5 144/211/5 143/212/5
f 148/213/2 149/214/2 145/215/2 144/216/2
f 149/217/4 150/218/4 146/219/4 145/215/4
f 143/220/7 144/216/7 145/215/7 146/219/7
f 150/218/3 149/217/3 148/210/3 147/209/3
f 36/63/4 159/79/4 161/82/4 45/64/4
f 31/221/5 160/77/5 162/78/5 44/222/5
f 43/223/2 44/224/2 162/74/2 161/73/2
f 32/39/1 155/61/1 156/68/1 24/46/1
f 28/47/4 153/69/4 157/70/4 26/52/4
f 24/46/4 156/68/4 153/69/4 28/47/4
f 25/45/2 29/43/2 159/67/2 152/66/2
f 23/23/1 151/49/1 154/60/1 30/38/1
f 30/38/1 154/60/1 155/61/1 32/39/1
f 35/57/5 158/50/5 152/51/5 39/58/5
f 38/34/5 151/49/5 158/50/5 35/57/5
f 163/225/2 164/226/2 31/42/2 26/55/2
f 165/227/2 163/225/2 26/55/2 157/72/2
f 164/226/2 166/228/2 160/71/2 31/42/2
f 166/228/2 165/227/2 157/72/2 160/71/2
f 168/229/2 167/230/2 169/231/2 170/232/2
s 1
f 172/198/2 171/197/2 132/233/69 131/234/65
f 171/197/2 173/202/2 133/235/68 132/233/69
f 173/202/2 174/201/2 134/236/67 133/235/68
f 174/201/2 175/200/2 135/237/66 134/236/67
f 175/200/2 176/199/2 136/238/64 135/237/66
f 176/199/2 172/198/2 131/234/65 136/238/64
f 178/204/2 177/203/2 138/239/69 137/240/65
f 177/203/2 179/208/2 139/241/68 138/239/69
f 179/208/2 180/207/2 140/242/67 139/241/68
f 180/207/2 181/206/2 141/243/66 140/242/67
f 181/206/2 182/205/2 142/244/64 141/243/66
f 182/205/2 178/204/2 137/240/65 142/244/64
s 0
f 185/245/3 189/246/3 190/247/3 186/248/3
f 186/248/4 190/247/4 188/249/4 184/250/4
f 183/251/5 187/252/5 189/246/5 185/245/5
f 184/250/7 188/249/7 187/253/7 183/254/7
f 193/255/7 194/256/7 198/257/7 197/258/7
f 194/256/5 192/259/5 196/260/5 198/257/5
f 191/261/4 193/255/4 197/258/4 195/262/4
f 192/259/3 191/263/3 195/264/3 196/260/3
f 190/247/2 189/246/2 197/258/2 198/257/2
f 188/249/2 190/247/2 198/257/2 196/260/2
f 189/246/2 187/252/2 195/262/2 197/258/2
f 187/253/2 188/249/2 196/260/2 195/264/2
