# generated by mjcf2godot
v 0.017768947 -0.0042482866 -0.039892501
v 0.018754235 -0.0044163703 -0.039923383
v 0.017860481 -0.0035131797 -0.039925747
v 0.018856539 -0.00359478 -0.039960541
v 0.01788758 -0.0027727939 -0.039956743
v 0.018886826 -0.0027672901 -0.039995183
v 0.017850038 -0.0020327643 -0.039985252
v 0.018844867 -0.0019401982 -0.040027046
v 0.017748141 -0.0012987227 -0.040011058
v 0.01873098 -0.0011197987 -0.040055888
v 0.01769086 -0.0013593257 -0.041508737
v 0.017792757 -0.0020933673 -0.041482932
v 0.017830299 -0.002833397 -0.041454423
v 0.0178032 -0.0035737827 -0.041423427
v 0.017711667 -0.0043088897 -0.04139018
v 0.018696954 -0.0044769733 -0.041421062
v 0.018799258 -0.0036553831 -0.04145822
v 0.018829545 -0.0028278932 -0.041492863
v 0.018787586 -0.0020008012 -0.041524726
v 0.0186737 -0.0011804017 -0.041553567
v 0.0019359724 -0.0025350686 -0.04686789
v -0.00013251686 -0.0024526719 -0.04879521
v 0.0020135074 -0.0019123897 -0.046896052
v -3.3444642e-05 -0.0016570267 -0.048831195
v 0.0021450324 -0.0012989213 -0.046925906
v 0.00013461546 -0.00087315025 -0.048869341
v 0.0023295464 -0.0006993321 -0.046957225
v 0.00037038399 -0.00010700846 -0.04890936
v 0.0025656455 -0.00011818514 -0.046989771
v 0.00067206589 0.00063556804 -0.048950947
v 0.0028515332 0.00044009616 -0.047023295
v 0.001037367 0.0013489277 -0.048993784
v 0.0031850328 0.00097126331 -0.047057544
v 0.0014635051 0.0020276412 -0.049037546
v 0.003563607 0.0014712738 -0.047092256
v 0.0019472381 0.0026665436 -0.0490819
v 0.0039843744 0.0019363225 -0.047127167
v 0.0024848847 0.0032607721 -0.049126508
v 0.0044441315 0.0023628695 -0.047162011
v 0.0030723528 0.0038058047 -0.049171031
v 0.0049393805 0.0027476687 -0.047196523
v 0.0037051722 0.0042974928 -0.04921513
v 0.0054663536 0.0030877921 -0.04723044
v 0.0043785251 0.0047320947 -0.049258469
v 0.0060210379 0.0033806503 -0.047263505
v 0.0050872885 0.0051063022 -0.049300719
v 0.0065992113 0.0036240154 -0.047295466
v 0.0058260667 0.0054172687 -0.049341558
v 0.0071964771 0.0038160341 -0.047326079
v 0.0065892385 0.0056626266 -0.049380674
v 0.0078082857 0.0039552464 -0.047355112
v 0.007370995 0.0058405078 -0.049417772
v 0.0084299837 0.0040405914 -0.047382343
v 0.0081653878 0.00594956 -0.049452567
v 0.0090568387 0.0040714205 -0.047407565
v 0.0089663677 0.0059889534 -0.049484795
v 0.0096840799 0.0040474989 -0.047430587
v 0.009767843 0.0059583863 -0.049514212
v 0.010306934 0.0039690088 -0.047451233
v 0.010563711 0.0058580931 -0.049540593
v 0.010920661 0.0038365467 -0.047469346
v 0.011347916 0.0056888372 -0.049563737
v 0.011520587 0.0036511221 -0.047484787
v 0.01211449 0.005451905 -0.049583468
v 0.012102151 0.0034141448 -0.047497441
v 0.0128576 0.0051491007 -0.049599636
v 0.012660924 0.0031274195 -0.04750721
v 0.013571585 0.0047827296 -0.049612119
v 0.013192652 0.0027931273 -0.047514019
v 0.014251018 0.0043555789 -0.04962082
v 0.013693292 0.0024138135 -0.047517818
v 0.014890725 0.0038708997 -0.049625674
v 0.014159032 0.0019923641 -0.047518577
v 0.015485837 0.0033323808 -0.049626644
v 0.014586326 0.0015319865 -0.04751629
v 0.016031824 0.0027441209 -0.049623722
v 0.014971925 0.001036185 -0.047510976
v 0.016524534 0.0021105966 -0.049616931
v 0.015312893 0.00050873279 -0.047502673
v 0.016960216 0.0014366301 -0.049606322
v 0.015606634 -4.6355939e-05 -0.047491446
v 0.017335552 0.0007273498 -0.049591977
v 0.015850913 -0.000624857 -0.04747738
v 0.017647687 -1.1845823e-05 -0.049574004
v 0.016043873 -0.0012223671 -0.047460582
v 0.017894245 -0.00077533099 -0.049552539
v 0.016184043 -0.001834339 -0.04744118
v 0.018073351 -0.0015572952 -0.049527748
v 0.016270357 -0.0024561154 -0.047419321
v 0.018183639 -0.0023517873 -0.049499817
v 0.016302157 -0.0030829641 -0.047395172
v 0.018224275 -0.0031527606 -0.04946896
v 0.016279203 -0.0037101144 -0.047368917
v 0.018194943 -0.0039541193 -0.049435412
v 0.016201668 -0.0043327933 -0.047340755
v 0.018095871 -0.0047497645 -0.049399427
v 0.016070142 -0.0049462617 -0.047310901
v 0.017927811 -0.0055336409 -0.04936128
v 0.015885627 -0.0055458509 -0.047279582
v 0.017692044 -0.0062997827 -0.049321261
v 0.015649528 -0.0061269979 -0.047247036
v 0.017390361 -0.0070423592 -0.049279675
v 0.015363641 -0.0066852792 -0.047213511
v 0.017025061 -0.0077557189 -0.049236838
v 0.015030141 -0.0072164463 -0.047179263
v 0.016598921 -0.0084344323 -0.049193076
v 0.014651566 -0.0077164569 -0.047144551
v 0.016115187 -0.0090733348 -0.049148722
v 0.014230801 -0.0081815055 -0.04710964
v 0.015577541 -0.0096675633 -0.049104113
v 0.013771043 -0.0086080525 -0.047074796
v 0.014990073 -0.010212596 -0.04905959
v 0.013275793 -0.0089928517 -0.047040284
v 0.014357254 -0.010704284 -0.049015491
v 0.012748822 -0.0093329751 -0.047006366
v 0.0136839 -0.011138886 -0.048972152
v 0.012194138 -0.0096258333 -0.046973301
v 0.012975139 -0.011513093 -0.048929903
v 0.011615963 -0.0098691984 -0.046941341
v 0.012236359 -0.01182406 -0.048889064
v 0.011018698 -0.010061217 -0.046910728
v 0.011473187 -0.012069418 -0.048849947
v 0.010406888 -0.010200429 -0.046881695
v 0.01069143 -0.012247299 -0.04881285
v 0.0097851899 -0.010285774 -0.046854464
v 0.0098970392 -0.012356351 -0.048778055
v 0.0091583349 -0.010316603 -0.046829241
v 0.0090960574 -0.012395745 -0.048745826
v 0.0085310937 -0.010292682 -0.04680622
v 0.0082945839 -0.012365177 -0.04871641
v 0.0079082399 -0.010214192 -0.046785574
v 0.0074987144 -0.012264884 -0.048690029
v 0.0072945149 -0.01008173 -0.046767461
v 0.0067145091 -0.012095628 -0.048666885
v 0.0066945865 -0.0098963051 -0.046752019
v 0.0059479351 -0.011858696 -0.048647153
v 0.0061130248 -0.0096593278 -0.046739366
v 0.0052048273 -0.011555892 -0.048630985
v 0.0055542519 -0.0093726025 -0.046729597
v 0.0044908396 -0.011189521 -0.048618503
v 0.0050225213 -0.0090383103 -0.046722788
v 0.0038114077 -0.01076237 -0.048609802
v 0.0045218821 -0.0086589965 -0.046718989
v 0.0031717009 -0.010277691 -0.048604948
v 0.0040561431 -0.0082375471 -0.04671823
v 0.0025765891 -0.0097391719 -0.048603978
v 0.0036288475 -0.0077771695 -0.046720516
v 0.002030601 -0.0091509121 -0.048606899
v 0.0032432486 -0.007281368 -0.046725831
v 0.0015378921 -0.0085173878 -0.04861369
v 0.0029022813 -0.0067539158 -0.046734133
v 0.0011022118 -0.0078434213 -0.048624299
v 0.0026085397 -0.0061988271 -0.04674536
v 0.00072687511 -0.007134141 -0.048638645
v 0.0023642601 -0.005620326 -0.046759426
v 0.00041474046 -0.0063949453 -0.048656618
v 0.0021713016 -0.0050228159 -0.046776224
v 0.00016818161 -0.0056314602 -0.048678082
v 0.002031132 -0.004410844 -0.046795627
v -1.092427e-05 -0.004849496 -0.048702874
v 0.0019448183 -0.0037890676 -0.046817485
v -0.00012121366 -0.0040550039 -0.048730804
v 0.0019130174 -0.0031622189 -0.046841634
v -0.00016184727 -0.0032540306 -0.048761661
v 0.0065453111 -0.010816321 -0.039197465
v 0.0064880304 -0.010876925 -0.040695145
v 0.0058587431 -0.010536557 -0.039182527
v 0.0058014624 -0.01059716 -0.040680207
v 0.0051990809 -0.010198061 -0.039170995
v 0.0051418003 -0.010258664 -0.040668674
v 0.0045713445 -0.0098034113 -0.039162955
v 0.0045140639 -0.0098640144 -0.040660635
v 0.0039803115 -0.0093556098 -0.039158471
v 0.0039230308 -0.0094162128 -0.04065615
v 0.024038993 -0.0031006375 -0.049192685
v 0.023456235 -0.0018611869 -0.049721326
v 0.023972743 -0.0017947027 -0.049242995
v 0.023282407 -0.00060899833 -0.049765347
v 0.023792923 -0.0004993352 -0.049288535
v 0.023000123 0.00062344524 -0.049804421
v 0.023500902 0.00077560639 -0.049328956
v 0.022611525 0.0018267645 -0.049838251
v 0.023098903 0.0020204192 -0.049363952
v 0.022119573 0.0029918008 -0.049866578
v 0.022589987 0.0032256293 -0.049393256
v 0.02152801 0.004109688 -0.049889188
v 0.021978027 0.0043820644 -0.049416646
v 0.020841338 0.0051719189 -0.049905908
v 0.021267679 0.0054809234 -0.049433942
v 0.020064785 0.0061704075 -0.049916611
v 0.020464346 0.0065138432 -0.049445014
v 0.019204262 0.0070975567 -0.049921216
v 0.019574149 0.0074729629 -0.049449778
v 0.018266313 0.0079463085 -0.049919687
v 0.018603859 0.0083509822 -0.049448197
v 0.017258081 0.008710205 -0.049912037
v 0.017560859 0.00914122 -0.049440283
v 0.016187235 0.0093834323 -0.049898323
v 0.016453089 0.0098376611 -0.049426096
v 0.015061929 0.0099608649 -0.04987865
v 0.015288979 0.010435007 -0.049405744
v 0.013890727 0.01043811 -0.049853167
v 0.014077389 0.010928708 -0.049379383
v 0.012682539 0.010811536 -0.049822069
v 0.01282754 0.01131501 -0.049347212
v 0.011446565 0.011078299 -0.049785592
v 0.011548946 0.011590972 -0.049309478
v 0.010192205 0.01123637 -0.049744014
v 0.010251334 0.011754494 -0.049266466
v 0.0089290115 0.011284545 -0.049697651
v 0.0089445809 0.01180433 -0.049218504
v 0.0076665954 0.011222459 -0.049646856
v 0.0076386326 0.011740104 -0.049165957
v 0.0064145657 0.011050583 -0.049592015
v 0.0063434288 0.011562301 -0.049109226
v 0.0051824485 0.010770226 -0.049533547
v 0.0050688265 0.011272275 -0.049048741
v 0.0039796236 0.01038352 -0.049471895
v 0.0038245242 0.010872236 -0.048984964
v 0.0028152441 0.0098934107 -0.04940753
v 0.0026199944 0.010365226 -0.048918379
v 0.0016981722 0.0093036272 -0.049340941
v 0.0014644028 0.0097551041 -0.048849494
v 0.00063690992 0.0086186563 -0.049272635
v 0.00036654433 0.0090465145 -0.048778832
v -0.00036046795 0.007843713 -0.049203131
v -0.00066522544 0.0082448489 -0.048706931
v -0.0012863684 0.0069846952 -0.049132959
v -0.0016230534 0.0073562097 -0.04863434
v -0.0021337468 0.006048139 -0.049062652
v -0.0024996518 0.0063873585 -0.048561609
v -0.0028961529 0.0050411738 -0.048992747
v -0.0032883478 0.0053456699 -0.048489292
v -0.003567784 0.0039714614 -0.048923774
v -0.0039831388 0.0042390714 -0.048417941
v -0.0041435298 0.0028471448 -0.048856259
v -0.0045787374 0.0030759852 -0.048348098
v -0.0046190075 0.00167678 -0.048790715
v -0.0050706115 0.0018652628 -0.048280294
v -0.0049905993 0.00046927356 -0.048727642
v -0.005455016 0.00061611846 -0.048215046
v -0.0052554756 -0.00076618375 -0.048667519
v -0.0057290268 -0.00066194082 -0.04815285
v -0.0054116219 -0.0020201898 -0.048610804
v -0.0058905572 -0.0019591885 -0.048094179
v -0.00545785 -0.0032832007 -0.048557929
v -0.0059383794 -0.0032657516 -0.048039481
v -0.0053938071 -0.0045456043 -0.048509295
v -0.005872128 -0.0045716863 -0.047989171
v -0.0052199816 -0.0057977928 -0.048465274
v -0.0056923088 -0.0058670539 -0.047943631
v -0.0049376961 -0.0070302364 -0.0484262
v -0.0054002886 -0.0071419955 -0.04790321
v -0.0045490978 -0.0082335557 -0.048392371
v -0.0049982911 -0.0083868083 -0.047868214
v -0.0040571457 -0.009398592 -0.048364043
v -0.0044893745 -0.0095920184 -0.04783891
v -0.0034655829 -0.010516479 -0.048341434
v -0.0038774135 -0.010748453 -0.04781552
v -0.0027789126 -0.01157871 -0.048324714
v -0.0031670648 -0.011847312 -0.047798224
v -0.0020023596 -0.012577199 -0.04831401
v -0.0023637341 -0.012880232 -0.047787152
v -0.0011418342 -0.013504348 -0.048309406
v -0.0014735353 -0.013839352 -0.047782388
v -0.00020388681 -0.0143531 -0.048310934
v -0.00050324495 -0.014717371 -0.047783969
v 0.00080434637 -0.015116996 -0.048318584
v 0.00053975445 -0.015507609 -0.047791883
v 0.0018751897 -0.015790223 -0.048332298
v 0.0016475243 -0.01620405 -0.04780607
v 0.0030004954 -0.016367656 -0.048351972
v 0.0028116336 -0.016801396 -0.047826422
v 0.0041716988 -0.016844901 -0.048377454
v 0.0040232226 -0.017295098 -0.047852783
v 0.0053798859 -0.017218327 -0.048408552
v 0.005273072 -0.017681399 -0.047884954
v 0.0066158626 -0.01748509 -0.048445029
v 0.0065516669 -0.017957361 -0.047922688
v 0.0078702197 -0.017643161 -0.048486608
v 0.0078492785 -0.018120883 -0.0479657
v 0.0091334136 -0.017691336 -0.048532971
v 0.0091560314 -0.018170719 -0.048013662
v 0.01039583 -0.01762925 -0.048583766
v 0.01046198 -0.018106493 -0.048066209
v 0.011647861 -0.017457374 -0.048638606
v 0.011757184 -0.01792869 -0.04812294
v 0.012879977 -0.017177017 -0.048697075
v 0.013031786 -0.017638665 -0.048183425
v 0.014082802 -0.016790312 -0.048758726
v 0.014276088 -0.017238625 -0.048247202
v 0.015247181 -0.016300202 -0.048823091
v 0.015480619 -0.016731616 -0.048313787
v 0.016364253 -0.015710418 -0.04888968
v 0.01663621 -0.016121493 -0.048382672
v 0.017425518 -0.015025448 -0.048957987
v 0.01773407 -0.015412904 -0.048453334
v 0.018422895 -0.014250504 -0.049027491
v 0.018765839 -0.014611238 -0.048525235
v 0.019348796 -0.013391486 -0.049097663
v 0.019723667 -0.013722599 -0.048597826
v 0.020196173 -0.01245493 -0.049167969
v 0.020600264 -0.012753748 -0.048670557
v 0.020958579 -0.011447965 -0.049237875
v 0.021388962 -0.011712059 -0.048742874
v 0.021630211 -0.010378253 -0.049306848
v 0.022083753 -0.01060546 -0.048814225
v 0.022205957 -0.0092539359 -0.049374363
v 0.02267935 -0.0094423743 -0.048884068
v 0.022681434 -0.0080835711 -0.049439907
v 0.023171224 -0.0082316518 -0.048951872
v 0.023053026 -0.0068760647 -0.04950298
v 0.023555629 -0.0069825075 -0.04901712
v 0.023317901 -0.0056406074 -0.049563103
v 0.023829641 -0.0057044482 -0.049079316
v 0.02347405 -0.0043866014 -0.049619818
v 0.023991172 -0.0044072005 -0.049137987
v 0.023520276 -0.0031235905 -0.049672693
v 0.024325397 -0.0027976222 -0.041704284
v 0.024259146 -0.0014916875 -0.041754594
v 0.024079326 -0.00019631996 -0.041800133
v 0.023787305 0.0010786216 -0.041840554
v 0.023385307 0.0023234345 -0.04187555
v 0.022876391 0.0035286446 -0.041904854
v 0.022264431 0.0046850796 -0.041928244
v 0.021554082 0.0057839386 -0.041945541
v 0.02075075 0.0068168585 -0.041956613
v 0.019860553 0.0077759782 -0.041961376
v 0.018890262 0.0086539974 -0.041959795
v 0.017847263 0.0094442352 -0.041951881
v 0.016739492 0.010140676 -0.041937694
v 0.015575383 0.010738022 -0.041917343
v 0.014363793 0.011231724 -0.041890981
v 0.013113944 0.011618025 -0.041858811
v 0.011835349 0.011893988 -0.041821076
v 0.010537737 0.012057509 -0.041778064
v 0.0092309844 0.012107346 -0.041730102
v 0.0079250362 0.012043119 -0.041677555
v 0.0066298324 0.011865316 -0.041620824
v 0.00535523 0.011575291 -0.041560339
v 0.0041109277 0.011175251 -0.041496562
v 0.0029063979 0.010668242 -0.041429977
v 0.0017508063 0.010058119 -0.041361092
v 0.00065294786 0.0093495297 -0.04129043
v -0.00037882191 0.0085478641 -0.04121853
v -0.0013366499 0.0076592249 -0.041145938
v -0.0022132483 0.0066903738 -0.041073207
v -0.0030019443 0.0056486851 -0.041000891
v -0.0036967352 0.0045420867 -0.04092954
v -0.0042923338 0.0033790004 -0.040859696
v -0.0047842079 0.002168278 -0.040791893
v -0.0051686125 0.0009191337 -0.040726644
v -0.0054426233 -0.00035892557 -0.040664448
v -0.0056041536 -0.0016561733 -0.040605778
v -0.0056519759 -0.0029627363 -0.040551079
v -0.0055857245 -0.0042686711 -0.040500769
v -0.0054059053 -0.0055640386 -0.04045523
v -0.005113885 -0.0068389802 -0.040414808
v -0.0047118876 -0.008083793 -0.040379812
v -0.004202971 -0.0092890032 -0.040350508
v -0.00359101 -0.010445438 -0.040327119
v -0.0028806613 -0.011544297 -0.040309822
v -0.0020773305 -0.012577217 -0.04029875
v -0.0011871318 -0.013536337 -0.040293986
v -0.00021684142 -0.014414356 -0.040295568
v 0.00082615798 -0.015204594 -0.040303482
v 0.0019339278 -0.015901035 -0.040317669
v 0.0030980372 -0.016498381 -0.04033802
v 0.0043096262 -0.016992082 -0.040364381
v 0.0055594756 -0.017378384 -0.040396552
v 0.0068380705 -0.017654346 -0.040434287
v 0.0081356821 -0.017817868 -0.040477299
v 0.0094424349 -0.017867704 -0.040525261
v 0.010748383 -0.017803477 -0.040577807
v 0.012043587 -0.017625674 -0.040634539
v 0.01331819 -0.017335649 -0.040695023
v 0.014562491 -0.01693561 -0.040758801
v 0.015767022 -0.0164286 -0.040825385
v 0.016922614 -0.015818478 -0.040894271
v 0.018020473 -0.015109888 -0.040964933
v 0.019052243 -0.014308223 -0.041036833
v 0.020010071 -0.013419583 -0.041109425
v 0.020886667 -0.012450732 -0.041182156
v 0.021675365 -0.011409044 -0.041254472
v 0.022370156 -0.010302445 -0.041325823
v 0.022965754 -0.009139359 -0.041395666
v 0.023457627 -0.0079286366 -0.04146347
v 0.023842032 -0.0066794923 -0.041528718
v 0.024116044 -0.005401433 -0.041590914
v 0.024277576 -0.0041041853 -0.041649585
v 0.003343408 -0.010124555 -0.039102996
v 0.0040039744 -0.010625039 -0.039108009
v 0.004705562 -0.011066118 -0.039116994
v 0.0054428303 -0.011444436 -0.039129883
v 0.0062101716 -0.011757115 -0.039146579
v 0.01653128 -0.0028405519 -0.04140445
v 0.016508326 -0.0034677022 -0.041378195
v 0.016430791 -0.0040903811 -0.041350033
v 0.016299265 -0.0047038495 -0.041320179
v 0.01611475 -0.0053034387 -0.04128886
v 0.015878651 -0.0058845857 -0.041256314
v 0.0061528909 -0.011817718 -0.040644258
v 0.0053855497 -0.011505039 -0.040627563
v 0.010636011 -0.0099580172 -0.040890973
v 0.010014313 -0.010043362 -0.040863742
v 0.015835757 0.00019605629 -0.041500724
v 0.016080036 -0.00038244478 -0.041486658
v 0.013504916 -0.0087504395 -0.041049562
v 0.014000166 -0.0083656403 -0.041084074
v 0.014459924 -0.0079390933 -0.041118918
v 0.012977945 -0.0090905629 -0.041015644
v 0.012423261 -0.0093834211 -0.040982579
v 0.011845085 -0.0096267862 -0.040950619
v 0.0032861273 -0.010185158 -0.040600676
v 0.0039466937 -0.010685642 -0.040605688
v 0.0046482814 -0.011126721 -0.040614673
v 0.0037927299 0.0017136861 -0.041101534
v 0.0038312419 0.003595712 -0.041179162
v 0.0034141556 0.0012136755 -0.041066822
v 0.003080656 0.00068250839 -0.041032573
v 0.0060270486 0.0060215934 -0.041361306
v 0.015542016 0.00075114502 -0.041511951
v 0.015592764 -0.006442867 -0.041222789
v 0.015259263 -0.0069740341 -0.041188541
v 0.014880689 -0.0074740446 -0.041153829
v 0.0063754346 0.005084565 -0.041336714
v 0.011247821 -0.0098188048 -0.040920005
v 0.0042852659 -0.0079951349 -0.040727508
v 0.0038579704 -0.0075347573 -0.040729794
v 0.0093874578 -0.010074191 -0.040838519
v 0.0087602166 -0.01005027 -0.040815498
v 0.0081373628 -0.0099717796 -0.040794852
v 0.0075236378 -0.0098393175 -0.040776739
v 0.0069237094 -0.0096538929 -0.040761297
v 0.0063421476 -0.0094169156 -0.040748644
v 0.0057833748 -0.0091301903 -0.040738875
v 0.0052516442 -0.0087958981 -0.040732066
v 0.004751005 -0.0084165843 -0.040728267
v 0.0052641781 0.0057004867 -0.041319135
v 0.0045323044 0.0053140767 -0.041275508
v 0.003836994 0.004865303 -0.041230756
v 0.0031835397 0.0043575817 -0.041185219
v 0.010536057 0.004211421 -0.041460511
v 0.011149783 0.0040789589 -0.041478623
v 0.01174971 0.0038935343 -0.041494065
v 0.012331274 0.003656557 -0.041506719
v 0.0025586692 -0.00045691988 -0.040966503
v 0.0027947684 0.00012422709 -0.040999049
v 0.01649948 -0.0022137032 -0.041428599
v 0.016413166 -0.0015919268 -0.041450458
v 0.016272996 -0.00097995489 -0.04146986
v 0.0074255999 0.0040584463 -0.041335357
v 0.0080374085 0.0041976586 -0.04136439
v 0.012890047 0.0033698317 -0.041516488
v 0.013421775 0.0030355395 -0.041523297
v 0.013922415 0.0026562257 -0.041527096
v 0.0034723715 -0.0070389558 -0.040735109
v 0.0031314041 -0.0065115036 -0.040743411
v 0.0028376625 -0.0059564149 -0.040754638
v 0.002593383 -0.0053779138 -0.040768704
v 0.0024004244 -0.0047804037 -0.040785502
v 0.0022602549 -0.0041684318 -0.040804905
v 0.0021739412 -0.0035466554 -0.040826763
v 0.0021421403 -0.0029198067 -0.040850912
v 0.0021650952 -0.0022926564 -0.040877168
v 0.0022426302 -0.0016699775 -0.040905329
v 0.0023741553 -0.0010565091 -0.040935184
v 0.0042134972 0.0021787348 -0.041136444
v 0.0046732543 0.0026052817 -0.041171289
v 0.0044159115 0.0040499893 -0.041219906
v 0.0051685033 0.0029900809 -0.041205801
v 0.0050380314 0.0044515236 -0.041259947
v 0.0056954765 0.0033302043 -0.041239718
v 0.0056928669 0.0047972592 -0.041298982
v 0.0062501608 0.0036230625 -0.041272783
v 0.0068283341 0.0038664276 -0.041304744
v 0.0086591065 0.0042830036 -0.041391621
v 0.0092859616 0.0043138327 -0.041416843
v 0.0099132028 0.0042899111 -0.041439865
v 0.014815449 0.0017743987 -0.041525568
v 0.015201048 0.0012785972 -0.041520254
v 0.014388155 0.0022347763 -0.041527855
v 0.0038885225 0.0036563151 -0.039681482
v 0.0032408204 0.0044181847 -0.039687539
v 0.0044731921 0.0041105923 -0.039722226
v 0.0050953121 0.0045121266 -0.039762268
v 0.0057501475 0.0048578622 -0.039801303
v 0.0064327153 0.005145168 -0.039839034
v 0.0060843292 0.0060821964 -0.039863626
v 0.0053214588 0.0057610897 -0.039821456
v 0.0045895851 0.0053746797 -0.039777828
v 0.0038942747 0.004925906 -0.039733076
f 1 2 3
f 2 4 3
f 3 4 5
f 4 6 5
f 5 6 7
f 6 8 7
f 7 8 9
f 8 10 9
f 9 11 7
f 11 12 7
f 7 12 5
f 12 13 5
f 5 13 3
f 13 14 3
f 3 14 1
f 14 15 1
f 2 16 17
f 2 17 4
f 17 18 4
f 4 18 6
f 18 19 6
f 6 19 8
f 19 20 8
f 8 20 10
f 21 22 23
f 22 24 23
f 23 24 25
f 24 26 25
f 25 26 27
f 26 28 27
f 27 28 29
f 28 30 29
f 29 30 31
f 30 32 31
f 31 32 33
f 32 34 33
f 33 34 35
f 34 36 35
f 35 36 37
f 36 38 37
f 37 38 39
f 38 40 39
f 39 40 41
f 40 42 41
f 41 42 43
f 42 44 43
f 43 44 45
f 44 46 45
f 45 46 47
f 46 48 47
f 47 48 49
f 48 50 49
f 49 50 51
f 50 52 51
f 51 52 53
f 52 54 53
f 53 54 55
f 54 56 55
f 55 56 57
f 56 58 57
f 57 58 59
f 58 60 59
f 59 60 61
f 60 62 61
f 61 62 63
f 62 64 63
f 63 64 65
f 64 66 65
f 65 66 67
f 66 68 67
f 67 68 69
f 68 70 69
f 69 70 71
f 70 72 71
f 71 72 73
f 72 74 73
f 73 74 75
f 74 76 75
f 75 76 77
f 76 78 77
f 77 78 79
f 78 80 79
f 79 80 81
f 80 82 81
f 81 82 83
f 82 84 83
f 83 84 85
f 84 86 85
f 85 86 87
f 86 88 87
f 87 88 89
f 88 90 89
f 89 90 91
f 90 92 91
f 91 92 93
f 92 94 93
f 93 94 95
f 94 96 95
f 95 96 97
f 96 98 97
f 97 98 99
f 98 100 99
f 99 100 101
f 100 102 101
f 101 102 103
f 102 104 103
f 103 104 105
f 104 106 105
f 105 106 107
f 106 108 107
f 107 108 109
f 108 110 109
f 109 110 111
f 110 112 111
f 111 112 113
f 112 114 113
f 113 114 115
f 114 116 115
f 115 116 117
f 116 118 117
f 117 118 119
f 118 120 119
f 119 120 121
f 120 122 121
f 121 122 123
f 122 124 123
f 123 124 125
f 124 126 125
f 125 126 127
f 126 128 127
f 127 128 129
f 128 130 129
f 129 130 131
f 130 132 131
f 131 132 133
f 132 134 133
f 133 134 135
f 134 136 135
f 135 136 137
f 136 138 137
f 137 138 139
f 138 140 139
f 139 140 141
f 140 142 141
f 141 142 143
f 142 144 143
f 143 144 145
f 144 146 145
f 145 146 147
f 146 148 147
f 147 148 149
f 148 150 149
f 149 150 151
f 150 152 151
f 151 152 153
f 152 154 153
f 153 154 155
f 154 156 155
f 155 156 157
f 156 158 157
f 157 158 159
f 158 160 159
f 159 160 161
f 160 162 161
f 161 162 163
f 162 164 163
f 163 164 21
f 164 22 21
f 165 166 167
f 166 168 167
f 167 168 169
f 168 170 169
f 169 170 171
f 170 172 171
f 171 172 173
f 172 174 173
f 2 1 16
f 1 15 16
f 175 176 177
f 176 178 177
f 177 178 179
f 178 180 179
f 179 180 181
f 180 182 181
f 181 182 183
f 182 184 183
f 183 184 185
f 184 186 185
f 185 186 187
f 186 188 187
f 187 188 189
f 188 190 189
f 189 190 191
f 190 192 191
f 191 192 193
f 192 194 193
f 193 194 195
f 194 196 195
f 195 196 197
f 196 198 197
f 197 198 199
f 198 200 199
f 199 200 201
f 200 202 201
f 201 202 203
f 202 204 203
f 203 204 205
f 204 206 205
f 205 206 207
f 206 208 207
f 207 208 209
f 208 210 209
f 209 210 211
f 210 212 211
f 211 212 213
f 212 214 213
f 213 214 215
f 214 216 215
f 215 216 217
f 216 218 217
f 217 218 219
f 218 220 219
f 219 220 221
f 220 222 221
f 221 222 223
f 222 224 223
f 223 224 225
f 224 226 225
f 225 226 227
f 226 228 227
f 227 228 229
f 228 230 229
f 229 230 231
f 230 232 231
f 231 232 233
f 232 234 233
f 233 234 235
f 234 236 235
f 235 236 237
f 236 238 237
f 237 238 239
f 238 240 239
f 239 240 241
f 240 242 241
f 241 242 243
f 242 244 243
f 243 244 245
f 244 246 245
f 245 246 247
f 246 248 247
f 247 248 249
f 248 250 249
f 249 250 251
f 250 252 251
f 251 252 253
f 252 254 253
f 253 254 255
f 254 256 255
f 255 256 257
f 256 258 257
f 257 258 259
f 258 260 259
f 259 260 261
f 260 262 261
f 261 262 263
f 262 264 263
f 263 264 265
f 264 266 265
f 265 266 267
f 266 268 267
f 267 268 269
f 268 270 269
f 269 270 271
f 270 272 271
f 271 272 273
f 272 274 273
f 273 274 275
f 274 276 275
f 275 276 277
f 276 278 277
f 277 278 279
f 278 280 279
f 279 280 281
f 280 282 281
f 281 282 283
f 282 284 283
f 283 284 285
f 284 286 285
f 285 286 287
f 286 288 287
f 287 288 289
f 288 290 289
f 289 290 291
f 290 292 291
f 291 292 293
f 292 294 293
f 293 294 295
f 294 296 295
f 295 296 297
f 296 298 297
f 297 298 299
f 298 300 299
f 299 300 301
f 300 302 301
f 301 302 303
f 302 304 303
f 303 304 305
f 304 306 305
f 305 306 307
f 306 308 307
f 307 308 309
f 308 310 309
f 309 310 311
f 310 312 311
f 311 312 313
f 312 314 313
f 313 314 315
f 314 316 315
f 315 316 317
f 316 318 317
f 317 318 175
f 318 176 175
f 9 10 11
f 10 20 11
f 319 177 320
f 177 179 320
f 320 179 321
f 179 181 321
f 321 181 322
f 181 183 322
f 322 183 323
f 183 185 323
f 323 185 324
f 185 187 324
f 324 187 325
f 187 189 325
f 325 189 326
f 189 191 326
f 326 191 327
f 191 193 327
f 327 193 328
f 193 195 328
f 328 195 329
f 195 197 329
f 329 197 330
f 197 199 330
f 330 199 331
f 199 201 331
f 331 201 332
f 201 203 332
f 332 203 333
f 203 205 333
f 333 205 334
f 205 207 334
f 334 207 335
f 207 209 335
f 335 209 336
f 209 211 336
f 336 211 337
f 211 213 337
f 337 213 338
f 213 215 338
f 338 215 339
f 215 217 339
f 339 217 340
f 217 219 340
f 340 219 341
f 219 221 341
f 341 221 342
f 221 223 342
f 342 223 343
f 223 225 343
f 343 225 344
f 225 227 344
f 344 227 345
f 227 229 345
f 345 229 346
f 229 231 346
f 346 231 347
f 231 233 347
f 347 233 348
f 233 235 348
f 348 235 349
f 235 237 349
f 349 237 350
f 237 239 350
f 350 239 351
f 239 241 351
f 351 241 352
f 241 243 352
f 352 243 353
f 243 245 353
f 353 245 354
f 245 247 354
f 354 247 355
f 247 249 355
f 355 249 356
f 249 251 356
f 356 251 357
f 251 253 357
f 357 253 358
f 253 255 358
f 358 255 359
f 255 257 359
f 359 257 360
f 257 259 360
f 360 259 361
f 259 261 361
f 361 261 362
f 261 263 362
f 362 263 363
f 263 265 363
f 363 265 364
f 265 267 364
f 364 267 365
f 267 269 365
f 365 269 366
f 269 271 366
f 366 271 367
f 271 273 367
f 367 273 368
f 273 275 368
f 368 275 369
f 275 277 369
f 369 277 370
f 277 279 370
f 370 279 371
f 279 281 371
f 371 281 372
f 281 283 372
f 372 283 373
f 283 285 373
f 373 285 374
f 285 287 374
f 374 287 375
f 287 289 375
f 375 289 376
f 289 291 376
f 376 291 377
f 291 293 377
f 377 293 378
f 293 295 378
f 378 295 379
f 295 297 379
f 379 297 380
f 297 299 380
f 380 299 381
f 299 301 381
f 381 301 382
f 301 303 382
f 382 303 383
f 303 305 383
f 383 305 384
f 305 307 384
f 384 307 385
f 307 309 385
f 385 309 386
f 309 311 386
f 386 311 387
f 311 313 387
f 387 313 388
f 313 315 388
f 388 315 389
f 315 317 389
f 389 317 390
f 317 175 390
f 390 175 319
f 175 177 319
f 173 391 171
f 391 392 171
f 171 392 169
f 392 393 169
f 169 393 167
f 393 394 167
f 167 394 165
f 394 395 165
f 386 387 16
f 387 388 16
f 388 389 16
f 16 389 17
f 389 390 17
f 17 390 18
f 390 319 18
f 18 319 19
f 319 320 19
f 19 320 20
f 320 321 20
f 373 374 15
f 374 375 15
f 15 375 376
f 382 383 15
f 383 384 15
f 15 384 16
f 384 385 16
f 16 385 386
f 396 397 15
f 397 398 15
f 398 399 15
f 399 400 15
f 15 400 401
f 370 402 369
f 402 403 369
f 166 404 405
f 406 407 11
f 321 322 20
f 322 323 20
f 20 323 324
f 376 377 15
f 377 378 15
f 15 378 379
f 379 380 15
f 380 381 15
f 15 381 382
f 408 373 409
f 373 410 409
f 408 411 373
f 411 412 373
f 373 412 413
f 370 371 402
f 371 372 402
f 402 372 373
f 363 364 414
f 364 365 414
f 414 365 415
f 365 366 415
f 415 366 416
f 366 367 416
f 416 367 403
f 367 368 403
f 403 368 369
f 417 418 419
f 418 420 419
f 421 338 339
f 406 11 422
f 401 423 15
f 423 424 15
f 15 424 373
f 424 425 373
f 373 425 410
f 327 328 426
f 328 329 426
f 426 329 330
f 166 402 404
f 402 373 404
f 404 373 427
f 373 413 427
f 428 429 174
f 429 361 174
f 174 361 414
f 361 362 414
f 414 362 363
f 405 430 166
f 430 431 166
f 166 431 432
f 432 433 166
f 433 434 166
f 166 434 168
f 434 435 168
f 168 435 170
f 435 436 170
f 170 436 172
f 436 437 172
f 172 437 174
f 437 438 174
f 174 438 428
f 339 340 421
f 340 341 421
f 421 341 439
f 341 342 439
f 439 342 440
f 342 343 440
f 440 343 441
f 343 344 441
f 441 344 442
f 344 345 442
f 426 333 334
f 443 444 327
f 444 445 327
f 327 445 446
f 442 447 418
f 447 448 418
f 418 448 420
f 345 346 442
f 346 347 442
f 442 347 348
f 15 14 396
f 14 13 396
f 396 13 449
f 13 12 449
f 449 12 450
f 12 11 450
f 450 11 451
f 11 407 451
f 330 331 426
f 331 332 426
f 426 332 333
f 334 335 426
f 335 336 426
f 426 336 421
f 336 337 421
f 421 337 338
f 452 453 426
f 446 454 327
f 454 455 327
f 327 455 456
f 429 457 361
f 457 458 361
f 361 458 360
f 458 459 360
f 360 459 359
f 459 460 359
f 359 460 358
f 460 461 358
f 358 461 357
f 461 462 357
f 357 462 356
f 462 463 356
f 356 463 355
f 463 464 355
f 355 464 354
f 464 465 354
f 354 465 353
f 465 466 353
f 353 466 352
f 466 467 352
f 352 467 351
f 467 447 351
f 351 447 350
f 447 442 350
f 350 442 349
f 442 348 349
f 417 468 418
f 468 469 418
f 418 469 470
f 469 471 470
f 470 471 472
f 471 473 472
f 472 473 474
f 473 475 474
f 474 475 426
f 475 476 426
f 426 476 452
f 453 477 426
f 477 478 426
f 426 478 327
f 478 479 327
f 327 479 443
f 20 480 11
f 480 481 11
f 11 481 422
f 456 482 327
f 482 480 327
f 327 480 326
f 480 20 326
f 326 20 325
f 20 324 325
f 483 484 418
f 484 442 418
f 483 418 485
f 418 470 485
f 485 470 486
f 470 472 486
f 486 472 487
f 472 474 487
f 487 474 488
f 474 426 488
f 84 182 86
f 182 180 86
f 86 180 88
f 180 178 88
f 88 178 90
f 178 176 90
f 90 176 92
f 176 318 92
f 92 318 94
f 318 316 94
f 94 316 96
f 316 314 96
f 96 314 98
f 314 312 98
f 98 312 100
f 312 310 100
f 100 310 102
f 310 308 102
f 102 308 104
f 308 306 104
f 104 306 106
f 306 304 106
f 106 304 108
f 304 302 108
f 108 302 110
f 302 300 110
f 110 300 112
f 300 298 112
f 112 298 114
f 298 296 114
f 114 296 116
f 296 294 116
f 116 294 118
f 294 292 118
f 118 292 120
f 292 290 120
f 120 290 122
f 290 288 122
f 122 288 124
f 288 286 124
f 124 286 126
f 286 284 126
f 126 284 128
f 284 282 128
f 128 282 130
f 282 280 130
f 130 280 132
f 280 278 132
f 132 278 134
f 278 276 134
f 134 276 136
f 276 274 136
f 136 274 138
f 274 272 138
f 138 272 140
f 272 270 140
f 140 270 142
f 270 268 142
f 142 268 144
f 268 266 144
f 144 266 146
f 266 264 146
f 146 264 148
f 264 262 148
f 148 262 150
f 262 260 150
f 150 260 152
f 260 258 152
f 152 258 154
f 258 256 154
f 154 256 156
f 256 254 156
f 156 254 158
f 254 252 158
f 158 252 160
f 252 250 160
f 160 250 162
f 250 248 162
f 162 248 164
f 248 246 164
f 164 246 22
f 246 244 22
f 22 244 24
f 244 242 24
f 24 242 26
f 242 240 26
f 26 240 28
f 240 238 28
f 28 238 30
f 238 236 30
f 30 236 32
f 236 234 32
f 32 234 34
f 234 232 34
f 34 232 36
f 232 230 36
f 36 230 38
f 230 228 38
f 38 228 40
f 228 226 40
f 40 226 42
f 226 224 42
f 42 224 44
f 224 222 44
f 44 222 46
f 222 220 46
f 46 220 48
f 220 218 48
f 48 218 50
f 218 216 50
f 50 216 52
f 216 214 52
f 52 214 54
f 214 212 54
f 54 212 56
f 212 210 56
f 56 210 58
f 210 208 58
f 58 208 60
f 208 206 60
f 60 206 62
f 206 204 62
f 62 204 64
f 204 202 64
f 64 202 66
f 202 200 66
f 66 200 68
f 200 198 68
f 68 198 70
f 198 196 70
f 70 196 72
f 196 194 72
f 72 194 74
f 194 192 74
f 74 192 76
f 192 190 76
f 76 190 78
f 190 188 78
f 78 188 80
f 188 186 80
f 80 186 82
f 186 184 82
f 82 184 84
f 184 182 84
f 489 421 439
f 489 439 490
f 439 440 490
f 490 440 491
f 440 441 491
f 491 441 492
f 441 442 492
f 492 442 484
f 489 488 421
f 488 426 421
f 488 489 487
f 489 490 487
f 487 490 486
f 490 491 486
f 486 491 485
f 491 492 485
f 485 492 483
f 492 484 483
f 165 395 166
f 395 402 166
f 91 396 89
f 396 449 89
f 89 449 87
f 449 450 87
f 87 450 85
f 450 451 85
f 85 451 83
f 451 407 83
f 83 407 81
f 407 406 81
f 81 406 79
f 406 422 79
f 79 422 77
f 422 481 77
f 77 481 75
f 481 480 75
f 75 480 73
f 480 482 73
f 73 482 71
f 482 456 71
f 71 456 69
f 456 455 69
f 69 455 67
f 455 454 67
f 67 454 65
f 454 446 65
f 65 446 63
f 446 445 63
f 63 445 61
f 445 444 61
f 61 444 59
f 444 443 59
f 59 443 57
f 443 479 57
f 57 479 55
f 479 478 55
f 55 478 53
f 478 477 53
f 53 477 51
f 477 453 51
f 51 453 49
f 453 452 49
f 49 452 47
f 452 476 47
f 47 476 45
f 476 475 45
f 45 475 43
f 475 473 43
f 43 473 41
f 473 471 41
f 41 471 39
f 471 469 39
f 39 469 37
f 469 468 37
f 37 468 35
f 468 417 35
f 35 417 33
f 417 419 33
f 33 419 31
f 419 420 31
f 31 420 29
f 420 448 29
f 29 448 27
f 448 447 27
f 27 447 25
f 447 467 25
f 25 467 23
f 467 466 23
f 23 466 21
f 466 465 21
f 21 465 163
f 465 464 163
f 163 464 161
f 464 463 161
f 161 463 159
f 463 462 159
f 159 462 157
f 462 461 157
f 157 461 155
f 461 460 155
f 155 460 153
f 460 459 153
f 153 459 151
f 459 458 151
f 151 458 149
f 458 457 149
f 149 457 147
f 457 429 147
f 147 429 145
f 429 428 145
f 145 428 143
f 428 438 143
f 143 438 141
f 438 437 141
f 141 437 139
f 437 436 139
f 139 436 137
f 436 435 137
f 137 435 135
f 435 434 135
f 135 434 133
f 434 433 133
f 133 433 131
f 433 432 131
f 131 432 129
f 432 431 129
f 129 431 127
f 431 430 127
f 127 430 125
f 430 405 125
f 125 405 123
f 405 404 123
f 123 404 121
f 404 427 121
f 121 427 119
f 427 413 119
f 119 413 117
f 413 412 117
f 117 412 115
f 412 411 115
f 115 411 113
f 411 408 113
f 113 408 111
f 408 409 111
f 111 409 109
f 409 410 109
f 109 410 107
f 410 425 107
f 107 425 105
f 425 424 105
f 105 424 103
f 424 423 103
f 103 423 101
f 423 401 101
f 101 401 99
f 401 400 99
f 99 400 97
f 400 399 97
f 97 399 95
f 399 398 95
f 95 398 93
f 398 397 93
f 93 397 91
f 397 396 91
f 391 414 415
f 391 415 392
f 415 416 392
f 392 416 393
f 416 403 393
f 393 403 394
f 403 402 394
f 394 402 395
f 391 173 414
f 173 174 414
