# generated by mjcf2godot
v 0.0090121195 -0.0032235965 -0.049614534
v 0.010223689 -0.0033205637 -0.04960429
v 0.010210612 -0.0034255845 -0.049599541
v 0.010227561 -0.0032147887 -0.049608719
v 0.010157309 -0.0036301783 -0.049589223
v 0.010117489 -0.0037281943 -0.049583734
v 0.010188429 -0.0035290518 -0.049594505
v 0.010013023 -0.0039119403 -0.049572303
v 0.009949173 -0.003996272 -0.049566449
v 0.010069271 -0.0038223539 -0.04957808
v 0.009800664 -0.0041466481 -0.049554684
v 0.0097171354 -0.0042115483 -0.049548863
v 0.0098782066 -0.0040747069 -0.049560561
v 0.0095347037 -0.0043183066 -0.049537566
v 0.009437189 -0.0043593526 -0.049532175
v 0.0096282565 -0.0042689132 -0.049543143
v 0.0092332669 -0.0044152178 -0.049522116
v 0.0091284116 -0.0044296121 -0.049517523
v 0.0093364545 -0.0043917384 -0.049527012
v 0.0089168962 -0.0044307771 -0.049509386
v 0.0088118459 -0.004417539 -0.049505904
v 0.0090226865 -0.0044348118 -0.049513269
v 0.0086071516 -0.0043639244 -0.049500245
v 0.0085090654 -0.0043239558 -0.04949811
v 0.0087083351 -0.004395198 -0.049502849
v 0.0083251417 -0.0042192153 -0.049495314
v 0.008240704 -0.0041552403 -0.049494674
v 0.008414823 -0.0042755968 -0.049496463
v 0.008090085 -0.0040065117 -0.049494931
v 0.0080250501 -0.00392289 -0.049495828
v 0.0081621525 -0.0040841588 -0.049494546
v 0.0079180004 -0.003740309 -0.049499121
v 0.0078768002 -0.0036427393 -0.049501494
v 0.0079675427 -0.0038339301 -0.049497228
v 0.0078206149 -0.0034387485 -0.049507599
v 0.0078060573 -0.0033338799 -0.049511286
v 0.0078442558 -0.0035419634 -0.049504327
v 0.0078045653 -0.0031223809 -0.049519787
v 0.0078176423 -0.0030173601 -0.049524537
v 0.0078006938 -0.0032281558 -0.049515359
v 0.0078709454 -0.0028127662 -0.049534854
v 0.0079107659 -0.0027147502 -0.049540344
v 0.0078398253 -0.0029138927 -0.049529572
v 0.0080152315 -0.0025310042 -0.049551774
v 0.0080790816 -0.0024466726 -0.049557629
v 0.0079589836 -0.0026205906 -0.049545998
v 0.0082275906 -0.0022962964 -0.049569394
v 0.0083111192 -0.0022313963 -0.049575214
v 0.008150048 -0.0023682377 -0.049563517
v 0.0084935509 -0.0021246379 -0.049586512
v 0.0085910656 -0.002083592 -0.049591902
v 0.0083999981 -0.0021740313 -0.049580935
v 0.0087949877 -0.0020277267 -0.049601962
v 0.008899843 -0.0020133324 -0.049606555
v 0.0086918001 -0.0020512061 -0.049597065
v 0.0091113584 -0.0020121674 -0.049614692
v 0.0092164087 -0.0020254055 -0.049618174
v 0.0090055681 -0.0020081328 -0.049610809
v 0.009421103 -0.0020790202 -0.049623833
v 0.0095191892 -0.0021189887 -0.049625967
v 0.0093199195 -0.0020477465 -0.049621229
v 0.0097031129 -0.0022237292 -0.049628763
v 0.0097875506 -0.0022877042 -0.049629404
v 0.0096134316 -0.0021673477 -0.049627615
v 0.0099381696 -0.0024364328 -0.049629146
v 0.010003204 -0.0025200545 -0.04962825
v 0.0098661021 -0.0023587857 -0.049629532
v 0.010110254 -0.0027026355 -0.049624956
v 0.010151454 -0.0028002053 -0.049622584
v 0.010060712 -0.0026090144 -0.04962685
v 0.01020764 -0.0030041961 -0.049616478
v 0.010222197 -0.0031090647 -0.049612792
v 0.010183999 -0.0029009811 -0.049619751
v 0.011430207 -0.0034125567 -0.049489133
v 0.011404151 -0.0036218123 -0.049479669
v 0.011359951 -0.0038279727 -0.049469637
v 0.011297943 -0.0040294688 -0.049459112
v 0.011218601 -0.0042247673 -0.049448174
v 0.011122526 -0.0044123817 -0.049436908
v 0.011010451 -0.0045908841 -0.049425399
v 0.010883229 -0.0047589162 -0.049413733
v 0.010741827 -0.0049151989 -0.049402001
v 0.010587322 -0.0050585431 -0.049390292
v 0.01042089 -0.0051878575 -0.049378694
v 0.010243798 -0.0053021583 -0.049367295
v 0.010057392 -0.0054005755 -0.049356184
v 0.0098630925 -0.0054823599 -0.049345443
v 0.0096623775 -0.0055468892 -0.049335155
v 0.0094567747 -0.0055936724 -0.049325399
v 0.0092478487 -0.0056223533 -0.049316248
v 0.0090371898 -0.0056327136 -0.049307771
v 0.008826401 -0.0056246746 -0.049300035
v 0.0086170867 -0.0055982973 -0.049293097
v 0.0084108398 -0.0055537826 -0.04928701
v 0.00820923 -0.0054914693 -0.04928182
v 0.0080137917 -0.0054118316 -0.049277568
v 0.0078260123 -0.0053154753 -0.049274285
v 0.0076473209 -0.0052031342 -0.049271997
v 0.0074790774 -0.0050756631 -0.04927072
v 0.0073225623 -0.0049340321 -0.049270465
v 0.0071789668 -0.0047793191 -0.049271234
v 0.0070493838 -0.0046127015 -0.04927302
v 0.0069347992 -0.0044354475 -0.04927581
v 0.0068360853 -0.004248906 -0.049279583
v 0.0067539934 -0.0040544967 -0.04928431
v 0.0066891483 -0.0038536993 -0.049289955
v 0.0066420432 -0.0036480418 -0.049296475
v 0.0066130369 -0.0034390895 -0.049303821
v 0.0066023502 -0.0032284326 -0.049311936
v 0.0066100642 -0.0030176744 -0.049320759
v 0.0066361204 -0.0028084188 -0.049330223
v 0.0066803203 -0.0026022585 -0.049340256
v 0.0067423276 -0.0024007623 -0.049350781
v 0.0068216704 -0.0022054639 -0.049361718
v 0.006917745 -0.0020178495 -0.049372985
v 0.0070298199 -0.0018393471 -0.049384494
v 0.0071570422 -0.001671315 -0.049396159
v 0.007298444 -0.0015150322 -0.049407891
v 0.0074529487 -0.0013716881 -0.049419601
v 0.0076193808 -0.0012423737 -0.049431199
v 0.0077964734 -0.0011280729 -0.049442597
v 0.0079828789 -0.0010296557 -0.049453709
v 0.0081771785 -0.00094787124 -0.04946445
v 0.0083778935 -0.00088334198 -0.049474737
v 0.0085834963 -0.00083655879 -0.049484494
v 0.0087924223 -0.00080787787 -0.049493645
v 0.0090030812 -0.00079751758 -0.049502121
v 0.00921387 -0.00080555655 -0.049509858
v 0.0094231843 -0.00083193383 -0.049516796
v 0.0096294312 -0.00087644857 -0.049522883
v 0.009831041 -0.00093876184 -0.049528072
v 0.010026479 -0.0010183996 -0.049532324
v 0.010214259 -0.0011147558 -0.049535607
v 0.01039295 -0.001227097 -0.049537896
v 0.010561194 -0.001354568 -0.049539172
v 0.010717709 -0.0014961991 -0.049539427
v 0.010861304 -0.001650912 -0.049538659
v 0.010990887 -0.0018175297 -0.049536873
v 0.011105472 -0.0019947837 -0.049534083
v 0.011204186 -0.0021813252 -0.04953031
v 0.011286278 -0.0023757344 -0.049525583
v 0.011351123 -0.0025765319 -0.049519938
v 0.011398228 -0.0027821894 -0.049513418
v 0.011427234 -0.0029911416 -0.049506072
v 0.011437921 -0.0032017985 -0.049497957
v 0.012622642 -0.0034988871 -0.049269923
v 0.012583802 -0.0038108114 -0.049255815
v 0.012517916 -0.0041181218 -0.04924086
v 0.012425486 -0.0044184795 -0.049225171
v 0.012307214 -0.0047095987 -0.049208868
v 0.012164002 -0.0049892639 -0.049192074
v 0.011996939 -0.0052553463 -0.049174917
v 0.011807296 -0.0055058212 -0.049157529
v 0.011596518 -0.0057387823 -0.049140041
v 0.011366207 -0.0059524564 -0.049122586
v 0.011118117 -0.0061452173 -0.049105297
v 0.010854136 -0.0063155984 -0.049088307
v 0.010576273 -0.0064623028 -0.049071743
v 0.010286643 -0.0065842137 -0.049055733
v 0.0099874494 -0.0066804035 -0.049040398
v 0.0096809701 -0.0067501403 -0.049025854
v 0.0093695372 -0.006792893 -0.049012213
v 0.009055521 -0.0068083366 -0.048999578
v 0.0087413113 -0.0067963532 -0.048988045
v 0.0084292995 -0.0067570344 -0.048977703
v 0.0081218601 -0.006690679 -0.04896863
v 0.007821333 -0.0065977926 -0.048960894
v 0.0075300053 -0.0064790815 -0.048954556
v 0.0072500942 -0.0063354493 -0.048949662
v 0.0069837301 -0.0061679893 -0.048946251
v 0.00673294 -0.0059779763 -0.048944348
v 0.0064996327 -0.0057668557 -0.048943968
v 0.0062855837 -0.0055362345 -0.048945113
v 0.0060924225 -0.0052878681 -0.048947776
v 0.0059216184 -0.0050236466 -0.048951935
v 0.0057744717 -0.0047455808 -0.048957559
v 0.0056521024 -0.004455787 -0.048964605
v 0.0055554419 -0.0041564708 -0.04897302
v 0.0054852253 -0.00384991 -0.048982739
v 0.0054419876 -0.0035384379 -0.048993689
v 0.0054260574 -0.0032244248 -0.049005786
v 0.0054375563 -0.0029102607 -0.049018938
v 0.0054763965 -0.0025983364 -0.049033046
v 0.0055422826 -0.002291026 -0.049048001
v 0.0056347129 -0.0019906683 -0.04906369
v 0.0057529843 -0.0016995491 -0.049079993
v 0.0058961967 -0.0014198839 -0.049096787
v 0.0060632599 -0.0011538015 -0.049113944
v 0.0062529022 -0.00090332664 -0.049131332
v 0.0064636809 -0.00067036554 -0.04914882
v 0.0066939917 -0.00045669138 -0.049166275
v 0.0069420815 -0.0002639305 -0.049183564
v 0.0072060625 -9.3549419e-05 -0.049200554
v 0.0074839255 5.3154964e-05 -0.049217118
v 0.0077735558 0.00017506593 -0.049233128
v 0.0080727491 0.00027125564 -0.049248464
v 0.0083792285 0.00034099246 -0.049263007
v 0.0086906613 0.00038374518 -0.049276648
v 0.0090046775 0.00039918879 -0.049289283
v 0.0093188872 0.00038720542 -0.049300816
v 0.009630899 0.0003478866 -0.049311158
v 0.0099383384 0.00028153123 -0.049320231
v 0.010238866 0.00018864475 -0.049327967
v 0.010530193 6.9933674e-05 -0.049334305
v 0.010810104 -7.3698513e-05 -0.049339199
v 0.011076468 -0.00024115848 -0.04934261
v 0.011327258 -0.00043117155 -0.049344513
v 0.011560566 -0.00064229211 -0.049344893
v 0.011774615 -0.00087291329 -0.049343748
v 0.011967776 -0.0011212797 -0.049341085
v 0.01213858 -0.0013855012 -0.049336926
v 0.012285727 -0.001663567 -0.049331302
v 0.012408096 -0.0019533608 -0.049324256
v 0.012504757 -0.002252677 -0.049315841
v 0.012574973 -0.0025592378 -0.049306122
v 0.012618211 -0.0028707099 -0.049295172
v 0.012634141 -0.003184723 -0.049283075
v 0.013792071 -0.0035789087 -0.048948299
v 0.013740738 -0.0039911671 -0.048929654
v 0.013653659 -0.0043973276 -0.048909888
v 0.013531497 -0.004794299 -0.048889153
v 0.013375182 -0.0051790603 -0.048867605
v 0.013185904 -0.0055486828 -0.048845409
v 0.012965103 -0.0059003539 -0.048822734
v 0.012714459 -0.0062313969 -0.048799752
v 0.012435881 -0.0065392927 -0.048776639
v 0.012131488 -0.0068216977 -0.04875357
v 0.011803597 -0.0070764627 -0.04873072
v 0.011454704 -0.0073016488 -0.048708264
v 0.011087463 -0.0074955422 -0.048686373
v 0.01070467 -0.0076566674 -0.048665212
v 0.010309237 -0.0077837978 -0.048644944
v 0.0099041752 -0.0078759661 -0.048625723
v 0.0094925662 -0.0079324709 -0.048607694
v 0.0090775429 -0.0079528818 -0.048590995
v 0.008662264 -0.0079370442 -0.048575753
v 0.0082498898 -0.0078850778 -0.048562084
v 0.007843559 -0.0077973786 -0.048550092
v 0.0074463637 -0.007674614 -0.048539868
v 0.0070613269 -0.007517718 -0.048531491
v 0.0066913792 -0.007327885 -0.048525023
v 0.0063393358 -0.0071065596 -0.048520515
v 0.0060078762 -0.0068554262 -0.048517999
v 0.0056995228 -0.0065763962 -0.048517497
v 0.0054166225 -0.0062715931 -0.048519011
v 0.0051613283 -0.0059433368 -0.04852253
v 0.0049355832 -0.0055941252 -0.048528026
v 0.0047411052 -0.0052266164 -0.048535459
v 0.0045793742 -0.0048436069 -0.048544772
v 0.0044516216 -0.004448012 -0.048555894
v 0.0043588192 -0.0040428423 -0.048568739
v 0.0043016734 -0.0036311814 -0.048583211
v 0.0042806194 -0.0032161623 -0.0485992
v 0.0042958167 -0.0028009435 -0.048616583
v 0.0043471505 -0.0023886851 -0.048635228
v 0.0044342295 -0.0019825247 -0.048654993
v 0.0045563912 -0.0015855533 -0.048675729
v 0.0047127062 -0.001200792 -0.048697277
v 0.0049019843 -0.00083116949 -0.048719472
v 0.0051227852 -0.00047949835 -0.048742147
v 0.0053734286 -0.00014845534 -0.048765129
v 0.0056520068 0.0001594404 -0.048788243
v 0.0059563997 0.00044184539 -0.048811312
v 0.0062842906 0.00069661047 -0.048834162
v 0.0066331842 0.00092179652 -0.048856617
v 0.0070004249 0.0011156899 -0.048878509
v 0.0073832184 0.0012768151 -0.048899669
v 0.0077786508 0.0014039455 -0.048919937
v 0.0081837129 0.0014961138 -0.048939159
v 0.0085953218 0.0015526186 -0.048957188
v 0.0090103451 0.0015730296 -0.048973887
v 0.0094256241 0.0015571919 -0.048989129
v 0.0098379982 0.0015052255 -0.049002798
v 0.010244329 0.0014175264 -0.04901479
v 0.010641524 0.0012947618 -0.049025013
v 0.011026561 0.0011378657 -0.049033391
v 0.011396509 0.00094803271 -0.049039859
v 0.011748552 0.00072670738 -0.049044367
v 0.012080012 0.00047557398 -0.049046882
v 0.012388365 0.00019654397 -0.049047385
v 0.012671266 -0.00010825917 -0.049045871
v 0.01292656 -0.0004365155 -0.049042352
v 0.013152305 -0.00078572709 -0.049036855
v 0.013346783 -0.0011532359 -0.049029422
v 0.013508514 -0.0015362454 -0.04902011
v 0.013636266 -0.0019318403 -0.049008988
v 0.013729069 -0.0023370099 -0.048996142
v 0.013786215 -0.0027486708 -0.04898167
v 0.013807269 -0.0031636899 -0.048965682
v 0.014929741 -0.0036520227 -0.048526673
v 0.014866299 -0.0041615299 -0.048503629
v 0.014758678 -0.0046635006 -0.048479201
v 0.014607699 -0.0051541147 -0.048453574
v 0.014414511 -0.0056296381 -0.048426944
v 0.014180584 -0.0060864519 -0.048399512
v 0.013907697 -0.0065210798 -0.048371488
v 0.013597929 -0.0069302134 -0.048343085
v 0.013253636 -0.0073107396 -0.048314519
v 0.012877439 -0.0076597618 -0.048286008
v 0.012472201 -0.0079746236 -0.048257769
v 0.012041006 -0.0082529299 -0.048230015
v 0.011587136 -0.0084925612 -0.04820296
v 0.011114045 -0.0086916943 -0.048176808
v 0.010625333 -0.0088488142 -0.048151759
v 0.010124719 -0.0089627243 -0.048128003
v 0.0096160149 -0.009032558 -0.048105721
v 0.0091030907 -0.0090577837 -0.048085083
v 0.0085898505 -0.0090382101 -0.048066245
v 0.0080802003 -0.0089739854 -0.048049352
v 0.0075780189 -0.0088655987 -0.048034531
v 0.0070871282 -0.0087138744 -0.048021896
v 0.0066112643 -0.0085199681 -0.048011542
v 0.0061540486 -0.008285355 -0.048003549
v 0.0057189606 -0.0080118202 -0.047997977
v 0.0053093122 -0.0077014467 -0.047994869
v 0.0049282204 -0.0073565956 -0.047994248
v 0.004578586 -0.0069798916 -0.047996118
v 0.0042630702 -0.006574202 -0.048000467
v 0.0039840731 -0.0061426138 -0.048007261
v 0.0037437192 -0.0056884123 -0.048016447
v 0.0035438375 -0.005215054 -0.048027957
v 0.0033859485 -0.0047261411 -0.048041702
v 0.0032712549 -0.0042253949 -0.048057578
v 0.0032006289 -0.0037166262 -0.048075464
v 0.0031746083 -0.0032037071 -0.048095223
v 0.0031933906 -0.0026905413 -0.048116707
v 0.0032568335 -0.0021810341 -0.04813975
v 0.0033644538 -0.0016790634 -0.048164178
v 0.003515433 -0.0011884493 -0.048189805
v 0.003708621 -0.00071292598 -0.048216436
v 0.0039425484 -0.00025611213 -0.048243868
v 0.0042154351 0.00017851574 -0.048271891
v 0.0045252029 0.00058764937 -0.048300294
v 0.0048694957 0.00096817553 -0.04832886
v 0.0052456927 0.0013171978 -0.048357371
v 0.0056509306 0.0016320596 -0.048385611
v 0.0060821258 0.0019103658 -0.048413364
v 0.006535996 0.0021499972 -0.04844042
v 0.0070090873 0.0023491302 -0.048466571
v 0.0074977994 0.0025062502 -0.048491621
v 0.0079984127 0.0026201602 -0.048515376
v 0.0085071172 0.002689994 -0.048537658
v 0.0090200414 0.0027152197 -0.048558297
v 0.0095332816 0.002695646 -0.048577134
v 0.010042932 0.0026314213 -0.048594027
v 0.010545113 0.0025230346 -0.048608848
v 0.011036004 0.0023713103 -0.048621483
v 0.011511868 0.0021774041 -0.048631837
v 0.011969083 0.0019427909 -0.04863983
v 0.012404171 0.0016692561 -0.048645402
v 0.01281382 0.0013588827 -0.048648511
v 0.013194912 0.0010140316 -0.048649132
v 0.013544546 0.00063732752 -0.048647261
v 0.013860062 0.00023163793 -0.048642912
v 0.014139059 -0.00019995019 -0.048636119
v 0.014379413 -0.00065415172 -0.048626932
v 0.014579295 -0.0011275101 -0.048615423
v 0.014737184 -0.0016164229 -0.048601678
v 0.014851877 -0.0021171691 -0.048585802
v 0.014922503 -0.0026259379 -0.048567916
v 0.014948524 -0.0031388569 -0.048548156
v 0.016027138 -0.0037176818 -0.048008195
v 0.015952061 -0.0043206244 -0.047980926
v 0.015824704 -0.0049146484 -0.047952018
v 0.015646039 -0.0054952333 -0.047921692
v 0.015417423 -0.00605796 -0.047890178
v 0.015140597 -0.0065985463 -0.047857715
v 0.014817668 -0.007112878 -0.047824552
v 0.014451093 -0.0075970402 -0.047790941
v 0.014043662 -0.0080473485 -0.047757137
v 0.013598477 -0.0084603757 -0.047723397
v 0.013118925 -0.0088329787 -0.047689979
v 0.012608655 -0.0091623215 -0.047657136
v 0.012071553 -0.0094458975 -0.047625119
v 0.011511704 -0.0096815485 -0.047594171
v 0.01093337 -0.0098674811 -0.047564529
v 0.010340952 -0.010002281 -0.047536416
v 0.0097389594 -0.010084921 -0.047510048
v 0.0091319732 -0.010114773 -0.047485625
v 0.008524613 -0.01009161 -0.047463333
v 0.0079215011 -0.010015607 -0.047443342
v 0.0073272278 -0.0098873436 -0.047425803
v 0.0067463156 -0.009707796 -0.047410851
v 0.0061831858 -0.0094783303 -0.047398598
v 0.005642124 -0.0092006928 -0.047389139
v 0.0051272479 -0.0088769965 -0.047382546
v 0.0046424765 -0.0085097049 -0.047378867
v 0.0041914988 -0.0081016138 -0.047378132
v 0.0037777472 -0.0076558285 -0.047380346
v 0.0034043702 -0.0071757419 -0.047385492
v 0.0030742099 -0.0066650075 -0.047393532
v 0.0027897789 -0.0061275125 -0.047404403
v 0.0025532419 -0.0055673478 -0.047418023
v 0.0023663992 -0.0049887762 -0.047434289
v 0.0022306722 -0.0043962012 -0.047453076
v 0.0021470945 -0.0037941325 -0.047474242
v 0.0021163021 -0.0031871523 -0.047497625
v 0.0021385289 -0.0025798801 -0.047523048
v 0.0022136062 -0.0019769375 -0.047550318
v 0.0023409627 -0.0013829135 -0.047579226
v 0.0025196284 -0.00080232864 -0.047609552
v 0.0027482443 -0.00023960193 -0.047641066
v 0.0030250703 0.00030098441 -0.047673528
v 0.0033479996 0.00081531607 -0.047706692
v 0.0037145745 0.0012994783 -0.047740303
v 0.0041220049 0.0017497866 -0.047774107
v 0.0045671902 0.0021628138 -0.047807847
v 0.0050467422 0.0025354168 -0.047841265
v 0.0055570117 0.0028647595 -0.047874108
v 0.0060941146 0.0031483355 -0.047906125
v 0.0066539633 0.0033839866 -0.047937073
v 0.0072322973 0.0035699192 -0.047966715
v 0.0078247149 0.0037047189 -0.047994828
v 0.0084267077 0.003787359 -0.048021196
v 0.0090336939 0.0038172109 -0.048045619
v 0.0096410541 0.0037940476 -0.048067911
v 0.010244166 0.0037180451 -0.048087902
v 0.010838439 0.0035897817 -0.048105441
v 0.011419352 0.0034102341 -0.048120393
v 0.011982481 0.0031807684 -0.048132645
v 0.012523543 0.0029031309 -0.048142105
v 0.013038419 0.0025794346 -0.048148698
v 0.013523191 0.002212143 -0.048152377
v 0.013974168 0.0018040519 -0.048153112
v 0.01438792 0.0013582666 -0.048150898
v 0.014761297 0.00087818002 -0.048145751
v 0.015091457 0.00036744555 -0.048137712
v 0.015375888 -0.00017004942 -0.048126841
v 0.015612425 -0.00073021409 -0.048113221
v 0.015799268 -0.0013087857 -0.048096955
v 0.015934995 -0.0019013607 -0.048078168
v 0.016018573 -0.0025034294 -0.048057002
v 0.016049365 -0.0031104096 -0.048033619
v 0.017076048 -0.0037753946 -0.04739675
v 0.016989898 -0.0044672601 -0.047365459
v 0.016843759 -0.0051488918 -0.047332288
v 0.016638743 -0.0058151021 -0.047297489
v 0.016376411 -0.0064608207 -0.047261327
v 0.016058758 -0.0070811336 -0.047224077
v 0.015688203 -0.0076713191 -0.047186023
v 0.015267565 -0.0082268864 -0.047147455
v 0.014800046 -0.0087436069 -0.047108665
v 0.014289204 -0.009217548 -0.047069949
v 0.013738927 -0.009645103 -0.047031602
v 0.013153403 -0.010023018 -0.046993916
v 0.012537087 -0.010348416 -0.046957177
v 0.011894671 -0.010618821 -0.046921665
v 0.011231044 -0.010832175 -0.046887651
v 0.010551255 -0.010986855 -0.046855392
v 0.0098604796 -0.011081683 -0.046825135
v 0.0091639741 -0.011115939 -0.04679711
v 0.0084670395 -0.011089358 -0.046771531
v 0.0077749799 -0.011002147 -0.046748591
v 0.0070930621 -0.010854967 -0.046728466
v 0.0064264761 -0.01064894 -0.046711308
v 0.0057802951 -0.010385632 -0.046697249
v 0.0051594366 -0.010067048 -0.046686395
v 0.0045686263 -0.0096956126 -0.046678828
v 0.0040123599 -0.0092741524 -0.046674608
v 0.0034948713 -0.0088058753 -0.046673764
v 0.003020099 -0.0082943449 -0.046676305
v 0.0025916559 -0.0077434543 -0.04668221
v 0.0022128032 -0.0071573965 -0.046691435
v 0.0018864239 -0.0065406309 -0.046703909
v 0.0016150021 -0.0058978522 -0.046719538
v 0.0014006033 -0.005233952 -0.046738203
v 0.0012448593 -0.004553983 -0.046759761
v 0.0011489555 -0.0038631204 -0.046784048
v 0.001113621 -0.0031666219 -0.04681088
v 0.0011391267 -0.0024697882 -0.046840053
v 0.0012252764 -0.0017779228 -0.046871344
v 0.0013714153 -0.0010962911 -0.046904515
v 0.0015764312 -0.0004300808 -0.046939314
v 0.0018387637 0.00021563779 -0.046975476
v 0.0021564164 0.00083595068 -0.047012726
v 0.0025269716 0.0014261362 -0.04705078
v 0.0029476095 0.0019817035 -0.047089349
v 0.0034151283 0.0024984241 -0.047128138
v 0.0039259703 0.0029723651 -0.047166854
v 0.0044762475 0.0033999201 -0.047205201
v 0.0050617718 0.0037778346 -0.047242887
v 0.0056780875 0.0041032328 -0.047279626
v 0.0063205036 0.0043736381 -0.047315138
v 0.0069841312 0.0045869926 -0.047349153
v 0.0076639195 0.0047416725 -0.047381411
v 0.0083546951 0.0048365005 -0.047411668
v 0.0090512005 0.0048707557 -0.047439693
v 0.0097481351 0.0048441755 -0.047465272
v 0.010440195 0.0047569641 -0.047488212
v 0.011122113 0.0046097844 -0.047508337
v 0.011788699 0.0044037567 -0.047525495
v 0.01243488 0.0041404489 -0.047539554
v 0.013055738 0.0038218651 -0.047550408
v 0.013646548 0.0034504297 -0.047557975
v 0.014202815 0.0030289695 -0.047562196
v 0.014720303 0.0025606925 -0.047563039
v 0.015195076 0.0020491621 -0.047560498
v 0.015623519 0.0014982715 -0.047554593
v 0.016002371 0.0009122136 -0.047545368
v 0.016328751 0.00029544801 -0.047532894
v 0.016600173 -0.00034733069 -0.047517265
v 0.016814571 -0.0010112309 -0.0474986
v 0.016970315 -0.0016911998 -0.047477042
v 0.017066219 -0.0023820625 -0.047452755
v 0.017101554 -0.003078561 -0.047425923
v 0.0039389948 -0.0024911121 -0.030500842
v 0.0036820268 -0.0032950486 -0.037869945
v 0.0039646116 -0.0029960736 -0.030481389
v 0.0037515572 -0.0037959241 -0.037852336
v 0.004034142 -0.003496949 -0.03046378
v 0.0038644715 -0.0042889014 -0.037836707
v 0.0041470563 -0.0039899264 -0.030448151
v 0.004019911 -0.0047702291 -0.037823175
v 0.0043024958 -0.0044712541 -0.030434619
v 0.0042166916 -0.0052362436 -0.037811844
v 0.0044992764 -0.0049372686 -0.030423288
v 0.0044533169 -0.0056833986 -0.0378028
v 0.0047359017 -0.0053844236 -0.030414244
v 0.0047279848 -0.0061082908 -0.037796112
v 0.0050105696 -0.0058093158 -0.030407556
v 0.0050386061 -0.0065076864 -0.037791831
v 0.0053211909 -0.0062087113 -0.030403275
v 0.0053828164 -0.0068785457 -0.037789989
v 0.0056654012 -0.0065795707 -0.030401433
v 0.0057579954 -0.0072180469 -0.0377906
v 0.0060405802 -0.0069190719 -0.030402044
v 0.0061612884 -0.0075236056 -0.03779366
v 0.0064438732 -0.0072246306 -0.030405105
v 0.0065896262 -0.007792896 -0.037799146
v 0.006872211 -0.007493921 -0.03041059
v 0.0070397485 -0.0080238696 -0.037807015
v 0.0073223333 -0.0077248946 -0.030418459
v 0.0075082297 -0.0082147675 -0.037817208
v 0.0077908145 -0.0079157924 -0.030428652
v 0.0079915046 -0.0083641379 -0.037829648
v 0.0082740894 -0.0080651629 -0.030441092
v 0.0084858949 -0.0084708432 -0.037844238
v 0.0087684797 -0.0081718682 -0.030455683
v 0.0089876381 -0.0085340715 -0.03786087
v 0.0092702229 -0.0082350965 -0.030472314
v 0.0094929157 -0.0085533414 -0.037879415
v 0.0097755005 -0.0082543664 -0.030490859
v 0.0099978822 -0.0085285071 -0.037899733
v 0.010280467 -0.0082295321 -0.030511177
v 0.010498694 -0.0084597568 -0.037921669
v 0.010781279 -0.0081607817 -0.030533113
v 0.010991541 -0.0083476139 -0.037945056
v 0.011274126 -0.0080486388 -0.030556501
v 0.011472671 -0.0081929315 -0.037969717
v 0.011755256 -0.0078939565 -0.030581161
v 0.011938423 -0.0079968879 -0.037995463
v 0.012221007 -0.0076979129 -0.030606907
v 0.012385251 -0.0077609739 -0.038022099
v 0.012667836 -0.0074619989 -0.030633543
v 0.012809757 -0.0074869862 -0.038049421
v 0.013092342 -0.0071880111 -0.030660866
v 0.013208708 -0.0071770087 -0.038077223
v 0.013491292 -0.0068780337 -0.030688667
v 0.013579068 -0.0068334011 -0.038105292
v 0.013861653 -0.0065344261 -0.030716736
v 0.013918019 -0.0064587789 -0.038133414
v 0.014200604 -0.0061598039 -0.030744859
v 0.014222982 -0.0060559928 -0.038161377
v 0.014505567 -0.0057570178 -0.030772821
v 0.014491634 -0.005628108 -0.038188966
v 0.014774219 -0.005329133 -0.03080041
v 0.014721933 -0.0051783812 -0.038215972
v 0.015004517 -0.0048794062 -0.030827416
v 0.014912123 -0.0047102353 -0.038242189
v 0.015194708 -0.0044112603 -0.030853633
v 0.01506076 -0.0042272328 -0.038267419
v 0.015343345 -0.0039282577 -0.030878863
v 0.015166711 -0.0037330499 -0.038291468
v 0.015449296 -0.0034340749 -0.030902912
v 0.01522917 -0.0032314475 -0.038314154
v 0.015511754 -0.0029324724 -0.030925598
v 0.015247661 -0.0027262431 -0.038335304
v 0.015530245 -0.002427268 -0.030946748
v 0.015222044 -0.0022212816 -0.038354757
v 0.015504629 -0.0019223066 -0.030966201
v 0.015152513 -0.0017204062 -0.038372365
v 0.015435098 -0.0014214311 -0.03098381
v 0.015039599 -0.0012274288 -0.038387995
v 0.015322184 -0.00092845377 -0.030999439
v 0.01488416 -0.00074610111 -0.038401527
v 0.015166744 -0.00044712609 -0.031012971
v 0.014687379 -0.00028008661 -0.038412858
v 0.014969964 1.888841e-05 -0.031024302
v 0.014450754 0.00016706836 -0.038421902
v 0.014733339 0.00046604338 -0.031033346
v 0.014176086 0.00059196058 -0.03842859
v 0.014458671 0.0008909356 -0.031040034
v 0.013865464 0.00099135614 -0.038432871
v 0.014148049 0.0012903312 -0.031044315
v 0.013521254 0.0013622155 -0.038434713
v 0.013803839 0.0016611905 -0.031046157
v 0.013146075 0.0017017167 -0.038434102
v 0.01342866 0.0020006917 -0.031045546
v 0.012742782 0.0020072754 -0.038431041
v 0.013025367 0.0023062504 -0.031042486
v 0.012314444 0.0022765658 -0.038425556
v 0.012597029 0.0025755408 -0.031037
v 0.011864322 0.0025075394 -0.038417687
v 0.012146907 0.0028065144 -0.031029131
v 0.011395841 0.0026984372 -0.038407494
v 0.011678426 0.0029974123 -0.031018938
v 0.010912566 0.0028478077 -0.038395054
v 0.011195151 0.0031467827 -0.031006498
v 0.010418176 0.0029545129 -0.038380463
v 0.010700761 0.003253488 -0.030991908
v 0.0099164325 0.0030177413 -0.038363832
v 0.010199017 0.0033167163 -0.030975276
v 0.0094111549 0.0030370112 -0.038345287
v 0.0096937397 0.0033359862 -0.030956731
v 0.0089061884 0.0030121769 -0.038324969
v 0.0091887732 0.0033111519 -0.030936413
v 0.0084053761 0.0029434265 -0.038303033
v 0.0086879609 0.0032424016 -0.030914477
v 0.0079125297 0.0028312836 -0.038279645
v 0.0081951145 0.0031302587 -0.03089109
v 0.0074313996 0.0026766013 -0.038254985
v 0.0077139844 0.0029755763 -0.030866429
v 0.006965648 0.0024805577 -0.038229239
v 0.0072482328 0.0027795327 -0.030840683
v 0.0065188192 0.0022446437 -0.038202603
v 0.006801404 0.0025436187 -0.030814047
v 0.0060943138 0.0019706559 -0.03817528
v 0.0063768986 0.002269631 -0.030786725
v 0.005695363 0.0016606785 -0.038147479
v 0.0059779478 0.0019596535 -0.030758923
v 0.0053250027 0.0013170709 -0.03811941
v 0.0056075875 0.0016160459 -0.030730854
v 0.0049860512 0.00094244871 -0.038091287
v 0.005268636 0.0012414237 -0.030702732
v 0.0046810887 0.00053966255 -0.038063325
v 0.0049636735 0.00083863757 -0.030674769
v 0.0044124365 0.00011177774 -0.038035736
v 0.0046950213 0.00041075277 -0.03064718
v 0.004182138 -0.00033794902 -0.03800873
v 0.0044647228 -3.8974002e-05 -0.030620174
v 0.0039919472 -0.00080609495 -0.037982513
v 0.004274532 -0.00050711992 -0.030593957
v 0.0038433103 -0.0012890975 -0.037957283
v 0.0041258951 -0.00099012244 -0.030568727
v 0.0037373595 -0.0017832803 -0.037933234
v 0.0040199443 -0.0014843053 -0.030544678
v 0.0036749009 -0.0022848828 -0.037910548
v 0.0039574857 -0.0019859078 -0.030521992
v 0.00365641 -0.0027900872 -0.037889398
v 0.0026571641 -0.002795591 -0.037850958
v 0.0025604169 -0.0035217495 -0.041143016
v 0.0026871982 -0.0033876147 -0.037828151
v 0.0026419351 -0.0041089827 -0.041122372
v 0.0027687164 -0.003974848 -0.037807506
v 0.0027743176 -0.0046869563 -0.041104048
v 0.0029010989 -0.0045528215 -0.037789182
v 0.0029565563 -0.0052512714 -0.041088183
v 0.0030833376 -0.0051171366 -0.037773317
v 0.0031872649 -0.0057976334 -0.041074898
v 0.0033140462 -0.0056634986 -0.037760032
v 0.0034646873 -0.006321884 -0.041064295
v 0.0035914686 -0.0061877493 -0.037749429
v 0.0037867124 -0.0068200334 -0.041056454
v 0.0039134937 -0.0066858987 -0.037741588
v 0.0041508887 -0.0072882904 -0.041051434
v 0.00427767 -0.0071541556 -0.037736569
v 0.0045544452 -0.0077230913 -0.041049275
v 0.0046812265 -0.0075889566 -0.037734409
v 0.0049943106 -0.0081211269 -0.041049992
v 0.0051210919 -0.0079869921 -0.037735126
v 0.005467137 -0.0084793677 -0.04105358
v 0.0055939183 -0.008345233 -0.037738714
v 0.005969326 -0.0087950881 -0.041060011
v 0.0060961073 -0.0086609534 -0.037745145
v 0.0064970556 -0.0090658843 -0.041069237
v 0.0066238369 -0.0089317496 -0.037754371
v 0.0070463096 -0.009289696 -0.041081187
v 0.0071730909 -0.0091555612 -0.037766322
v 0.0076129076 -0.0094648193 -0.041095771
v 0.0077396889 -0.0093306845 -0.037780906
v 0.0081925377 -0.0095899221 -0.041112878
v 0.008319319 -0.0094557874 -0.037798012
v 0.0087807884 -0.0096640518 -0.041132377
v 0.0089075697 -0.009529917 -0.037817511
v 0.0093731828 -0.0096866447 -0.041154119
v 0.0094999641 -0.00955251 -0.037839253
v 0.0099652124 -0.009657528 -0.04117794
v 0.010091994 -0.0095233933 -0.037863075
v 0.010552372 -0.0095769243 -0.041203659
v 0.010679153 -0.0094427895 -0.037888793
v 0.011130192 -0.0094454462 -0.041231078
v 0.011256973 -0.0093113115 -0.037916213
v 0.011694275 -0.0092640952 -0.041259991
v 0.011821056 -0.0091299604 -0.037945125
v 0.012240329 -0.0090342506 -0.041290176
v 0.01236711 -0.0089001159 -0.03797531
v 0.012764197 -0.0087576622 -0.041321404
v 0.012890978 -0.0086235275 -0.038006538
v 0.013261893 -0.0084364346 -0.041353437
v 0.013388674 -0.0083022998 -0.038038571
v 0.013729629 -0.0080730131 -0.041386032
v 0.01385641 -0.0079388784 -0.038071166
v 0.014163844 -0.0076701632 -0.04141894
v 0.014290626 -0.0075360284 -0.038104075
v 0.014561235 -0.0072309506 -0.041451912
v 0.014688017 -0.0070968159 -0.038137046
v 0.014918777 -0.0067587185 -0.041484695
v 0.015045559 -0.0066245837 -0.038169829
v 0.01523375 -0.0062570605 -0.041517041
v 0.015360531 -0.0061229258 -0.038202175
v 0.015503754 -0.0057297947 -0.041548703
v 0.015630536 -0.0055956599 -0.038233837
v 0.015726737 -0.0051809338 -0.041579441
v 0.015853518 -0.005046799 -0.038264575
v 0.015901 -0.0046146551 -0.04160902
v 0.016027781 -0.0044805203 -0.038294154
v 0.016025218 -0.0040352682 -0.041637216
v 0.016152 -0.0039011334 -0.03832235
v 0.016098446 -0.0034471826 -0.041663813
v 0.016225227 -0.0033130478 -0.038348947
v 0.016120125 -0.002854874 -0.04168861
v 0.016246906 -0.0027207393 -0.038373744
v 0.016090091 -0.0022628503 -0.041711417
v 0.016216872 -0.0021287155 -0.038396551
v 0.016008573 -0.001675617 -0.041732061
v 0.016135354 -0.0015414823 -0.038417196
v 0.01587619 -0.0010976434 -0.041750386
v 0.016002972 -0.00096350869 -0.03843552
v 0.015693952 -0.00053332836 -0.041766251
v 0.015820733 -0.00039919361 -0.038451385
v 0.015463243 1.3033655e-05 -0.041779535
v 0.015590024 0.00014716841 -0.038464669
v 0.015185821 0.0005372843 -0.041790138
v 0.015312602 0.00067141905 -0.038475273
v 0.014863796 0.0010354337 -0.04179798
v 0.014990577 0.0011695684 -0.038483114
v 0.014499619 0.0015036906 -0.041802999
v 0.014626401 0.0016378254 -0.038488133
v 0.014096063 0.0019384916 -0.041805159
v 0.014222844 0.0020726264 -0.038490293
v 0.013656197 0.0023365271 -0.041804442
v 0.013782979 0.0024706619 -0.038489576
v 0.013183371 0.002694768 -0.041800854
v 0.013310152 0.0028289028 -0.038485988
v 0.012681182 0.0030104884 -0.041794423
v 0.012807963 0.0031446231 -0.038479557
v 0.012153452 0.0032812846 -0.041785196
v 0.012280234 0.0034154194 -0.038470331
v 0.011604198 0.0035050962 -0.041773246
v 0.01173098 0.003639231 -0.03845838
v 0.0110376 0.0036802195 -0.041758662
v 0.011164382 0.0038143543 -0.038443796
v 0.01045797 0.0038053224 -0.041741556
v 0.010584752 0.0039394572 -0.03842669
v 0.0098697196 0.003879452 -0.041722057
v 0.0099965009 0.0040135868 -0.038407191
v 0.0092773252 0.003902045 -0.041700314
v 0.0094041065 0.0040361797 -0.038385448
v 0.0086852956 0.0038729283 -0.041676493
v 0.0088120769 0.004007063 -0.038361627
v 0.0080981364 0.0037923245 -0.041650775
v 0.0082249177 0.0039264593 -0.038335909
v 0.0075203163 0.0036608465 -0.041623355
v 0.0076470976 0.0037949812 -0.038308489
v 0.006956233 0.0034794954 -0.041594443
v 0.0070830143 0.0036136302 -0.038279577
v 0.0064101792 0.0032496509 -0.041564258
v 0.0065369605 0.0033837857 -0.038249392
v 0.0058863109 0.0029730625 -0.04153303
v 0.0060130922 0.0031071973 -0.038218164
v 0.0053886151 0.0026518348 -0.041500996
v 0.0055153964 0.0027859696 -0.03818613
v 0.0049208795 0.0022884134 -0.041468401
v 0.0050476608 0.0024225481 -0.038153535
v 0.0044866637 0.0018855634 -0.041435493
v 0.004613445 0.0020196982 -0.038120627
v 0.0040892727 0.0014463509 -0.041402522
v 0.004216054 0.0015804856 -0.038087656
v 0.0037317308 0.00097411876 -0.041369738
v 0.0038585121 0.0011082535 -0.038054873
v 0.0034167585 0.00047246081 -0.041337392
v 0.0035435398 0.00060659557 -0.038022527
v 0.0031467538 -5.4805033e-05 -0.04130573
v 0.0032735351 7.9329718e-05 -0.037990864
v 0.0029237711 -0.00060366596 -0.041274992
v 0.0030505524 -0.00046953121 -0.037960127
v 0.0027495079 -0.0011699446 -0.041245413
v 0.0028762892 -0.0010358099 -0.037930547
v 0.0026252896 -0.0017493316 -0.041217218
v 0.0027520709 -0.0016151968 -0.037902352
v 0.0025520624 -0.0023374171 -0.04119062
v 0.0026788437 -0.0022032824 -0.037875755
v 0.0025303828 -0.0029297257 -0.041165824
v 0.0051451497 -0.010244743 -0.04096983
v 0.0058024833 -0.010582044 -0.040981321
v 0.0064866277 -0.010860821 -0.040996207
v 0.0071923754 -0.011078952 -0.041014372
v 0.0079143559 -0.011234779 -0.04103568
v 0.008647074 -0.011327115 -0.041059967
v 0.0093849535 -0.011355256 -0.04108705
v 0.010122379 -0.011318989 -0.041116721
v 0.010853737 -0.01121859 -0.041148755
v 0.011573463 -0.011054822 -0.041182909
v 0.012276079 -0.010828933 -0.041218922
v 0.012956237 -0.010542641 -0.04125652
v 0.013608761 -0.010198126 -0.041295418
v 0.014228685 -0.0097980088 -0.041335318
v 0.014811291 -0.0093453351 -0.041375918
v 0.015352145 -0.00884355 -0.041416908
v 0.015847131 -0.0082964723 -0.041457977
v 0.016292481 -0.0077082655 -0.041498811
v 0.016684807 -0.007083406 -0.041539101
v 0.017021121 -0.0064266501 -0.041578539
v 0.017298866 -0.0057429953 -0.041616825
v 0.017515926 -0.0050376453 -0.041653669
v 0.017670651 -0.0043159677 -0.041688789
v 0.017761862 -0.0035834552 -0.041721918
v 0.017788865 -0.0028456827 -0.041752805
v 0.017751456 -0.0021082649 -0.041781213
v 0.017649918 -0.0013768141 -0.041806928
v 0.017485023 -0.00065689689 -0.041829752
v 0.017258029 4.6007283e-05 -0.041849513
v 0.016970661 0.00072654943 -0.04186606
v 0.016625107 0.0013795496 -0.041879268
v 0.016223996 0.0020000389 -0.041889035
v 0.015770382 0.0025832943 -0.041895287
v 0.015267717 0.0031248769 -0.041897977
v 0.014719826 0.0036206653 -0.041897084
v 0.014130879 0.0040668861 -0.041892615
v 0.013505358 0.0044601437 -0.041884604
v 0.012848025 0.0047974441 -0.041873112
v 0.01216388 0.0050762212 -0.041858227
v 0.011458133 0.0052943528 -0.041840061
v 0.010736152 0.0054501798 -0.041818754
v 0.010003434 0.0055425153 -0.041794466
v 0.0092655545 0.0055706558 -0.041767384
v 0.0085281293 0.0055343894 -0.041737712
v 0.0077967708 0.0054339898 -0.041705678
v 0.0070770448 0.0052702219 -0.041671524
v 0.0063744293 0.0050443332 -0.041635511
v 0.005694271 0.0047580415 -0.041597913
v 0.0050417471 0.0044135265 -0.041559016
v 0.0044218228 0.0040134091 -0.041519116
v 0.0038392168 0.0035607354 -0.041478516
v 0.0032983631 0.0030589502 -0.041437526
v 0.0028033775 0.0025118726 -0.041396457
v 0.0023580273 0.0019236657 -0.041355622
v 0.0019657015 0.0012988063 -0.041315333
v 0.0016293871 0.00064205036 -0.041275895
v 0.0013516425 -4.1604402e-05 -0.041237608
v 0.0011345822 -0.00074695441 -0.041200765
v 0.00097985704 -0.001468632 -0.041165644
v 0.00088864557 -0.0022011445 -0.041132515
v 0.00086164276 -0.0029389171 -0.041101629
v 0.00089905189 -0.0036763349 -0.04107322
v 0.0010005905 -0.0044077857 -0.041047506
v 0.0011654849 -0.0051277028 -0.041024681
v 0.0013924794 -0.005830607 -0.04100492
v 0.0016798473 -0.0065111492 -0.040988373
v 0.002025401 -0.0071641494 -0.040975166
v 0.0024265117 -0.0077846386 -0.040965399
v 0.0028801257 -0.008367894 -0.040959147
v 0.0033827909 -0.0089094767 -0.040956457
v 0.0039306818 -0.009405265 -0.04095735
v 0.0045196288 -0.0098514859 -0.040961819
v 0.00068138522 -0.0039066264 -0.046764405
v 0.0007829238 -0.0046380772 -0.046738691
v 0.00094781827 -0.0053579944 -0.046715866
v 0.0011748127 -0.0060608986 -0.046696105
v 0.0014621806 -0.0067414407 -0.046679558
v 0.0018077344 -0.007394441 -0.046666351
v 0.0022088451 -0.0080149302 -0.046656584
v 0.002662459 -0.0085981856 -0.046650332
v 0.0031651243 -0.0091397682 -0.046647642
v 0.0037130151 -0.0096355566 -0.046648535
v 0.0043019621 -0.010081777 -0.046653004
v 0.004927483 -0.010475035 -0.046661014
v 0.0055848167 -0.010812335 -0.046672506
v 0.006268961 -0.011091113 -0.046687392
v 0.0069747088 -0.011309244 -0.046705557
v 0.0076966892 -0.011465071 -0.046726865
v 0.0084294074 -0.011557407 -0.046751152
v 0.0091672869 -0.011585547 -0.046778235
v 0.009904712 -0.011549281 -0.046807906
v 0.010636071 -0.011448881 -0.04683994
v 0.011355797 -0.011285113 -0.046874094
v 0.012058412 -0.011059224 -0.046910107
v 0.01273857 -0.010772933 -0.046947705
v 0.013391094 -0.010428418 -0.046986602
v 0.014011019 -0.0100283 -0.047026503
v 0.014593625 -0.0095756267 -0.047067103
v 0.015134478 -0.0090738415 -0.047108093
v 0.015629464 -0.0085267639 -0.047149161
v 0.016074814 -0.007938557 -0.047189996
v 0.01646714 -0.0073136976 -0.047230286
v 0.016803454 -0.0066569417 -0.047269724
v 0.017081199 -0.0059732869 -0.04730801
v 0.017298259 -0.0052679369 -0.047344854
v 0.017452984 -0.0045462593 -0.047379974
v 0.017544196 -0.0038137468 -0.047413103
v 0.017571199 -0.0030759742 -0.04744399
v 0.017533789 -0.0023385564 -0.047472398
v 0.017432251 -0.0016071056 -0.047498113
v 0.017267356 -0.00088718846 -0.047520937
v 0.017040362 -0.00018428429 -0.047540698
v 0.016752994 0.00049625786 -0.047557245
v 0.01640744 0.0011492581 -0.047570453
v 0.01600633 0.0017697473 -0.047580219
v 0.015552716 0.0023530027 -0.047586472
v 0.01505005 0.0028945854 -0.047589161
v 0.01450216 0.0033903737 -0.047588268
v 0.013913213 0.0038365946 -0.0475838
v 0.013287692 0.0042298522 -0.047575789
v 0.012630358 0.0045671525 -0.047564297
v 0.011946214 0.0048459296 -0.047549412
v 0.011240466 0.0050640612 -0.047531246
v 0.010518485 0.0052198882 -0.047509938
v 0.0097857673 0.0053122237 -0.047485651
v 0.0090478878 0.0053403642 -0.047458568
v 0.0083104627 0.0053040978 -0.047428897
v 0.0075791041 0.0052036982 -0.047396863
v 0.0068593781 0.0050399303 -0.047362709
v 0.0061567626 0.0048140416 -0.047326696
v 0.0054766044 0.0045277499 -0.047289098
v 0.0048240804 0.004183235 -0.047250201
v 0.0042041561 0.0037831175 -0.0472103
v 0.0036215501 0.0033304438 -0.047169701
v 0.0030806964 0.0028286587 -0.04712871
v 0.0025857108 0.002281581 -0.047087642
v 0.0021403606 0.0016933742 -0.047046807
v 0.0017480348 0.0010685147 -0.047006518
v 0.0014117204 0.00041175879 -0.046967079
v 0.0011339758 -0.00027189597 -0.046928793
v 0.00091691552 -0.00097724598 -0.046891949
v 0.00076219037 -0.0016989236 -0.046856829
v 0.00067097891 -0.0024314361 -0.0468237
v 0.00064397609 -0.0031692086 -0.046792814
v 0.0097346201 -0.0024591901 -0.030723795
f 1 2 3
f 4 2 1
f 1 5 6
f 7 5 1
f 3 7 1
f 1 8 9
f 10 8 1
f 6 10 1
f 1 11 12
f 13 11 1
f 9 13 1
f 1 14 15
f 16 14 1
f 12 16 1
f 1 17 18
f 19 17 1
f 15 19 1
f 1 20 21
f 22 20 1
f 18 22 1
f 1 23 24
f 25 23 1
f 21 25 1
f 1 26 27
f 28 26 1
f 24 28 1
f 1 29 30
f 31 29 1
f 27 31 1
f 1 32 33
f 34 32 1
f 30 34 1
f 1 35 36
f 37 35 1
f 33 37 1
f 1 38 39
f 40 38 1
f 36 40 1
f 1 41 42
f 43 41 1
f 39 43 1
f 1 44 45
f 46 44 1
f 42 46 1
f 1 47 48
f 49 47 1
f 45 49 1
f 1 50 51
f 52 50 1
f 48 52 1
f 1 53 54
f 55 53 1
f 51 55 1
f 1 56 57
f 58 56 1
f 54 58 1
f 1 59 60
f 61 59 1
f 57 61 1
f 1 62 63
f 64 62 1
f 60 64 1
f 1 65 66
f 67 65 1
f 63 67 1
f 1 68 69
f 70 68 1
f 66 70 1
f 1 71 72
f 73 71 1
f 69 73 1
f 72 4 1
f 4 74 2
f 74 75 2
f 2 75 3
f 75 76 3
f 3 76 7
f 76 77 7
f 7 77 5
f 77 78 5
f 5 78 6
f 78 79 6
f 6 79 10
f 79 80 10
f 10 80 8
f 80 81 8
f 8 81 9
f 81 82 9
f 9 82 13
f 82 83 13
f 13 83 11
f 83 84 11
f 11 84 12
f 84 85 12
f 12 85 16
f 85 86 16
f 16 86 14
f 86 87 14
f 14 87 15
f 87 88 15
f 15 88 19
f 88 89 19
f 19 89 17
f 89 90 17
f 17 90 18
f 90 91 18
f 18 91 22
f 91 92 22
f 22 92 20
f 92 93 20
f 20 93 21
f 93 94 21
f 21 94 25
f 94 95 25
f 25 95 23
f 95 96 23
f 23 96 24
f 96 97 24
f 24 97 28
f 97 98 28
f 28 98 26
f 98 99 26
f 26 99 27
f 99 100 27
f 27 100 31
f 100 101 31
f 31 101 29
f 101 102 29
f 29 102 30
f 102 103 30
f 30 103 34
f 103 104 34
f 34 104 32
f 104 105 32
f 32 105 33
f 105 106 33
f 33 106 37
f 106 107 37
f 37 107 35
f 107 108 35
f 35 108 36
f 108 109 36
f 36 109 40
f 109 110 40
f 40 110 38
f 110 111 38
f 38 111 39
f 111 112 39
f 39 112 43
f 112 113 43
f 43 113 41
f 113 114 41
f 41 114 42
f 114 115 42
f 42 115 46
f 115 116 46
f 46 116 44
f 116 117 44
f 44 117 45
f 117 118 45
f 45 118 49
f 118 119 49
f 49 119 47
f 119 120 47
f 47 120 48
f 120 121 48
f 48 121 52
f 121 122 52
f 52 122 50
f 122 123 50
f 50 123 51
f 123 124 51
f 51 124 55
f 124 125 55
f 55 125 53
f 125 126 53
f 53 126 54
f 126 127 54
f 54 127 58
f 127 128 58
f 58 128 56
f 128 129 56
f 56 129 57
f 129 130 57
f 57 130 61
f 130 131 61
f 61 131 59
f 131 132 59
f 59 132 60
f 132 133 60
f 60 133 64
f 133 134 64
f 64 134 62
f 134 135 62
f 62 135 63
f 135 136 63
f 63 136 67
f 136 137 67
f 67 137 65
f 137 138 65
f 65 138 66
f 138 139 66
f 66 139 70
f 139 140 70
f 70 140 68
f 140 141 68
f 68 141 69
f 141 142 69
f 69 142 73
f 142 143 73
f 73 143 71
f 143 144 71
f 71 144 72
f 144 145 72
f 72 145 4
f 145 74 4
f 145 146 74
f 146 147 74
f 74 147 75
f 147 148 75
f 75 148 76
f 148 149 76
f 76 149 77
f 149 150 77
f 77 150 78
f 150 151 78
f 78 151 79
f 151 152 79
f 79 152 80
f 152 153 80
f 80 153 81
f 153 154 81
f 81 154 82
f 154 155 82
f 82 155 83
f 155 156 83
f 83 156 84
f 156 157 84
f 84 157 85
f 157 158 85
f 85 158 86
f 158 159 86
f 86 159 87
f 159 160 87
f 87 160 88
f 160 161 88
f 88 161 89
f 161 162 89
f 89 162 90
f 162 163 90
f 90 163 91
f 163 164 91
f 91 164 92
f 164 165 92
f 92 165 93
f 165 166 93
f 93 166 94
f 166 167 94
f 94 167 95
f 167 168 95
f 95 168 96
f 168 169 96
f 96 169 97
f 169 170 97
f 97 170 98
f 170 171 98
f 98 171 99
f 171 172 99
f 99 172 100
f 172 173 100
f 100 173 101
f 173 174 101
f 101 174 102
f 174 175 102
f 102 175 103
f 175 176 103
f 103 176 104
f 176 177 104
f 104 177 105
f 177 178 105
f 105 178 106
f 178 179 106
f 106 179 107
f 179 180 107
f 107 180 108
f 180 181 108
f 108 181 109
f 181 182 109
f 109 182 110
f 182 183 110
f 110 183 111
f 183 184 111
f 111 184 112
f 184 185 112
f 112 185 113
f 185 186 113
f 113 186 114
f 186 187 114
f 114 187 115
f 187 188 115
f 115 188 116
f 188 189 116
f 116 189 117
f 189 190 117
f 117 190 118
f 190 191 118
f 118 191 119
f 191 192 119
f 119 192 120
f 192 193 120
f 120 193 121
f 193 194 121
f 121 194 122
f 194 195 122
f 122 195 123
f 195 196 123
f 123 196 124
f 196 197 124
f 124 197 125
f 197 198 125
f 125 198 126
f 198 199 126
f 126 199 127
f 199 200 127
f 127 200 128
f 200 201 128
f 128 201 129
f 201 202 129
f 129 202 130
f 202 203 130
f 130 203 131
f 203 204 131
f 131 204 132
f 204 205 132
f 132 205 133
f 205 206 133
f 133 206 134
f 206 207 134
f 134 207 135
f 207 208 135
f 135 208 136
f 208 209 136
f 136 209 137
f 209 210 137
f 137 210 138
f 210 211 138
f 138 211 139
f 211 212 139
f 139 212 140
f 212 213 140
f 140 213 141
f 213 214 141
f 141 214 142
f 214 215 142
f 142 215 143
f 215 216 143
f 143 216 144
f 216 217 144
f 144 217 145
f 217 146 145
f 217 218 146
f 218 219 146
f 146 219 147
f 219 220 147
f 147 220 148
f 220 221 148
f 148 221 149
f 221 222 149
f 149 222 150
f 222 223 150
f 150 223 151
f 223 224 151
f 151 224 152
f 224 225 152
f 152 225 153
f 225 226 153
f 153 226 154
f 226 227 154
f 154 227 155
f 227 228 155
f 155 228 156
f 228 229 156
f 156 229 157
f 229 230 157
f 157 230 158
f 230 231 158
f 158 231 159
f 231 232 159
f 159 232 160
f 232 233 160
f 160 233 161
f 233 234 161
f 161 234 162
f 234 235 162
f 162 235 163
f 235 236 163
f 163 236 164
f 236 237 164
f 164 237 165
f 237 238 165
f 165 238 166
f 238 239 166
f 166 239 167
f 239 240 167
f 167 240 168
f 240 241 168
f 168 241 169
f 241 242 169
f 169 242 170
f 242 243 170
f 170 243 171
f 243 244 171
f 171 244 172
f 244 245 172
f 172 245 173
f 245 246 173
f 173 246 174
f 246 247 174
f 174 247 175
f 247 248 175
f 175 248 176
f 248 249 176
f 176 249 177
f 249 250 177
f 177 250 178
f 250 251 178
f 178 251 179
f 251 252 179
f 179 252 180
f 252 253 180
f 180 253 181
f 253 254 181
f 181 254 182
f 254 255 182
f 182 255 183
f 255 256 183
f 183 256 184
f 256 257 184
f 184 257 185
f 257 258 185
f 185 258 186
f 258 259 186
f 186 259 187
f 259 260 187
f 187 260 188
f 260 261 188
f 188 261 189
f 261 262 189
f 189 262 190
f 262 263 190
f 190 263 191
f 263 264 191
f 191 264 192
f 264 265 192
f 192 265 193
f 265 266 193
f 193 266 194
f 266 267 194
f 194 267 195
f 267 268 195
f 195 268 196
f 268 269 196
f 196 269 197
f 269 270 197
f 197 270 198
f 270 271 198
f 198 271 199
f 271 272 199
f 199 272 200
f 272 273 200
f 200 273 201
f 273 274 201
f 201 274 202
f 274 275 202
f 202 275 203
f 275 276 203
f 203 276 204
f 276 277 204
f 204 277 205
f 277 278 205
f 205 278 206
f 278 279 206
f 206 279 207
f 279 280 207
f 207 280 208
f 280 281 208
f 208 281 209
f 281 282 209
f 209 282 210
f 282 283 210
f 210 283 211
f 283 284 211
f 211 284 212
f 284 285 212
f 212 285 213
f 285 286 213
f 213 286 214
f 286 287 214
f 214 287 215
f 287 288 215
f 215 288 216
f 288 289 216
f 216 289 217
f 289 218 217
f 289 290 218
f 290 291 218
f 218 291 219
f 291 292 219
f 219 292 220
f 292 293 220
f 220 293 221
f 293 294 221
f 221 294 222
f 294 295 222
f 222 295 223
f 295 296 223
f 223 296 224
f 296 297 224
f 224 297 225
f 297 298 225
f 225 298 226
f 298 299 226
f 226 299 227
f 299 300 227
f 227 300 228
f 300 301 228
f 228 301 229
f 301 302 229
f 229 302 230
f 302 303 230
f 230 303 231
f 303 304 231
f 231 304 232
f 304 305 232
f 232 305 233
f 305 306 233
f 233 306 234
f 306 307 234
f 234 307 235
f 307 308 235
f 235 308 236
f 308 309 236
f 236 309 237
f 309 310 237
f 237 310 238
f 310 311 238
f 238 311 239
f 311 312 239
f 239 312 240
f 312 313 240
f 240 313 241
f 313 314 241
f 241 314 242
f 314 315 242
f 242 315 243
f 315 316 243
f 243 316 244
f 316 317 244
f 244 317 245
f 317 318 245
f 245 318 246
f 318 319 246
f 246 319 247
f 319 320 247
f 247 320 248
f 320 321 248
f 248 321 249
f 321 322 249
f 249 322 250
f 322 323 250
f 250 323 251
f 323 324 251
f 251 324 252
f 324 325 252
f 252 325 253
f 325 326 253
f 253 326 254
f 326 327 254
f 254 327 255
f 327 328 255
f 255 328 256
f 328 329 256
f 256 329 257
f 329 330 257
f 257 330 258
f 330 331 258
f 258 331 259
f 331 332 259
f 259 332 260
f 332 333 260
f 260 333 261
f 333 334 261
f 261 334 262
f 334 335 262
f 262 335 263
f 335 336 263
f 263 336 264
f 336 337 264
f 264 337 265
f 337 338 265
f 265 338 266
f 338 339 266
f 266 339 267
f 339 340 267
f 267 340 268
f 340 341 268
f 268 341 269
f 341 342 269
f 269 342 270
f 342 343 270
f 270 343 271
f 343 344 271
f 271 344 272
f 344 345 272
f 272 345 273
f 345 346 273
f 273 346 274
f 346 347 274
f 274 347 275
f 347 348 275
f 275 348 276
f 348 349 276
f 276 349 277
f 349 350 277
f 277 350 278
f 350 351 278
f 278 351 279
f 351 352 279
f 279 352 280
f 352 353 280
f 280 353 281
f 353 354 281
f 281 354 282
f 354 355 282
f 282 355 283
f 355 356 283
f 283 356 284
f 356 357 284
f 284 357 285
f 357 358 285
f 285 358 286
f 358 359 286
f 286 359 287
f 359 360 287
f 287 360 288
f 360 361 288
f 288 361 289
f 361 290 289
f 361 362 290
f 362 363 290
f 290 363 291
f 363 364 291
f 291 364 292
f 364 365 292
f 292 365 293
f 365 366 293
f 293 366 294
f 366 367 294
f 294 367 295
f 367 368 295
f 295 368 296
f 368 369 296
f 296 369 297
f 369 370 297
f 297 370 298
f 370 371 298
f 298 371 299
f 371 372 299
f 299 372 300
f 372 373 300
f 300 373 301
f 373 374 301
f 301 374 302
f 374 375 302
f 302 375 303
f 375 376 303
f 303 376 304
f 376 377 304
f 304 377 305
f 377 378 305
f 305 378 306
f 378 379 306
f 306 379 307
f 379 380 307
f 307 380 308
f 380 381 308
f 308 381 309
f 381 382 309
f 309 382 310
f 382 383 310
f 310 383 311
f 383 384 311
f 311 384 312
f 384 385 312
f 312 385 313
f 385 386 313
f 313 386 314
f 386 387 314
f 314 387 315
f 387 388 315
f 315 388 316
f 388 389 316
f 316 389 317
f 389 390 317
f 317 390 318
f 390 391 318
f 318 391 319
f 391 392 319
f 319 392 320
f 392 393 320
f 320 393 321
f 393 394 321
f 321 394 322
f 394 395 322
f 322 395 323
f 395 396 323
f 323 396 324
f 396 397 324
f 324 397 325
f 397 398 325
f 325 398 326
f 398 399 326
f 326 399 327
f 399 400 327
f 327 400 328
f 400 401 328
f 328 401 329
f 401 402 329
f 329 402 330
f 402 403 330
f 330 403 331
f 403 404 331
f 331 404 332
f 404 405 332
f 332 405 333
f 405 406 333
f 333 406 334
f 406 407 334
f 334 407 335
f 407 408 335
f 335 408 336
f 408 409 336
f 336 409 337
f 409 410 337
f 337 410 338
f 410 411 338
f 338 411 339
f 411 412 339
f 339 412 340
f 412 413 340
f 340 413 341
f 413 414 341
f 341 414 342
f 414 415 342
f 342 415 343
f 415 416 343
f 343 416 344
f 416 417 344
f 344 417 345
f 417 418 345
f 345 418 346
f 418 419 346
f 346 419 347
f 419 420 347
f 347 420 348
f 420 421 348
f 348 421 349
f 421 422 349
f 349 422 350
f 422 423 350
f 350 423 351
f 423 424 351
f 351 424 352
f 424 425 352
f 352 425 353
f 425 426 353
f 353 426 354
f 426 427 354
f 354 427 355
f 427 428 355
f 355 428 356
f 428 429 356
f 356 429 357
f 429 430 357
f 357 430 358
f 430 431 358
f 358 431 359
f 431 432 359
f 359 432 360
f 432 433 360
f 360 433 361
f 433 362 361
f 433 434 362
f 434 435 362
f 362 435 363
f 435 436 363
f 363 436 364
f 436 437 364
f 364 437 365
f 437 438 365
f 365 438 366
f 438 439 366
f 366 439 367
f 439 440 367
f 367 440 368
f 440 441 368
f 368 441 369
f 441 442 369
f 369 442 370
f 442 443 370
f 370 443 371
f 443 444 371
f 371 444 372
f 444 445 372
f 372 445 373
f 445 446 373
f 373 446 374
f 446 447 374
f 374 447 375
f 447 448 375
f 375 448 376
f 448 449 376
f 376 449 377
f 449 450 377
f 377 450 378
f 450 451 378
f 378 451 379
f 451 452 379
f 379 452 380
f 452 453 380
f 380 453 381
f 453 454 381
f 381 454 382
f 454 455 382
f 382 455 383
f 455 456 383
f 383 456 384
f 456 457 384
f 384 457 385
f 457 458 385
f 385 458 386
f 458 459 386
f 386 459 387
f 459 460 387
f 387 460 388
f 460 461 388
f 388 461 389
f 461 462 389
f 389 462 390
f 462 463 390
f 390 463 391
f 463 464 391
f 391 464 392
f 464 465 392
f 392 465 393
f 465 466 393
f 393 466 394
f 466 467 394
f 394 467 395
f 467 468 395
f 395 468 396
f 468 469 396
f 396 469 397
f 469 470 397
f 397 470 398
f 470 471 398
f 398 471 399
f 471 472 399
f 399 472 400
f 472 473 400
f 400 473 401
f 473 474 401
f 401 474 402
f 474 475 402
f 402 475 403
f 475 476 403
f 403 476 404
f 476 477 404
f 404 477 405
f 477 478 405
f 405 478 406
f 478 479 406
f 406 479 407
f 479 480 407
f 407 480 408
f 480 481 408
f 408 481 409
f 481 482 409
f 409 482 410
f 482 483 410
f 410 483 411
f 483 484 411
f 411 484 412
f 484 485 412
f 412 485 413
f 485 486 413
f 413 486 414
f 486 487 414
f 414 487 415
f 487 488 415
f 415 488 416
f 488 489 416
f 416 489 417
f 489 490 417
f 417 490 418
f 490 491 418
f 418 491 419
f 491 492 419
f 419 492 420
f 492 493 420
f 420 493 421
f 493 494 421
f 421 494 422
f 494 495 422
f 422 495 423
f 495 496 423
f 423 496 424
f 496 497 424
f 424 497 425
f 497 498 425
f 425 498 426
f 498 499 426
f 426 499 427
f 499 500 427
f 427 500 428
f 500 501 428
f 428 501 429
f 501 502 429
f 429 502 430
f 502 503 430
f 430 503 431
f 503 504 431
f 431 504 432
f 504 505 432
f 432 505 433
f 505 434 433
f 506 507 508
f 507 509 508
f 508 509 510
f 509 511 510
f 510 511 512
f 511 513 512
f 512 513 514
f 513 515 514
f 514 515 516
f 515 517 516
f 516 517 518
f 517 519 518
f 518 519 520
f 519 521 520
f 520 521 522
f 521 523 522
f 522 523 524
f 523 525 524
f 524 525 526
f 525 527 526
f 526 527 528
f 527 529 528
f 528 529 530
f 529 531 530
f 530 531 532
f 531 533 532
f 532 533 534
f 533 535 534
f 534 535 536
f 535 537 536
f 536 537 538
f 537 539 538
f 538 539 540
f 539 541 540
f 540 541 542
f 541 543 542
f 542 543 544
f 543 545 544
f 544 545 546
f 545 547 546
f 546 547 548
f 547 549 548
f 548 549 550
f 549 551 550
f 550 551 552
f 551 553 552
f 552 553 554
f 553 555 554
f 554 555 556
f 555 557 556
f 556 557 558
f 557 559 558
f 558 559 560
f 559 561 560
f 560 561 562
f 561 563 562
f 562 563 564
f 563 565 564
f 564 565 566
f 565 567 566
f 566 567 568
f 567 569 568
f 568 569 570
f 569 571 570
f 570 571 572
f 571 573 572
f 572 573 574
f 573 575 574
f 574 575 576
f 575 577 576
f 576 577 578
f 577 579 578
f 578 579 580
f 579 581 580
f 580 581 582
f 581 583 582
f 582 583 584
f 583 585 584
f 584 585 586
f 585 587 586
f 586 587 588
f 587 589 588
f 588 589 590
f 589 591 590
f 590 591 592
f 591 593 592
f 592 593 594
f 593 595 594
f 594 595 596
f 595 597 596
f 596 597 598
f 597 599 598
f 598 599 600
f 599 601 600
f 600 601 602
f 601 603 602
f 602 603 604
f 603 605 604
f 604 605 606
f 605 607 606
f 606 607 608
f 607 609 608
f 608 609 610
f 609 611 610
f 610 611 612
f 611 613 612
f 612 613 614
f 613 615 614
f 614 615 616
f 615 617 616
f 616 617 618
f 617 619 618
f 618 619 620
f 619 621 620
f 620 621 622
f 621 623 622
f 622 623 624
f 623 625 624
f 624 625 626
f 625 627 626
f 626 627 628
f 627 629 628
f 628 629 630
f 629 631 630
f 630 631 632
f 631 633 632
f 632 633 634
f 633 635 634
f 634 635 636
f 635 637 636
f 636 637 638
f 637 639 638
f 638 639 640
f 639 641 640
f 640 641 642
f 641 643 642
f 642 643 644
f 643 645 644
f 644 645 646
f 645 647 646
f 646 647 648
f 647 649 648
f 648 649 506
f 649 507 506
f 650 651 652
f 651 653 652
f 652 653 654
f 653 655 654
f 654 655 656
f 655 657 656
f 656 657 658
f 657 659 658
f 658 659 660
f 659 661 660
f 660 661 662
f 661 663 662
f 662 663 664
f 663 665 664
f 664 665 666
f 665 667 666
f 666 667 668
f 667 669 668
f 668 669 670
f 669 671 670
f 670 671 672
f 671 673 672
f 672 673 674
f 673 675 674
f 674 675 676
f 675 677 676
f 676 677 678
f 677 679 678
f 678 679 680
f 679 681 680
f 680 681 682
f 681 683 682
f 682 683 684
f 683 685 684
f 684 685 686
f 685 687 686
f 686 687 688
f 687 689 688
f 688 689 690
f 689 691 690
f 690 691 692
f 691 693 692
f 692 693 694
f 693 695 694
f 694 695 696
f 695 697 696
f 696 697 698
f 697 699 698
f 698 699 700
f 699 701 700
f 700 701 702
f 701 703 702
f 702 703 704
f 703 705 704
f 704 705 706
f 705 707 706
f 706 707 708
f 707 709 708
f 708 709 710
f 709 711 710
f 710 711 712
f 711 713 712
f 712 713 714
f 713 715 714
f 714 715 716
f 715 717 716
f 716 717 718
f 717 719 718
f 718 719 720
f 719 721 720
f 720 721 722
f 721 723 722
f 722 723 724
f 723 725 724
f 724 725 726
f 725 727 726
f 726 727 728
f 727 729 728
f 728 729 730
f 729 731 730
f 730 731 732
f 731 733 732
f 732 733 734
f 733 735 734
f 734 735 736
f 735 737 736
f 736 737 738
f 737 739 738
f 738 739 740
f 739 741 740
f 740 741 742
f 741 743 742
f 742 743 744
f 743 745 744
f 744 745 746
f 745 747 746
f 746 747 748
f 747 749 748
f 748 749 750
f 749 751 750
f 750 751 752
f 751 753 752
f 752 753 754
f 753 755 754
f 754 755 756
f 755 757 756
f 756 757 758
f 757 759 758
f 758 759 760
f 759 761 760
f 760 761 762
f 761 763 762
f 762 763 764
f 763 765 764
f 764 765 766
f 765 767 766
f 766 767 768
f 767 769 768
f 768 769 770
f 769 771 770
f 770 771 772
f 771 773 772
f 772 773 774
f 773 775 774
f 774 775 776
f 775 777 776
f 776 777 778
f 777 779 778
f 778 779 780
f 779 781 780
f 780 781 782
f 781 783 782
f 782 783 784
f 783 785 784
f 784 785 786
f 785 787 786
f 786 787 788
f 787 789 788
f 788 789 790
f 789 791 790
f 790 791 792
f 791 793 792
f 792 793 650
f 793 651 650
f 523 668 525
f 668 670 525
f 525 670 527
f 670 672 527
f 527 672 529
f 672 674 529
f 529 674 531
f 674 676 531
f 531 676 533
f 676 678 533
f 533 678 535
f 678 680 535
f 535 680 537
f 680 682 537
f 537 682 539
f 682 684 539
f 539 684 541
f 684 686 541
f 541 686 543
f 686 688 543
f 543 688 545
f 688 690 545
f 545 690 547
f 690 692 547
f 547 692 549
f 692 694 549
f 549 694 551
f 694 696 551
f 551 696 553
f 696 698 553
f 553 698 555
f 698 700 555
f 555 700 557
f 700 702 557
f 557 702 559
f 702 704 559
f 559 704 561
f 704 706 561
f 561 706 563
f 706 708 563
f 563 708 565
f 708 710 565
f 565 710 567
f 710 712 567
f 567 712 569
f 712 714 569
f 569 714 571
f 714 716 571
f 571 716 573
f 716 718 573
f 573 718 575
f 718 720 575
f 575 720 577
f 720 722 577
f 577 722 579
f 722 724 579
f 579 724 581
f 724 726 581
f 581 726 583
f 726 728 583
f 583 728 585
f 728 730 585
f 585 730 587
f 730 732 587
f 587 732 589
f 732 734 589
f 589 734 591
f 734 736 591
f 591 736 593
f 736 738 593
f 593 738 595
f 738 740 595
f 595 740 597
f 740 742 597
f 597 742 599
f 742 744 599
f 599 744 601
f 744 746 601
f 601 746 603
f 746 748 603
f 603 748 605
f 748 750 605
f 605 750 607
f 750 752 607
f 607 752 609
f 752 754 609
f 609 754 611
f 754 756 611
f 611 756 613
f 756 758 613
f 613 758 615
f 758 760 615
f 615 760 617
f 760 762 617
f 617 762 619
f 762 764 619
f 619 764 621
f 764 766 621
f 621 766 623
f 766 768 623
f 623 768 625
f 768 770 625
f 625 770 627
f 770 772 627
f 627 772 629
f 772 774 629
f 629 774 631
f 774 776 631
f 631 776 633
f 776 778 633
f 633 778 635
f 778 780 635
f 635 780 637
f 780 782 637
f 637 782 639
f 782 784 639
f 639 784 641
f 784 786 641
f 641 786 643
f 786 788 643
f 643 788 645
f 788 790 645
f 645 790 647
f 790 792 647
f 647 792 649
f 792 650 649
f 649 650 507
f 650 652 507
f 507 652 509
f 652 654 509
f 509 654 511
f 654 656 511
f 511 656 513
f 656 658 513
f 513 658 515
f 658 660 515
f 515 660 517
f 660 662 517
f 517 662 519
f 662 664 519
f 519 664 521
f 664 666 521
f 521 666 523
f 666 668 523
f 673 794 675
f 794 795 675
f 675 795 677
f 795 796 677
f 677 796 679
f 796 797 679
f 679 797 681
f 797 798 681
f 681 798 683
f 798 799 683
f 683 799 685
f 799 800 685
f 685 800 687
f 800 801 687
f 687 801 689
f 801 802 689
f 689 802 691
f 802 803 691
f 691 803 693
f 803 804 693
f 693 804 695
f 804 805 695
f 695 805 697
f 805 806 697
f 697 806 699
f 806 807 699
f 699 807 701
f 807 808 701
f 701 808 703
f 808 809 703
f 703 809 705
f 809 810 705
f 705 810 707
f 810 811 707
f 707 811 709
f 811 812 709
f 709 812 711
f 812 813 711
f 711 813 713
f 813 814 713
f 713 814 715
f 814 815 715
f 715 815 717
f 815 816 717
f 717 816 719
f 816 817 719
f 719 817 721
f 817 818 721
f 721 818 723
f 818 819 723
f 723 819 725
f 819 820 725
f 725 820 727
f 820 821 727
f 727 821 729
f 821 822 729
f 729 822 731
f 822 823 731
f 731 823 733
f 823 824 733
f 733 824 735
f 824 825 735
f 735 825 737
f 825 826 737
f 737 826 739
f 826 827 739
f 739 827 741
f 827 828 741
f 741 828 743
f 828 829 743
f 743 829 745
f 829 830 745
f 745 830 747
f 830 831 747
f 747 831 749
f 831 832 749
f 749 832 751
f 832 833 751
f 751 833 753
f 833 834 753
f 753 834 755
f 834 835 755
f 755 835 757
f 835 836 757
f 757 836 759
f 836 837 759
f 759 837 761
f 837 838 761
f 761 838 763
f 838 839 763
f 763 839 765
f 839 840 765
f 765 840 767
f 840 841 767
f 767 841 769
f 841 842 769
f 769 842 771
f 842 843 771
f 771 843 773
f 843 844 773
f 773 844 775
f 844 845 775
f 775 845 777
f 845 846 777
f 777 846 779
f 846 847 779
f 779 847 781
f 847 848 781
f 781 848 783
f 848 849 783
f 783 849 785
f 849 850 785
f 785 850 787
f 850 851 787
f 787 851 789
f 851 852 789
f 789 852 791
f 852 853 791
f 791 853 793
f 853 854 793
f 793 854 651
f 854 855 651
f 651 855 653
f 855 856 653
f 653 856 655
f 856 857 655
f 655 857 657
f 857 858 657
f 657 858 659
f 858 859 659
f 659 859 661
f 859 860 661
f 661 860 663
f 860 861 663
f 663 861 665
f 861 862 665
f 665 862 667
f 862 863 667
f 667 863 669
f 863 864 669
f 669 864 671
f 864 865 671
f 671 865 673
f 865 794 673
f 854 866 855
f 866 867 855
f 855 867 856
f 867 868 856
f 856 868 857
f 868 869 857
f 857 869 858
f 869 870 858
f 858 870 859
f 870 871 859
f 859 871 860
f 871 872 860
f 860 872 861
f 872 873 861
f 861 873 862
f 873 874 862
f 862 874 863
f 874 875 863
f 863 875 864
f 875 876 864
f 864 876 865
f 876 877 865
f 865 877 794
f 877 878 794
f 794 878 795
f 878 879 795
f 795 879 796
f 879 880 796
f 796 880 797
f 880 881 797
f 797 881 798
f 881 882 798
f 798 882 799
f 882 883 799
f 799 883 800
f 883 884 800
f 800 884 801
f 884 885 801
f 801 885 802
f 885 886 802
f 802 886 803
f 886 887 803
f 803 887 804
f 887 888 804
f 804 888 805
f 888 889 805
f 805 889 806
f 889 890 806
f 806 890 807
f 890 891 807
f 807 891 808
f 891 892 808
f 808 892 809
f 892 893 809
f 809 893 810
f 893 894 810
f 810 894 811
f 894 895 811
f 811 895 812
f 895 896 812
f 812 896 813
f 896 897 813
f 813 897 814
f 897 898 814
f 814 898 815
f 898 899 815
f 815 899 816
f 899 900 816
f 816 900 817
f 900 901 817
f 817 901 818
f 901 902 818
f 818 902 819
f 902 903 819
f 819 903 820
f 903 904 820
f 820 904 821
f 904 905 821
f 821 905 822
f 905 906 822
f 822 906 823
f 906 907 823
f 823 907 824
f 907 908 824
f 824 908 825
f 908 909 825
f 825 909 826
f 909 910 826
f 826 910 827
f 910 911 827
f 827 911 828
f 911 912 828
f 828 912 829
f 912 913 829
f 829 913 830
f 913 914 830
f 830 914 831
f 914 915 831
f 831 915 832
f 915 916 832
f 832 916 833
f 916 917 833
f 833 917 834
f 917 918 834
f 834 918 835
f 918 919 835
f 835 919 836
f 919 920 836
f 836 920 837
f 920 921 837
f 837 921 838
f 921 922 838
f 838 922 839
f 922 923 839
f 839 923 840
f 923 924 840
f 840 924 841
f 924 925 841
f 841 925 842
f 925 926 842
f 842 926 843
f 926 927 843
f 843 927 844
f 927 928 844
f 844 928 845
f 928 929 845
f 845 929 846
f 929 930 846
f 846 930 847
f 930 931 847
f 847 931 848
f 931 932 848
f 848 932 849
f 932 933 849
f 849 933 850
f 933 934 850
f 850 934 851
f 934 935 851
f 851 935 852
f 935 936 852
f 852 936 853
f 936 937 853
f 853 937 854
f 937 866 854
f 482 924 483
f 924 923 483
f 483 923 484
f 923 922 484
f 484 922 485
f 922 921 485
f 485 921 486
f 921 920 486
f 486 920 487
f 920 919 487
f 487 919 488
f 919 918 488
f 488 918 489
f 918 917 489
f 489 917 490
f 917 916 490
f 490 916 491
f 916 915 491
f 491 915 492
f 915 914 492
f 492 914 493
f 914 913 493
f 493 913 494
f 913 912 494
f 494 912 495
f 912 911 495
f 495 911 496
f 911 910 496
f 496 910 497
f 910 909 497
f 497 909 498
f 909 908 498
f 498 908 499
f 908 907 499
f 499 907 500
f 907 906 500
f 500 906 501
f 906 905 501
f 501 905 502
f 905 904 502
f 502 904 503
f 904 903 503
f 503 903 504
f 903 902 504
f 504 902 505
f 902 901 505
f 505 901 434
f 901 900 434
f 434 900 435
f 900 899 435
f 435 899 436
f 899 898 436
f 436 898 437
f 898 897 437
f 437 897 438
f 897 896 438
f 438 896 439
f 896 895 439
f 439 895 440
f 895 894 440
f 440 894 441
f 894 893 441
f 441 893 442
f 893 892 442
f 442 892 443
f 892 891 443
f 443 891 444
f 891 890 444
f 444 890 445
f 890 889 445
f 445 889 446
f 889 888 446
f 446 888 447
f 888 887 447
f 447 887 448
f 887 886 448
f 448 886 449
f 886 885 449
f 449 885 450
f 885 884 450
f 450 884 451
f 884 883 451
f 451 883 452
f 883 882 452
f 452 882 453
f 882 881 453
f 453 881 454
f 881 880 454
f 454 880 455
f 880 879 455
f 455 879 456
f 879 878 456
f 456 878 457
f 878 877 457
f 457 877 458
f 877 876 458
f 458 876 459
f 876 875 459
f 459 875 460
f 875 874 460
f 460 874 461
f 874 873 461
f 461 873 462
f 873 872 462
f 462 872 463
f 872 871 463
f 463 871 464
f 871 870 464
f 464 870 465
f 870 869 465
f 465 869 466
f 869 868 466
f 466 868 467
f 868 867 467
f 467 867 468
f 867 866 468
f 468 866 469
f 866 937 469
f 469 937 470
f 937 936 470
f 470 936 471
f 936 935 471
f 471 935 472
f 935 934 472
f 472 934 473
f 934 933 473
f 473 933 474
f 933 932 474
f 474 932 475
f 932 931 475
f 475 931 476
f 931 930 476
f 476 930 477
f 930 929 477
f 477 929 478
f 929 928 478
f 478 928 479
f 928 927 479
f 479 927 480
f 927 926 480
f 480 926 481
f 926 925 481
f 481 925 482
f 925 924 482
f 646 648 938
f 648 506 938
f 938 506 508
f 640 642 938
f 642 644 938
f 938 644 646
f 634 636 938
f 636 638 938
f 938 638 640
f 628 630 938
f 630 632 938
f 938 632 634
f 622 624 938
f 624 626 938
f 938 626 628
f 616 618 938
f 618 620 938
f 938 620 622
f 610 612 938
f 612 614 938
f 938 614 616
f 604 606 938
f 606 608 938
f 938 608 610
f 598 600 938
f 600 602 938
f 938 602 604
f 592 594 938
f 594 596 938
f 938 596 598
f 586 588 938
f 588 590 938
f 938 590 592
f 580 582 938
f 582 584 938
f 938 584 586
f 574 576 938
f 576 578 938
f 938 578 580
f 568 570 938
f 570 572 938
f 938 572 574
f 562 564 938
f 564 566 938
f 938 566 568
f 556 558 938
f 558 560 938
f 938 560 562
f 550 552 938
f 552 554 938
f 938 554 556
f 544 546 938
f 546 548 938
f 938 548 550
f 538 540 938
f 540 542 938
f 938 542 544
f 532 534 938
f 534 536 938
f 938 536 538
f 526 528 938
f 528 530 938
f 938 530 532
f 520 522 938
f 522 524 938
f 938 524 526
f 514 516 938
f 516 518 938
f 938 518 520
f 508 510 938
f 510 512 938
f 938 512 514
